<svg xmlns="http://www.w3.org/2000/svg" width="638.751" height="35.029" viewBox="0 0 638.751 35.029"><g transform="translate(0 1)"><path d="M12.739,0h.92a12.554,12.554,0,0,1,8.593,3.628c-.833.851-1.684,1.666-2.5,2.517A9.389,9.389,0,0,0,3.99,11.8a9.663,9.663,0,0,0,2.1,7.464A9.291,9.291,0,0,0,12.86,22.6,9.012,9.012,0,0,0,19.6,20.292,7.352,7.352,0,0,0,21.835,15.5c-2.882,0-5.763.017-8.645,0V11.925H25.324c.625,3.836-.278,8.159-3.194,10.9a11.864,11.864,0,0,1-7.377,3.316,13.549,13.549,0,0,1-7.759-1.528A13.36,13.36,0,0,1,.8,17.55,12.8,12.8,0,0,1,.709,8.888,13.216,13.216,0,0,1,5.483,2.552,13.628,13.628,0,0,1,12.739,0Z" transform="translate(0.003)" fill="rgba(139,152,162,0.7)"/><path d="M474.4,5.2h3.715V29.988c-1.232,0-2.482.017-3.715-.017C474.417,21.726,474.4,13.463,474.4,5.2Z" transform="translate(-392.049 -4.297)" fill="rgba(139,152,162,0.7)"/><path d="M161.091,53.967a8.723,8.723,0,0,1,6.666,1.423,8.153,8.153,0,0,1,3.281,5.208,8.394,8.394,0,0,1-8.818,10.068,8.448,8.448,0,0,1-6.319-3.385,8.677,8.677,0,0,1-1.146-7.881,8.238,8.238,0,0,1,6.336-5.433m.521,3.3a4.667,4.667,0,0,0-2.43,1.545,5.506,5.506,0,0,0,.278,7.169,4.622,4.622,0,0,0,4.131,1.285,4.675,4.675,0,0,0,3.229-2.378,5.49,5.49,0,0,0-.937-6.527A4.684,4.684,0,0,0,161.612,57.265Z" transform="translate(-127.501 -44.472)" fill="rgba(139,152,162,0.7)"/><path d="M267.117,53.961a8.44,8.44,0,0,1,8.263,13.592,8.586,8.586,0,0,1-13.453-.278,8.761,8.761,0,0,1-1.094-8.054,8.245,8.245,0,0,1,6.284-5.26m.521,3.3a4.747,4.747,0,0,0-2.43,1.528,5.514,5.514,0,0,0,.191,7.1,4.645,4.645,0,0,0,4.236,1.371,4.762,4.762,0,0,0,3.229-2.378,5.52,5.52,0,0,0-.972-6.544A4.653,4.653,0,0,0,267.638,57.259Z" transform="translate(-215.127 -44.466)" fill="rgba(139,152,162,0.7)"/><path d="M370.03,54.965a7.1,7.1,0,0,1,6.8-.521,6.485,6.485,0,0,1,1.771,1.3c.017-.469,0-.955.017-1.441,1.163.017,2.326,0,3.506.017v15.31a9.149,9.149,0,0,1-2.274,6.44,8.275,8.275,0,0,1-7.134,2.048,8.072,8.072,0,0,1-6.076-4.843c1.042-.5,2.135-.9,3.211-1.371a4.774,4.774,0,0,0,3.385,2.916,4.5,4.5,0,0,0,4.34-1.389c1.076-1.319,1.076-3.125,1.024-4.739a6.163,6.163,0,0,1-2.83,1.736,7.629,7.629,0,0,1-6.926-1.788,8.545,8.545,0,0,1,1.18-13.679m3.593,2.222a4.567,4.567,0,0,0-2.725,1.58,5.538,5.538,0,0,0,.017,6.961,4.542,4.542,0,0,0,3.906,1.6,4.411,4.411,0,0,0,3.316-2.2,5.859,5.859,0,0,0-.59-6.562A4.272,4.272,0,0,0,373.623,57.187Z" transform="translate(-302.434 -44.463)" fill="rgba(139,152,162,0.7)"/><path d="M508.97,55.8a7.834,7.834,0,0,1,7.968-1.58c2.534.955,4.149,3.368,4.965,5.85-3.767,1.562-7.516,3.107-11.283,4.67a4.476,4.476,0,0,0,2.4,2.257,4.863,4.863,0,0,0,4.583-.66,7.4,7.4,0,0,0,1.285-1.371c.955.642,1.909,1.267,2.864,1.909a8.5,8.5,0,0,1-13.418.851A8.9,8.9,0,0,1,508.97,55.8m1.857,3.211a4.956,4.956,0,0,0-.816,2.916q3.776-1.562,7.551-3.142a3.123,3.123,0,0,0-2.448-1.719A4.436,4.436,0,0,0,510.827,59.01Z" transform="translate(-418.443 -44.411)" fill="rgba(139,152,162,0.7)"/></g><g transform="translate(528 1)"><path d="M.06,27.679H3.922v8.58h8.145v-8.58h3.867V48.74H12.066V39.98H3.922v8.76H.06Zm28.107,14.2a3.2,3.2,0,0,1-6.4,0V32.813H18.107V41.88a6.861,6.861,0,0,0,13.721,0V32.813H28.167V41.88m13.885-8.961a5.628,5.628,0,0,0-4.309,1.729V27.679H34.069V40.594c0,4.834,3.5,8.145,7.422,8.145a8.043,8.043,0,0,0,8.191-7.91,7.773,7.773,0,0,0-7.629-7.911Zm.091,12.422a4.513,4.513,0,0,1,0-9.023,4.542,4.542,0,0,1,0,9.023Zm13.709-11.5a2.267,2.267,0,0,1,2.578-2.433,5.5,5.5,0,0,1,3.457,1.817l2.4-2.812a7.588,7.588,0,0,0-5.624-2.725c-3.985,0-6.856,2.315-6.856,6.153,0,7.119,8.76,4.862,8.76,8.848a2.521,2.521,0,0,1-2.577,2.314c-2.169,0-2.872-1.055-3.868-2.168l-2.667,2.754a7.879,7.879,0,0,0,6.329,3.136c3.779,0,6.826-2.344,6.826-6.007,0-7.91-8.76-5.449-8.76-8.876m18.433-1.132c-3.926,0-7.422,3.309-7.422,8.144V53.805h3.674v-7a5.631,5.631,0,0,0,4.31,1.729,7.773,7.773,0,0,0,7.629-7.91,8.043,8.043,0,0,0-8.191-7.91Zm.653,12.422a4.514,4.514,0,0,1,0-9.024,4.543,4.543,0,0,1,0,9.024Zm34.583.206c-2.167,0-2.782-.937-2.782-2.373V36.61h3.369V33.388h-3.369V29.139l-3.72,1.67v12.95c0,3.311,2.284,4.981,5.418,4.981a7.523,7.523,0,0,0,1.466-.117l.908-3.34c-.41.028-.879.058-1.29.058" transform="translate(-0.06 -21.692)" fill="rgba(139,152,162,0.7)"/><path d="M361.361,15.107a8.08,8.08,0,0,0-2.934-2.915,7.878,7.878,0,0,0-2.967-1.028V7.315a2.843,2.843,0,0,0,1.753-2.662,2.923,2.923,0,1,0-5.847,0,2.809,2.809,0,0,0,1.714,2.662v3.852a8.472,8.472,0,0,0-2.582.809c-1.674-1.271-7.162-5.441-10.372-7.877a3.184,3.184,0,0,0,.135-.856,3.269,3.269,0,1,0-1.576,2.769l.678.514,9.31,6.708a7.8,7.8,0,0,0-1.317,1.543,7.2,7.2,0,0,0-1.2,3.88v.294a8.133,8.133,0,0,0,.509,2.8,7.362,7.362,0,0,0,1.206,2.1l-3.09,3.1a2.5,2.5,0,1,0,1.531,1.6l3.194-3.194a8.208,8.208,0,0,0,1.419.777,8.3,8.3,0,0,0,3.32.7h.222a7.952,7.952,0,0,0,6.76-3.754,7.336,7.336,0,0,0,1.153-3.952v-.072a7.748,7.748,0,0,0-1.021-3.939Zm-3.9,6.7a4.062,4.062,0,0,1-2.99,1.557h-.186a4.041,4.041,0,0,1-1.889-.5,4.365,4.365,0,0,1-1.654-1.507,3.515,3.515,0,0,1-.689-2.051v-.222a4.2,4.2,0,0,1,.485-2.043,4.424,4.424,0,0,1,1.54-1.685,3.77,3.77,0,0,1,2.134-.644h.073a4.324,4.324,0,0,1,2.007.462,4.251,4.251,0,0,1,1.576,1.434,4.56,4.56,0,0,1,.707,2.014c.012.151.018.306.018.454a3.985,3.985,0,0,1-1.132,2.732Z" transform="translate(-261.589 -0.002)" fill="rgba(139,152,162,0.7)"/></g><g transform="translate(321)"><path d="M405.367,44.872V41.986h-3.583V37.5l-.12.037-3.366,1.03-.066.02v3.4h-5.313V40.091a3.008,3.008,0,0,1,.586-2.007,2.066,2.066,0,0,1,1.642-.671,3.825,3.825,0,0,1,1.557.354l.132.059V34.79l-.062-.023a6.071,6.071,0,0,0-1.99-.266,5.834,5.834,0,0,0-2.823.678,4.825,4.825,0,0,0-1.937,1.915,5.709,5.709,0,0,0-.686,2.81v2.081h-2.5v2.886h2.5V57.028h3.582V44.872h5.313v7.723c0,3.184,1.5,4.794,4.461,4.794a7.316,7.316,0,0,0,1.521-.169,4.2,4.2,0,0,0,1.107-.351l.047-.028V53.929l-.146.1a2.507,2.507,0,0,1-.72.311,2.737,2.737,0,0,1-.707.12,1.919,1.919,0,0,1-1.524-.555,2.991,2.991,0,0,1-.486-1.928v-7.1Zm-26.526,9.586a3.8,3.8,0,0,1-3.047-1.281,5.437,5.437,0,0,1-1.095-3.616,5.652,5.652,0,0,1,1.1-3.712,3.739,3.739,0,0,1,3.018-1.3,3.683,3.683,0,0,1,2.939,1.243,5.541,5.541,0,0,1,1.073,3.682,5.908,5.908,0,0,1-1.01,3.728,3.593,3.593,0,0,1-2.973,1.256M379,41.618a7.856,7.856,0,0,0-5.855,2.161,8.1,8.1,0,0,0-2.115,5.9A7.671,7.671,0,0,0,373.1,55.3a7.492,7.492,0,0,0,5.543,2.08,7.641,7.641,0,0,0,5.739-2.19,8.076,8.076,0,0,0,2.115-5.838,7.881,7.881,0,0,0-1.984-5.669A7.309,7.309,0,0,0,379,41.62m-13.746,0a6.475,6.475,0,0,0-4.149,1.282,4.092,4.092,0,0,0-1.617,3.339,4.668,4.668,0,0,0,.349,1.864,3.747,3.747,0,0,0,1.07,1.4,9.32,9.32,0,0,0,2.175,1.218,16.221,16.221,0,0,1,1.811.843,2.517,2.517,0,0,1,.8.655,1.47,1.47,0,0,1,.221.854c0,1.01-.756,1.5-2.314,1.5a6.362,6.362,0,0,1-1.958-.358,7.356,7.356,0,0,1-2.005-1.017l-.149-.106v3.449l.054.026a8.873,8.873,0,0,0,1.9.586,10.186,10.186,0,0,0,2.028.233,6.875,6.875,0,0,0,4.381-1.29,4.172,4.172,0,0,0,1.631-3.417A3.929,3.929,0,0,0,368.6,50.1a7.522,7.522,0,0,0-2.981-1.9,7.689,7.689,0,0,1-2.124-1.1,1.546,1.546,0,0,1-.429-1.159,1.291,1.291,0,0,1,.544-1.072,2.443,2.443,0,0,1,1.524-.43,6.24,6.24,0,0,1,1.815.279,5.832,5.832,0,0,1,1.585.735l.146.1V42.28l-.056-.024a7.814,7.814,0,0,0-1.609-.449,9.824,9.824,0,0,0-1.764-.183m-15.1,12.834a3.8,3.8,0,0,1-3.047-1.281,5.436,5.436,0,0,1-1.094-3.612,5.65,5.65,0,0,1,1.095-3.712,3.737,3.737,0,0,1,3.018-1.3,3.683,3.683,0,0,1,2.939,1.243,5.54,5.54,0,0,1,1.073,3.682,5.907,5.907,0,0,1-1.01,3.728,3.592,3.592,0,0,1-2.973,1.256m.16-12.839a7.854,7.854,0,0,0-5.855,2.161,8.1,8.1,0,0,0-2.116,5.9,7.67,7.67,0,0,0,2.066,5.63,7.491,7.491,0,0,0,5.543,2.08,7.642,7.642,0,0,0,5.739-2.19A8.077,8.077,0,0,0,357.8,49.36a7.88,7.88,0,0,0-1.985-5.669,7.309,7.309,0,0,0-5.507-2.067M336.9,44.592V41.986h-3.538V57.028H336.9v-7.7a5.363,5.363,0,0,1,.882-3.195,2.7,2.7,0,0,1,2.29-1.208,4.154,4.154,0,0,1,1.064.155,2.691,2.691,0,0,1,.825.334l.149.108V41.96l-.057-.025a3.664,3.664,0,0,0-1.385-.21,3.626,3.626,0,0,0-2.366.848,4.792,4.792,0,0,0-1.361,2.019Zm-9.874-2.968a8.734,8.734,0,0,0-4.3,1.034,6.969,6.969,0,0,0-2.838,2.918,9.294,9.294,0,0,0-.975,4.323,7.976,7.976,0,0,0,.948,3.875,6.657,6.657,0,0,0,2.647,2.677,7.882,7.882,0,0,0,3.868.94,8.47,8.47,0,0,0,4.271-1l.047-.026V53.123l-.149.109a6.651,6.651,0,0,1-1.731.9,5.232,5.232,0,0,1-1.7.329,4.357,4.357,0,0,1-3.312-1.291,5.022,5.022,0,0,1-1.222-3.577,5.209,5.209,0,0,1,1.274-3.672,4.334,4.334,0,0,1,3.318-1.37,5.683,5.683,0,0,1,3.368,1.172l.148.108V42.416l-.048-.027a5.838,5.838,0,0,0-1.637-.554,9.777,9.777,0,0,0-1.978-.212m-10.552.363h-3.538V57.028h3.538V41.986Zm-1.733-6.408a2.132,2.132,0,0,0-1.507.591,1.95,1.95,0,0,0-.631,1.476,1.9,1.9,0,0,0,.621,1.447,2.155,2.155,0,0,0,1.514.576,2.182,2.182,0,0,0,1.521-.575,1.888,1.888,0,0,0,.633-1.448,1.987,1.987,0,0,0-.616-1.459,2.111,2.111,0,0,0-1.538-.607m-8.828,5.3V57.029h3.611V36.039h-5l-6.353,15.59-6.165-15.59h-5.2V57.027H290.2V40.874h.116l6.509,16.153h2.563L305.8,40.874h.117Z" transform="translate(-241.286 -29.025)" fill="rgba(139,152,162,0.7)"/><path d="M16.645,16.645H0V0H16.645Z" fill="rgba(139,152,162,0.7)"/><path d="M132.433,16.645H115.788V0h16.645Z" transform="translate(-97.41)" fill="rgba(139,152,162,0.7)"/><path d="M16.645,132.473H0V115.828H16.645Z" transform="translate(0 -97.444)" fill="rgba(139,152,162,0.7)"/><path d="M132.433,132.473H115.788V115.828h16.645Z" transform="translate(-97.41 -97.444)" fill="rgba(139,152,162,0.7)"/></g><g transform="translate(146 9)"><path d="M210.258,386.036v1.831a.188.188,0,0,1-.2.2H202.2v3.741h6.487a.188.188,0,0,1,.2.2v1.831a.188.188,0,0,1-.2.2H202.2v5.532a.188.188,0,0,1-.2.2h-1.97a.188.188,0,0,1-.2-.2V386.036a.188.188,0,0,1,.2-.2h10.03A.188.188,0,0,1,210.258,386.036Z" transform="translate(-199.83 -385.578)" fill="rgba(139,152,162,0.7)"/><path d="M330.735,399.767h-2.169a.217.217,0,0,1-.229-.179c-.289-1.144-.637-2.348-1.035-3.562h-6.657c-.4,1.214-.746,2.418-1.025,3.562a.217.217,0,0,1-.229.179H317.3c-.139,0-.219-.08-.179-.219a92.667,92.667,0,0,1,5.094-13.452.381.381,0,0,1,.388-.259h2.826a.381.381,0,0,1,.388.259,91.1,91.1,0,0,1,5.094,13.452C330.954,399.687,330.874,399.767,330.735,399.767Zm-4.169-5.89c-.726-2.01-1.532-4.02-2.358-5.851h-.467c-.826,1.831-1.642,3.841-2.368,5.851Z" transform="translate(-304.269 -385.578)" fill="rgba(139,152,162,0.7)"/><path d="M474.014,390.818c0-4.318,2.846-7.343,6.905-7.343h.3a6.2,6.2,0,0,1,5.562,3.164.176.176,0,0,1-.07.279l-1.751.866a.243.243,0,0,1-.348-.09,3.7,3.7,0,0,0-3.472-1.95h-.3c-2.557,0-4.318,2.03-4.318,4.975s1.731,4.935,4.318,4.935h.3a4.085,4.085,0,0,0,3.393-1.433.253.253,0,0,1,.328-.07l1.8.876a.166.166,0,0,1,.1.139.262.262,0,0,1-.06.149,6.5,6.5,0,0,1-5.522,2.607h-.3C476.75,397.922,474.014,395.087,474.014,390.818Z" transform="translate(-443.986 -383.475)" fill="rgba(139,152,162,0.7)"/><path d="M647.117,397.737v1.831a.188.188,0,0,1-.2.2H636.471a.188.188,0,0,1-.2-.2V386.036a.188.188,0,0,1,.2-.2h10.268a.188.188,0,0,1,.2.2v1.831a.188.188,0,0,1-.2.2h-8.1v3.622h6.587a.188.188,0,0,1,.2.2V393.7a.188.188,0,0,1-.2.2H638.64v3.642h8.278A.188.188,0,0,1,647.117,397.737Z" transform="translate(-588.474 -385.578)" fill="rgba(139,152,162,0.7)"/><path d="M800.21,395.946c0,2.438-1.871,3.821-5.174,3.821H788.19a.188.188,0,0,1-.2-.2V386.036a.188.188,0,0,1,.2-.2h6.239c3.214,0,4.965,1.274,4.965,3.6a2.913,2.913,0,0,1-2.348,3C799.254,392.911,800.21,394.235,800.21,395.946Zm-5.831-7.94h-4.02v3.741h4.02c1.8,0,2.627-.587,2.627-1.871S796.18,388.006,794.379,388.006Zm3.4,7.731c0-1.293-.856-1.881-2.736-1.881h-4.687V397.6h4.687C796.956,397.6,797.782,397.041,797.782,395.737Z" transform="translate(-723.577 -385.578)" fill="rgba(139,152,162,0.7)"/><path d="M937.62,390.7a6.825,6.825,0,0,1,7.164-7.224h.3a7.224,7.224,0,0,1,0,14.447h-.3A6.825,6.825,0,0,1,937.62,390.7Zm7.462,4.955c2.856,0,4.657-1.96,4.657-4.955s-1.8-4.955-4.657-4.955h-.3c-2.856,0-4.656,1.96-4.656,4.955s1.8,4.955,4.656,4.955Z" transform="translate(-856.818 -383.475)" fill="rgba(139,152,162,0.7)"/><path d="M1108.054,390.7a6.825,6.825,0,0,1,7.164-7.224h.3a7.224,7.224,0,0,1,0,14.447h-.3A6.825,6.825,0,0,1,1108.054,390.7Zm7.462,4.955c2.856,0,4.656-1.96,4.656-4.955s-1.8-4.955-4.656-4.955h-.3c-2.856,0-4.657,1.96-4.657,4.955s1.8,4.955,4.657,4.955Z" transform="translate(-1008.587 -383.475)" fill="rgba(139,152,162,0.7)"/><path d="M1299.3,399.767h-2.567a.378.378,0,0,1-.348-.169,54.4,54.4,0,0,0-5.741-5.781h-1.154v5.751a.188.188,0,0,1-.2.2h-1.97a.188.188,0,0,1-.2-.2V386.036a.188.188,0,0,1,.2-.2h1.97a.188.188,0,0,1,.2.2v5.492h1.174a42.747,42.747,0,0,0,5.194-5.542.319.319,0,0,1,.3-.149h2.428c.119,0,.179.06.179.139a.247.247,0,0,1-.07.149,49.575,49.575,0,0,1-6.219,6.468,59.963,59.963,0,0,1,6.935,6.925C1299.516,399.648,1299.456,399.767,1299.3,399.767Z" transform="translate(-1168.04 -385.578)" fill="rgba(139,152,162,0.7)"/></g></svg>