<svg id="Grupo_46" data-name="Grupo 46" xmlns="http://www.w3.org/2000/svg" width="103.459" height="33.771" viewBox="0 0 103.459 33.771">
  <path id="Caminho_103" data-name="Caminho 103" d="M12.739,0h.92a12.554,12.554,0,0,1,8.593,3.628c-.833.851-1.684,1.666-2.5,2.517A9.389,9.389,0,0,0,3.99,11.8a9.663,9.663,0,0,0,2.1,7.464A9.291,9.291,0,0,0,12.86,22.6,9.012,9.012,0,0,0,19.6,20.292,7.352,7.352,0,0,0,21.835,15.5c-2.882,0-5.763.017-8.645,0V11.925H25.324c.625,3.836-.278,8.159-3.194,10.9a11.864,11.864,0,0,1-7.377,3.316,13.549,13.549,0,0,1-7.759-1.528A13.36,13.36,0,0,1,.8,17.55,12.8,12.8,0,0,1,.709,8.888,13.216,13.216,0,0,1,5.483,2.552,13.628,13.628,0,0,1,12.739,0Z" transform="translate(0.003)" fill="rgba(103,123,140,0.7)"/>
  <path id="Caminho_104" data-name="Caminho 104" d="M474.4,5.2h3.715V29.988c-1.232,0-2.482.017-3.715-.017C474.417,21.726,474.4,13.463,474.4,5.2Z" transform="translate(-392.049 -4.297)" fill="rgba(103,123,140,0.7)"/>
  <path id="Caminho_105" data-name="Caminho 105" d="M161.091,53.967a8.723,8.723,0,0,1,6.666,1.423,8.153,8.153,0,0,1,3.281,5.208,8.394,8.394,0,0,1-8.818,10.068,8.448,8.448,0,0,1-6.319-3.385,8.677,8.677,0,0,1-1.146-7.881,8.238,8.238,0,0,1,6.336-5.433m.521,3.3a4.667,4.667,0,0,0-2.43,1.545,5.506,5.506,0,0,0,.278,7.169,4.622,4.622,0,0,0,4.131,1.285,4.675,4.675,0,0,0,3.229-2.378,5.49,5.49,0,0,0-.937-6.527A4.684,4.684,0,0,0,161.612,57.265Z" transform="translate(-127.501 -44.472)" fill="rgba(103,123,140,0.7)"/>
  <path id="Caminho_106" data-name="Caminho 106" d="M267.117,53.961a8.44,8.44,0,0,1,8.263,13.592,8.586,8.586,0,0,1-13.453-.278,8.761,8.761,0,0,1-1.094-8.054,8.245,8.245,0,0,1,6.284-5.26m.521,3.3a4.747,4.747,0,0,0-2.43,1.528,5.514,5.514,0,0,0,.191,7.1,4.645,4.645,0,0,0,4.236,1.371,4.762,4.762,0,0,0,3.229-2.378,5.52,5.52,0,0,0-.972-6.544A4.653,4.653,0,0,0,267.638,57.259Z" transform="translate(-215.127 -44.466)" fill="rgba(103,123,140,0.7)"/>
  <path id="Caminho_107" data-name="Caminho 107" d="M370.03,54.965a7.1,7.1,0,0,1,6.8-.521,6.485,6.485,0,0,1,1.771,1.3c.017-.469,0-.955.017-1.441,1.163.017,2.326,0,3.506.017v15.31a9.149,9.149,0,0,1-2.274,6.44,8.275,8.275,0,0,1-7.134,2.048,8.072,8.072,0,0,1-6.076-4.843c1.042-.5,2.135-.9,3.211-1.371a4.774,4.774,0,0,0,3.385,2.916,4.5,4.5,0,0,0,4.34-1.389c1.076-1.319,1.076-3.125,1.024-4.739a6.163,6.163,0,0,1-2.83,1.736,7.629,7.629,0,0,1-6.926-1.788,8.545,8.545,0,0,1,1.18-13.679m3.593,2.222a4.567,4.567,0,0,0-2.725,1.58,5.538,5.538,0,0,0,.017,6.961,4.542,4.542,0,0,0,3.906,1.6,4.411,4.411,0,0,0,3.316-2.2,5.859,5.859,0,0,0-.59-6.562A4.272,4.272,0,0,0,373.623,57.187Z" transform="translate(-302.434 -44.463)" fill="rgba(103,123,140,0.7)"/>
  <path id="Caminho_108" data-name="Caminho 108" d="M508.97,55.8a7.834,7.834,0,0,1,7.968-1.58c2.534.955,4.149,3.368,4.965,5.85-3.767,1.562-7.516,3.107-11.283,4.67a4.476,4.476,0,0,0,2.4,2.257,4.863,4.863,0,0,0,4.583-.66,7.4,7.4,0,0,0,1.285-1.371c.955.642,1.909,1.267,2.864,1.909a8.5,8.5,0,0,1-13.418.851A8.9,8.9,0,0,1,508.97,55.8m1.857,3.211a4.956,4.956,0,0,0-.816,2.916q3.776-1.562,7.551-3.142a3.123,3.123,0,0,0-2.448-1.719A4.436,4.436,0,0,0,510.827,59.01Z" transform="translate(-418.443 -44.411)" fill="rgba(103,123,140,0.7)"/>
</svg>
