<svg xmlns="http://www.w3.org/2000/svg" width="110.751" height="32.114" viewBox="0 0 110.751 32.114"><path d="M.06,27.679H3.922v8.58h8.145v-8.58h3.867V48.74H12.066V39.98H3.922v8.76H.06Zm28.107,14.2a3.2,3.2,0,0,1-6.4,0V32.813H18.107V41.88a6.861,6.861,0,0,0,13.721,0V32.813H28.167V41.88m13.885-8.961a5.628,5.628,0,0,0-4.309,1.729V27.679H34.069V40.594c0,4.834,3.5,8.145,7.422,8.145a8.043,8.043,0,0,0,8.191-7.91,7.773,7.773,0,0,0-7.629-7.911Zm.091,12.422a4.513,4.513,0,0,1,0-9.023,4.542,4.542,0,0,1,0,9.023Zm13.709-11.5a2.267,2.267,0,0,1,2.578-2.433,5.5,5.5,0,0,1,3.457,1.817l2.4-2.812a7.588,7.588,0,0,0-5.624-2.725c-3.985,0-6.856,2.315-6.856,6.153,0,7.119,8.76,4.862,8.76,8.848a2.521,2.521,0,0,1-2.577,2.314c-2.169,0-2.872-1.055-3.868-2.168l-2.667,2.754a7.879,7.879,0,0,0,6.329,3.136c3.779,0,6.826-2.344,6.826-6.007,0-7.91-8.76-5.449-8.76-8.876m18.433-1.132c-3.926,0-7.422,3.309-7.422,8.144V53.805h3.674v-7a5.631,5.631,0,0,0,4.31,1.729,7.773,7.773,0,0,0,7.629-7.91,8.043,8.043,0,0,0-8.191-7.91Zm.653,12.422a4.514,4.514,0,0,1,0-9.024,4.543,4.543,0,0,1,0,9.024Zm34.583.206c-2.167,0-2.782-.937-2.782-2.373V36.61h3.369V33.388h-3.369V29.139l-3.72,1.67v12.95c0,3.311,2.284,4.981,5.418,4.981a7.523,7.523,0,0,0,1.466-.117l.908-3.34c-.41.028-.879.058-1.29.058" transform="translate(-0.06 -21.692)" fill="rgba(103,123,140,0.7)"/><path d="M361.361,15.107a8.08,8.08,0,0,0-2.934-2.915,7.878,7.878,0,0,0-2.967-1.028V7.315a2.843,2.843,0,0,0,1.753-2.662,2.923,2.923,0,1,0-5.847,0,2.809,2.809,0,0,0,1.714,2.662v3.852a8.472,8.472,0,0,0-2.582.809c-1.674-1.271-7.162-5.441-10.372-7.877a3.184,3.184,0,0,0,.135-.856,3.269,3.269,0,1,0-1.576,2.769l.678.514,9.31,6.708a7.8,7.8,0,0,0-1.317,1.543,7.2,7.2,0,0,0-1.2,3.88v.294a8.133,8.133,0,0,0,.509,2.8,7.362,7.362,0,0,0,1.206,2.1l-3.09,3.1a2.5,2.5,0,1,0,1.531,1.6l3.194-3.194a8.208,8.208,0,0,0,1.419.777,8.3,8.3,0,0,0,3.32.7h.222a7.952,7.952,0,0,0,6.76-3.754,7.336,7.336,0,0,0,1.153-3.952v-.072a7.748,7.748,0,0,0-1.021-3.939Zm-3.9,6.7a4.062,4.062,0,0,1-2.99,1.557h-.186a4.041,4.041,0,0,1-1.889-.5,4.365,4.365,0,0,1-1.654-1.507,3.515,3.515,0,0,1-.689-2.051v-.222a4.2,4.2,0,0,1,.485-2.043,4.424,4.424,0,0,1,1.54-1.685,3.77,3.77,0,0,1,2.134-.644h.073a4.324,4.324,0,0,1,2.007.462,4.251,4.251,0,0,1,1.576,1.434,4.56,4.56,0,0,1,.707,2.014c.012.151.018.306.018.454a3.985,3.985,0,0,1-1.132,2.732Z" transform="translate(-261.589 -0.002)" fill="rgba(103,123,140,0.7)"/></svg>