<svg xmlns="http://www.w3.org/2000/svg" width="28.256" height="41.958" viewBox="0 0 28.256 41.958"><path d="M1229.021,299.938a1.47,1.47,0,0,0,1.469,1.471,6.469,6.469,0,0,0,6.463-6.461c0-.035-.007-.069-.01-.1v-5.17a6.206,6.206,0,0,1,12.411,0,6.372,6.372,0,0,0,6.367,6.365,1.471,1.471,0,0,0,0-2.941,3.429,3.429,0,0,1-3.427-3.424,9.147,9.147,0,0,0-18.292,0v5.274c0,.024.007.047.008.069a3.524,3.524,0,0,1-3.519,3.451A1.471,1.471,0,0,0,1229.021,299.938Zm26.632,6.746h.014a1.471,1.471,0,0,0,.013-2.941,13.8,13.8,0,0,1-13.737-13.646,1.205,1.205,0,0,1,2.411,0,11.4,11.4,0,0,0,11.453,11.312,1.471,1.471,0,0,0,0-2.941,8.452,8.452,0,0,1-8.512-8.371,4.147,4.147,0,0,0-8.293,0A16.745,16.745,0,0,0,1255.653,306.684Zm-26.632-17.064v4.95a1.471,1.471,0,0,0,2.941,0v-4.95a11.187,11.187,0,1,1,22.374,0,1.471,1.471,0,0,0,2.941,0,14.128,14.128,0,1,0-28.256,0Zm14.129,22.686a1.47,1.47,0,1,0,0-2.94,6.2,6.2,0,0,1-4.494-1.893,1.471,1.471,0,0,0-2.111,2.048A9.113,9.113,0,0,0,1243.15,312.306Zm-12.206-1.866a14.189,14.189,0,0,0,12.205,7.009,14,14,0,0,0,8.564-2.89,1.47,1.47,0,1,0-1.784-2.337,11.074,11.074,0,0,1-6.78,2.288,11.238,11.238,0,0,1-9.666-5.552,1.47,1.47,0,1,0-2.539,1.483Zm-1.781-5.208a1.471,1.471,0,0,0,1.47,1.451h.02a11.464,11.464,0,0,0,8.057-3.475,21.66,21.66,0,0,0,15.1,8.176,1.088,1.088,0,0,0,.135.007,1.471,1.471,0,0,0,.131-2.936A18.765,18.765,0,0,1,1240.02,300a1.469,1.469,0,0,0-2.086-.388,1.8,1.8,0,0,0-.4.4,8.519,8.519,0,0,1-6.922,3.73A1.471,1.471,0,0,0,1229.162,305.232Z" transform="translate(-1229.021 -275.491)" fill="#a1dc8e"/></svg>