<svg xmlns="http://www.w3.org/2000/svg" width="164.082" height="35.029" viewBox="0 0 164.082 35.029"><path d="M405.367,44.872V41.986h-3.583V37.5l-.12.037-3.366,1.03-.066.02v3.4h-5.313V40.091a3.008,3.008,0,0,1,.586-2.007,2.066,2.066,0,0,1,1.642-.671,3.825,3.825,0,0,1,1.557.354l.132.059V34.79l-.062-.023a6.071,6.071,0,0,0-1.99-.266,5.834,5.834,0,0,0-2.823.678,4.825,4.825,0,0,0-1.937,1.915,5.709,5.709,0,0,0-.686,2.81v2.081h-2.5v2.886h2.5V57.028h3.582V44.872h5.313v7.723c0,3.184,1.5,4.794,4.461,4.794a7.316,7.316,0,0,0,1.521-.169,4.2,4.2,0,0,0,1.107-.351l.047-.028V53.929l-.146.1a2.507,2.507,0,0,1-.72.311,2.737,2.737,0,0,1-.707.12,1.919,1.919,0,0,1-1.524-.555,2.991,2.991,0,0,1-.486-1.928v-7.1Zm-26.526,9.586a3.8,3.8,0,0,1-3.047-1.281,5.437,5.437,0,0,1-1.095-3.616,5.652,5.652,0,0,1,1.1-3.712,3.739,3.739,0,0,1,3.018-1.3,3.683,3.683,0,0,1,2.939,1.243,5.541,5.541,0,0,1,1.073,3.682,5.908,5.908,0,0,1-1.01,3.728,3.593,3.593,0,0,1-2.973,1.256M379,41.618a7.856,7.856,0,0,0-5.855,2.161,8.1,8.1,0,0,0-2.115,5.9A7.671,7.671,0,0,0,373.1,55.3a7.492,7.492,0,0,0,5.543,2.08,7.641,7.641,0,0,0,5.739-2.19,8.076,8.076,0,0,0,2.115-5.838,7.881,7.881,0,0,0-1.984-5.669A7.309,7.309,0,0,0,379,41.62m-13.746,0a6.475,6.475,0,0,0-4.149,1.282,4.092,4.092,0,0,0-1.617,3.339,4.668,4.668,0,0,0,.349,1.864,3.747,3.747,0,0,0,1.07,1.4,9.32,9.32,0,0,0,2.175,1.218,16.221,16.221,0,0,1,1.811.843,2.517,2.517,0,0,1,.8.655,1.47,1.47,0,0,1,.221.854c0,1.01-.756,1.5-2.314,1.5a6.362,6.362,0,0,1-1.958-.358,7.356,7.356,0,0,1-2.005-1.017l-.149-.106v3.449l.054.026a8.873,8.873,0,0,0,1.9.586,10.186,10.186,0,0,0,2.028.233,6.875,6.875,0,0,0,4.381-1.29,4.172,4.172,0,0,0,1.631-3.417A3.929,3.929,0,0,0,368.6,50.1a7.522,7.522,0,0,0-2.981-1.9,7.689,7.689,0,0,1-2.124-1.1,1.546,1.546,0,0,1-.429-1.159,1.291,1.291,0,0,1,.544-1.072,2.443,2.443,0,0,1,1.524-.43,6.24,6.24,0,0,1,1.815.279,5.832,5.832,0,0,1,1.585.735l.146.1V42.28l-.056-.024a7.814,7.814,0,0,0-1.609-.449,9.824,9.824,0,0,0-1.764-.183m-15.1,12.834a3.8,3.8,0,0,1-3.047-1.281,5.436,5.436,0,0,1-1.094-3.612,5.65,5.65,0,0,1,1.095-3.712,3.737,3.737,0,0,1,3.018-1.3,3.683,3.683,0,0,1,2.939,1.243,5.54,5.54,0,0,1,1.073,3.682,5.907,5.907,0,0,1-1.01,3.728,3.592,3.592,0,0,1-2.973,1.256m.16-12.839a7.854,7.854,0,0,0-5.855,2.161,8.1,8.1,0,0,0-2.116,5.9,7.67,7.67,0,0,0,2.066,5.63,7.491,7.491,0,0,0,5.543,2.08,7.642,7.642,0,0,0,5.739-2.19A8.077,8.077,0,0,0,357.8,49.36a7.88,7.88,0,0,0-1.985-5.669,7.309,7.309,0,0,0-5.507-2.067M336.9,44.592V41.986h-3.538V57.028H336.9v-7.7a5.363,5.363,0,0,1,.882-3.195,2.7,2.7,0,0,1,2.29-1.208,4.154,4.154,0,0,1,1.064.155,2.691,2.691,0,0,1,.825.334l.149.108V41.96l-.057-.025a3.664,3.664,0,0,0-1.385-.21,3.626,3.626,0,0,0-2.366.848,4.792,4.792,0,0,0-1.361,2.019Zm-9.874-2.968a8.734,8.734,0,0,0-4.3,1.034,6.969,6.969,0,0,0-2.838,2.918,9.294,9.294,0,0,0-.975,4.323,7.976,7.976,0,0,0,.948,3.875,6.657,6.657,0,0,0,2.647,2.677,7.882,7.882,0,0,0,3.868.94,8.47,8.47,0,0,0,4.271-1l.047-.026V53.123l-.149.109a6.651,6.651,0,0,1-1.731.9,5.232,5.232,0,0,1-1.7.329,4.357,4.357,0,0,1-3.312-1.291,5.022,5.022,0,0,1-1.222-3.577,5.209,5.209,0,0,1,1.274-3.672,4.334,4.334,0,0,1,3.318-1.37,5.683,5.683,0,0,1,3.368,1.172l.148.108V42.416l-.048-.027a5.838,5.838,0,0,0-1.637-.554,9.777,9.777,0,0,0-1.978-.212m-10.552.363h-3.538V57.028h3.538V41.986Zm-1.733-6.408a2.132,2.132,0,0,0-1.507.591,1.95,1.95,0,0,0-.631,1.476,1.9,1.9,0,0,0,.621,1.447,2.155,2.155,0,0,0,1.514.576,2.182,2.182,0,0,0,1.521-.575,1.888,1.888,0,0,0,.633-1.448,1.987,1.987,0,0,0-.616-1.459,2.111,2.111,0,0,0-1.538-.607m-8.828,5.3V57.029h3.611V36.039h-5l-6.353,15.59-6.165-15.59h-5.2V57.027H290.2V40.874h.116l6.509,16.153h2.563L305.8,40.874h.117Z" transform="translate(-241.286 -29.025)" fill="rgba(103,123,140,0.7)"/><path d="M16.645,16.645H0V0H16.645Z" fill="rgba(103,123,140,0.7)"/><path d="M132.433,16.645H115.788V0h16.645Z" transform="translate(-97.41)" fill="rgba(103,123,140,0.7)"/><path d="M16.645,132.473H0V115.828H16.645Z" transform="translate(0 -97.444)" fill="rgba(103,123,140,0.7)"/><path d="M132.433,132.473H115.788V115.828h16.645Z" transform="translate(-97.41 -97.444)" fill="rgba(103,123,140,0.7)"/></svg>