<svg xmlns="http://www.w3.org/2000/svg" xmlns:xlink="http://www.w3.org/1999/xlink" width="382.061" height="418.126" viewBox="0 0 382.061 418.126"><defs><linearGradient id="a" x1="-0.017" y1="0.562" x2="1.016" y2="0.426" gradientUnits="objectBoundingBox"><stop offset="0.01" stop-color="#c1a1d5"/><stop offset="0.044" stop-color="#c7abd9"/><stop offset="0.102" stop-color="#d9c6e5"/><stop offset="0.177" stop-color="#f6f2f9"/><stop offset="0.197" stop-color="#fff"/><stop offset="0.231" stop-color="#f9f5fb"/><stop offset="0.289" stop-color="#e9dbf1"/><stop offset="0.359" stop-color="#d1b4e3"/><stop offset="0.426" stop-color="#b294d5"/><stop offset="0.495" stop-color="#9b7ccb"/><stop offset="0.558" stop-color="#8d6ec5"/><stop offset="0.611" stop-color="#8969c3"/><stop offset="0.755" stop-color="#9371c5"/><stop offset="1" stop-color="#b086cc"/></linearGradient></defs><g transform="translate(-809.801 35.617)"><g transform="translate(1055.401 43.035)"><g transform="translate(81.223 292.582)"><path d="M1036.667,229.815a1.152,1.152,0,0,1-.185-.016,1.085,1.085,0,0,1-.886-1.254c.378-2.212.731-4.489,1.05-6.766a1.086,1.086,0,1,1,2.151.3c-.322,2.3-.677,4.6-1.061,6.834A1.085,1.085,0,0,1,1036.667,229.815Z" transform="translate(-1035.58 -220.842)" fill="#130135"/></g><g transform="translate(50.933 247.692)"><path d="M1044.27,207.368c0,15.366-6.462,55.59-14.432,55.59s-14.433-40.224-14.433-55.59c0-13.527,6.462-16.787,14.433-16.787S1044.27,193.841,1044.27,207.368Z" transform="translate(-1014.319 -189.495)" fill="#a2db8f"/><path d="M1030.174,264.379c-9.869,0-15.519-44.542-15.519-56.677,0-12.025,5.077-17.871,15.519-17.871s15.518,5.847,15.518,17.871C1045.692,219.837,1040.042,264.379,1030.174,264.379Zm0-72.377c-6.214,0-13.348,1.783-13.348,15.7,0,16.686,6.841,54.505,13.348,54.505s13.346-37.82,13.346-54.505C1043.52,193.786,1036.388,192,1030.174,192Z" transform="translate(-1014.655 -189.831)" fill="#130135"/></g><path d="M1035.763,199.809c0,8.446-3.552,30.559-7.934,30.559s-7.934-22.113-7.934-30.559c0-7.436,3.552-9.228,7.934-9.228S1035.763,192.373,1035.763,199.809Z" transform="translate(-961.377 58.197)" fill="#130135"/><g transform="translate(52.892 242.873)"><path d="M1041.854,187.252h-25.1v3.541h0c0,.033,0,.067,0,.1,0,4.036,5.619,7.309,12.549,7.309s12.549-3.273,12.549-7.309c0-.033,0-.067,0-.1h0Z" transform="translate(-1015.673 -186.166)" fill="#fff"/><path d="M1029.642,199.621c-7.1,0-12.777-3.182-13.546-7.407h-.085v-.895c0-.03,0-.059,0-.091V186.5h27.267v5.712h-.107C1042.347,196.478,1036.7,199.621,1029.642,199.621Zm-11.463-9.578h.045l-.042,1.131c0,3.428,5.246,6.277,11.46,6.277s11.462-2.849,11.462-6.222v-2.555h-22.925Z" transform="translate(-1016.008 -186.502)" fill="#130135"/></g><g transform="translate(5.55 148.571)"><path d="M1009.947,138.131c-1.974,8.886-12.162,39.311-19.006,37.789s-8.208-34.322-5.777-43.3c2.1-7.736,8.247-11.719,15.089-10.2S1011.685,130.307,1009.947,138.131Z" transform="translate(-982.97 -121.019)" fill="#fff"/><path d="M991.778,177.4a3.43,3.43,0,0,1-.741-.081,5.214,5.214,0,0,1-3.158-2.671c-4.983-8.241-5.508-34.3-3.431-41.97,1.892-6.983,6.984-11.32,13.286-11.32a14.317,14.317,0,0,1,3.088.344,13.885,13.885,0,0,1,8.741,5.961,14.4,14.4,0,0,1,1.778,11.042C1010.319,143.3,1000.427,177.4,991.778,177.4Zm5.955-53.87c-5.276,0-9.565,3.722-11.189,9.716-2.163,7.99-1.19,33.03,3.193,40.278a3.3,3.3,0,0,0,1.772,1.676,1.27,1.27,0,0,0,.269.029c5.328,0,14.989-25.962,17.441-37a12.077,12.077,0,0,0-1.481-9.39,11.714,11.714,0,0,0-7.39-5.019A12.156,12.156,0,0,0,997.734,123.526Z" transform="translate(-983.303 -121.355)" fill="#130135"/></g><path d="M1098.594,134.382c0,30.887-25.039,95.566-55.927,95.566s-55.927-64.679-55.927-95.566c0-27.19,25.038-33.741,55.927-33.741S1098.594,107.191,1098.594,134.382Z" transform="translate(-976.215 17.945)" fill="url(#a)"/><g transform="translate(9.44 117.499)"><path d="M1098.594,134.382c0,30.887-25.039,95.566-55.927,95.566s-55.927-64.679-55.927-95.566c0-27.19,25.038-33.741,55.927-33.741S1098.594,107.191,1098.594,134.382Z" transform="translate(-985.654 -99.554)" fill="#fff"/><path d="M1043,231.37c-31.2,0-57.013-63.993-57.013-96.652,0-31.218,32.538-34.828,57.013-34.828s57.011,3.61,57.011,34.828C1100.014,167.377,1074.2,231.37,1043,231.37Zm0-129.308c-37.416,0-54.841,10.377-54.841,32.656,0,31.11,25.385,94.481,54.841,94.481s54.84-63.37,54.84-94.481C1097.842,112.439,1080.417,102.061,1043,102.061Z" transform="translate(-985.99 -99.89)" fill="#130135"/></g><g transform="translate(26.337 194.025)"><path d="M1016.367,186.666a1.079,1.079,0,0,1-.845-.4c-6.482-8.05-12.8-19.422-17.781-32.019a1.085,1.085,0,1,1,2.018-.8c4.909,12.4,11.107,23.573,17.454,31.458a1.086,1.086,0,0,1-.845,1.766Z" transform="translate(-997.663 -152.756)" fill="#130135"/></g><g transform="translate(48.123 230.467)"><path d="M1021.98,186.58a1.074,1.074,0,0,1-.531-.14,38.8,38.8,0,0,1-8.423-6.659,1.086,1.086,0,1,1,1.547-1.524,36.669,36.669,0,0,0,7.941,6.292,1.085,1.085,0,0,1-.534,2.031Z" transform="translate(-1012.713 -177.931)" fill="#130135"/></g><g transform="translate(10.618 114.859)"><ellipse cx="54.882" cy="31.959" rx="54.882" ry="31.959" transform="translate(1.086 1.086)" fill="#a2db8f"/><path d="M1042.771,164.156c-30.86,0-55.967-14.823-55.967-33.044s25.107-33.046,55.967-33.046,55.969,14.824,55.969,33.046S1073.633,164.156,1042.771,164.156Zm0-63.919c-29.663,0-53.8,13.85-53.8,30.874s24.133,30.873,53.8,30.873,53.8-13.849,53.8-30.873S1072.436,100.237,1042.771,100.237Z" transform="translate(-986.804 -98.066)" fill="#130135"/></g><g transform="translate(114.28 49.43)"><path d="M1079.512,84.707a1.085,1.085,0,0,1-1.022-.718,72.241,72.241,0,0,0-19.712-29.229,1.087,1.087,0,1,1,1.45-1.618,74.414,74.414,0,0,1,20.306,30.113,1.085,1.085,0,0,1-1.022,1.452Z" transform="translate(-1058.417 -52.866)" fill="#130135"/></g><g transform="translate(99.758 39.284)"><path d="M1058.362,53.607a1.078,1.078,0,0,1-.64-.21,72.162,72.162,0,0,0-8.76-5.5,1.086,1.086,0,0,1,1.018-1.918A74.558,74.558,0,0,1,1059,51.646a1.085,1.085,0,0,1-.643,1.961Z" transform="translate(-1048.384 -45.856)" fill="#130135"/></g><g transform="translate(0.003 38.046)"><circle cx="65.66" cy="65.66" r="65.66" transform="translate(1.087 1.086)" fill="#fff"/><path d="M1046.218,178.493a66.746,66.746,0,1,1,66.746-66.746A66.821,66.821,0,0,1,1046.218,178.493Zm0-131.32a64.575,64.575,0,1,0,64.575,64.575A64.648,64.648,0,0,0,1046.218,47.172Z" transform="translate(-979.471 -45.001)" fill="#130135"/></g><g transform="translate(0 73.134)"><path d="M984.083,114.687h0c13.75,17.735,33.079,28.522,54.394,30.356h0c5.74.494,10.949-5.12,10.949-11.8V113.576c0-8.781-5-16.021-12.317-17.835h0a83.183,83.183,0,0,1-40.716-24.178h0c-2.675-2.85-7.264-1.686-9.046,2.365a88.156,88.156,0,0,0-7.023,26.721A19.763,19.763,0,0,0,984.083,114.687Z" transform="translate(-979.134 -68.905)" fill="#a2db8f"/><path d="M1039.517,146.493h0c-.265,0-.53-.012-.8-.033-21.626-1.86-41.217-12.789-55.158-30.773a20.932,20.932,0,0,1-3.981-14.81,88.979,88.979,0,0,1,7.109-27.05,7.279,7.279,0,0,1,6.472-4.586,5.932,5.932,0,0,1,4.357,1.915,82.349,82.349,0,0,0,40.188,23.867c7.86,1.948,13.141,9.538,13.141,18.889V133.58a13.725,13.725,0,0,1-3.344,9.03A10.743,10.743,0,0,1,1039.517,146.493ZM993.161,71.412a5.12,5.12,0,0,0-4.484,3.287,86.838,86.838,0,0,0-6.937,26.393,18.755,18.755,0,0,0,3.536,13.264c13.566,17.5,32.613,28.133,53.63,29.941a8.406,8.406,0,0,0,6.961-3.115,11.717,11.717,0,0,0,2.808-7.6V113.912c0-8.335-4.618-15.078-11.492-16.78a84.533,84.533,0,0,1-41.249-24.489A3.729,3.729,0,0,0,993.161,71.412Z" transform="translate(-979.469 -69.241)" fill="#130135"/></g><path d="M1041.735,140.989c-21.315-1.833-40.644-12.62-54.394-30.355h0A19.765,19.765,0,0,1,983.581,96.6a88.106,88.106,0,0,1,6.8-26.176,6.7,6.7,0,0,0-3.03,3.316,88.156,88.156,0,0,0-7.023,26.721,19.763,19.763,0,0,0,3.759,14.037h0c13.75,17.735,33.079,28.522,54.394,30.356,3.862.331,7.476-2.106,9.432-5.768A8.942,8.942,0,0,1,1041.735,140.989Z" transform="translate(-979.134 4.42)" fill="#130135"/><g transform="translate(88.891 169.634)"><circle cx="15.28" cy="15.28" r="15.28" transform="translate(0 13.925) rotate(-27.108)" fill="#a2db8f"/><path d="M1060.144,171.538a16.366,16.366,0,1,1,16.363-16.366A16.384,16.384,0,0,1,1060.144,171.538Zm0-30.56a14.195,14.195,0,1,0,14.192,14.195A14.211,14.211,0,0,0,1060.144,140.977Z" transform="translate(-1039.579 -134.608)" fill="#130135"/></g><g transform="translate(93.924 179.074)"><path d="M1073.2,159.989c-1.94,11.491-18.078,36.738-24.921,35.218s-.738-32.619,1.236-41.507c1.738-7.824,8.245-11.719,15.089-10.2S1074.532,152.087,1073.2,159.989Z" transform="translate(-1044.013 -142.092)" fill="#fff"/><path d="M1049.238,196.7a3.962,3.962,0,0,1-.855-.093c-7.824-1.74-2.318-30.513.414-42.8,1.534-6.909,6.732-11.373,13.24-11.373a14.506,14.506,0,0,1,3.144.352c7.05,1.566,10.927,8.856,9.429,17.728C1072.743,171.57,1057.307,196.7,1049.238,196.7Zm12.8-52.1c-5.45,0-9.816,3.8-11.121,9.674-4.173,18.788-6.315,39.264-2.06,40.21a1.7,1.7,0,0,0,.382.042c6.311,0,21.434-23.727,23.232-34.379,1.316-7.8-1.8-13.922-7.759-15.247A12.358,12.358,0,0,0,1062.037,144.6Z" transform="translate(-1044.354 -142.428)" fill="#130135"/></g><g transform="translate(103.882 207.82)"><path d="M1052.318,175.529a1.086,1.086,0,0,1-.858-1.749,89.538,89.538,0,0,0,7.146-10.935,1.085,1.085,0,0,1,1.9,1.051,92,92,0,0,1-7.326,11.21A1.081,1.081,0,0,1,1052.318,175.529Z" transform="translate(-1051.234 -162.286)" fill="#130135"/></g><g transform="translate(42.218)"><g transform="translate(23.204 59.467)"><path d="M1025.75,62.5a1.086,1.086,0,0,1,0-2.171,23.946,23.946,0,0,0,4.952-.5,1.085,1.085,0,1,1,.452,2.122A26,26,0,0,1,1025.75,62.5Z" transform="translate(-1024.664 -59.8)" fill="#130135"/></g><g transform="translate(31.756 51.908)"><path d="M1031.658,63.292a1.085,1.085,0,0,1-.4-2.093c3.3-1.322,5.695-3.434,6.74-5.951a1.085,1.085,0,1,1,2,.832c-1.271,3.062-4.089,5.595-7.94,7.133A1.059,1.059,0,0,1,1031.658,63.292Z" transform="translate(-1030.572 -54.577)" fill="#130135"/></g><g transform="translate(10.981 41.418)"><path d="M1041.414,55.2c0,3.93-5.472,7.116-12.222,7.116s-12.221-3.186-12.221-7.116,5.472-7.118,12.221-7.118S1041.414,51.267,1041.414,55.2Z" transform="translate(-1015.884 -46.995)" fill="#a2db8f"/><path d="M1029.528,63.736c-7.462,0-13.308-3.6-13.308-8.2s5.847-8.2,13.308-8.2,13.307,3.6,13.307,8.2S1036.991,63.736,1029.528,63.736Zm0-14.234c-6.036,0-11.137,2.762-11.137,6.032s5.1,6.03,11.137,6.03,11.136-2.762,11.136-6.03S1035.565,49.5,1029.528,49.5Z" transform="translate(-1016.22 -47.331)" fill="#130135"/></g><g transform="translate(20.267 22.458)"><path d="M1029.259,34.983h-5.874v25.9c0,.944,1.314,1.71,2.937,1.71s2.937-.766,2.937-1.71Z" transform="translate(-1022.299 -33.897)" fill="#fff"/><path d="M1026.658,64.012c-2.293,0-4.023-1.2-4.023-2.8V34.233h8.046V61.215C1030.681,62.809,1028.951,64.012,1026.658,64.012ZM1024.806,36.4V61.215a2.29,2.29,0,0,0,1.851.625,2.244,2.244,0,0,0,1.853-.64V36.4Z" transform="translate(-1022.635 -34.233)" fill="#130135"/></g><path d="M1009.72,44.093a1.085,1.085,0,0,1-1.086-1.086,24.316,24.316,0,0,1,24.289-24.29,1.086,1.086,0,1,1,0,2.171,22.142,22.142,0,0,0-22.118,22.118A1.086,1.086,0,0,1,1009.72,44.093Z" transform="translate(-1008.634 -18.718)" fill="#130135"/><g transform="translate(7.238 7.238)"><path d="M1014.72,41.856a1.085,1.085,0,0,1-1.086-1.086,17.07,17.07,0,0,1,17.052-17.052,1.086,1.086,0,0,1,0,2.171,14.9,14.9,0,0,0-14.881,14.881A1.086,1.086,0,0,1,1014.72,41.856Z" transform="translate(-1013.634 -23.718)" fill="#130135"/></g><g transform="translate(14.474 14.475)"><path d="M1036.842,38.2a8.729,8.729,0,1,1-8.729-8.73A8.729,8.729,0,0,1,1036.842,38.2Z" transform="translate(-1018.297 -28.382)" fill="#fff"/><path d="M1028.448,48.349a9.816,9.816,0,1,1,9.814-9.816A9.827,9.827,0,0,1,1028.448,48.349Zm0-17.46a7.644,7.644,0,1,0,7.643,7.644A7.653,7.653,0,0,0,1028.448,30.889Z" transform="translate(-1018.633 -28.718)" fill="#130135"/></g><g transform="translate(20.264 20.265)"><path d="M1023.719,37.828a1.085,1.085,0,0,1-1.086-1.086,4.03,4.03,0,0,1,4.025-4.024,1.086,1.086,0,1,1,0,2.171,1.856,1.856,0,0,0-1.854,1.853A1.086,1.086,0,0,1,1023.719,37.828Z" transform="translate(-1022.633 -32.718)" fill="#130135"/></g></g><path d="M1024.316,197.136l2.533,2.533,2.533-2.533-2.533-2.533Zm7.238,0,2.533,2.533,2.533-2.533-2.533-2.533Zm14.475-36.188,2.533,2.533,2.533-2.533-2.533-2.533Zm-7.238,7.238,2.533,2.533,2.533-2.533-2.533-2.533Zm7.238,0,2.533,2.533,2.533-2.533-2.533-2.533Zm-7.238,7.238,2.533,2.533,2.533-2.533-2.533-2.533Zm7.238,0,2.533,2.533,2.533-2.533-2.533-2.533Zm-14.475,7.238,2.533,2.533,2.533-2.533-2.533-2.533Zm7.238,0,2.533,2.533,2.533-2.533-2.533-2.533Zm7.238,0,2.533,2.533,2.533-2.533-2.533-2.533Zm-14.475,7.238,2.533,2.533,2.533-2.533-2.533-2.533Zm7.238,0,2.533,2.533,2.533-2.533-2.533-2.533Z" transform="translate(-959.398 43.801)" fill="#a2db8f"/><path d="M1056.5,125.207l2.533,2.533,2.533-2.533-2.533-2.533Zm7.238,0,2.533,2.533,2.533-2.533-2.533-2.533Zm7.238,0,2.533,2.533,2.533-2.533-2.533-2.533Zm7.238,0,2.533,2.533,2.533-2.533-2.533-2.533Zm-28.951,7.238,2.533,2.533,2.533-2.533-2.533-2.533Zm7.238,0,2.533,2.533,2.533-2.533-2.533-2.533Zm7.238,0,2.533,2.533,2.533-2.533-2.533-2.533Zm7.238,0,2.533,2.533,2.533-2.533-2.533-2.533Zm-21.713,7.238,2.533,2.533,2.533-2.533-2.533-2.533Zm7.238,0,2.533,2.533,2.533-2.533-2.533-2.533Zm7.238,0,2.533,2.533,2.533-2.533-2.533-2.533Zm-28.951,7.238,2.533,2.533,2.533-2.533-2.533-2.533Zm7.238,0,2.533,2.533,2.533-2.533-2.533-2.533Zm7.238,0,2.533,2.533,2.533-2.533-2.533-2.533Zm7.238,0,2.533,2.533,2.533-2.533-2.533-2.533Zm-36.188,7.238,2.533,2.533,2.533-2.533-2.533-2.533Zm7.238,0,2.533,2.533,2.533-2.533-2.533-2.533Zm7.238,0,2.533,2.533,2.533-2.533-2.533-2.533Zm7.238,0,2.533,2.533,2.533-2.533-2.533-2.533Zm36.188-72.377,2.533,2.533,2.533-2.533-2.533-2.533Zm-7.238,7.238,2.533,2.533,2.533-2.533-2.533-2.533Zm7.238,0,2.533,2.533,2.533-2.533-2.533-2.533Zm7.238,0,2.533,2.533,2.533-2.533-2.533-2.533Zm-14.475,7.238,2.533,2.533,2.533-2.533-2.533-2.533Zm7.238,0,2.533,2.533,2.533-2.533-2.533-2.533Zm7.238,0,2.533,2.533,2.533-2.533-2.533-2.533Zm-14.475,7.238,2.533,2.533,2.533-2.533-2.533-2.533Zm7.238,0,2.533,2.533,2.533-2.533-2.533-2.533Zm7.238,0,2.533,2.533,2.533-2.533-2.533-2.533Zm-21.713,7.238,2.533,2.533,2.533-2.533-2.533-2.533Zm7.238,0,2.533,2.533,2.533-2.533-2.533-2.533Zm7.238,0,2.533,2.533,2.533-2.533-2.533-2.533ZM1056.5,117.97l2.533,2.533,2.533-2.533-2.533-2.533Zm7.238,0,2.533,2.533,2.533-2.533-2.533-2.533Zm7.238,0,2.533,2.533,2.533-2.533-2.533-2.533Zm7.238,0,2.533,2.533,2.533-2.533-2.533-2.533Z" transform="translate(-961.188 8.371)" fill="#a2db8f"/><g transform="translate(77.549 329.06)"><path d="M1034.128,252a1.086,1.086,0,0,1-.789-1.833,11.49,11.49,0,0,0,2.164-3.458,1.087,1.087,0,1,1,2,.845,13.717,13.717,0,0,1-2.588,4.107A1.088,1.088,0,0,1,1034.128,252Z" transform="translate(-1033.042 -246.042)" fill="#130135"/></g><g transform="translate(66.035 305.11)"><path d="M1030.039,263.861a4.9,4.9,0,0,1-3.742-1.621c-1.788-2.034-1.914-5.832,1.839-9.732,5.979-6.216,8.995-15.137,10.953-22.214a1.086,1.086,0,1,1,2.093.579c-2.028,7.325-5.165,16.573-11.483,23.14-2.779,2.889-2.866,5.547-1.77,6.795.964,1.094,3.044,1.384,5.53-.457a1.085,1.085,0,1,1,1.291,1.744A7.984,7.984,0,0,1,1030.039,263.861Z" transform="translate(-1025.088 -229.497)" fill="#130135"/></g><g transform="translate(12.812 94.521)"><path d="M992.489,88.574a9.235,9.235,0,0,1,3.779,4.974,3.779,3.779,0,0,0,.39-1.769,9.183,9.183,0,0,0-4.169-7.19c-2.3-1.33-4.169-.266-4.169,2.377a7.24,7.24,0,0,0,.389,2.218C989.369,87.921,990.81,87.6,992.489,88.574Z" transform="translate(-988.32 -84.016)" fill="#130135"/><path d="M1015.769,102.015a9.233,9.233,0,0,1,3.779,4.972,3.79,3.79,0,0,0,.389-1.767,9.189,9.189,0,0,0-4.169-7.191c-2.3-1.329-4.169-.265-4.169,2.377a7.232,7.232,0,0,0,.389,2.218C1012.649,101.361,1014.088,101.046,1015.769,102.015Z" transform="translate(-977.901 -78.001)" fill="#130135"/></g><path d="M1005.563,107.825c0,3.363-1.8,5.052-4.008,3.774s-4.008-5.039-4.008-8.4,1.795-5.05,4.008-3.772S1005.563,104.464,1005.563,107.825Z" transform="translate(-971.378 17.21)" fill="#130135"/><path d="M1002.211,106.061c0,1.214-.649,1.824-1.448,1.364a3.785,3.785,0,0,1-1.448-3.035c0-1.213.649-1.824,1.448-1.362A3.782,3.782,0,0,1,1002.211,106.061Z" transform="translate(-970.586 18.944)" fill="#fff"/></g><g transform="translate(903.678 -25.765)"><g transform="translate(81.612 106.581)"><path d="M960.915,62.757V90.08L947.53,96.528l-15.746-50.96Z" transform="translate(-930.698 -44.482)" fill="#a2db8f"/><path d="M947.866,97.95a1.089,1.089,0,0,1-1.038-.766l-15.746-50.96a1.086,1.086,0,0,1,1.589-1.255L961.8,62.158a1.087,1.087,0,0,1,.534.935V90.415a1.086,1.086,0,0,1-.615.979l-13.385,6.447A1.072,1.072,0,0,1,947.866,97.95Zm-13.88-49.685L948.53,95.338l11.635-5.6V63.713Z" transform="translate(-931.034 -44.818)" fill="#130135"/></g><g transform="translate(34.094 5.991)"><path d="M946.927,4.881a1.076,1.076,0,0,1-.54-.145L898.753-22.645a1.087,1.087,0,0,1-.4-1.482,1.088,1.088,0,0,1,1.484-.4L947.469,2.853a1.087,1.087,0,0,1-.543,2.028Z" transform="translate(-898.208 24.672)" fill="#130135"/></g><g transform="translate(11.86)"><path d="M900.375-23.979a1.068,1.068,0,0,1-.541-.146c-5.321-3.07-10.91-3.325-15.364-.789a1.084,1.084,0,0,1-1.479-.405A1.086,1.086,0,0,1,883.4-26.8c5.119-2.918,11.53-2.666,17.524.8a1.086,1.086,0,0,1,.4,1.482A1.08,1.08,0,0,1,900.375-23.979Z" transform="translate(-882.847 28.811)" fill="#130135"/></g><g transform="translate(3.809 7.232)"><path d="M994,107.073l-98.49-56.619c-7.836-4.524-14.187-16.66-14.187-27.107V-8.537c0-5.3-5.179-5.407-2.543-7.319C879-16.012,889.433-22,889.66-22.134c2.484-1.416,5.716-1.272,9.251.767L997.4,35.252c7.835,4.524,14.187,16.66,14.187,27.108V94.243c0,5.713-1.9,9.738-4.9,11.473-.1.056-10.647,6.226-10.747,6.277C993.492,113.257,997.415,109.043,994,107.073Z" transform="translate(-876.95 24.149)" fill="#a2db8f"/><path d="M995.625,113.646a1.272,1.272,0,0,1-1.013-.481,2.028,2.028,0,0,1-.112-1.864c.321-1.306.459-2.281-.7-2.953L895.307,51.73c-8.124-4.69-14.733-17.273-14.733-28.049V-8.2a5.356,5.356,0,0,0-2.051-4.267,2.854,2.854,0,0,1-1.233-2.168,2.5,2.5,0,0,1,1.191-1.763c.3-.217,10.871-6.279,10.977-6.34,2.905-1.656,6.591-1.39,10.333.77l98.489,56.617c8.124,4.69,14.733,17.272,14.733,28.047V94.577c0,5.89-1.986,10.414-5.447,12.413-.094.055-10.65,6.229-10.787,6.3A2.522,2.522,0,0,1,995.625,113.646ZM879.565-14.5c.126.139.311.316.459.457A7.477,7.477,0,0,1,882.745-8.2V23.681c0,10.085,6.122,21.823,13.646,26.167l98.489,56.617a3.919,3.919,0,0,1,1.948,4.285c2.685-1.568,9.568-5.593,9.643-5.637,2.779-1.6,4.369-5.444,4.369-10.537V62.692c0-10.084-6.122-21.823-13.646-26.167L898.706-20.091c-3.054-1.765-5.939-2.037-8.173-.766-.437.25-10.337,5.935-10.815,6.239C879.656-14.573,879.6-14.532,879.565-14.5Z" transform="translate(-877.285 23.815)" fill="#130135"/></g><g transform="translate(126.87 126.257)"><path d="M963.05,64.966l10.157-5.8Z" transform="translate(-961.963 -58.075)" fill="#fff"/><path d="M963.387,66.388a1.086,1.086,0,0,1-.541-2.029L973,58.554a1.086,1.086,0,0,1,1.077,1.886l-10.157,5.8A1.083,1.083,0,0,1,963.387,66.388Z" transform="translate(-962.299 -58.411)" fill="#130135"/></g><g transform="translate(125.965 84.453)"><path d="M962.425,36.092l10.169-5.81Z" transform="translate(-961.339 -29.196)" fill="#fff"/><path d="M962.762,37.515a1.086,1.086,0,0,1-.541-2.029l10.17-5.81a1.085,1.085,0,0,1,1.077,1.885L963.3,37.372A1.082,1.082,0,0,1,962.762,37.515Z" transform="translate(-961.674 -29.532)" fill="#130135"/></g><g transform="translate(116.013 67.89)"><path d="M955.55,24.747l10.338-5.907Z" transform="translate(-954.464 -17.754)" fill="#fff"/><path d="M955.887,26.17a1.086,1.086,0,0,1-.541-2.029l10.34-5.907a1.085,1.085,0,1,1,1.077,1.885l-10.338,5.909A1.083,1.083,0,0,1,955.887,26.17Z" transform="translate(-954.799 -18.09)" fill="#130135"/></g><g transform="translate(19.015 11.871)"><path d="M888.541-13.952l10.338-5.907Z" transform="translate(-887.455 20.946)" fill="#fff"/><path d="M888.878-12.53a1.086,1.086,0,0,1-.945-.547,1.086,1.086,0,0,1,.405-1.481l10.338-5.909a1.086,1.086,0,0,1,1.482.405,1.086,1.086,0,0,1-.405,1.481l-10.338,5.909A1.077,1.077,0,0,1,888.878-12.53Z" transform="translate(-887.791 20.61)" fill="#130135"/></g><g transform="translate(0 13.362)"><path d="M988.083,39.491,889.591-17.128C881.756-21.651,875.4-16.848,875.4-6.4V25.482c0,10.447,6.352,22.584,14.187,27.108l56.982,32.664,26.244,40.1V100.4l15.266,8.808c7.835,4.525,14.187-.278,14.187-10.725V66.6C1002.27,56.151,995.918,44.015,988.083,39.491Z" transform="translate(-874.318 19.916)" fill="#fff"/><path d="M973.153,126.774a1.087,1.087,0,0,1-.909-.491L946.143,86.4,889.388,53.868c-8.126-4.691-14.734-17.275-14.734-28.05V-6.066c0-8.209,3.784-13.514,9.641-13.514a12.42,12.42,0,0,1,6.177,1.849L988.96,38.884c8.124,4.691,14.732,17.273,14.732,28.05V98.818a16.9,16.9,0,0,1-2.588,9.758,8.485,8.485,0,0,1-7.052,3.756h0a12.411,12.411,0,0,1-6.175-1.849l-13.637-7.869v23.074a1.085,1.085,0,0,1-1.086,1.086ZM884.295-17.409c-4.538,0-7.469,4.453-7.469,11.343V25.818c0,10.085,6.122,21.823,13.646,26.169l56.978,32.661a1.087,1.087,0,0,1,.369.347l24.249,37.053V100.735a1.086,1.086,0,0,1,1.628-.941l15.266,8.81a10.3,10.3,0,0,0,5.09,1.558h0a6.284,6.284,0,0,0,5.279-2.839,14.788,14.788,0,0,0,2.19-8.5V66.935c0-10.086-6.122-21.824-13.645-26.169L889.387-15.85A10.292,10.292,0,0,0,884.295-17.409Z" transform="translate(-874.654 19.58)" fill="#130135"/></g><g transform="translate(18.839 37.73)"><path d="M924.245,32.791,887.668,12.029V15.46l36.577,20.763Z" transform="translate(-887.668 9.359)" fill="#130135"/><path d="M944.421,34.589,887.668,2.179V5.61L944.421,38.02Z" transform="translate(-887.668 4.951)" fill="#130135"/><path d="M910.765,20.084,887.668,7.1v3.431l23.1,12.979Z" transform="translate(-887.668 7.155)" fill="#130135"/><path d="M905.958,17.418v3.431l45.511,26.307V43.725Z" transform="translate(-879.483 11.771)" fill="#130135"/><path d="M915.271,27.719v3.431l26.206,15.13V42.85Z" transform="translate(-875.316 16.381)" fill="#130135"/><path d="M929.208,29.347l30.14,17.433V43.349l-30.14-17.433Z" transform="translate(-869.078 15.574)" fill="#130135"/><path d="M939.732,40.37l14.906,8.606V45.545l-14.906-8.606Z" transform="translate(-864.368 20.507)" fill="#130135"/><path d="M887.668.685l90.27,51.793V49.047L887.668-2.746Z" transform="translate(-887.668 2.746)" fill="#130135"/><path d="M935.708,42.95l20.731,12V51.52l-20.731-12Z" transform="translate(-866.169 21.662)" fill="#130135"/><path d="M887.668,20.385l90.27,51.794V68.747l-90.27-51.793Z" transform="translate(-887.668 11.563)" fill="#130135"/></g></g><g transform="translate(825.676 109.156)"><g transform="translate(189.355 108.532)"><path d="M952.666,147.985a1.086,1.086,0,0,1-1.086-1.086v-6.44a1.086,1.086,0,1,1,2.171,0v6.44A1.086,1.086,0,0,1,952.666,147.985Z" transform="translate(-951.58 -139.374)" fill="#130135"/></g><g transform="translate(117.62 46.204)"><path d="M973.4,152.712a1.089,1.089,0,0,1-1.048-.8c-2.678-9.748-8.756-18.35-15.859-22.451L902.566,98.341a1.086,1.086,0,0,1,1.086-1.88l53.928,31.122c7.579,4.374,14.043,13.478,16.868,23.755a1.088,1.088,0,0,1-.759,1.336A1.174,1.174,0,0,1,973.4,152.712Z" transform="translate(-902.023 -96.315)" fill="#130135"/></g><g transform="translate(3.807)"><path d="M984.872,220.564l-143.245-81.9c-7.836-4.524-14.189-16.661-14.189-27.108V79.674c0-5.3-5.178-5.407-2.542-7.32.214-.156,10.65-6.146,10.878-6.277,2.484-1.417,5.716-1.274,9.251.767l143.245,81.9c7.835,4.524,14.187,16.661,14.187,27.108v31.883c0,5.713-1.9,9.739-4.9,11.473-.1.056-10.646,6.226-10.746,6.278C984.361,226.748,988.284,222.534,984.872,220.564Z" transform="translate(-823.062 -64.063)" fill="#a2db8f"/><path d="M986.493,227.136a1.276,1.276,0,0,1-1.013-.481,2.031,2.031,0,0,1-.11-1.864c.32-1.3.459-2.281-.706-2.953l-143.241-81.9c-8.126-4.694-14.733-17.276-14.733-28.052V80.007a5.36,5.36,0,0,0-2.053-4.269,2.846,2.846,0,0,1-1.235-2.167,2.5,2.5,0,0,1,1.191-1.763c.294-.213,10.878-6.284,10.981-6.343,2.9-1.65,6.588-1.387,10.33.773l143.241,81.9c8.126,4.691,14.734,17.273,14.734,28.05v31.883c0,5.89-1.985,10.414-5.446,12.413l-1.256.735c-9.432,5.515-9.483,5.54-9.536,5.569A2.5,2.5,0,0,1,986.493,227.136ZM825.678,73.713c.126.138.311.314.46.456a7.483,7.483,0,0,1,2.723,5.838v31.883c0,10.085,6.12,21.823,13.643,26.169l143.241,81.9a3.923,3.923,0,0,1,1.951,4.288c1.983-1.158,6.255-3.655,8.384-4.9l1.267-.74c2.772-1.6,4.361-5.44,4.361-10.534V176.184c0-10.085-6.122-21.823-13.645-26.167L844.823,68.12c-3.063-1.766-5.944-2.038-8.174-.767-.644.366-10.373,5.957-10.818,6.24C825.769,73.638,825.718,73.679,825.678,73.713Z" transform="translate(-823.398 -64.397)" fill="#130135"/></g><g transform="translate(171.625 144.304)"><path d="M940.081,170.642l10.159-5.8Z" transform="translate(-938.996 -163.751)" fill="#fff"/><path d="M940.419,172.062a1.085,1.085,0,0,1-.54-2.028l10.157-5.8a1.086,1.086,0,1,1,1.077,1.886l-10.157,5.8A1.093,1.093,0,0,1,940.419,172.062Z" transform="translate(-939.331 -164.086)" fill="#130135"/></g><g transform="translate(170.72 102.499)"><path d="M939.456,141.769l10.17-5.812Z" transform="translate(-938.371 -134.871)" fill="#fff"/><path d="M939.794,143.189a1.085,1.085,0,0,1-.54-2.028l10.169-5.812a1.086,1.086,0,1,1,1.077,1.886l-10.169,5.812A1.092,1.092,0,0,1,939.794,143.189Z" transform="translate(-938.706 -135.206)" fill="#130135"/></g><g transform="translate(160.768 85.939)"><path d="M932.581,130.424l10.34-5.909Z" transform="translate(-931.496 -123.431)" fill="#fff"/><path d="M932.919,131.843a1.085,1.085,0,0,1-.54-2.028l10.338-5.907a1.086,1.086,0,1,1,1.077,1.886L933.456,131.7A1.092,1.092,0,0,1,932.919,131.843Z" transform="translate(-931.831 -123.766)" fill="#130135"/></g><g transform="translate(19.017 4.638)"><path d="M834.655,74.26l10.338-5.909Z" transform="translate(-833.57 -67.265)" fill="#fff"/><path d="M834.992,75.681a1.086,1.086,0,0,1-.54-2.029l10.34-5.907a1.086,1.086,0,0,1,1.077,1.886l-10.34,5.907A1.079,1.079,0,0,1,834.992,75.681Z" transform="translate(-833.905 -67.601)" fill="#130135"/></g><g transform="translate(0 6.129)"><path d="M978.95,152.982l-143.245-81.9c-7.835-4.524-14.187.278-14.187,10.725v31.885c0,10.447,6.352,22.583,14.187,27.107L978.95,222.7c7.837,4.524,14.189-.278,14.189-10.726V180.09C993.139,169.643,986.787,157.505,978.95,152.982Z" transform="translate(-820.432 -68.295)" fill="#fff"/><path d="M984.92,225.822h0a12.408,12.408,0,0,1-6.175-1.847L835.5,142.079c-8.126-4.691-14.734-17.275-14.734-28.052V82.145c0-8.21,3.785-13.514,9.641-13.514a12.407,12.407,0,0,1,6.175,1.847l143.241,81.9c8.126,4.691,14.736,17.275,14.736,28.05v31.883a16.883,16.883,0,0,1-2.59,9.759A8.482,8.482,0,0,1,984.92,225.822ZM830.409,70.8c-4.537,0-7.469,4.453-7.469,11.343v31.882c0,10.086,6.122,21.824,13.644,26.169l143.241,81.9a10.288,10.288,0,0,0,5.1,1.559h0a6.282,6.282,0,0,0,5.278-2.837,14.773,14.773,0,0,0,2.192-8.5V180.426c0-10.085-6.122-21.823-13.646-26.167L835.5,72.361A10.3,10.3,0,0,0,830.409,70.8Z" transform="translate(-820.768 -68.631)" fill="#130135"/></g><g transform="translate(17.729 28.916)"><path d="M833.767,85.122v12.84l135.771,76.955v-12.84Z" transform="translate(-832.68 -84.037)" fill="#a2db8f"/><path d="M969.873,176.338a1.072,1.072,0,0,1-.536-.142L833.566,99.241a1.087,1.087,0,0,1-.55-.944V85.457a1.086,1.086,0,0,1,1.621-.945l135.772,76.955a1.081,1.081,0,0,1,.55.944v12.841a1.085,1.085,0,0,1-1.086,1.086ZM835.187,97.664l133.6,75.725V163.042L835.187,87.32Z" transform="translate(-833.016 -84.372)" fill="#130135"/><g transform="translate(0 21.604)"><path d="M833.767,112.887l135.771,76.955V177L833.767,100.047Z" transform="translate(-832.68 -98.962)" fill="#a2db8f"/><path d="M969.873,191.263a1.071,1.071,0,0,1-.536-.142L833.566,114.166a1.087,1.087,0,0,1-.55-.944v-12.84a1.086,1.086,0,0,1,1.621-.945l135.772,76.955a1.085,1.085,0,0,1,.55.945v12.84a1.085,1.085,0,0,1-1.086,1.086ZM835.187,112.59l133.6,75.725V177.969l-133.6-75.723Z" transform="translate(-833.016 -99.297)" fill="#130135"/></g></g></g><g transform="translate(809.801 -15.776)"><g transform="translate(58.445 8.842)"><path d="M867.3,15.5a1.086,1.086,0,0,1-1.054-.825,65.885,65.885,0,0,0-15.771-28.645,1.083,1.083,0,0,1,.041-1.534,1.083,1.083,0,0,1,1.533.041,68.121,68.121,0,0,1,16.306,29.619,1.084,1.084,0,0,1-.795,1.313A1.012,1.012,0,0,1,867.3,15.5Z" transform="translate(-850.177 15.802)" fill="#130135"/></g><g transform="translate(17.964 2.565)"><path d="M873.72,27.553c0-15.976-11.286-35.446-25.21-43.484-6.756-3.9-12.886-4.385-17.411-2.034l-8.137,4.581,1.725,3.161A25.209,25.209,0,0,0,823.3-1.559c0,15.978,11.286,35.446,25.21,43.485a27.886,27.886,0,0,0,6.077,2.656l2.519,4.309,8.966-5.01C870.787,41.348,873.72,35.692,873.72,27.553Z" transform="translate(-821.876 20.474)" fill="#a2db8f"/><path d="M857.442,50.314a1.085,1.085,0,0,1-.939-.537l-2.3-3.942a29.53,29.53,0,0,1-5.9-2.633C834.1,35,822.55,15.075,822.55-1.223a26.74,26.74,0,0,1,1.29-8.568l-1.5-2.737a1.087,1.087,0,0,1,.42-1.466l8.138-4.58c5.1-2.652,11.657-1.9,18.486,2.038,14.2,8.2,25.753,28.127,25.753,44.425,0,8.3-2.92,14.436-8.221,17.285l-8.95,5A1.074,1.074,0,0,1,857.442,50.314ZM824.763-12.628l1.213,2.222a1.083,1.083,0,0,1,.067.893,24.191,24.191,0,0,0-1.322,8.29c0,15.607,11.066,34.692,24.667,42.544a27.021,27.021,0,0,0,5.839,2.556,1.09,1.09,0,0,1,.633.494l1.98,3.39,8.037-4.492c4.58-2.461,7.093-7.921,7.093-15.382,0-15.606-11.065-34.692-24.667-42.544-6.159-3.555-12.019-4.267-16.369-2.011Z" transform="translate(-822.211 20.138)" fill="#130135"/></g><g transform="translate(0)"><ellipse cx="20.52" cy="35.542" rx="20.52" ry="35.542" transform="translate(0 20.712) rotate(-30.311)" fill="#fff"/><path d="M853.878,50.268a23.942,23.942,0,0,1-11.86-3.609c-14.2-8.2-25.753-28.126-25.753-44.423,0-11.495,5.881-18.922,14.981-18.922A23.938,23.938,0,0,1,843.1-13.077c14.2,8.2,25.753,28.127,25.753,44.423C868.857,42.841,862.977,50.268,853.878,50.268ZM831.246-14.515c-7.9,0-12.809,6.418-12.809,16.751,0,15.606,11.066,34.692,24.667,42.544A21.836,21.836,0,0,0,853.878,48.1c7.9,0,12.808-6.418,12.808-16.751,0-15.6-11.065-34.69-24.667-42.543A21.817,21.817,0,0,0,831.246-14.515Z" transform="translate(-806.909 24.248)" fill="#130135"/></g><g transform="translate(29.086 3.558)"><path d="M830.268-13.8l8.756-5Z" transform="translate(-829.728 19.743)" fill="#fff"/><rect width="10.085" height="2.172" transform="matrix(0.868, -0.496, 0.496, 0.868, 0, 5.002)" fill="#130135"/></g><g transform="translate(57.675 34.318)"><path d="M850.018,7.452l8.756-5Z" transform="translate(-849.478 -1.507)" fill="#fff"/><rect width="10.085" height="2.172" transform="translate(0 5.002) rotate(-29.735)" fill="#130135"/></g><g transform="translate(60.208 45.175)"><path d="M851.768,14.952l8.756-5Z" transform="translate(-851.228 -9.007)" fill="#fff"/><rect width="10.085" height="2.172" transform="matrix(0.868, -0.496, 0.496, 0.868, 0, 5.002)" fill="#130135"/></g><g transform="translate(60.751 50.603)"><path d="M852.143,18.7l8.756-5Z" transform="translate(-851.603 -12.757)" fill="#fff"/><rect width="10.085" height="2.172" transform="matrix(0.868, -0.496, 0.496, 0.868, 0, 5.002)" fill="#130135"/></g><g transform="translate(24.047 23.099)"><path d="M844.823,18.554a17.906,17.906,0,0,1-3.681-4.408c-.609-1.019-.588-2.125,0-2.469a4.7,4.7,0,0,0,1.879-2.1c.646.178,1.446-.059,1.446-.944a3.5,3.5,0,0,0-.932-2.383c-.158-3.863-1.476-7.833-5.92-10.4s-5.763-.12-5.92,3.561c-.533-.119-.931.4-.931,1.306a4.27,4.27,0,0,0,1.445,2.614A21.049,21.049,0,0,0,834.091,7.6c.594,1.029.614,2.158.006,2.475a4.85,4.85,0,0,1-3.681.156c-1.866-.563-3.253.562-3.253,2.859v3.984a2.682,2.682,0,0,0,1.219,2.1l18.475,10.667c.673.388,1.217.077,1.217-.695V25.166A9.479,9.479,0,0,0,844.823,18.554Z" transform="translate(-826.079 6.289)" fill="#a2db8f"/><path d="M847.738,31.432h0a2.176,2.176,0,0,1-1.09-.313L828.174,20.453a3.766,3.766,0,0,1-1.76-3.04V13.429c0-2.445,1.375-4.088,3.423-4.088a4.258,4.258,0,0,1,1.228.19,3.918,3.918,0,0,0,2.727-.014,1.966,1.966,0,0,0-.307-1.036,22.4,22.4,0,0,1-1.89-4.215,5.17,5.17,0,0,1-1.579-3.206,2.384,2.384,0,0,1,.99-2.152c.385-3.991,2.278-4.859,3.849-4.859A7.491,7.491,0,0,1,838.5-4.747c3.974,2.293,6.139,5.957,6.443,10.9a4.756,4.756,0,0,1,.953,2.823,2.023,2.023,0,0,1-1.912,2.076,5.688,5.688,0,0,1-1.859,1.846,1.673,1.673,0,0,0,.288,1.031,16.812,16.812,0,0,0,3.452,4.138,10.6,10.6,0,0,1,3.633,7.44v3.982a2.067,2.067,0,0,1-.426,1.316A1.694,1.694,0,0,1,847.738,31.432Zm-17.9-19.92c-1.131,0-1.252,1.34-1.252,1.917v3.984a1.632,1.632,0,0,0,.674,1.159L847.319,29l0-3.5a8.4,8.4,0,0,0-2.869-5.787,18.941,18.941,0,0,1-3.908-4.677,3.694,3.694,0,0,1-.52-2.716,1.984,1.984,0,0,1,.909-1.249,3.605,3.605,0,0,0,1.442-1.618,1.09,1.09,0,0,1,1.274-.586l.064,0a2.43,2.43,0,0,0-.581-1.49,1.078,1.078,0,0,1-.345-.75c-.181-4.408-1.941-7.516-5.379-9.5a5.424,5.424,0,0,0-2.556-.913c-.392,0-1.584,0-1.736,3.581a1.091,1.091,0,0,1-.423.815,1.089,1.089,0,0,1-.492.211,1.442,1.442,0,0,0-.017.233,3.364,3.364,0,0,0,1.078,1.8,1.09,1.09,0,0,1,.322.5,19.809,19.809,0,0,0,1.78,4.04,3.755,3.755,0,0,1,.5,2.808,1.9,1.9,0,0,1-.931,1.173,5.941,5.941,0,0,1-4.5.232A2.064,2.064,0,0,0,829.837,11.513Z" transform="translate(-826.414 5.953)" fill="#130135"/></g></g><g transform="translate(840.017 235.998)"><g transform="translate(59.629 23.848)"><path d="M880.246,190.517a1.086,1.086,0,0,1-1.086-1.086,31.709,31.709,0,0,0-7.045-19.16,1.086,1.086,0,0,1,1.679-1.377,33.492,33.492,0,0,1,7.537,20.536A1.086,1.086,0,0,1,880.246,190.517Z" transform="translate(-871.869 -168.498)" fill="#130135"/></g><g transform="translate(44.897 13.387)"><path d="M871.258,168.444a1.085,1.085,0,0,1-.55-.149l-8.483-5a1.086,1.086,0,0,1,1.1-1.872l8.481,5a1.085,1.085,0,0,1-.552,2.021Z" transform="translate(-861.691 -161.271)" fill="#130135"/></g><path d="M881.126,177.4l-39.719-23.424c-5.514-3.183-9.982.2-9.982,7.546v11.23c0,7.351,4.469,15.89,9.982,19.073l13.782,8.412,18.465,28.214V210.887l7.472,4.357c5.514,3.183,9.982-.2,9.982-7.546v-11.23C891.108,189.118,886.64,180.579,881.126,177.4Z" transform="translate(-830.339 -151.687)" fill="#a2db8f"/><path d="M873.99,229.867a1.091,1.091,0,0,1-.909-.491l-18.331-28.011-13.574-8.283c-5.78-3.338-10.5-12.316-10.5-20v-11.23c0-5.971,2.788-9.83,7.1-9.83a9.04,9.04,0,0,1,4.5,1.345l39.729,23.427c5.795,3.347,10.516,12.324,10.516,20.009v11.23a12.191,12.191,0,0,1-1.88,7.051,6.283,6.283,0,0,1-5.224,2.779h0a9.061,9.061,0,0,1-4.506-1.343l-5.844-3.408v15.668a1.081,1.081,0,0,1-.776,1.039A1.031,1.031,0,0,1,873.99,229.867Zm-36.21-75.673c-3,0-4.933,3.007-4.933,7.659v11.23c0,6.992,4.233,15.125,9.438,18.132l13.805,8.425a1.087,1.087,0,0,1,.343.332L872.9,225.139V211.224a1.085,1.085,0,0,1,1.633-.938l7.472,4.357c2.791,1.61,5.352,1.329,6.867-.812a10.085,10.085,0,0,0,1.482-5.8V196.8c0-6.993-4.234-15.127-9.439-18.133L841.19,155.244A6.906,6.906,0,0,0,837.779,154.194Z" transform="translate(-830.675 -152.023)" fill="#130135"/><g transform="translate(11.248 13.607)"><path d="M849.4,169.413a1.083,1.083,0,0,1-.549-.149l-9.869-5.819a1.086,1.086,0,0,1,1.1-1.872l9.868,5.819a1.085,1.085,0,0,1-.553,2.021Z" transform="translate(-838.445 -161.423)" fill="#130135"/></g><g transform="translate(26.334 22.505)"><path d="M872.053,182.775a1.072,1.072,0,0,1-.55-.151l-22.1-13.032a1.086,1.086,0,1,1,1.1-1.872l22.1,13.032a1.086,1.086,0,0,1-.551,2.022Z" transform="translate(-848.868 -167.57)" fill="#130135"/></g><g transform="translate(11.248 20.844)"><path d="M862.379,182.069a1.085,1.085,0,0,1-.55-.149l-22.849-13.475a1.086,1.086,0,0,1,1.1-1.872l22.849,13.475a1.085,1.085,0,0,1-.553,2.021Z" transform="translate(-838.445 -166.423)" fill="#130135"/></g><g transform="translate(38.206 36.741)"><path d="M868.383,185.611a1.06,1.06,0,0,1-.55-.152l-10.23-6.032a1.086,1.086,0,1,1,1.1-1.87l10.228,6.032a1.086,1.086,0,0,1-.551,2.022Z" transform="translate(-857.069 -177.405)" fill="#130135"/></g><g transform="translate(11.248 28.082)"><path d="M876.718,195.526a1.072,1.072,0,0,1-.55-.151l-37.189-21.93a1.086,1.086,0,0,1,1.1-1.872l37.187,21.93a1.086,1.086,0,0,1-.551,2.022Z" transform="translate(-838.445 -171.423)" fill="#130135"/></g></g><g transform="translate(1026.644 -35.617)"><g transform="translate(36.005 8.627)"><path d="M1008.21-7.282a1.086,1.086,0,0,1-1.009-.685c-2.168-5.451-5.893-10.108-9.958-12.455L985.01-27.635a1.087,1.087,0,0,1-.384-1.487,1.083,1.083,0,0,1,1.487-.384L998.337-22.3c4.532,2.617,8.5,7.549,10.881,13.529a1.087,1.087,0,0,1-.608,1.41A1.083,1.083,0,0,1,1008.21-7.282Z" transform="translate(-984.476 29.657)" fill="#130135"/></g><path d="M1004.905-12.8l-35.6-21c-4.942-2.853-8.947.175-8.947,6.764v10.066c0,6.588,4.005,14.242,8.947,17.1l12.355,7.54,16.551,25.29V17.225l6.7,3.905c4.94,2.853,8.947-.177,8.947-6.764V4.3C1013.853-2.289,1009.846-9.943,1004.905-12.8Z" transform="translate(-959.267 35.953)" fill="#a2db8f"/><path d="M998.543,34.384a1.085,1.085,0,0,1-.909-.491L981.216,8.808,969.07,1.4c-5.3-3.059-9.467-10.981-9.467-18.022V-26.693c0-5.422,2.543-8.924,6.481-8.924a8.217,8.217,0,0,1,4.095,1.219l35.612,21c5.226,3.017,9.483,11.107,9.483,18.032V14.7a11.038,11.038,0,0,1-1.705,6.385,5.739,5.739,0,0,1-4.774,2.538h0a8.214,8.214,0,0,1-4.1-1.219l-5.069-2.954V33.3a1.085,1.085,0,0,1-1.086,1.086Zm-32.46-67.83c-2.619,0-4.309,2.65-4.309,6.753v10.066c0,6.232,3.771,13.479,8.4,16.156l12.378,7.553a1.107,1.107,0,0,1,.343.333l14.558,22.243v-12.1a1.085,1.085,0,0,1,1.633-.938l6.7,3.905a6.1,6.1,0,0,0,3.005.925h0a3.531,3.531,0,0,0,3-1.62A8.933,8.933,0,0,0,1013.1,14.7V4.636c0-6.233-3.769-13.481-8.4-16.156l-35.614-21A6.091,6.091,0,0,0,966.084-33.446Z" transform="translate(-959.603 35.617)" fill="#130135"/><g transform="translate(11.616 17.417)"><path d="M973.838-12.359a4.215,4.215,0,0,1-2.1-.625,8.933,8.933,0,0,1-4.107-7.087c0-2.1,1.184-3.513,2.946-3.513a4.211,4.211,0,0,1,2.1.625,8.933,8.933,0,0,1,4.108,7.087C976.784-13.771,975.6-12.359,973.838-12.359ZM970.574-21.7c-.96,0-1.064,1.141-1.064,1.631a7.089,7.089,0,0,0,3.166,5.457,2.415,2.415,0,0,0,1.162.373c.96,0,1.062-1.141,1.062-1.631a7.087,7.087,0,0,0-3.166-5.457A2.421,2.421,0,0,0,970.574-21.7Z" transform="translate(-967.628 23.585)" fill="#130135"/></g><g transform="translate(23.062 24.084)"><path d="M981.745-7.753a4.215,4.215,0,0,1-2.1-.625,8.929,8.929,0,0,1-4.107-7.087c0-2.1,1.184-3.513,2.946-3.513a4.21,4.21,0,0,1,2.1.625,8.933,8.933,0,0,1,4.108,7.087C984.691-9.165,983.507-7.753,981.745-7.753ZM978.481-17.1c-.96,0-1.063,1.142-1.063,1.631a7.092,7.092,0,0,0,3.164,5.457,2.421,2.421,0,0,0,1.162.373c.96,0,1.063-1.141,1.063-1.631a7.091,7.091,0,0,0-3.166-5.457A2.42,2.42,0,0,0,978.481-17.1Z" transform="translate(-975.535 18.979)" fill="#130135"/></g><g transform="translate(34.508 30.751)"><path d="M989.652-3.147a4.215,4.215,0,0,1-2.1-.625,8.931,8.931,0,0,1-4.107-7.087c0-2.1,1.184-3.513,2.946-3.513a4.226,4.226,0,0,1,2.1.625A8.933,8.933,0,0,1,992.6-6.661C992.6-4.56,991.414-3.147,989.652-3.147Zm-3.264-9.344c-.96,0-1.062,1.142-1.062,1.631A7.092,7.092,0,0,0,988.49-5.4a2.425,2.425,0,0,0,1.162.373c.96,0,1.064-1.141,1.064-1.631a7.085,7.085,0,0,0-3.167-5.457A2.415,2.415,0,0,0,986.388-12.491Z" transform="translate(-983.442 14.373)" fill="#130135"/></g></g></g></svg>