<svg xmlns="http://www.w3.org/2000/svg" width="456.929" height="423.485" viewBox="0 0 456.929 423.485"><g transform="translate(-165.468 -519.672)"><g transform="translate(254.989 519.672)"><g transform="translate(2.601 212.521)"><path d="M290.668,733.267a.819.819,0,0,0,0,1.551,2.972,2.972,0,0,0,2.687,0,.818.818,0,0,0,0-1.551A2.971,2.971,0,0,0,290.668,733.267Z" transform="translate(-198.788 -631.58)" fill="#150036"/><path d="M285.894,730.511a.819.819,0,0,0,0,1.553,2.981,2.981,0,0,0,2.687,0,.82.82,0,0,0,0-1.553A2.98,2.98,0,0,0,285.894,730.511Z" transform="translate(-201.041 -632.88)" fill="#150036"/><path d="M281.117,727.756a.819.819,0,0,0,0,1.551,2.974,2.974,0,0,0,2.689,0,.819.819,0,0,0,0-1.551A2.975,2.975,0,0,0,281.117,727.756Z" transform="translate(-203.294 -634.18)" fill="#150036"/><path d="M276.342,725a.819.819,0,0,0,0,1.551,2.974,2.974,0,0,0,2.689,0,.819.819,0,0,0,0-1.551A2.974,2.974,0,0,0,276.342,725Z" transform="translate(-205.547 -635.48)" fill="#150036"/><path d="M300.259,733.238a.819.819,0,0,0,0,1.551,2.975,2.975,0,0,0,2.689,0,.819.819,0,0,0,0-1.551A2.974,2.974,0,0,0,300.259,733.238Z" transform="translate(-194.264 -631.594)" fill="#150036"/><path d="M295.486,730.483a.817.817,0,0,0,0,1.55,2.971,2.971,0,0,0,2.687,0,.818.818,0,0,0,0-1.55A2.971,2.971,0,0,0,295.486,730.483Z" transform="translate(-196.516 -632.894)" fill="#150036"/><path d="M290.709,727.727a.819.819,0,0,0,0,1.551,2.971,2.971,0,0,0,2.687,0,.818.818,0,0,0,0-1.551A2.971,2.971,0,0,0,290.709,727.727Z" transform="translate(-198.769 -634.194)" fill="#150036"/><path d="M285.934,724.972a.819.819,0,0,0,0,1.551,2.971,2.971,0,0,0,2.687,0,.818.818,0,0,0,0-1.551A2.971,2.971,0,0,0,285.934,724.972Z" transform="translate(-201.022 -635.493)" fill="#150036"/><path d="M281.159,722.217a.819.819,0,0,0,0,1.551,2.972,2.972,0,0,0,2.687,0,.818.818,0,0,0,0-1.551A2.971,2.971,0,0,0,281.159,722.217Z" transform="translate(-203.274 -636.793)" fill="#150036"/><path d="M305.036,730.483a.817.817,0,0,0,0,1.55,2.971,2.971,0,0,0,2.687,0,.818.818,0,0,0,0-1.55A2.971,2.971,0,0,0,305.036,730.483Z" transform="translate(-192.011 -632.894)" fill="#150036"/><path d="M300.259,727.727a.819.819,0,0,0,0,1.551,2.974,2.974,0,0,0,2.689,0,.819.819,0,0,0,0-1.551A2.974,2.974,0,0,0,300.259,727.727Z" transform="translate(-194.264 -634.194)" fill="#150036"/><path d="M290.709,722.217a.819.819,0,0,0,0,1.551,2.971,2.971,0,0,0,2.687,0,.818.818,0,0,0,0-1.551A2.971,2.971,0,0,0,290.709,722.217Z" transform="translate(-198.769 -636.793)" fill="#150036"/><path d="M285.934,719.462a.819.819,0,0,0,0,1.551,2.971,2.971,0,0,0,2.687,0,.818.818,0,0,0,0-1.551A2.971,2.971,0,0,0,285.934,719.462Z" transform="translate(-201.022 -638.093)" fill="#150036"/><path d="M309.811,727.727a.818.818,0,0,0,0,1.551,2.971,2.971,0,0,0,2.687,0,.819.819,0,0,0,0-1.551A2.971,2.971,0,0,0,309.811,727.727Z" transform="translate(-189.758 -634.194)" fill="#150036"/><path d="M305.036,724.972a.818.818,0,0,0,0,1.551,2.971,2.971,0,0,0,2.687,0,.819.819,0,0,0,0-1.551A2.971,2.971,0,0,0,305.036,724.972Z" transform="translate(-192.011 -635.493)" fill="#150036"/><path d="M300.259,722.217a.819.819,0,0,0,0,1.551,2.975,2.975,0,0,0,2.689,0,.819.819,0,0,0,0-1.551A2.974,2.974,0,0,0,300.259,722.217Z" transform="translate(-194.264 -636.793)" fill="#150036"/><path d="M295.484,719.462a.819.819,0,0,0,0,1.551,2.975,2.975,0,0,0,2.689,0,.819.819,0,0,0,0-1.551A2.974,2.974,0,0,0,295.484,719.462Z" transform="translate(-196.516 -638.093)" fill="#150036"/><path d="M290.709,716.706a.819.819,0,0,0,0,1.551,2.971,2.971,0,0,0,2.687,0,.818.818,0,0,0,0-1.551A2.98,2.98,0,0,0,290.709,716.706Z" transform="translate(-198.769 -639.393)" fill="#150036"/><path d="M314.586,724.972a.819.819,0,0,0,0,1.551,2.971,2.971,0,0,0,2.687,0,.818.818,0,0,0,0-1.551A2.971,2.971,0,0,0,314.586,724.972Z" transform="translate(-187.506 -635.493)" fill="#150036"/><path d="M309.811,722.217a.818.818,0,0,0,0,1.551,2.971,2.971,0,0,0,2.687,0,.819.819,0,0,0,0-1.551A2.971,2.971,0,0,0,309.811,722.217Z" transform="translate(-189.758 -636.793)" fill="#150036"/><path d="M305.036,719.462a.818.818,0,0,0,0,1.551,2.972,2.972,0,0,0,2.687,0,.819.819,0,0,0,0-1.551A2.971,2.971,0,0,0,305.036,719.462Z" transform="translate(-192.011 -638.093)" fill="#150036"/><path d="M300.259,716.706a.819.819,0,0,0,0,1.551,2.974,2.974,0,0,0,2.689,0,.819.819,0,0,0,0-1.551A2.983,2.983,0,0,0,300.259,716.706Z" transform="translate(-194.264 -639.393)" fill="#150036"/><path d="M295.484,713.951a.819.819,0,0,0,0,1.551,2.974,2.974,0,0,0,2.689,0,.819.819,0,0,0,0-1.551A2.974,2.974,0,0,0,295.484,713.951Z" transform="translate(-196.516 -640.693)" fill="#150036"/><path d="M367.113,749.769a.818.818,0,0,0,0,1.551,2.972,2.972,0,0,0,2.687,0,.819.819,0,0,0,0-1.551A2.971,2.971,0,0,0,367.113,749.769Z" transform="translate(-162.726 -623.795)" fill="#150036"/><path d="M362.338,747.014a.818.818,0,0,0,0,1.551,2.972,2.972,0,0,0,2.687,0,.819.819,0,0,0,0-1.551A2.971,2.971,0,0,0,362.338,747.014Z" transform="translate(-164.979 -625.095)" fill="#150036"/><path d="M357.561,744.259a.819.819,0,0,0,0,1.551,2.975,2.975,0,0,0,2.689,0,.819.819,0,0,0,0-1.551A2.974,2.974,0,0,0,357.561,744.259Z" transform="translate(-167.231 -626.395)" fill="#150036"/><path d="M352.786,741.5a.818.818,0,0,0,0,1.55,2.965,2.965,0,0,0,2.689,0,.818.818,0,0,0,0-1.55A2.974,2.974,0,0,0,352.786,741.5Z" transform="translate(-169.484 -627.694)" fill="#150036"/><path d="M348.011,738.748a.819.819,0,0,0,0,1.551,2.972,2.972,0,0,0,2.687,0,.818.818,0,0,0,0-1.551A2.971,2.971,0,0,0,348.011,738.748Z" transform="translate(-171.736 -628.995)" fill="#150036"/><path d="M343.237,735.993a.819.819,0,0,0,0,1.551,2.971,2.971,0,0,0,2.687,0,.819.819,0,0,0,0-1.551A2.971,2.971,0,0,0,343.237,735.993Z" transform="translate(-173.989 -630.294)" fill="#150036"/><ellipse cx="1.9" cy="1.097" rx="1.9" ry="1.097" transform="translate(161.663 101.323)" fill="#150036"/><path d="M333.685,730.483a.818.818,0,0,0,0,1.55,2.974,2.974,0,0,0,2.689,0,.818.818,0,0,0,0-1.55A2.974,2.974,0,0,0,333.685,730.483Z" transform="translate(-178.495 -632.894)" fill="#150036"/><path d="M328.91,727.727a.819.819,0,0,0,0,1.551,2.974,2.974,0,0,0,2.689,0,.819.819,0,0,0,0-1.551A2.974,2.974,0,0,0,328.91,727.727Z" transform="translate(-180.747 -634.194)" fill="#150036"/><path d="M324.135,724.972a.819.819,0,0,0,0,1.551,2.974,2.974,0,0,0,2.689,0,.819.819,0,0,0,0-1.551A2.974,2.974,0,0,0,324.135,724.972Z" transform="translate(-183 -635.493)" fill="#150036"/><path d="M319.36,722.217a.819.819,0,0,0,0,1.551,2.971,2.971,0,0,0,2.687,0,.818.818,0,0,0,0-1.551A2.971,2.971,0,0,0,319.36,722.217Z" transform="translate(-185.253 -636.793)" fill="#150036"/><ellipse cx="1.901" cy="1.097" rx="1.901" ry="1.097" transform="translate(126.523 81.048)" fill="#150036"/><path d="M309.811,716.707a.817.817,0,0,0,0,1.55,2.971,2.971,0,0,0,2.687,0,.818.818,0,0,0,0-1.55A2.971,2.971,0,0,0,309.811,716.707Z" transform="translate(-189.758 -639.393)" fill="#150036"/><path d="M305.036,713.951a.818.818,0,0,0,0,1.551,2.971,2.971,0,0,0,2.687,0,.819.819,0,0,0,0-1.551A2.971,2.971,0,0,0,305.036,713.951Z" transform="translate(-192.011 -640.693)" fill="#150036"/><path d="M300.259,711.2a.819.819,0,0,0,0,1.551,2.975,2.975,0,0,0,2.689,0,.819.819,0,0,0,0-1.551A2.974,2.974,0,0,0,300.259,711.2Z" transform="translate(-194.264 -641.992)" fill="#150036"/><path d="M376.662,749.769a.819.819,0,0,0,0,1.551,2.971,2.971,0,0,0,2.687,0,.818.818,0,0,0,0-1.551A2.971,2.971,0,0,0,376.662,749.769Z" transform="translate(-158.22 -623.795)" fill="#150036"/><path d="M371.888,747.014a.819.819,0,0,0,0,1.551,2.972,2.972,0,0,0,2.687,0,.819.819,0,0,0,0-1.551A2.971,2.971,0,0,0,371.888,747.014Z" transform="translate(-160.473 -625.095)" fill="#150036"/><path d="M367.113,744.259a.818.818,0,0,0,0,1.551,2.972,2.972,0,0,0,2.687,0,.819.819,0,0,0,0-1.551A2.971,2.971,0,0,0,367.113,744.259Z" transform="translate(-162.726 -626.395)" fill="#150036"/><path d="M362.336,741.5a.818.818,0,0,0,0,1.55,2.965,2.965,0,0,0,2.689,0,.818.818,0,0,0,0-1.55A2.974,2.974,0,0,0,362.336,741.5Z" transform="translate(-164.979 -627.694)" fill="#150036"/><path d="M357.561,738.748a.819.819,0,0,0,0,1.551,2.975,2.975,0,0,0,2.689,0,.819.819,0,0,0,0-1.551A2.974,2.974,0,0,0,357.561,738.748Z" transform="translate(-167.231 -628.995)" fill="#150036"/><path d="M352.786,735.993a.819.819,0,0,0,0,1.551,2.974,2.974,0,0,0,2.689,0,.819.819,0,0,0,0-1.551A2.974,2.974,0,0,0,352.786,735.993Z" transform="translate(-169.484 -630.294)" fill="#150036"/><path d="M348.011,733.238a.819.819,0,0,0,0,1.551,2.972,2.972,0,0,0,2.687,0,.818.818,0,0,0,0-1.551A2.971,2.971,0,0,0,348.011,733.238Z" transform="translate(-171.736 -631.594)" fill="#150036"/><path d="M343.237,730.483a.817.817,0,0,0,0,1.55,2.976,2.976,0,0,0,2.687,0,.819.819,0,0,0,0-1.551A2.971,2.971,0,0,0,343.237,730.483Z" transform="translate(-173.989 -632.894)" fill="#150036"/><path d="M338.462,727.727a.818.818,0,0,0,0,1.551,2.971,2.971,0,0,0,2.687,0,.819.819,0,0,0,0-1.551A2.971,2.971,0,0,0,338.462,727.727Z" transform="translate(-176.242 -634.194)" fill="#150036"/><path d="M333.685,724.972a.819.819,0,0,0,0,1.551,2.974,2.974,0,0,0,2.689,0,.819.819,0,0,0,0-1.551A2.974,2.974,0,0,0,333.685,724.972Z" transform="translate(-178.495 -635.493)" fill="#150036"/><path d="M328.91,722.217a.819.819,0,0,0,0,1.551,2.975,2.975,0,0,0,2.689,0,.819.819,0,0,0,0-1.551A2.974,2.974,0,0,0,328.91,722.217Z" transform="translate(-180.747 -636.793)" fill="#150036"/><path d="M324.135,719.462a.819.819,0,0,0,0,1.551,2.975,2.975,0,0,0,2.689,0,.819.819,0,0,0,0-1.551A2.974,2.974,0,0,0,324.135,719.462Z" transform="translate(-183 -638.093)" fill="#150036"/><path d="M319.36,716.707a.818.818,0,0,0,0,1.55,2.971,2.971,0,0,0,2.687,0,.817.817,0,0,0,0-1.55A2.971,2.971,0,0,0,319.36,716.707Z" transform="translate(-185.253 -639.393)" fill="#150036"/><ellipse cx="1.901" cy="1.096" rx="1.901" ry="1.096" transform="translate(126.523 72.938)" fill="#150036"/><path d="M309.811,711.2a.818.818,0,0,0,0,1.551,2.971,2.971,0,0,0,2.687,0,.819.819,0,0,0,0-1.551A2.971,2.971,0,0,0,309.811,711.2Z" transform="translate(-189.758 -641.992)" fill="#150036"/><path d="M305.036,708.441a.818.818,0,0,0,0,1.551,2.972,2.972,0,0,0,2.687,0,.819.819,0,0,0,0-1.551A2.971,2.971,0,0,0,305.036,708.441Z" transform="translate(-192.011 -643.292)" fill="#150036"/><path d="M376.662,744.259a.819.819,0,0,0,0,1.551,2.971,2.971,0,0,0,2.687,0,.818.818,0,0,0,0-1.551A2.971,2.971,0,0,0,376.662,744.259Z" transform="translate(-158.22 -626.395)" fill="#150036"/><path d="M371.888,741.5a.817.817,0,0,0,0,1.55,2.962,2.962,0,0,0,2.687,0,.818.818,0,0,0,0-1.55A2.971,2.971,0,0,0,371.888,741.5Z" transform="translate(-160.473 -627.694)" fill="#150036"/><path d="M367.113,738.748a.818.818,0,0,0,0,1.551,2.972,2.972,0,0,0,2.687,0,.819.819,0,0,0,0-1.551A2.971,2.971,0,0,0,367.113,738.748Z" transform="translate(-162.726 -628.995)" fill="#150036"/><path d="M362.336,735.993a.819.819,0,0,0,0,1.551,2.974,2.974,0,0,0,2.689,0,.819.819,0,0,0,0-1.551A2.974,2.974,0,0,0,362.336,735.993Z" transform="translate(-164.979 -630.294)" fill="#150036"/><path d="M357.561,733.238a.819.819,0,0,0,0,1.551,2.975,2.975,0,0,0,2.689,0,.819.819,0,0,0,0-1.551A2.974,2.974,0,0,0,357.561,733.238Z" transform="translate(-167.231 -631.594)" fill="#150036"/><path d="M352.786,730.483a.819.819,0,0,0,0,1.551,2.983,2.983,0,0,0,2.689,0,.819.819,0,0,0,0-1.551A2.974,2.974,0,0,0,352.786,730.483Z" transform="translate(-169.484 -632.894)" fill="#150036"/><path d="M348.011,727.727a.819.819,0,0,0,0,1.551,2.971,2.971,0,0,0,2.687,0,.819.819,0,0,0,0-1.551A2.971,2.971,0,0,0,348.011,727.727Z" transform="translate(-171.736 -634.194)" fill="#150036"/><path d="M343.237,724.972a.818.818,0,0,0,0,1.551,2.971,2.971,0,0,0,2.687,0,.819.819,0,0,0,0-1.551A2.971,2.971,0,0,0,343.237,724.972Z" transform="translate(-173.989 -635.493)" fill="#150036"/><path d="M338.462,722.217a.818.818,0,0,0,0,1.551,2.972,2.972,0,0,0,2.687,0,.819.819,0,0,0,0-1.551A2.971,2.971,0,0,0,338.462,722.217Z" transform="translate(-176.242 -636.793)" fill="#150036"/><path d="M333.685,719.462a.819.819,0,0,0,0,1.551,2.975,2.975,0,0,0,2.689,0,.819.819,0,0,0,0-1.551A2.974,2.974,0,0,0,333.685,719.462Z" transform="translate(-178.495 -638.093)" fill="#150036"/><path d="M328.91,716.707a.818.818,0,0,0,0,1.55,2.974,2.974,0,0,0,2.689,0,.818.818,0,0,0,0-1.55A2.974,2.974,0,0,0,328.91,716.707Z" transform="translate(-180.747 -639.393)" fill="#150036"/><path d="M324.135,713.951a.819.819,0,0,0,0,1.551,2.974,2.974,0,0,0,2.689,0,.819.819,0,0,0,0-1.551A2.974,2.974,0,0,0,324.135,713.951Z" transform="translate(-183 -640.693)" fill="#150036"/><path d="M319.36,711.2a.819.819,0,0,0,0,1.551,2.971,2.971,0,0,0,2.687,0,.818.818,0,0,0,0-1.551A2.971,2.971,0,0,0,319.36,711.2Z" transform="translate(-185.253 -641.992)" fill="#150036"/><path d="M314.586,708.441a.818.818,0,0,0,0,1.551,2.971,2.971,0,0,0,2.687,0,.819.819,0,0,0,0-1.551A2.971,2.971,0,0,0,314.586,708.441Z" transform="translate(-187.506 -643.292)" fill="#150036"/><path d="M309.809,705.686a.817.817,0,0,0,0,1.55,2.971,2.971,0,0,0,2.687,0,.818.818,0,0,0,0-1.55A2.974,2.974,0,0,0,309.809,705.686Z" transform="translate(-189.758 -644.592)" fill="#150036"/><path d="M274.248,722.285a2.979,2.979,0,0,0-2.689,0,.819.819,0,0,0,0,1.551,2.979,2.979,0,0,0,2.689,0A.819.819,0,0,0,274.248,722.285Z" transform="translate(-207.804 -636.761)" fill="#150036"/><path d="M266.777,719.526a.819.819,0,0,0,0,1.551,2.974,2.974,0,0,0,2.689,0,.819.819,0,0,0,0-1.551A2.975,2.975,0,0,0,266.777,719.526Z" transform="translate(-210.059 -638.063)" fill="#150036"/><path d="M262,716.771a.819.819,0,0,0,0,1.551,2.971,2.971,0,0,0,2.687,0,.818.818,0,0,0,0-1.551A2.971,2.971,0,0,0,262,716.771Z" transform="translate(-212.311 -639.362)" fill="#150036"/><path d="M279.064,719.5a2.972,2.972,0,0,0-2.687,0,.819.819,0,0,0,0,1.551,2.976,2.976,0,0,0,2.687,0A.819.819,0,0,0,279.064,719.5Z" transform="translate(-205.532 -638.075)" fill="#150036"/><path d="M271.594,716.742a.819.819,0,0,0,0,1.551,2.971,2.971,0,0,0,2.687,0,.819.819,0,0,0,0-1.551A2.971,2.971,0,0,0,271.594,716.742Z" transform="translate(-207.786 -639.376)" fill="#150036"/><path d="M266.82,713.987a.818.818,0,0,0,0,1.551,2.972,2.972,0,0,0,2.687,0,.819.819,0,0,0,0-1.551A2.972,2.972,0,0,0,266.82,713.987Z" transform="translate(-210.039 -640.676)" fill="#150036"/><path d="M262.043,711.232a.818.818,0,0,0,0,1.55,2.974,2.974,0,0,0,2.689,0,.818.818,0,0,0,0-1.55A2.965,2.965,0,0,0,262.043,711.232Z" transform="translate(-212.292 -641.976)" fill="#150036"/><path d="M283.839,716.747a2.967,2.967,0,0,0-2.687,0,.818.818,0,0,0,0,1.55,2.966,2.966,0,0,0,2.687,0A.818.818,0,0,0,283.839,716.747Z" transform="translate(-203.279 -639.375)" fill="#150036"/><path d="M276.369,713.987a.819.819,0,0,0,0,1.551,2.971,2.971,0,0,0,2.687,0,.818.818,0,0,0,0-1.551A2.971,2.971,0,0,0,276.369,713.987Z" transform="translate(-205.534 -640.676)" fill="#150036"/><path d="M271.595,711.232a.817.817,0,0,0,0,1.55,2.971,2.971,0,0,0,2.687,0,.818.818,0,0,0,0-1.55A2.971,2.971,0,0,0,271.595,711.232Z" transform="translate(-207.787 -641.975)" fill="#150036"/><ellipse cx="1.901" cy="1.097" rx="1.901" ry="1.097" transform="translate(56.223 64.88)" fill="#150036"/><path d="M288.615,713.99a2.978,2.978,0,0,0-2.689,0,.819.819,0,0,0,0,1.551,2.967,2.967,0,0,0,2.687,0A.819.819,0,0,0,288.615,713.99Z" transform="translate(-201.026 -640.675)" fill="#150036"/><path d="M281.144,711.232a.818.818,0,0,0,0,1.55,2.971,2.971,0,0,0,2.687,0,.817.817,0,0,0,0-1.55A2.971,2.971,0,0,0,281.144,711.232Z" transform="translate(-203.281 -641.975)" fill="#150036"/><path d="M276.369,708.476a.819.819,0,0,0,0,1.551,2.971,2.971,0,0,0,2.687,0,.819.819,0,0,0,0-1.551A2.971,2.971,0,0,0,276.369,708.476Z" transform="translate(-205.534 -643.276)" fill="#150036"/><path d="M271.595,705.721a.818.818,0,0,0,0,1.551,2.971,2.971,0,0,0,2.687,0,.819.819,0,0,0,0-1.551A2.972,2.972,0,0,0,271.595,705.721Z" transform="translate(-207.787 -644.575)" fill="#150036"/><path d="M266.82,702.966a.818.818,0,0,0,0,1.551,2.971,2.971,0,0,0,2.687,0,.819.819,0,0,0,0-1.551A2.972,2.972,0,0,0,266.82,702.966Z" transform="translate(-210.039 -645.875)" fill="#150036"/><path d="M293.39,711.235a2.979,2.979,0,0,0-2.689,0,.819.819,0,0,0,0,1.551,2.979,2.979,0,0,0,2.689,0A.819.819,0,0,0,293.39,711.235Z" transform="translate(-198.774 -641.974)" fill="#150036"/><path d="M285.919,708.476a.819.819,0,0,0,0,1.551,2.971,2.971,0,0,0,2.687,0,.818.818,0,0,0,0-1.551A2.971,2.971,0,0,0,285.919,708.476Z" transform="translate(-201.029 -643.276)" fill="#150036"/><ellipse cx="1.901" cy="1.097" rx="1.901" ry="1.097" transform="translate(77.307 60.825)" fill="#150036"/><path d="M276.369,702.966a.819.819,0,0,0,0,1.551,2.971,2.971,0,0,0,2.687,0,.819.819,0,0,0,0-1.551A2.972,2.972,0,0,0,276.369,702.966Z" transform="translate(-205.534 -645.875)" fill="#150036"/><path d="M274.282,700.211a2.974,2.974,0,0,0-2.689,0,.819.819,0,0,0,0,1.551,2.974,2.974,0,0,0,2.689,0,.819.819,0,0,0,0-1.551Z" transform="translate(-207.787 -647.174)" fill="#150036"/><path d="M298.165,708.481a2.966,2.966,0,0,0-2.687,0,.819.819,0,0,0-.006,1.551,2.979,2.979,0,0,0,2.689,0A.819.819,0,0,0,298.165,708.481Z" transform="translate(-196.521 -643.274)" fill="#150036"/><path d="M290.694,705.721a.819.819,0,0,0,0,1.551,2.974,2.974,0,0,0,2.689,0,.819.819,0,0,0,0-1.551A2.975,2.975,0,0,0,290.694,705.721Z" transform="translate(-198.776 -644.575)" fill="#150036"/><path d="M285.919,702.966a.819.819,0,0,0,0,1.551,2.971,2.971,0,0,0,2.687,0,.818.818,0,0,0,0-1.551A2.972,2.972,0,0,0,285.919,702.966Z" transform="translate(-201.029 -645.875)" fill="#150036"/><path d="M281.144,700.211a.819.819,0,0,0,0,1.551,2.971,2.971,0,0,0,2.687,0,.818.818,0,0,0,0-1.551A2.971,2.971,0,0,0,281.144,700.211Z" transform="translate(-203.281 -647.174)" fill="#150036"/><path d="M276.37,697.456a.818.818,0,0,0,0,1.55,2.971,2.971,0,0,0,2.687,0,.818.818,0,0,0,0-1.55A2.971,2.971,0,0,0,276.37,697.456Z" transform="translate(-205.534 -648.474)" fill="#150036"/><path d="M271.593,694.7a.819.819,0,0,0,0,1.551,2.974,2.974,0,0,0,2.689,0,.819.819,0,0,0,0-1.551A2.975,2.975,0,0,0,271.593,694.7Z" transform="translate(-207.787 -649.774)" fill="#150036"/><path d="M266.818,691.945a.819.819,0,0,0,0,1.551,2.975,2.975,0,0,0,2.689,0,.819.819,0,0,0,0-1.551A2.975,2.975,0,0,0,266.818,691.945Z" transform="translate(-210.04 -651.074)" fill="#150036"/><path d="M262.043,689.19a.819.819,0,0,0,0,1.551,2.974,2.974,0,0,0,2.689,0,.819.819,0,0,0,0-1.551A2.975,2.975,0,0,0,262.043,689.19Z" transform="translate(-212.292 -652.374)" fill="#150036"/><ellipse cx="1.901" cy="1.097" rx="1.901" ry="1.097" transform="translate(42.167 32.44)" fill="#150036"/><path d="M252.493,683.679a.819.819,0,0,0,0,1.551,2.971,2.971,0,0,0,2.687,0,.818.818,0,0,0,0-1.551A2.971,2.971,0,0,0,252.493,683.679Z" transform="translate(-216.797 -654.974)" fill="#150036"/><path d="M247.719,680.924a.818.818,0,0,0,0,1.551,2.971,2.971,0,0,0,2.687,0,.819.819,0,0,0,0-1.551A2.972,2.972,0,0,0,247.719,680.924Z" transform="translate(-219.05 -656.273)" fill="#150036"/><path d="M242.944,678.169a.818.818,0,0,0,0,1.551,2.971,2.971,0,0,0,2.687,0,.819.819,0,0,0,0-1.551A2.971,2.971,0,0,0,242.944,678.169Z" transform="translate(-221.303 -657.573)" fill="#150036"/><path d="M238.167,675.414a.819.819,0,0,0,0,1.551,2.974,2.974,0,0,0,2.689,0,.819.819,0,0,0,0-1.551A2.974,2.974,0,0,0,238.167,675.414Z" transform="translate(-223.556 -658.873)" fill="#150036"/><path d="M233.392,672.658a.819.819,0,0,0,0,1.551,2.971,2.971,0,0,0,2.687,0,.819.819,0,0,0,0-1.551A2.984,2.984,0,0,0,233.392,672.658Z" transform="translate(-225.808 -660.172)" fill="#150036"/><path d="M228.617,669.9a.819.819,0,0,0,0,1.551,2.971,2.971,0,0,0,2.687,0,.818.818,0,0,0,0-1.551A2.972,2.972,0,0,0,228.617,669.9Z" transform="translate(-228.061 -661.472)" fill="#150036"/><path d="M302.94,705.726a2.966,2.966,0,0,0-2.687,0,.819.819,0,0,0-.006,1.551,2.979,2.979,0,0,0,2.689,0A.819.819,0,0,0,302.94,705.726Z" transform="translate(-194.269 -644.574)" fill="#150036"/><path d="M295.469,702.966a.819.819,0,0,0,0,1.551,2.974,2.974,0,0,0,2.689,0,.819.819,0,0,0,0-1.551A2.975,2.975,0,0,0,295.469,702.966Z" transform="translate(-196.523 -645.875)" fill="#150036"/><path d="M290.694,700.211a.819.819,0,0,0,0,1.551,2.975,2.975,0,0,0,2.689,0,.819.819,0,0,0,0-1.551A2.975,2.975,0,0,0,290.694,700.211Z" transform="translate(-198.776 -647.174)" fill="#150036"/><path d="M285.919,697.456a.818.818,0,0,0,0,1.55,2.971,2.971,0,0,0,2.687,0,.817.817,0,0,0,0-1.55A2.971,2.971,0,0,0,285.919,697.456Z" transform="translate(-201.029 -648.474)" fill="#150036"/><ellipse cx="1.9" cy="1.097" rx="1.9" ry="1.097" transform="translate(77.306 44.605)" fill="#150036"/><path d="M276.37,691.945a.818.818,0,0,0,0,1.551,2.971,2.971,0,0,0,2.687,0,.819.819,0,0,0,0-1.551A2.971,2.971,0,0,0,276.37,691.945Z" transform="translate(-205.534 -651.074)" fill="#150036"/><path d="M271.593,689.19a.819.819,0,0,0,0,1.551,2.974,2.974,0,0,0,2.689,0,.819.819,0,0,0,0-1.551A2.974,2.974,0,0,0,271.593,689.19Z" transform="translate(-207.787 -652.374)" fill="#150036"/><path d="M266.818,686.435a.818.818,0,0,0,0,1.55,2.974,2.974,0,0,0,2.689,0,.818.818,0,0,0,0-1.55A2.965,2.965,0,0,0,266.818,686.435Z" transform="translate(-210.04 -653.674)" fill="#150036"/><path d="M262.043,683.679a.819.819,0,0,0,0,1.551,2.974,2.974,0,0,0,2.689,0,.819.819,0,0,0,0-1.551A2.975,2.975,0,0,0,262.043,683.679Z" transform="translate(-212.292 -654.974)" fill="#150036"/><path d="M257.268,680.924a.819.819,0,0,0,0,1.551,2.974,2.974,0,0,0,2.689,0,.819.819,0,0,0,0-1.551A2.975,2.975,0,0,0,257.268,680.924Z" transform="translate(-214.545 -656.273)" fill="#150036"/><ellipse cx="1.901" cy="1.097" rx="1.901" ry="1.097" transform="translate(35.139 20.275)" fill="#150036"/><path d="M247.719,675.414a.818.818,0,0,0,0,1.551,2.971,2.971,0,0,0,2.687,0,.819.819,0,0,0,0-1.551A2.971,2.971,0,0,0,247.719,675.414Z" transform="translate(-219.05 -658.873)" fill="#150036"/><path d="M242.944,672.658a.818.818,0,0,0,0,1.551,2.971,2.971,0,0,0,2.687,0,.819.819,0,0,0,0-1.551A2.981,2.981,0,0,0,242.944,672.658Z" transform="translate(-221.303 -660.172)" fill="#150036"/><path d="M238.167,669.9a.819.819,0,0,0,0,1.551,2.974,2.974,0,0,0,2.689,0,.819.819,0,0,0,0-1.551A2.975,2.975,0,0,0,238.167,669.9Z" transform="translate(-223.556 -661.472)" fill="#150036"/><path d="M233.392,667.148a.819.819,0,0,0,0,1.551,2.974,2.974,0,0,0,2.689,0,.819.819,0,0,0,0-1.551A2.975,2.975,0,0,0,233.392,667.148Z" transform="translate(-225.808 -662.772)" fill="#150036"/><path d="M228.617,664.393a.818.818,0,0,0,0,1.55,2.962,2.962,0,0,0,2.687,0,.817.817,0,0,0,0-1.55A2.972,2.972,0,0,0,228.617,664.393Z" transform="translate(-228.061 -664.072)" fill="#150036"/><path d="M307.715,702.969a2.971,2.971,0,0,0-2.687,0,.818.818,0,0,0-.006,1.55,2.97,2.97,0,0,0,2.689,0A.819.819,0,0,0,307.715,702.969Z" transform="translate(-192.016 -645.874)" fill="#150036"/><path d="M300.246,700.211a.818.818,0,0,0,0,1.551,2.972,2.972,0,0,0,2.687,0,.819.819,0,0,0,0-1.551A2.972,2.972,0,0,0,300.246,700.211Z" transform="translate(-194.271 -647.174)" fill="#150036"/><path d="M295.469,697.456a.818.818,0,0,0,0,1.55,2.974,2.974,0,0,0,2.689,0,.818.818,0,0,0,0-1.55A2.974,2.974,0,0,0,295.469,697.456Z" transform="translate(-196.523 -648.474)" fill="#150036"/><path d="M290.694,694.7a.819.819,0,0,0,0,1.551,2.974,2.974,0,0,0,2.689,0,.819.819,0,0,0,0-1.551A2.975,2.975,0,0,0,290.694,694.7Z" transform="translate(-198.776 -649.774)" fill="#150036"/><path d="M285.919,691.945a.819.819,0,0,0,0,1.551,2.971,2.971,0,0,0,2.687,0,.818.818,0,0,0,0-1.551A2.971,2.971,0,0,0,285.919,691.945Z" transform="translate(-201.029 -651.074)" fill="#150036"/><path d="M281.144,689.19a.819.819,0,0,0,0,1.551,2.971,2.971,0,0,0,2.687,0,.819.819,0,0,0,0-1.551A2.971,2.971,0,0,0,281.144,689.19Z" transform="translate(-203.281 -652.374)" fill="#150036"/><path d="M276.37,686.435a.817.817,0,0,0,0,1.55,2.971,2.971,0,0,0,2.687,0,.818.818,0,0,0,0-1.55A2.971,2.971,0,0,0,276.37,686.435Z" transform="translate(-205.534 -653.673)" fill="#150036"/><path d="M271.593,683.679a.819.819,0,0,0,0,1.551,2.974,2.974,0,0,0,2.689,0,.819.819,0,0,0,0-1.551A2.974,2.974,0,0,0,271.593,683.679Z" transform="translate(-207.787 -654.974)" fill="#150036"/><path d="M266.818,680.924a.819.819,0,0,0,0,1.551,2.974,2.974,0,0,0,2.689,0,.819.819,0,0,0,0-1.551A2.975,2.975,0,0,0,266.818,680.924Z" transform="translate(-210.04 -656.273)" fill="#150036"/><path d="M262.043,678.169a.819.819,0,0,0,0,1.551,2.974,2.974,0,0,0,2.689,0,.819.819,0,0,0,0-1.551A2.975,2.975,0,0,0,262.043,678.169Z" transform="translate(-212.292 -657.573)" fill="#150036"/><ellipse cx="1.901" cy="1.097" rx="1.901" ry="1.097" transform="translate(42.167 16.22)" fill="#150036"/><path d="M252.493,672.658a.819.819,0,0,0,0,1.551,2.971,2.971,0,0,0,2.687,0,.818.818,0,0,0,0-1.551A2.981,2.981,0,0,0,252.493,672.658Z" transform="translate(-216.797 -660.172)" fill="#150036"/><path d="M247.719,669.9a.818.818,0,0,0,0,1.551,2.971,2.971,0,0,0,2.687,0,.819.819,0,0,0,0-1.551A2.972,2.972,0,0,0,247.719,669.9Z" transform="translate(-219.05 -661.472)" fill="#150036"/><path d="M242.944,667.148a.818.818,0,0,0,0,1.551,2.971,2.971,0,0,0,2.687,0,.819.819,0,0,0,0-1.551A2.971,2.971,0,0,0,242.944,667.148Z" transform="translate(-221.303 -662.772)" fill="#150036"/><path d="M238.167,664.393a.819.819,0,0,0,0,1.551,2.975,2.975,0,0,0,2.689,0,.819.819,0,0,0,0-1.551A2.975,2.975,0,0,0,238.167,664.393Z" transform="translate(-223.556 -664.072)" fill="#150036"/></g><g transform="translate(2.261)"><path d="M453.3,639.877,245.609,521.434c-2.6-1.485-4.952-1.408-6.638-.1l-10.182,6.1,7.538,10.726V699.185c0,6.75,4.155,14.591,9.281,17.514L439.548,827.3l9.986,14.207,9.612-5.765c2.1-1.046,3.435-3.7,3.435-7.53V657.391C462.581,650.642,458.426,642.8,453.3,639.877Z" transform="translate(-227.377 -519.358)" fill="#a0d98d"/><path d="M404.158,630.533,231.547,533.949l-2.757-6.32,7.669-4.593c1.685-1.311,4.034-1.388,6.636.1L450.789,641.576c2.848,1.625,5.394,4.771,7.1,8.4l.255,1.049-12.305,7.379Z" transform="translate(-227.377 -518.557)" fill="#fff"/><path d="M389.133,613.916l-11.172,6.641.985,4.181,10.187-6.272Z" transform="translate(-157.005 -475.212)" fill="#fff"/><path d="M238.818,520.874c2.069-1.61,4.888-1.6,7.731.018L454.243,639.337c5.39,3.074,9.775,11.315,9.775,18.368V828.528c0,4.08-1.45,7.144-3.912,8.373l-10.4,6.234-10.385-14.776L245.573,717.866c-5.39-3.074-9.775-11.313-9.775-18.367V538.787l-7.968-11.338Zm-1.052,17.29V699.5c0,6.424,3.94,13.9,8.783,16.66l193.94,110.6,9.775,13.749,2.069-1.239.387-3.066,7.591-4.683a3.548,3.548,0,0,0,1.737-2.97V657.7c0-6.424-3.94-13.9-8.783-16.66L245.573,522.6c-2.149-1.223-4.119-1.285-5.644-.106l-9.273,5.554Z" transform="translate(-227.83 -519.672)" fill="#150036"/></g><g transform="translate(58.083 236.28)"><path d="M278.56,708.608,320.671,684.7c4.083-2.327,10.931-2.059,15.6.6l25.619,14.617,12.176,5.438v5.565h-.081a5.534,5.534,0,0,1-2.942,3.662l-51.887,29.484a14.058,14.058,0,0,1-6.852,1.582,18.092,18.092,0,0,1-8.748-2.183l-33.724-19.233c-2.455-1.4-3.9-3.257-4.061-5.362a4.153,4.153,0,0,1,0-.452V713.9Z" transform="translate(-265.756 -678.846)" fill="#150036"/><path d="M370.245,710.505l-51.89,29.482c-3.749,2.138-10.295,1.871-14.623-.6l-33.724-19.233c-4.328-2.468-4.8-6.2-1.051-8.339l51.891-29.484c3.747-2.137,10.293-1.869,14.622.6L369.2,702.166C373.523,704.634,373.994,708.368,370.245,710.505Z" transform="translate(-265.443 -679.896)" fill="#a0d98d"/><path d="M272.826,708.181l14.1-8.349a14.893,14.893,0,0,1,14.965-.125l35.325,20.2-21.346,12.129c-3.749,2.138-10.295,1.871-14.623-.6L273.876,716.52C269.547,714.052,269.078,710.318,272.826,708.181Z" transform="translate(-263.619 -671.942)" fill="#fff"/><path d="M312.3,742.747a14.061,14.061,0,0,0,6.855-1.585l51.89-29.482a5.247,5.247,0,0,0,3.026-4.476c0-2.063-1.486-4.094-4.077-5.575L336.275,682.4c-4.67-2.659-11.518-2.924-15.6-.6l-51.887,29.484a5.248,5.248,0,0,0-3.029,4.477c0,2.063,1.486,4.093,4.077,5.571l33.724,19.234A18.087,18.087,0,0,0,312.3,742.747Zm57.769-32.777-51.888,29.482c-3.472,1.982-9.6,1.713-13.649-.6L270.813,719.62c-1.96-1.116-3.085-2.523-3.085-3.86a3.443,3.443,0,0,1,2.034-2.767l51.888-29.484c3.478-1.981,9.6-1.712,13.648.6l33.725,19.233c1.959,1.117,3.083,2.524,3.083,3.862a3.444,3.444,0,0,1-2.034,2.767Z" transform="translate(-265.759 -680.215)" fill="#150036"/></g><path d="M229.962,524.6c2.009-1.163,4.523-1,7.085.464L444.741,643.51c5.39,3.073,9.775,11.313,9.775,18.367V832.7c0,3.822-1.544,5.521-2.837,6.273a5.8,5.8,0,0,1-2.948.73,12.267,12.267,0,0,1-5.9-1.816L236.071,722.04c-5.391-3.074-9.777-11.315-9.777-18.369V532.849C226.294,528.961,227.63,525.955,229.962,524.6Z" transform="translate(-226.294 -517.707)" fill="#150036"/><g transform="translate(0 164.413)"><path d="M226.964,632.535v20.706c0,6.281,4.464,13.918,9.971,17.059L443.244,787.957c5.507,3.141,9.973.594,9.973-5.687V761.564Z" transform="translate(-225.978 -630.841)" fill="#a0d98d"/><path d="M448.017,790.834a6.144,6.144,0,0,0,3.122-.811c2.178-1.264,3.378-3.826,3.378-7.21V761.536l-.5-.284L226.294,631.384v22.4c0,6.586,4.7,14.622,10.469,17.914L443.072,789.353A10.116,10.116,0,0,0,448.017,790.834Zm4.53-28.156v20.135c0,2.654-.852,4.609-2.4,5.507-1.569.917-3.737.674-6.1-.677L237.74,669.99c-5.225-2.98-9.477-10.249-9.477-16.205V634.772Z" transform="translate(-226.294 -631.384)" fill="#150036"/></g><g transform="translate(10.229 20.435)"><path d="M436.439,787.342,237.185,673.711a7.715,7.715,0,0,1-3.273-6.177V537.059c0-2.38,1.466-3.475,3.273-2.443L436.439,648.247a7.714,7.714,0,0,1,3.273,6.177V784.9C439.712,787.279,438.247,788.374,436.439,787.342Z" transform="translate(-232.929 -533.24)" fill="#a0d98d"/><path d="M438.056,789.033a2.656,2.656,0,0,0,1.347-.359,3.808,3.808,0,0,0,1.609-3.459V654.74a8.68,8.68,0,0,0-3.768-7.03L237.989,534.078a3.054,3.054,0,0,0-3.135-.162,3.809,3.809,0,0,0-1.61,3.459V667.85a8.683,8.683,0,0,0,3.768,7.032L436.267,788.515A3.636,3.636,0,0,0,438.056,789.033ZM236.2,535.528a1.771,1.771,0,0,1,.809.258L436.267,649.418a6.745,6.745,0,0,1,2.776,5.322V785.215a2.055,2.055,0,0,1-.63,1.759,1.278,1.278,0,0,1-1.169-.169L237.989,673.174a6.752,6.752,0,0,1-2.777-5.323V537.375a2.052,2.052,0,0,1,.631-1.757A.705.705,0,0,1,236.2,535.528Z" transform="translate(-233.244 -533.557)" fill="#150036"/></g></g><g transform="translate(236.399 562.421)"><path d="M228.8,577.5c-6.348-3.663-11.494-12.572-11.494-19.9s5.147-10.3,11.494-6.633l82.924,47.848c6.349,3.662,11.5,12.57,11.5,19.9s-5.147,10.295-11.5,6.632l-71.252-41.112c-1.413,9.831-16.491,4.336-13.193,3.008s1.52-9.743,1.52-9.743Z" transform="translate(-211.946 -548.396)" fill="#a0d98d"/><path d="M225.157,580.921c-6.348-3.663-11.494-12.57-11.494-19.9s5.147-10.295,11.494-6.632l82.924,47.847c6.349,3.663,11.5,12.572,11.5,19.9s-5.147,10.295-11.5,6.633L236.83,587.658c-1.413,9.831-16.491,4.334-13.193,3.007s1.52-9.743,1.52-9.743Z" transform="translate(-213.663 -546.782)" fill="#fff"/><path d="M317.255,628.716a7.114,7.114,0,0,0,3.609-.936c2.571-1.482,3.986-4.5,3.986-8.507,0-7.706-5.434-17.112-12.113-20.965L229.809,550.46c-3.466-2-6.789-2.291-9.362-.8s-3.985,4.5-3.985,8.505c0,7.519,5.17,16.653,11.622,20.674.556,3.076.562,7.244-.874,7.821a1.738,1.738,0,0,0-1.21,1.978c.44,2.085,4.966,3.229,8.021,3.126,3.865-.127,6.573-1.947,7.656-5.072L311.5,626.977A11.673,11.673,0,0,0,317.255,628.716Zm-93.193-77.523a9.25,9.25,0,0,1,4.512,1.407L311.5,600.447c6,3.462,10.876,11.906,10.876,18.827,0,3.085-.974,5.345-2.749,6.368s-4.221.736-6.891-.805L239.9,582.812l-.26,1.807A4.836,4.836,0,0,1,235.93,589a11.123,11.123,0,0,1-6.852-.627c2.858-2.428,1.625-9.137,1.323-10.57l-.113-.539-.478-.275c-6-3.461-10.876-11.908-10.876-18.828,0-3.083.976-5.344,2.749-6.365A4.694,4.694,0,0,1,224.062,551.193Z" transform="translate(-212.343 -548.718)" fill="#150036"/><g transform="translate(78.227 44.249)"><path d="M274.136,596.4c.464.7,1.121,1.06,1.562.848,2.125-1.023,7.753-4.4,4.427-10.312-2.629-4.673-4.914-3.7-5.423-2.671-.1.209-.415.043-.545-.284-.7-1.768-3.369-5.952-6-3.634C265.463,582.711,271.825,592.9,274.136,596.4Z" transform="translate(-266.491 -578.37)" fill="#a0d98d"/><path d="M275.216,598.728a1.607,1.607,0,0,0,1.486.185c2.112-1.019,5.671-3.316,5.78-7.273a9.069,9.069,0,0,0-1.308-4.68c-1.6-2.841-3.105-3.869-4.072-4.233a2.453,2.453,0,0,0-2.4.234,10.4,10.4,0,0,0-3.029-3.5,3.093,3.093,0,0,0-3.986.125c-3.2,2.814,3.228,13.364,6.136,17.767l0,0A4.355,4.355,0,0,0,275.216,598.728Zm2.524-13.371a6.255,6.255,0,0,1,1.981,2.377,5.076,5.076,0,0,1,.745,2.67c-.06,2.246-1.978,4.492-5.125,6.009-.075.034-.171-.021-.249-.138-3.751-5.677-7.528-12.838-5.828-14.336a1.74,1.74,0,0,1,2.274-.238,6.8,6.8,0,0,1,2.077,2.787,2.724,2.724,0,0,0,1.208,1.444c.49.25.918.156,1.121-.247a1.188,1.188,0,0,1,1.509-.464A1.957,1.957,0,0,1,277.74,585.357Z" transform="translate(-266.815 -578.784)" fill="#150036"/></g><g transform="translate(24.874 12.361)"><path d="M234.04,569.595l.465.269c1.541.889,2.79-.054,2.79-2.109v-3.86a6.678,6.678,0,0,0-2.79-5.329l-.465-.268c-1.541-.891-2.79.054-2.79,2.108v3.862A6.677,6.677,0,0,0,234.04,569.595Z" transform="translate(-230.24 -556.718)" fill="#a0d98d"/><path d="M234.572,571.277l.05.03c2.208,1.273,4,.237,4-2.312v-4.377a8.865,8.865,0,0,0-4-6.937c-2.261-1.3-4.058-.265-4.058,2.284v4.377A8.859,8.859,0,0,0,234.572,571.277Zm0-11.3a4.42,4.42,0,0,1,2.04,3.475v4.377c0,1.267-.893,1.782-1.99,1.149l-.05-.028a4.408,4.408,0,0,1-1.991-3.447v-4.377C232.58,559.86,233.474,559.345,234.572,559.978Z" transform="translate(-230.564 -557.117)" fill="#150036"/><path d="M234.634,566.725v4.691l-2.015-1.163v-4.692Z" transform="translate(-229.595 -553.133)" fill="#150036"/><path d="M230.679,566.841l7.558,4.361v2.326l-7.558-4.361Z" transform="translate(-230.51 -552.53)" fill="#150036"/></g><g transform="translate(38.676 23.477)"><path d="M244.107,573.106v5.713a2.215,2.215,0,0,0,1,1.735l4.462,2.577c.555.319,1,.06,1-.578V576.84l3.309,1.849c.287.16.444-.131.266-.493l-5.713-11.633c-.5-1.014-1.448-1.573-1.956-1.151l-5.834,4.832c-.246.2-.034.845.353,1.069Z" transform="translate(-239.659 -564.387)" fill="#a0d98d"/><path d="M250.3,584.436a1.791,1.791,0,0,1-.89-.256l-4.464-2.577a3.1,3.1,0,0,1-1.444-2.5v-5.2l-2.665-1.538a1.9,1.9,0,0,1-.895-1.432,1.245,1.245,0,0,1,.419-1.082l5.834-4.832a1.548,1.548,0,0,1,1.339-.3,3.127,3.127,0,0,1,1.974,1.744l5.713,11.634a1.282,1.282,0,0,1-.181,1.522,1.087,1.087,0,0,1-1.308.133l-2-1.116v4.209a1.566,1.566,0,0,1-.734,1.414A1.394,1.394,0,0,1,250.3,584.436Zm-8.415-13.558,3.382,2V579.1a1.368,1.368,0,0,0,.562.97l4.137,2.389,0-6.844,2.854,1.594-4.9-9.977a1.68,1.68,0,0,0-.7-.779Z" transform="translate(-239.942 -564.67)" fill="#150036"/></g><g transform="translate(59.166 33.756)"><path d="M264.983,592.134l-8.26-4.768a5.554,5.554,0,0,1-2.319-4.431v-8.708c0-1.707,1.039-2.493,2.319-1.753l8.26,4.769a5.554,5.554,0,0,1,2.319,4.431v8.708C267.3,592.089,266.263,592.875,264.983,592.134Z" transform="translate(-253.609 -571.399)" fill="#a0d98d"/><path d="M266.159,593.465a2.653,2.653,0,0,1-1.319-.387l-8.259-4.768a6.344,6.344,0,0,1-2.717-5.119v-8.71a2.816,2.816,0,0,1,1.2-2.562,2.253,2.253,0,0,1,2.311.121l8.259,4.77a6.341,6.341,0,0,1,2.717,5.119v8.708a2.821,2.821,0,0,1-1.2,2.564A1.97,1.97,0,0,1,266.159,593.465Zm-10.1-20.222a.4.4,0,0,0-.2.05c-.185.107-.4.484-.4,1.188v8.71a4.763,4.763,0,0,0,1.922,3.743l8.259,4.768c.177.1.5.252.724.122.187-.107.4-.483.4-1.188v-8.708a4.763,4.763,0,0,0-1.922-3.744l-8.259-4.768A1.132,1.132,0,0,0,256.06,573.243Z" transform="translate(-253.864 -571.654)" fill="#150036"/><g transform="translate(0.812 0.484)"><path d="M261.282,583.023a1.676,1.676,0,0,1-.43-.057,2.611,2.611,0,0,1-1.506-1.285l-4.93-8.764,1.663-.933,4.929,8.763a1.15,1.15,0,0,0,.252.316l4.821-2.8.955,1.648-5.029,2.919A1.441,1.441,0,0,1,261.282,583.023Z" transform="translate(-254.416 -571.983)" fill="#150036"/></g></g><g transform="translate(45.401 115.246)"><path d="M259.644,655.967c-6.349-3.663-11.494-12.572-11.494-19.9s5.145-10.295,11.494-6.632l50.578,28.941c6.348,3.663,11.494,12.572,11.494,19.9s-5.147,10.295-11.494,6.633L271.317,662.7c-1.413,9.831-16.491,4.336-13.193,3.008s1.52-9.743,1.52-9.743Z" transform="translate(-242.794 -626.626)" fill="#a0d98d"/><path d="M256.005,659.227c-6.349-3.663-11.494-12.572-11.494-19.9s5.145-10.295,11.494-6.632l50.578,28.939c6.348,3.663,11.494,12.572,11.494,19.9s-5.147,10.295-11.494,6.632l-38.906-22.206c-1.413,9.833-16.491,4.336-13.193,3.008s1.52-9.743,1.52-9.743Z" transform="translate(-244.511 -625.087)" fill="#fff"/><path d="M315.755,688.117a7.134,7.134,0,0,0,3.609-.936c2.57-1.482,3.984-4.5,3.984-8.507,0-7.708-5.434-17.112-12.113-20.967l-50.583-28.944c-3.46-2-6.786-2.287-9.357-.8s-3.986,4.5-3.986,8.507c0,7.518,5.17,16.653,11.622,20.672.555,3.077.562,7.245-.874,7.822a1.735,1.735,0,0,0-1.208,1.978c.437,2.084,5.038,3.263,8.014,3.126,3.871-.125,6.582-1.95,7.663-5.078l37.478,21.389A11.657,11.657,0,0,0,315.755,688.117ZM254.912,629.5a9.244,9.244,0,0,1,4.511,1.408l50.583,28.944c5.993,3.457,10.872,11.9,10.872,18.824,0,3.083-.976,5.344-2.749,6.367s-4.22.739-6.892-.805l-40.488-23.108-.258,1.8a4.84,4.84,0,0,1-3.71,4.383,11.131,11.131,0,0,1-6.853-.627c2.855-2.43,1.625-9.137,1.323-10.57l-.115-.539-.477-.277c-6-3.46-10.876-11.9-10.876-18.827,0-3.083.974-5.344,2.749-6.367A4.694,4.694,0,0,1,254.912,629.5Z" transform="translate(-243.191 -627.024)" fill="#150036"/><g transform="translate(21.758 12.485)"><path d="M266.643,653.186c.467.7,1.126,1.064,1.567.852,2.134-1.027,7.781-4.421,4.445-10.352-2.639-4.691-4.933-3.715-5.444-2.682-.1.21-.417.044-.548-.284-.7-1.773-3.381-5.974-6.027-3.647C257.939,639.448,264.323,649.676,266.643,653.186Z" transform="translate(-258.97 -635.091)" fill="#a0d98d"/><path d="M267.728,655.524a1.607,1.607,0,0,0,1.491.185c2.119-1.021,5.691-3.328,5.8-7.3a9.105,9.105,0,0,0-1.311-4.7c-1.6-2.851-3.117-3.882-4.089-4.247a2.463,2.463,0,0,0-2.409.234,10.459,10.459,0,0,0-3.041-3.517,3.107,3.107,0,0,0-4,.127c-3.211,2.823,3.239,13.412,6.159,17.832l0,0A4.362,4.362,0,0,0,267.728,655.524ZM270.26,642.1a6.276,6.276,0,0,1,1.99,2.386,5.1,5.1,0,0,1,.748,2.68c-.062,2.255-1.987,4.508-5.145,6.031-.075.035-.169-.021-.249-.138-3.766-5.7-7.556-12.887-5.85-14.391a1.749,1.749,0,0,1,2.283-.238,6.8,6.8,0,0,1,2.084,2.8c.04.1.084.2.134.3a2.574,2.574,0,0,0,1.079,1.154c.492.252.923.156,1.126-.249a1.192,1.192,0,0,1,1.513-.465A1.818,1.818,0,0,1,270.26,642.1Z" transform="translate(-259.295 -635.507)" fill="#150036"/></g><g transform="translate(43.262 25.086)"><path d="M285.025,664.55l-8.259-4.768a5.558,5.558,0,0,1-2.319-4.432v-8.708c0-1.709,1.039-2.493,2.319-1.754l8.259,4.768a5.558,5.558,0,0,1,2.319,4.431v8.71C287.344,664.5,286.305,665.289,285.025,664.55Z" transform="translate(-273.651 -643.814)" fill="#a0d98d"/><path d="M286.2,665.879a2.653,2.653,0,0,1-1.32-.387l-8.259-4.768a6.341,6.341,0,0,1-2.717-5.119V646.9a2.818,2.818,0,0,1,1.2-2.564,2.254,2.254,0,0,1,2.311.122l8.26,4.768a6.344,6.344,0,0,1,2.717,5.12v8.708a2.822,2.822,0,0,1-1.2,2.564A1.982,1.982,0,0,1,286.2,665.879Zm-10.1-20.222a.39.39,0,0,0-.2.051c-.185.107-.4.483-.4,1.188V655.6a4.764,4.764,0,0,0,1.922,3.744l8.26,4.768c.178.1.5.252.724.122.187-.107.4-.484.4-1.188v-8.708a4.764,4.764,0,0,0-1.922-3.744l-8.259-4.77A1.151,1.151,0,0,0,276.1,645.657Z" transform="translate(-273.906 -644.069)" fill="#150036"/><g transform="translate(0.812 0.483)"><path d="M281.324,655.438a1.617,1.617,0,0,1-.43-.059,2.608,2.608,0,0,1-1.506-1.283l-4.93-8.766,1.663-.933,4.929,8.764a1.15,1.15,0,0,0,.252.317l4.821-2.8.955,1.648-5.029,2.92A1.441,1.441,0,0,1,281.324,655.438Z" transform="translate(-274.458 -644.397)" fill="#150036"/></g></g></g><g transform="translate(95.564 98.337)"><path d="M293.729,618.246l82.924,47.848c6.348,3.663,11.494,12.57,11.494,19.9s-5.147,10.295-11.494,6.632c0,0-1.4,6.582,1.865,11.7s-11.664-6.7-13.063-18.159l-71.726-41.386c-6.349-3.663-11.5-12.572-11.5-19.9S287.38,614.584,293.729,618.246Z" transform="translate(-276.879 -614.996)" fill="#a0d98d"/><path d="M290.089,621.209l82.926,47.847c6.348,3.663,11.494,12.572,11.494,19.9s-5.147,10.295-11.494,6.632c0,0-1.4,6.582,1.865,11.7s-11.665-6.7-13.065-18.159l-71.726-41.384c-6.348-3.663-11.494-12.572-11.494-19.9S283.742,617.546,290.089,621.209Z" transform="translate(-278.595 -613.598)" fill="#fff"/><path d="M379.195,706.882a1.419,1.419,0,0,0,1.151-.574c.659-.91-.049-2.018-.388-2.553a15.263,15.263,0,0,1-1.907-9.147c2.873,1.23,5.576,1.242,7.744-.01,2.57-1.482,3.984-4.5,3.984-8.507,0-7.708-5.432-17.114-12.111-20.968l-82.925-47.847c-3.469-2-6.792-2.289-9.363-.805s-3.985,4.505-3.985,8.508c0,7.706,5.434,17.114,12.112,20.967l71.2,41.084c1.545,9.541,11.645,19.177,14.02,19.791A1.867,1.867,0,0,0,379.195,706.882Zm-3-16.079-.355,1.663a19.919,19.919,0,0,0,.648,9.756c-3.457-3.3-8.632-9.759-9.409-16.111L367,685.5l-72.26-41.693c-6-3.46-10.876-11.906-10.876-18.827,0-3.085.974-5.345,2.749-6.368s4.221-.736,6.891.805l82.924,47.847c6,3.46,10.876,11.906,10.876,18.828,0,3.083-.976,5.344-2.749,6.367s-4.222.737-6.891-.805Z" transform="translate(-277.275 -615.535)" fill="#150036"/><g transform="translate(19.031 9.988)"><path d="M299.085,640.507c.478.724,1.157,1.095,1.612.876,2.2-1.057,8-4.548,4.571-10.648-2.714-4.824-5.075-3.821-5.6-2.758-.106.216-.428.046-.562-.293-.723-1.824-3.478-6.145-6.2-3.75C290.131,626.375,296.7,636.9,299.085,640.507Z" transform="translate(-291.192 -621.893)" fill="#a0d98d"/><path d="M300.2,642.911a1.653,1.653,0,0,0,1.534.191c2.181-1.051,5.855-3.423,5.966-7.509a9.355,9.355,0,0,0-1.35-4.832c-1.65-2.933-3.207-3.994-4.2-4.37a2.535,2.535,0,0,0-2.48.241,10.724,10.724,0,0,0-3.127-3.619,3.2,3.2,0,0,0-4.115.131c-3.3,2.9,3.334,13.795,6.336,18.342h0A4.472,4.472,0,0,0,300.2,642.911Zm2.6-13.8a6.449,6.449,0,0,1,2.046,2.453,5.24,5.24,0,0,1,.768,2.757c-.063,2.318-2.041,4.636-5.291,6.2-.078.035-.175-.021-.256-.143-3.874-5.861-7.772-13.255-6.017-14.8a1.793,1.793,0,0,1,2.346-.244,6.989,6.989,0,0,1,2.144,2.877,2.817,2.817,0,0,0,1.248,1.489c.5.259.948.16,1.158-.255a1.224,1.224,0,0,1,1.556-.48A2.009,2.009,0,0,1,302.806,629.107Z" transform="translate(-291.526 -622.321)" fill="#150036"/></g><g transform="translate(85.472 47.388)"><path d="M340.259,660.615l.48.278c1.591.917,2.882-.057,2.882-2.177V654.73a6.9,6.9,0,0,0-2.882-5.5l-.48-.277c-1.591-.918-2.882.056-2.882,2.177v3.986A6.9,6.9,0,0,0,340.259,660.615Z" transform="translate(-336.336 -647.321)" fill="#a0d98d"/><path d="M340.807,662.352l.05.029c2.281,1.316,4.136.246,4.136-2.387v-4.518a9.145,9.145,0,0,0-4.136-7.16c-2.333-1.347-4.187-.275-4.187,2.358v4.518A9.143,9.143,0,0,0,340.807,662.352Zm0-11.665a4.568,4.568,0,0,1,2.1,3.588v4.52c0,1.307-.923,1.84-2.055,1.186l-.05-.029a4.552,4.552,0,0,1-2.056-3.559v-4.518C338.751,650.566,339.674,650.033,340.807,650.687Z" transform="translate(-336.67 -647.733)" fill="#150036"/><path d="M340.871,657.653V662.5l-2.081-1.2v-4.844Z" transform="translate(-335.67 -643.62)" fill="#150036"/><path d="M336.789,657.772l7.8,4.5v2.4l-7.8-4.5Z" transform="translate(-336.614 -642.997)" fill="#150036"/></g><g transform="translate(40.568 25.02)"><path d="M310.325,640.971v5.713a2.215,2.215,0,0,0,1,1.735L315.789,651c.555.319,1,.06,1-.578V644.7l3.309,1.849c.287.16.444-.131.266-.493l-5.713-11.634c-.5-1.013-1.447-1.572-1.956-1.149l-5.834,4.832c-.246.2-.034.845.353,1.068Z" transform="translate(-305.877 -632.252)" fill="#a0d98d"/><path d="M316.523,652.3a1.791,1.791,0,0,1-.89-.256l-4.464-2.577a3.1,3.1,0,0,1-1.444-2.5v-5.2l-2.665-1.539a1.894,1.894,0,0,1-.895-1.431,1.245,1.245,0,0,1,.419-1.082l5.834-4.832a1.547,1.547,0,0,1,1.339-.3,3.127,3.127,0,0,1,1.974,1.744l5.713,11.634a1.279,1.279,0,0,1-.181,1.522,1.09,1.09,0,0,1-1.308.132l-2-1.116V650.7a1.568,1.568,0,0,1-.734,1.414A1.393,1.393,0,0,1,316.523,652.3Zm-8.415-13.558,3.382,2v6.224a1.368,1.368,0,0,0,.562.97l4.137,2.389,0-6.844,2.854,1.594-4.9-9.977a1.68,1.68,0,0,0-.7-.779Z" transform="translate(-306.16 -632.535)" fill="#150036"/></g><g transform="translate(62.572 35.211)"><path d="M332.229,659.939l-8.259-4.768a5.553,5.553,0,0,1-2.32-4.431v-8.708c0-1.709,1.039-2.493,2.32-1.753l8.259,4.768a5.55,5.55,0,0,1,2.319,4.431v8.708C334.548,659.894,333.511,660.68,332.229,659.939Z" transform="translate(-320.855 -639.204)" fill="#a0d98d"/><path d="M333.407,661.269a2.669,2.669,0,0,1-1.32-.386l-8.259-4.768a6.348,6.348,0,0,1-2.717-5.12v-8.708a2.82,2.82,0,0,1,1.2-2.564,2.257,2.257,0,0,1,2.312.122l8.259,4.77a6.344,6.344,0,0,1,2.715,5.119v8.708a2.821,2.821,0,0,1-1.2,2.564A1.982,1.982,0,0,1,333.407,661.269Zm-10.1-20.221a.4.4,0,0,0-.2.05c-.185.108-.4.484-.4,1.188v8.708a4.764,4.764,0,0,0,1.924,3.744l8.259,4.768c.177.1.5.252.724.122.185-.107.4-.483.4-1.188v-8.708a4.763,4.763,0,0,0-1.922-3.744l-8.259-4.768A1.132,1.132,0,0,0,323.306,641.049Z" transform="translate(-321.11 -639.459)" fill="#150036"/><g transform="translate(0.812 0.483)"><path d="M328.528,650.828a1.6,1.6,0,0,1-.428-.059,2.6,2.6,0,0,1-1.506-1.283l-4.932-8.764,1.663-.935,4.929,8.764a1.124,1.124,0,0,0,.253.316l4.82-2.8.955,1.648-5.029,2.918A1.441,1.441,0,0,1,328.528,650.828Z" transform="translate(-321.662 -639.787)" fill="#150036"/></g></g></g></g><g transform="translate(492.253 573.659)"><path d="M451.873,577.665h0c-6.417-3.874-12.135-2.7-14.226.621-.377.6-1.332.087-1.741-.964-2.15-5.532-7.713-13.951-14.036-17.766v0c-4.155-2.508-7.931-2.877-10.794-1.494l-.015-.019-.337.194c-.144.079-1.486.845-1.626.935L391.4,569.339s13.924,46.783,14.311,48.843,17.128,30.091,17.128,30.091l18.242-10.491a3.034,3.034,0,0,0,.612-.352l20.422-15.461c3.75-2.87,5.821-8.243,5.821-15.1h0C467.942,596.1,460.748,583.022,451.873,577.665Z" transform="translate(-385.667 -555.925)" fill="#fff"/><path d="M408.98,558.506c.1-.065,1.5-.862,1.647-.946l1.228-.7c3.188-1.12,7.128-.333,11.073,2.049,6.346,3.831,12.121,12.145,14.544,18.376.022.054.044.1.066.144,2.618-3.269,8.642-4.487,15.392-.412,9.188,5.546,16.666,19.131,16.666,30.283,0,7.278-2.243,13-6.312,16.113l-20.425,15.464a4.073,4.073,0,0,1-.848.49l-19.123,11.006-.6-1C418.335,642.744,405.4,620.974,405,618.85c-.274-1.46-8.691-29.93-14.279-48.711l-.29-.973Zm-1.634,59.865c.474,1.676,10.046,18.057,16.372,28.67l17.252-9.923a2.526,2.526,0,0,0,.486-.268l20.422-15.462c3.434-2.626,5.328-7.631,5.328-14.092,0-10.357-6.939-22.97-15.471-28.119-5.875-3.545-10.9-2.531-12.629.225a1.721,1.721,0,0,1-.552.534l7.2,10.53-12.1,13.05L412.946,607.8s-7.962-14.676-7.962-17.643,3.325-15.44,3.325-15.44l17.315-10.608a23.716,23.716,0,0,0-3.891-3.038c-3.635-2.193-7.081-2.707-9.7-1.442l-.28.135c-.157.087-1.413.8-1.582.909l-16.881,9.7C395.639,578.255,406.978,616.406,407.346,618.371Z" transform="translate(-386.125 -556.354)" fill="#150036"/><path d="M444.622,572.083h0c-4.3-2.6-8.258-2.892-11.05-1.827l-.031-.029-.259.15a6.825,6.825,0,0,0-1.494.868l-16.61,9.656-8.6,28.171,8.6,32.047a1.226,1.226,0,0,0,1.791.786l16.874-9.7a3.158,3.158,0,0,0,.612-.353l20.421-15.461c3.751-2.87,5.822-8.243,5.822-15.1C460.692,590.514,453.5,577.44,444.622,572.083Z" transform="translate(-378.51 -550.069)" fill="#fff"/><path d="M414.584,580.45l17.022-9.9a7.311,7.311,0,0,1,1.62-.932l.889-.524.153.147c3.344-.982,7.431-.21,11.35,2.156,9.19,5.547,16.666,19.131,16.666,30.284,0,7.276-2.243,13-6.312,16.111l-20.425,15.465a4.09,4.09,0,0,1-.846.49L417.94,643.4a2.338,2.338,0,0,1-.924.281l-.228.147-.038-.118a2.374,2.374,0,0,1-.924-.194,2.5,2.5,0,0,1-1.4-1.659l-8.691-32.411Zm29.84-6.885c-3.588-2.166-7.247-2.8-10.045-1.735l-.2.078a6.206,6.206,0,0,0-1.276.74l-16.328,9.5L408.223,609.5l6.46,24.085,9.371-8.093,12.974-29.978,17.93-10.525A32.017,32.017,0,0,0,444.424,573.565Z" transform="translate(-378.909 -550.469)" fill="#150036"/><g transform="translate(0 10.911)"><path d="M444.723,629.343c3.75-2.87,5.821-8.243,5.821-15.1h0c0-10.77-7.194-23.844-16.069-29.2h0c-6.417-3.872-12.135-2.7-14.226.621-.377.6-1.332.087-1.741-.964-2.15-5.532-7.713-13.951-14.036-17.766h0c-8.922-5.387-16.155-1.02-16.155,9.75h0c0,6.861,2.083,14.741,5.855,22.151l20.409,40.1c2.584,5.079,7.137,7.827,9.721,5.869Z" transform="translate(-387.123 -563.365)" fill="#a0d98d"/><path d="M436.072,629.958c3.213-2.458,4.986-7.06,4.986-12.935h0c0-9.225-6.161-20.424-13.762-25.011h0c-5.5-3.317-10.392-2.314-12.185.533-.322.512-1.141.074-1.489-.826-1.843-4.739-6.607-11.948-12.021-15.216h0c-7.641-4.613-13.836-.874-13.836,8.351h0a43.2,43.2,0,0,0,5.013,18.972l17.48,34.348c2.214,4.349,6.111,6.7,8.326,5.026Z" transform="translate(-387.384 -558.692)" fill="#fff"/><path d="M422.738,647.09a5.523,5.523,0,0,1-1.313-.163c-2.782-.674-5.663-3.357-7.518-7L393.5,599.82c-3.865-7.593-5.993-15.67-5.993-22.739,0-5.674,1.893-9.94,5.328-12.015s7.915-1.654,12.62,1.183c6.346,3.831,12.121,12.145,14.544,18.376a1.331,1.331,0,0,0,.066.144c2.617-3.267,8.642-4.487,15.392-.412,9.188,5.547,16.665,19.133,16.665,30.284,0,7.276-2.241,13-6.311,16.111l0,0-20.421,15.462A4.305,4.305,0,0,1,422.738,647.09Zm-25.093-80.823a6.891,6.891,0,0,0-3.616.963c-2.665,1.609-4.133,5.108-4.133,9.852,0,6.667,2.028,14.326,5.712,21.566l20.409,40.1c1.517,2.98,3.853,5.237,5.949,5.743a2.309,2.309,0,0,0,2.018-.3L444.4,628.734c3.437-2.63,5.329-7.635,5.329-14.092,0-10.357-6.939-22.971-15.471-28.121-5.877-3.547-10.9-2.531-12.629.227a1.734,1.734,0,0,1-1.631.806,2.921,2.921,0,0,1-2.215-1.987c-2.215-5.694-7.708-13.643-13.527-17.155A13.1,13.1,0,0,0,397.645,566.267Z" transform="translate(-387.506 -563.768)" fill="#150036"/></g></g><g transform="translate(165.469 753.871)"><g transform="translate(15.175)"><g transform="translate(0.003 27.451)"><path d="M272.428,709.515h0l-.2-11.636H176.212l.128,11.338c-.029.291,0,0,.038.3h0c.219,1.682,1.542,3.407,3.922,4.782l35.822,20.688c4.783,2.762,12.018,3.061,16.16.67l37.383-21.589C271.746,712.864,272.649,711.212,272.428,709.515Z" transform="translate(-175.578 -697.252)" fill="#a0d98d"/><path d="M272.428,709.517h0l-.2-11.636H176.212l.128,11.34c-.029.29,0,0,.038.3h0c.219,1.682,1.542,3.407,3.922,4.782l35.822,20.688c4.783,2.762,12.018,3.063,16.16.671l37.383-21.591C271.746,712.866,272.649,711.214,272.428,709.517Z" transform="translate(-175.578 -697.251)" fill="#a0d98d"/><path d="M225.47,738.085A14.938,14.938,0,0,0,232.8,736.4l37.383-21.589c2.2-1.271,3.319-3.142,3.074-5.138l-.107-11.3-97.368-.918.135,11.973a.689.689,0,0,0,.049.408c.287,1.962,1.784,3.8,4.227,5.207l35.822,20.688A19.437,19.437,0,0,0,225.47,738.085Zm46.341-39.378.2,11.09c.2,1.5-.676,2.9-2.453,3.928l-37.384,21.589c-3.96,2.287-10.926,1.987-15.53-.671l-35.822-20.688c-2.128-1.229-3.412-2.762-3.615-4.32a1.417,1.417,0,0,0-.038-.182l0-.041-.121-10.7Z" transform="translate(-175.781 -697.453)" fill="#150036"/></g><path d="M269.526,711.523l-37.383,21.591c-4.143,2.392-11.377,2.091-16.16-.671l-35.822-20.688c-4.783-2.761-5.3-6.939-1.16-9.332l37.383-21.589c4.142-2.392,11.377-2.091,16.158.67l35.824,20.688C273.148,704.953,273.668,709.131,269.526,711.523Z" transform="translate(-175.578 -678.605)" fill="#a0d98d"/><path d="M269.783,714.464,232.4,736.053c-4.142,2.393-11.377,2.093-16.158-.67L180.418,714.7c-4.783-2.762-5.3-6.941-1.161-9.332l37.384-21.589c4.142-2.392,11.377-2.093,16.158.67l35.822,20.688C273.405,707.894,273.925,712.073,269.783,714.464Z" transform="translate(-175.457 -677.217)" fill="#fff"/><path d="M225.329,735.538a14.942,14.942,0,0,0,7.329-1.687l37.383-21.589c2-1.158,3.11-2.79,3.11-4.6,0-2.133-1.556-4.253-4.27-5.822l-35.824-20.687c-4.948-2.858-12.48-3.157-16.785-.671l-37.384,21.591c-2.006,1.158-3.108,2.79-3.108,4.595,0,2.133,1.556,4.255,4.27,5.822l35.823,20.688A19.422,19.422,0,0,0,225.329,735.538Zm-1.726-55.5a18.148,18.148,0,0,1,8.828,2.208l35.824,20.688c2.315,1.338,3.643,3.064,3.643,4.736a4.236,4.236,0,0,1-2.483,3.51l-37.383,21.591c-3.963,2.287-10.931,1.988-15.533-.671l-35.822-20.687c-2.315-1.338-3.643-3.064-3.643-4.738,0-1.339.882-2.584,2.481-3.51L216.9,681.572A13.658,13.658,0,0,1,223.6,680.034Z" transform="translate(-175.779 -678.801)" fill="#150036"/><path d="M224.26,725.906v11.337l-4.851-.868-7.106-3.342L178.339,712.98l-2.126-2.611V697.879l1.395,3.613,7.315,4.282L219.3,725.1Z" transform="translate(-175.575 -669.801)" fill="#150036"/><path d="M211.616,717.007v11.4l2.978-.9V716.13Z" transform="translate(-158.873 -661.191)" fill="#150036"/><path d="M240.072,702.335v10.787l1.635-1.224,1.175-7.382-.548-6.212-2.262,4.031Z" transform="translate(-145.449 -669.6)" fill="#150036"/></g><g transform="translate(0 41.91)"><path d="M199.074,734.87a.809.809,0,0,0,0,1.534,2.937,2.937,0,0,0,2.658,0,.809.809,0,0,0,0-1.534A2.937,2.937,0,0,0,199.074,734.87Z" transform="translate(-149.875 -694.411)" fill="#150036"/><path d="M194.352,732.145a.809.809,0,0,0,0,1.534,2.937,2.937,0,0,0,2.658,0,.809.809,0,0,0,0-1.534A2.946,2.946,0,0,0,194.352,732.145Z" transform="translate(-152.103 -695.696)" fill="#150036"/><path d="M189.63,729.421a.809.809,0,0,0,0,1.534,2.937,2.937,0,0,0,2.658,0,.809.809,0,0,0,0-1.534A2.937,2.937,0,0,0,189.63,729.421Z" transform="translate(-154.33 -696.982)" fill="#150036"/><path d="M184.908,726.7a.809.809,0,0,0,0,1.534,2.937,2.937,0,0,0,2.658,0,.809.809,0,0,0,0-1.534A2.937,2.937,0,0,0,184.908,726.7Z" transform="translate(-156.558 -698.267)" fill="#150036"/><path d="M180.186,723.972a.809.809,0,0,0,0,1.534,2.947,2.947,0,0,0,2.658,0,.809.809,0,0,0,0-1.534A2.937,2.937,0,0,0,180.186,723.972Z" transform="translate(-158.786 -699.552)" fill="#150036"/><path d="M175.464,721.247a.809.809,0,0,0,0,1.534,2.938,2.938,0,0,0,2.658,0,.81.81,0,0,0,0-1.534A2.937,2.937,0,0,0,175.464,721.247Z" transform="translate(-161.013 -700.838)" fill="#150036"/><path d="M170.742,718.523a.808.808,0,0,0,0,1.532,2.937,2.937,0,0,0,2.658,0,.809.809,0,0,0,0-1.532A2.937,2.937,0,0,0,170.742,718.523Z" transform="translate(-163.241 -702.123)" fill="#150036"/><path d="M166.02,715.8a.809.809,0,0,0,0,1.534,2.937,2.937,0,0,0,2.658,0,.809.809,0,0,0,0-1.534A2.937,2.937,0,0,0,166.02,715.8Z" transform="translate(-165.468 -703.408)" fill="#150036"/><path d="M208.518,734.87a.809.809,0,0,0,0,1.534,2.937,2.937,0,0,0,2.658,0,.809.809,0,0,0,0-1.534A2.937,2.937,0,0,0,208.518,734.87Z" transform="translate(-145.42 -694.411)" fill="#150036"/><path d="M203.8,732.145a.81.81,0,0,0,0,1.535,2.946,2.946,0,0,0,2.658,0,.81.81,0,0,0,0-1.535A2.945,2.945,0,0,0,203.8,732.145Z" transform="translate(-147.647 -695.696)" fill="#150036"/><path d="M199.074,729.421a.809.809,0,0,0,0,1.534,2.937,2.937,0,0,0,2.658,0,.81.81,0,0,0,0-1.534A2.937,2.937,0,0,0,199.074,729.421Z" transform="translate(-149.875 -696.982)" fill="#150036"/><path d="M194.352,726.7a.809.809,0,0,0,0,1.534,2.937,2.937,0,0,0,2.658,0,.809.809,0,0,0,0-1.534A2.937,2.937,0,0,0,194.352,726.7Z" transform="translate(-152.103 -698.267)" fill="#150036"/><path d="M189.63,723.972a.809.809,0,0,0,0,1.534,2.947,2.947,0,0,0,2.658,0,.809.809,0,0,0,0-1.534A2.937,2.937,0,0,0,189.63,723.972Z" transform="translate(-154.33 -699.552)" fill="#150036"/><ellipse cx="1.879" cy="1.085" rx="1.879" ry="1.085" transform="translate(27.799 20.092)" fill="#150036"/><path d="M180.186,718.523a.808.808,0,0,0,0,1.532,2.937,2.937,0,0,0,2.658,0,.808.808,0,0,0,0-1.532A2.937,2.937,0,0,0,180.186,718.523Z" transform="translate(-158.786 -702.123)" fill="#150036"/><path d="M175.464,715.8a.809.809,0,0,0,0,1.534,2.937,2.937,0,0,0,2.658,0,.81.81,0,0,0,0-1.534A2.937,2.937,0,0,0,175.464,715.8Z" transform="translate(-161.013 -703.408)" fill="#150036"/><ellipse cx="1.88" cy="1.085" rx="1.88" ry="1.085" transform="translate(6.95 8.062)" fill="#150036"/><ellipse cx="1.88" cy="1.084" rx="1.88" ry="1.084" transform="translate(0 4.052)" fill="#150036"/><path d="M213.281,732.117a.809.809,0,0,0,0,1.534,2.937,2.937,0,0,0,2.658,0,.809.809,0,0,0,0-1.534A2.937,2.937,0,0,0,213.281,732.117Z" transform="translate(-143.173 -695.71)" fill="#150036"/><path d="M208.559,729.391a.809.809,0,0,0,0,1.534,2.937,2.937,0,0,0,2.658,0,.809.809,0,0,0,0-1.534A2.947,2.947,0,0,0,208.559,729.391Z" transform="translate(-145.4 -696.995)" fill="#150036"/><path d="M203.837,726.668a.809.809,0,0,0,0,1.534,2.945,2.945,0,0,0,2.658,0,.809.809,0,0,0,0-1.534A2.937,2.937,0,0,0,203.837,726.668Z" transform="translate(-147.628 -698.28)" fill="#150036"/><ellipse cx="1.88" cy="1.085" rx="1.88" ry="1.085" transform="translate(48.708 24.06)" fill="#150036"/><path d="M194.393,721.218a.809.809,0,0,0,0,1.534,2.937,2.937,0,0,0,2.658,0,.81.81,0,0,0,0-1.534A2.946,2.946,0,0,0,194.393,721.218Z" transform="translate(-152.083 -700.851)" fill="#150036"/><path d="M189.671,718.494a.809.809,0,0,0,0,1.534,2.938,2.938,0,0,0,2.658,0,.81.81,0,0,0,0-1.534A2.937,2.937,0,0,0,189.671,718.494Z" transform="translate(-154.311 -702.136)" fill="#150036"/><path d="M184.949,715.769a.81.81,0,0,0,0,1.535,2.947,2.947,0,0,0,2.658,0,.81.81,0,0,0,0-1.535A2.945,2.945,0,0,0,184.949,715.769Z" transform="translate(-156.539 -703.422)" fill="#150036"/><path d="M180.227,713.045a.809.809,0,0,0,0,1.534,2.936,2.936,0,0,0,2.658,0,.81.81,0,0,0,0-1.534A2.937,2.937,0,0,0,180.227,713.045Z" transform="translate(-158.766 -704.707)" fill="#150036"/><path d="M175.5,710.32a.809.809,0,0,0,0,1.534,2.937,2.937,0,0,0,2.658,0,.81.81,0,0,0,0-1.534A2.937,2.937,0,0,0,175.5,710.32Z" transform="translate(-160.994 -705.992)" fill="#150036"/><path d="M170.781,707.595a.811.811,0,0,0,0,1.535,2.949,2.949,0,0,0,2.659,0,.811.811,0,0,0,0-1.535A2.949,2.949,0,0,0,170.781,707.595Z" transform="translate(-163.222 -707.278)" fill="#150036"/><path d="M218,729.391a.809.809,0,0,0,0,1.534,2.937,2.937,0,0,0,2.658,0,.809.809,0,0,0,0-1.534A2.947,2.947,0,0,0,218,729.391Z" transform="translate(-140.945 -696.995)" fill="#150036"/><path d="M213.281,726.668a.809.809,0,0,0,0,1.534,2.946,2.946,0,0,0,2.658,0,.809.809,0,0,0,0-1.534A2.937,2.937,0,0,0,213.281,726.668Z" transform="translate(-143.173 -698.28)" fill="#150036"/><path d="M222.725,726.668a.809.809,0,0,0,0,1.534,2.946,2.946,0,0,0,2.658,0,.809.809,0,0,0,0-1.534A2.937,2.937,0,0,0,222.725,726.668Z" transform="translate(-138.718 -698.28)" fill="#150036"/><path d="M218,723.943a.809.809,0,0,0,0,1.534,2.937,2.937,0,0,0,2.658,0,.809.809,0,0,0,0-1.534A2.937,2.937,0,0,0,218,723.943Z" transform="translate(-140.945 -699.566)" fill="#150036"/><ellipse cx="1.879" cy="1.085" rx="1.879" ry="1.085" transform="translate(90.406 24.059)" fill="#150036"/><path d="M222.725,721.218a.809.809,0,0,0,0,1.534,2.938,2.938,0,0,0,2.658,0,.809.809,0,0,0,0-1.534A2.946,2.946,0,0,0,222.725,721.218Z" transform="translate(-138.718 -700.851)" fill="#150036"/><path d="M232.169,721.218a.81.81,0,0,0,0,1.535,2.947,2.947,0,0,0,2.658,0,.81.81,0,0,0,0-1.535A2.946,2.946,0,0,0,232.169,721.218Z" transform="translate(-134.262 -700.851)" fill="#150036"/><path d="M227.447,718.494a.809.809,0,0,0,0,1.534,2.938,2.938,0,0,0,2.658,0,.809.809,0,0,0,0-1.534A2.937,2.937,0,0,0,227.447,718.494Z" transform="translate(-136.49 -702.136)" fill="#150036"/><path d="M236.891,718.494a.809.809,0,0,0,0,1.534,2.938,2.938,0,0,0,2.658,0,.809.809,0,0,0,0-1.534A2.937,2.937,0,0,0,236.891,718.494Z" transform="translate(-132.035 -702.136)" fill="#150036"/><path d="M232.169,715.769a.81.81,0,0,0,0,1.535,2.947,2.947,0,0,0,2.658,0,.81.81,0,0,0,0-1.535A2.945,2.945,0,0,0,232.169,715.769Z" transform="translate(-134.262 -703.422)" fill="#150036"/><path d="M241.613,715.769a.81.81,0,0,0,0,1.535,2.947,2.947,0,0,0,2.658,0,.81.81,0,0,0,0-1.535A2.945,2.945,0,0,0,241.613,715.769Z" transform="translate(-129.807 -703.422)" fill="#150036"/><path d="M236.891,713.045a.809.809,0,0,0,0,1.534,2.936,2.936,0,0,0,2.658,0,.809.809,0,0,0,0-1.534A2.937,2.937,0,0,0,236.891,713.045Z" transform="translate(-132.035 -704.707)" fill="#150036"/><path d="M241.613,710.32a.809.809,0,0,0,0,1.534,2.937,2.937,0,0,0,2.658,0,.809.809,0,0,0,0-1.534A2.937,2.937,0,0,0,241.613,710.32Z" transform="translate(-129.807 -705.992)" fill="#150036"/></g><g transform="translate(32.224 15.092)"><path d="M189.62,703.17c4.638-1.432,12.173-3.048,16.959-.4l2.414,1.335,2.858-1.326a3.691,3.691,0,0,1,1.4-2.97h0l5.528-5.166c.131-.131.266-.26.414-.387l.11-.1.009.006a9.153,9.153,0,0,1,1.13-.808,17.49,17.49,0,0,1,15.81-.293c4.412,2.437,4.487,6.521.169,9.122a11.986,11.986,0,0,1-1.3.664l.009.006-.175.068q-.38.163-.777.3l-8.635,3.378h0a13.843,13.843,0,0,1-5.083.933l-2.174,1.7,2.389,1.319c4.8,2.652,2.331,7.066.051,9.8-1.046,1.257-3.885,1.581-5.6.636L202.2,713.847l-.561-.309-12.879-7.117C187.051,705.476,187.491,703.828,189.62,703.17Z" transform="translate(-187.2 -687.993)" fill="#a0d98d"/><path d="M188.046,701.809a4,4,0,0,1,1.592-.879c5.27-1.629,12.558-3.014,17.356-.364l2.187,1.208L211.5,700.7a3.923,3.923,0,0,1,.908-2.319,5.736,5.736,0,0,1,.661-.7l5.515-5.156c.14-.138.284-.277.427-.4l.25-.224.137-.124h0l.006-.006.025.015a9.149,9.149,0,0,1,.914-.63c4.452-2.678,11.773-2.814,16.319-.3.156.085.288.184.434.275s.3.185.446.282.258.191.383.289c.174.135.338.274.493.415.079.072.16.144.234.219a5.832,5.832,0,0,1,1.133,1.536l.016.035a4.515,4.515,0,0,1,.3.786c.013.044.025.088.035.133a4.3,4.3,0,0,1,.124.786c0,.024.006.047.007.071s.012.076.012.115a4.449,4.449,0,0,1-.321,1.7l0,.007-.512,1a8.072,8.072,0,0,1-2.6,2.367c-.15.09-.309.178-.478.268l-1.054.5c-.262.112-.53.216-.792.309l-8.629,3.376a14.207,14.207,0,0,1-5.1.967l-1.428,1.119.5.28c.45.252.9.506,1.082.6l.134.066c.11.06.2.13.3.193.131.081.262.162.384.246s.233.163.341.249c.163.127.315.258.458.392.09.085.175.172.258.26a5.138,5.138,0,0,1,.352.419c.056.074.112.147.162.224a4.48,4.48,0,0,1,.341.6c.029.063.05.129.077.194a4.478,4.478,0,0,1,.172.514c.022.079.044.16.062.241.006.03.016.056.022.085.012.069.007.14.016.211a4.725,4.725,0,0,1,.053.634c0,.106-.009.214-.016.319a5.667,5.667,0,0,1-.063.618c-.019.109-.046.216-.071.325-.031.143-.049.283-.091.428l-.484,1.247a15.156,15.156,0,0,1-2.085,3.179c-1.208,1.453-4.3,1.826-6.234.756l-26.364-14.567a3.274,3.274,0,0,1-.637-.455,1.877,1.877,0,0,1-.668-1.588A2.042,2.042,0,0,1,188.046,701.809Zm27.489,16.986c1.479.817,4.074.546,4.96-.515A12.409,12.409,0,0,0,222.8,714.4a4.8,4.8,0,0,0-2.155-2.134L218,710.8l-.06-3.01-.01-.548.336-.265,2.175-1.7h.175a13.224,13.224,0,0,0,4.9-.9l8.65-3.382c.228-.082.453-.168.683-.265l.225-.1a11.372,11.372,0,0,0,1.245-.636,2.615,2.615,0,1,0-.091-5.229,16.945,16.945,0,0,0-15.3.284,8.531,8.531,0,0,0-1.068.764l-.112.09c-.137.118-.263.238-.4.374l-5.535,5.173a3.186,3.186,0,0,0-1.23,2.556l.024.349-3.411,1.582-2.639-1.458c-4.621-2.554-12.071-.916-16.285.36Z" transform="translate(-187.364 -689.056)" fill="#150036"/></g></g><g transform="translate(275.858 847.475)"><g transform="translate(6.265 0.541)"><g transform="translate(26.163)"><path d="M264.1,749.364l98.363,56.754c2.353,1.358,6.464,1.188,9.181-.38h0c2.718-1.567,3.013-3.94.659-5.3l-98.363-56.755c-2.353-1.358-6.464-1.188-9.181.38h0C262.039,745.635,261.743,748.006,264.1,749.364Z" transform="translate(-262.508 -742.769)" fill="#fff"/></g><g transform="translate(17.874 55.674)"><path d="M258.464,787.192l54.294,31.328c2.353,1.358,6.464,1.188,9.181-.38h0c2.717-1.569,3.013-3.94.659-5.3L268.3,781.514c-2.353-1.357-6.464-1.188-9.181.381h0C256.405,783.462,256.111,785.835,258.464,787.192Z" transform="translate(-256.875 -780.597)" fill="#fff"/></g><g transform="translate(0 45.361)"><path d="M246.319,780.185l2.216,1.279c2.353,1.357,6.464,1.186,9.181-.381h0c2.717-1.567,3.013-3.94.659-5.3l-2.216-1.279c-2.353-1.359-6.462-1.188-9.181.38h0C244.262,776.456,243.966,778.827,246.319,780.185Z" transform="translate(-244.731 -773.59)" fill="#fff"/></g><g transform="translate(60.093 37.791)"><path d="M287.15,775.041l48.683,28.088c2.353,1.358,6.464,1.188,9.181-.38h0c2.717-1.567,3.013-3.94.659-5.3l-48.683-28.09c-2.353-1.357-6.464-1.187-9.181.381h0C285.093,771.311,284.8,773.682,287.15,775.041Z" transform="translate(-285.562 -768.446)" fill="#fff"/></g><g transform="translate(41.599 27.12)"><path d="M274.584,767.79l4.361,2.517c2.353,1.357,6.464,1.188,9.181-.381h0c2.717-1.567,3.013-3.94.659-5.3l-4.361-2.517c-2.353-1.357-6.464-1.186-9.181.381h0C272.525,764.06,272.231,766.433,274.584,767.79Z" transform="translate(-272.995 -761.196)" fill="#fff"/></g><g transform="translate(23.524 34.717)"><path d="M262.3,772.952l32.209,18.585c2.353,1.357,6.464,1.188,9.181-.381h0c2.717-1.567,3.013-3.938.659-5.3l-32.209-18.584c-2.353-1.359-6.464-1.188-9.181.38h0C260.244,769.222,259.95,771.595,262.3,772.952Z" transform="translate(-260.714 -766.358)" fill="#fff"/></g><g transform="translate(69.708 61.365)"><path d="M293.683,791.057l4.359,2.517c2.353,1.357,6.464,1.188,9.181-.381h0c2.718-1.567,3.013-3.938.659-5.3l-4.359-2.515c-2.353-1.358-6.464-1.188-9.181.38h0C291.624,787.328,291.33,789.7,293.683,791.057Z" transform="translate(-292.094 -784.464)" fill="#fff"/></g></g><g transform="translate(26.165)"><path d="M362.776,807.838a11.213,11.213,0,0,0,5.473-1.383c1.612-.93,2.536-2.2,2.536-3.5a3.291,3.291,0,0,0-1.876-2.8L270.544,743.4c-2.546-1.472-6.836-1.3-9.758.38-1.612.932-2.534,2.2-2.534,3.5a3.3,3.3,0,0,0,1.876,2.8l98.363,56.754A8.721,8.721,0,0,0,362.776,807.838ZM266.27,743.555a7.557,7.557,0,0,1,3.7.846l98.365,56.757a2.232,2.232,0,0,1,1.3,1.8c0,.868-.715,1.778-1.96,2.5-2.555,1.475-6.412,1.645-8.6.381l-98.363-56.755a2.228,2.228,0,0,1-1.3-1.8,3.261,3.261,0,0,1,1.957-2.5A10.1,10.1,0,0,1,266.27,743.555Z" transform="translate(-258.252 -742.401)" fill="#150036"/></g><g transform="translate(17.874 55.675)"><path d="M313.076,820.238a11.211,11.211,0,0,0,5.473-1.382c1.612-.93,2.536-2.206,2.536-3.5a3.293,3.293,0,0,0-1.876-2.8l-54.3-31.326c-2.553-1.472-6.841-1.3-9.758.381-1.612.93-2.536,2.2-2.536,3.5a3.293,3.293,0,0,0,1.876,2.8l54.3,31.328A8.732,8.732,0,0,0,313.076,820.238Zm-52.437-38.853a7.529,7.529,0,0,1,3.7.846l54.3,31.328a2.229,2.229,0,0,1,1.3,1.8c0,.87-.715,1.779-1.96,2.5-2.553,1.473-6.412,1.645-8.6.38l-54.3-31.326a2.232,2.232,0,0,1-1.3-1.8c0-.87.714-1.779,1.959-2.5A10.073,10.073,0,0,1,260.639,781.385Z" transform="translate(-252.619 -780.23)" fill="#150036"/></g><g transform="translate(0 45.362)"><path d="M248.854,783.182a11.2,11.2,0,0,0,5.472-1.383c1.612-.93,2.536-2.2,2.536-3.494a3.294,3.294,0,0,0-1.878-2.8l-2.215-1.279c-2.552-1.469-6.835-1.3-9.758.38-1.612.932-2.537,2.208-2.537,3.5a3.292,3.292,0,0,0,1.878,2.8l2.216,1.278A8.719,8.719,0,0,0,248.854,783.182Zm-.361-8.807a7.532,7.532,0,0,1,3.7.849l2.215,1.278a2.234,2.234,0,0,1,1.3,1.8c0,.868-.714,1.778-1.959,2.494-2.556,1.478-6.414,1.646-8.6.381l-2.216-1.279a2.23,2.23,0,0,1-1.3-1.8c0-.87.715-1.779,1.96-2.5A10.088,10.088,0,0,1,248.494,774.375Z" transform="translate(-240.474 -773.223)" fill="#150036"/></g><g transform="translate(60.095 37.79)"><path d="M336.149,804.85a11.2,11.2,0,0,0,5.472-1.382c1.612-.932,2.537-2.206,2.537-3.5a3.29,3.29,0,0,0-1.878-2.8L293.6,769.08c-2.548-1.472-6.835-1.3-9.758.38-1.612.932-2.534,2.206-2.534,3.5a3.289,3.289,0,0,0,1.875,2.8h0l48.684,28.09A8.731,8.731,0,0,0,336.149,804.85Zm-46.825-35.618a7.541,7.541,0,0,1,3.7.848L341.7,798.171a2.222,2.222,0,0,1,1.3,1.8c0,.87-.714,1.781-1.96,2.5-2.551,1.476-6.412,1.648-8.6.381l-48.683-28.09h0a2.231,2.231,0,0,1-1.3-1.8,3.261,3.261,0,0,1,1.957-2.5A10.1,10.1,0,0,1,289.324,769.232Z" transform="translate(-281.306 -768.078)" fill="#150036"/></g><g transform="translate(41.599 27.119)"><path d="M279.262,772.025a11.2,11.2,0,0,0,5.472-1.382c1.613-.93,2.536-2.2,2.536-3.5a3.288,3.288,0,0,0-1.877-2.8l-4.361-2.518c-2.551-1.469-6.839-1.3-9.756.383-1.612.93-2.537,2.2-2.537,3.5a3.29,3.29,0,0,0,1.878,2.8l4.359,2.515A8.71,8.71,0,0,0,279.262,772.025Zm-2.5-10.043a7.541,7.541,0,0,1,3.7.848l4.359,2.517a2.227,2.227,0,0,1,1.3,1.8c0,.868-.715,1.779-1.96,2.5-2.55,1.475-6.412,1.647-8.6.38l-4.361-2.517a2.224,2.224,0,0,1-1.3-1.8c0-.87.714-1.781,1.959-2.5A10.078,10.078,0,0,1,276.759,761.982Z" transform="translate(-268.739 -760.828)" fill="#150036"/></g><g transform="translate(23.525 34.717)"><path d="M294.83,793.257a11.224,11.224,0,0,0,5.472-1.383c1.612-.93,2.536-2.2,2.536-3.5a3.293,3.293,0,0,0-1.876-2.8l-32.209-18.584c-2.554-1.472-6.839-1.3-9.758.381-1.612.93-2.536,2.2-2.536,3.5a3.291,3.291,0,0,0,1.876,2.8l32.209,18.584A8.708,8.708,0,0,0,294.83,793.257Zm-30.352-26.112a7.529,7.529,0,0,1,3.7.846l32.209,18.584a2.234,2.234,0,0,1,1.3,1.8c0,.87-.715,1.781-1.96,2.5-2.555,1.475-6.414,1.644-8.6.38L258.911,772.67a2.233,2.233,0,0,1-1.3-1.8c0-.868.714-1.778,1.959-2.5A10.073,10.073,0,0,1,264.478,767.145Z" transform="translate(-256.458 -765.99)" fill="#150036"/></g><g transform="translate(69.708 61.365)"><path d="M298.361,795.293a11.223,11.223,0,0,0,5.472-1.382c1.612-.93,2.536-2.2,2.536-3.5a3.291,3.291,0,0,0-1.876-2.8l-4.361-2.515c-2.555-1.47-6.841-1.3-9.758.381-1.612.93-2.536,2.2-2.536,3.5a3.291,3.291,0,0,0,1.876,2.8l4.361,2.515A8.707,8.707,0,0,0,298.361,795.293Zm-2.5-10.042a7.528,7.528,0,0,1,3.7.846l4.361,2.515a2.23,2.23,0,0,1,1.3,1.8c0,.868-.714,1.779-1.959,2.5-2.555,1.472-6.415,1.644-8.6.38l-4.361-2.515a2.233,2.233,0,0,1-1.3-1.8c0-.87.714-1.779,1.959-2.5A10.073,10.073,0,0,1,295.858,785.251Z" transform="translate(-287.838 -784.097)" fill="#150036"/></g></g><g transform="translate(449.531 828.967)"><g transform="translate(11.016)"><path d="M367.377,783.275c1.344-2.188,4.006-2.368,7.911-.547l80.946-48.381a8.165,8.165,0,0,1,8.09-.287L516.907,766.2c-.246-2.328,0-3.548.762-3.91.892-.425,1.99.6,2.733,1.4,1.819,1.975,2.571,3.9,2.239,5.733-.508,2.792-3.357,4.256-3.448,4.3l-87.216,52.181A8.151,8.151,0,0,1,426.365,827a7.989,7.989,0,0,1-2.353-.8L369.1,792.671a5.034,5.034,0,0,1-1.317-1.086C366.346,790.085,364.733,787.591,367.377,783.275Z" transform="translate(-365.963 -728.27)" fill="#150036"/><g transform="translate(1.069)"><path d="M368.533,783.625,456.08,731.3a7.715,7.715,0,0,1,7.608-.287l54.852,33.53a3.4,3.4,0,0,1,0,5.849l-87.218,52.182a7.586,7.586,0,0,1-7.481.29L369,789.373C366.3,787.679,366.54,785,368.533,783.625Z" transform="translate(-366.54 -729.676)" fill="#a0d98d"/><g transform="translate(0.863 2.4)"><path d="M462.869,732.324l54.852,33.529a3.236,3.236,0,0,1,1.587,3.566,3.339,3.339,0,0,1-.517.415l-87.218,52.182a7.586,7.586,0,0,1-7.481.29l-54.848-33.488a3.515,3.515,0,0,1-1.93-3.537,3.633,3.633,0,0,1,.4-.344l87.547-52.327A7.708,7.708,0,0,1,462.869,732.324Z" transform="translate(-367.276 -731.457)" fill="#fff"/><path d="M373.136,782.324l55.3,33.176a1.329,1.329,0,0,0,1.3-.051L508.5,768.6a.481.481,0,0,0,0-.829L453.283,734.3a1.186,1.186,0,0,0-1.177.043l-78.973,47.223A.44.44,0,0,0,373.136,782.324Z" transform="translate(-364.615 -730.18)" fill="#a0d98d"/><path d="M428.882,816.2a1.768,1.768,0,0,0,1.219-.232l78.77-46.852a.939.939,0,0,0,.453-.829.887.887,0,0,0-.472-.774l-55.2-33.456a1.64,1.64,0,0,0-1.638.044l-78.97,47.221a.894.894,0,0,0-.431.8.848.848,0,0,0,.444.73l55.289,33.172A1.9,1.9,0,0,0,428.882,816.2ZM453,734.757a.707.707,0,0,1,.213.074l55.2,33.456-78.771,46.922a.888.888,0,0,1-.862.04l-55.272-33.16,78.964-47.226A.779.779,0,0,1,453,734.757Z" transform="translate(-364.757 -730.322)" fill="#150036"/></g><path d="M426.1,824.213a8.146,8.146,0,0,0,5.613-1.091l87.216-52.182a3.949,3.949,0,0,0,1.89-3.5,3.615,3.615,0,0,0-1.918-3.157l-54.826-33.516a8.172,8.172,0,0,0-8.092.286l-87.572,52.343a3.728,3.728,0,0,0-1.726,3.133,4.2,4.2,0,0,0,2.209,3.394l54.852,33.493A8,8,0,0,0,426.1,824.213Zm35.427-93.352a7.066,7.066,0,0,1,2.088.712l54.826,33.516a2.714,2.714,0,0,1,1.447,2.374,3.019,3.019,0,0,1-1.439,2.677l-87.216,52.181a7.112,7.112,0,0,1-7.025.278l-54.821-33.475a3.294,3.294,0,0,1-1.766-2.62,2.8,2.8,0,0,1,1.311-2.337l87.534-52.319A7.353,7.353,0,0,1,461.532,730.861Z" transform="translate(-366.689 -729.826)" fill="#150036"/></g><g transform="translate(115.105 16.584)"><path d="M453.351,747.312l-9.007-5.438c-.26-.156-.221-.436.09-.623h0a1.108,1.108,0,0,1,1.032-.054l9.007,5.438c.259.156.219.436-.09.622h0A1.108,1.108,0,0,1,453.351,747.312Z" transform="translate(-444.172 -741.094)" fill="#150036"/></g><g transform="translate(30.725 70.694)"><path d="M390.7,781.925l-3.414-2.04c-.676-.416-.565-1.145.249-1.626h0a2.886,2.886,0,0,1,2.7-.118l3.414,2.04c.676.416.565,1.145-.249,1.626h0A2.886,2.886,0,0,1,390.7,781.925Z" transform="translate(-386.84 -777.86)" fill="#150036"/></g><g transform="translate(48.487 38.037)"><path d="M452.623,768.888c-3.387,2.038-10.882,5-26.032,4.533s-22.881-3.9-25.475-7.276-1.728-6.027.072-6.916c3.242-1.6,12.847-.134,14.17,1.1s.726,2.849.942,4.287,1.244,2.468,4.771,2.83,16.061.805,18.236-1.039-.7-3.283,1.255-5.217,13.3-2.748,14.9-1.5S457.415,766,452.623,768.888Z" transform="translate(-398.635 -754.323)" fill="#fff"/><path d="M428.807,772.068c13.389.15,20.612-2.429,24.355-4.682h0a8.266,8.266,0,0,0,4.256-6.507,4.616,4.616,0,0,0-1.342-3.9c-1.887-1.473-13.618-.671-15.87,1.556a3.019,3.019,0,0,0-.755,3.291c.194.8.3,1.242-.459,1.887-1.759,1.491-13.146,1.335-17.685.87-3.844-.393-4.022-1.575-4.118-2.208a7.154,7.154,0,0,1-.04-1.2,4.227,4.227,0,0,0-1.127-3.52c-1.632-1.516-11.6-2.9-15-1.22a3.736,3.736,0,0,0-2,2.554c-.268,1.152-.2,3.038,1.669,5.47,1.6,2.081,7.332,6.988,26.037,7.565C427.436,772.047,428.131,772.061,428.807,772.068Zm23.338-14.384a6.691,6.691,0,0,1,3.023.452,3.284,3.284,0,0,1,.78,2.655,6.737,6.737,0,0,1-3.545,5.334h0c-3.762,2.265-11.285,4.873-25.628,4.428-18.584-.573-23.767-5.494-24.914-6.989-1.182-1.542-1.681-3.048-1.4-4.24a2.285,2.285,0,0,1,1.217-1.569c3.08-1.516,12.394.1,13.341.979.656.609.678,1.316.659,2.417a8.519,8.519,0,0,0,.057,1.441c.311,2.062,1.934,3.1,5.423,3.453,2.031.209,16.1,1.07,18.787-1.21a2.89,2.89,0,0,0,.937-3.36c-.19-.773-.3-1.241.359-1.9C442.434,758.4,448.378,757.643,452.144,757.685Z" transform="translate(-398.908 -755.67)" fill="#150036"/></g></g><g transform="translate(0 46.591)"><path d="M406.973,805.945a.819.819,0,0,0,0,1.551,2.974,2.974,0,0,0,2.689,0,.819.819,0,0,0,0-1.551A2.984,2.984,0,0,0,406.973,805.945Z" transform="translate(-335.863 -740.659)" fill="#150036"/><path d="M402.2,803.19a.819.819,0,0,0,0,1.551,2.971,2.971,0,0,0,2.687,0,.818.818,0,0,0,0-1.551A2.972,2.972,0,0,0,402.2,803.19Z" transform="translate(-338.116 -741.959)" fill="#150036"/><path d="M397.424,800.435a.818.818,0,0,0,0,1.551,2.971,2.971,0,0,0,2.688,0,.818.818,0,0,0,0-1.551A2.972,2.972,0,0,0,397.424,800.435Z" transform="translate(-340.369 -743.258)" fill="#150036"/><path d="M392.649,797.68a.817.817,0,0,0,0,1.55,2.962,2.962,0,0,0,2.687,0,.818.818,0,0,0,0-1.55A2.971,2.971,0,0,0,392.649,797.68Z" transform="translate(-342.621 -744.558)" fill="#150036"/><path d="M387.874,794.924a.818.818,0,0,0,0,1.551,2.972,2.972,0,0,0,2.687,0,.819.819,0,0,0,0-1.551A2.981,2.981,0,0,0,387.874,794.924Z" transform="translate(-344.874 -745.858)" fill="#150036"/><ellipse cx="1.9" cy="1.097" rx="1.9" ry="1.097" transform="translate(35.415 44.69)" fill="#150036"/><path d="M378.322,789.414a.819.819,0,0,0,0,1.551,2.974,2.974,0,0,0,2.689,0,.819.819,0,0,0,0-1.551A2.975,2.975,0,0,0,378.322,789.414Z" transform="translate(-349.379 -748.458)" fill="#150036"/><path d="M373.547,786.659a.819.819,0,0,0,0,1.551,2.971,2.971,0,0,0,2.687,0,.818.818,0,0,0,0-1.551A2.971,2.971,0,0,0,373.547,786.659Z" transform="translate(-351.632 -749.757)" fill="#150036"/><path d="M368.772,783.9a.819.819,0,0,0,0,1.551,2.98,2.98,0,0,0,2.687,0,.818.818,0,0,0,0-1.551A2.971,2.971,0,0,0,368.772,783.9Z" transform="translate(-353.884 -751.057)" fill="#150036"/><path d="M364,781.148a.818.818,0,0,0,0,1.551,2.972,2.972,0,0,0,2.687,0,.818.818,0,0,0,0-1.551A2.972,2.972,0,0,0,364,781.148Z" transform="translate(-356.137 -752.357)" fill="#150036"/><path d="M359.223,778.393a.818.818,0,0,0,0,1.551,2.971,2.971,0,0,0,2.687,0,.819.819,0,0,0,0-1.551A2.971,2.971,0,0,0,359.223,778.393Z" transform="translate(-358.39 -753.657)" fill="#150036"/><path d="M411.748,803.19a.819.819,0,0,0,0,1.551,2.974,2.974,0,0,0,2.689,0,.819.819,0,0,0,0-1.551A2.975,2.975,0,0,0,411.748,803.19Z" transform="translate(-333.61 -741.959)" fill="#150036"/><path d="M406.973,800.435a.819.819,0,0,0,0,1.551,2.974,2.974,0,0,0,2.689,0,.819.819,0,0,0,0-1.551A2.975,2.975,0,0,0,406.973,800.435Z" transform="translate(-335.863 -743.258)" fill="#150036"/><path d="M402.2,797.68a.818.818,0,0,0,0,1.55,2.962,2.962,0,0,0,2.687,0,.817.817,0,0,0,0-1.55A2.971,2.971,0,0,0,402.2,797.68Z" transform="translate(-338.116 -744.558)" fill="#150036"/><path d="M397.424,794.924a.818.818,0,0,0,0,1.551,2.972,2.972,0,0,0,2.688,0,.818.818,0,0,0,0-1.551A2.981,2.981,0,0,0,397.424,794.924Z" transform="translate(-340.369 -745.858)" fill="#150036"/><path d="M392.649,792.169a.818.818,0,0,0,0,1.551,2.971,2.971,0,0,0,2.687,0,.819.819,0,0,0,0-1.551A2.972,2.972,0,0,0,392.649,792.169Z" transform="translate(-342.621 -747.158)" fill="#150036"/><path d="M387.874,789.414a.818.818,0,0,0,0,1.551,2.971,2.971,0,0,0,2.687,0,.819.819,0,0,0,0-1.551A2.971,2.971,0,0,0,387.874,789.414Z" transform="translate(-344.874 -748.458)" fill="#150036"/><path d="M383.1,786.659a.819.819,0,0,0,0,1.551,2.974,2.974,0,0,0,2.689,0,.819.819,0,0,0,0-1.551A2.974,2.974,0,0,0,383.1,786.659Z" transform="translate(-347.127 -749.757)" fill="#150036"/><path d="M378.322,783.9a.819.819,0,0,0,0,1.551,2.983,2.983,0,0,0,2.689,0,.819.819,0,0,0,0-1.551A2.974,2.974,0,0,0,378.322,783.9Z" transform="translate(-349.379 -751.057)" fill="#150036"/><path d="M373.547,781.148a.819.819,0,0,0,0,1.551,2.972,2.972,0,0,0,2.687,0,.818.818,0,0,0,0-1.551A2.971,2.971,0,0,0,373.547,781.148Z" transform="translate(-351.632 -752.357)" fill="#150036"/><path d="M368.772,778.393a.819.819,0,0,0,0,1.551,2.971,2.971,0,0,0,2.687,0,.818.818,0,0,0,0-1.551A2.971,2.971,0,0,0,368.772,778.393Z" transform="translate(-353.884 -753.657)" fill="#150036"/><path d="M364,775.638a.818.818,0,0,0,0,1.551,2.971,2.971,0,0,0,2.687,0,.818.818,0,0,0,0-1.551A2.972,2.972,0,0,0,364,775.638Z" transform="translate(-356.137 -754.957)" fill="#150036"/><path d="M416.523,800.435a.819.819,0,0,0,0,1.551,2.974,2.974,0,0,0,2.689,0,.819.819,0,0,0,0-1.551A2.975,2.975,0,0,0,416.523,800.435Z" transform="translate(-331.358 -743.258)" fill="#150036"/><path d="M411.748,797.68a.818.818,0,0,0,0,1.55,2.965,2.965,0,0,0,2.689,0,.818.818,0,0,0,0-1.55A2.974,2.974,0,0,0,411.748,797.68Z" transform="translate(-333.61 -744.558)" fill="#150036"/><ellipse cx="1.9" cy="1.097" rx="1.9" ry="1.097" transform="translate(91.638 52.8)" fill="#150036"/><path d="M416.523,794.924a.819.819,0,0,0,0,1.551,2.975,2.975,0,0,0,2.689,0,.819.819,0,0,0,0-1.551A2.984,2.984,0,0,0,416.523,794.924Z" transform="translate(-331.358 -745.858)" fill="#150036"/><path d="M426.075,794.925a.817.817,0,0,0,0,1.55,2.972,2.972,0,0,0,2.687,0,.818.818,0,0,0,0-1.55A2.971,2.971,0,0,0,426.075,794.925Z" transform="translate(-326.852 -745.858)" fill="#150036"/><ellipse cx="1.9" cy="1.097" rx="1.9" ry="1.097" transform="translate(91.638 44.69)" fill="#150036"/><path d="M430.89,792.14a.819.819,0,0,0,0,1.551,2.974,2.974,0,0,0,2.689,0,.819.819,0,0,0,0-1.551A2.983,2.983,0,0,0,430.89,792.14Z" transform="translate(-324.58 -747.171)" fill="#150036"/><path d="M426.115,789.385a.819.819,0,0,0,0,1.551,2.974,2.974,0,0,0,2.689,0,.819.819,0,0,0,0-1.551A2.975,2.975,0,0,0,426.115,789.385Z" transform="translate(-326.833 -748.471)" fill="#150036"/><path d="M435.667,789.385a.818.818,0,0,0,0,1.551,2.971,2.971,0,0,0,2.687,0,.819.819,0,0,0,0-1.551A2.972,2.972,0,0,0,435.667,789.385Z" transform="translate(-322.327 -748.471)" fill="#150036"/><path d="M430.89,786.63a.819.819,0,0,0,0,1.551,2.975,2.975,0,0,0,2.689,0,.819.819,0,0,0,0-1.551A2.975,2.975,0,0,0,430.89,786.63Z" transform="translate(-324.58 -749.771)" fill="#150036"/><path d="M440.44,786.63a.819.819,0,0,0,0,1.551,2.975,2.975,0,0,0,2.689,0,.819.819,0,0,0,0-1.551A2.975,2.975,0,0,0,440.44,786.63Z" transform="translate(-320.075 -749.771)" fill="#150036"/><path d="M435.665,783.875a.819.819,0,0,0,0,1.551,2.974,2.974,0,0,0,2.689,0,.819.819,0,0,0,0-1.551A2.974,2.974,0,0,0,435.665,783.875Z" transform="translate(-322.327 -751.071)" fill="#150036"/><path d="M445.217,783.875a.818.818,0,0,0,0,1.551,2.971,2.971,0,0,0,2.687,0,.819.819,0,0,0,0-1.551A2.971,2.971,0,0,0,445.217,783.875Z" transform="translate(-317.822 -751.071)" fill="#150036"/><path d="M440.44,781.12a.818.818,0,0,0,0,1.55,2.974,2.974,0,0,0,2.689,0,.818.818,0,0,0,0-1.55A2.965,2.965,0,0,0,440.44,781.12Z" transform="translate(-320.075 -752.371)" fill="#150036"/><path d="M449.991,781.12a.818.818,0,0,0,0,1.55,2.971,2.971,0,0,0,2.687,0,.818.818,0,0,0,0-1.55A2.962,2.962,0,0,0,449.991,781.12Z" transform="translate(-315.569 -752.371)" fill="#150036"/><path d="M445.217,778.364a.818.818,0,0,0,0,1.551,2.971,2.971,0,0,0,2.687,0,.819.819,0,0,0,0-1.551A2.971,2.971,0,0,0,445.217,778.364Z" transform="translate(-317.822 -753.67)" fill="#150036"/><path d="M454.766,778.364a.819.819,0,0,0,0,1.551,2.971,2.971,0,0,0,2.687,0,.818.818,0,0,0,0-1.551A2.971,2.971,0,0,0,454.766,778.364Z" transform="translate(-313.316 -753.67)" fill="#150036"/><path d="M449.991,775.609a.819.819,0,0,0,0,1.551,2.971,2.971,0,0,0,2.687,0,.819.819,0,0,0,0-1.551A2.972,2.972,0,0,0,449.991,775.609Z" transform="translate(-315.569 -754.97)" fill="#150036"/><path d="M459.541,775.609a.819.819,0,0,0,0,1.551,2.971,2.971,0,0,0,2.687,0,.818.818,0,0,0,0-1.551A2.971,2.971,0,0,0,459.541,775.609Z" transform="translate(-311.064 -754.97)" fill="#150036"/><path d="M454.766,772.854a.819.819,0,0,0,0,1.551,2.972,2.972,0,0,0,2.687,0,.818.818,0,0,0,0-1.551A2.972,2.972,0,0,0,454.766,772.854Z" transform="translate(-313.316 -756.27)" fill="#150036"/><path d="M464.316,772.854a.819.819,0,0,0,0,1.551,2.975,2.975,0,0,0,2.689,0,.819.819,0,0,0,0-1.551A2.975,2.975,0,0,0,464.316,772.854Z" transform="translate(-308.811 -756.27)" fill="#150036"/><path d="M459.541,770.1a.818.818,0,0,0,0,1.55,2.962,2.962,0,0,0,2.687,0,.817.817,0,0,0,0-1.55A2.971,2.971,0,0,0,459.541,770.1Z" transform="translate(-311.064 -757.569)" fill="#150036"/><path d="M469.134,770.07a.818.818,0,0,0,0,1.551,2.981,2.981,0,0,0,2.687,0,.818.818,0,0,0,0-1.551A2.972,2.972,0,0,0,469.134,770.07Z" transform="translate(-306.539 -757.583)" fill="#150036"/><path d="M464.359,767.314a.818.818,0,0,0,0,1.551,2.971,2.971,0,0,0,2.687,0,.819.819,0,0,0,0-1.551A2.981,2.981,0,0,0,464.359,767.314Z" transform="translate(-308.792 -758.883)" fill="#150036"/><path d="M473.908,767.314a.819.819,0,0,0,0,1.551,2.971,2.971,0,0,0,2.687,0,.819.819,0,0,0,0-1.551A2.981,2.981,0,0,0,473.908,767.314Z" transform="translate(-304.286 -758.883)" fill="#150036"/><path d="M469.134,764.559a.818.818,0,0,0,0,1.551,2.971,2.971,0,0,0,2.687,0,.818.818,0,0,0,0-1.551A2.971,2.971,0,0,0,469.134,764.559Z" transform="translate(-306.539 -760.183)" fill="#150036"/><path d="M473.909,761.8a.819.819,0,0,0,0,1.551,2.971,2.971,0,0,0,2.687,0,.819.819,0,0,0,0-1.551A2.972,2.972,0,0,0,473.909,761.8Z" transform="translate(-304.286 -761.483)" fill="#150036"/><path d="M397.237,805.5a.818.818,0,0,0,0,1.551,2.971,2.971,0,0,0,2.687,0,.818.818,0,0,0,0-1.551A2.971,2.971,0,0,0,397.237,805.5Z" transform="translate(-340.457 -740.867)" fill="#150036"/><path d="M392.461,802.749a.819.819,0,0,0,0,1.551,2.971,2.971,0,0,0,2.687,0,.818.818,0,0,0,0-1.551A2.972,2.972,0,0,0,392.461,802.749Z" transform="translate(-342.709 -742.167)" fill="#150036"/><path d="M387.687,799.994a.818.818,0,0,0,0,1.551,2.971,2.971,0,0,0,2.687,0,.819.819,0,0,0,0-1.551A2.971,2.971,0,0,0,387.687,799.994Z" transform="translate(-344.962 -743.466)" fill="#150036"/><path d="M382.91,797.239a.819.819,0,0,0,0,1.551,2.974,2.974,0,0,0,2.689,0,.819.819,0,0,0,0-1.551A2.974,2.974,0,0,0,382.91,797.239Z" transform="translate(-347.215 -744.766)" fill="#150036"/><path d="M378.135,794.484a.819.819,0,0,0,0,1.551,2.983,2.983,0,0,0,2.689,0,.819.819,0,0,0,0-1.551A2.975,2.975,0,0,0,378.135,794.484Z" transform="translate(-349.467 -746.066)" fill="#150036"/><path d="M373.36,791.728a.819.819,0,0,0,0,1.551,2.972,2.972,0,0,0,2.687,0,.818.818,0,0,0,0-1.551A2.971,2.971,0,0,0,373.36,791.728Z" transform="translate(-351.72 -747.366)" fill="#150036"/><path d="M368.585,788.973a.819.819,0,0,0,0,1.551,2.972,2.972,0,0,0,2.687,0,.818.818,0,0,0,0-1.551A2.972,2.972,0,0,0,368.585,788.973Z" transform="translate(-353.973 -748.666)" fill="#150036"/><path d="M363.811,786.218a.818.818,0,0,0,0,1.551,2.971,2.971,0,0,0,2.687,0,.818.818,0,0,0,0-1.551A2.971,2.971,0,0,0,363.811,786.218Z" transform="translate(-356.226 -749.965)" fill="#150036"/><path d="M359.036,783.463a.817.817,0,0,0,0,1.55,2.972,2.972,0,0,0,2.687,0,.818.818,0,0,0,0-1.55A2.971,2.971,0,0,0,359.036,783.463Z" transform="translate(-358.478 -751.265)" fill="#150036"/></g></g></g></svg>