<svg xmlns="http://www.w3.org/2000/svg" width="519.482" height="451.599" viewBox="0 0 519.482 451.599"><g transform="translate(-733.335 -130.546)"><g transform="translate(924.077 189.905)"><path d="M897.5,200.629l-10.763,4.144a53.607,53.607,0,0,0-21.073,14.714l-15.328,17.5a4.614,4.614,0,0,0,.432,6.508L881.4,270.324a4.609,4.609,0,0,0,6.507-.432l15.328-17.5a53.585,53.585,0,0,1,21.073-14.714l10.762-4.144a61.3,61.3,0,0,0,24.1-16.826l13.295-15.182a4.61,4.61,0,0,0-.432-6.507L941.4,168.189a4.614,4.614,0,0,0-6.508.432L921.6,183.8A61.3,61.3,0,0,1,897.5,200.629Z" transform="translate(-848.118 -165.974)" fill="#fff"/><path d="M884.857,272.968a5.651,5.651,0,0,1-3.74-1.409l-30.636-26.826a5.7,5.7,0,0,1-.533-8.026l15.328-17.5a54.887,54.887,0,0,1,21.5-15.01l10.761-4.142a60.469,60.469,0,0,0,23.677-16.533l13.293-15.18a5.7,5.7,0,0,1,8.026-.533l30.636,26.828a5.682,5.682,0,0,1,.533,8.025l-13.293,15.182a62.6,62.6,0,0,1-24.525,17.122L925.12,239.1a52.759,52.759,0,0,0-20.651,14.419l-15.324,17.5a5.653,5.653,0,0,1-3.9,1.927C885.112,272.965,884.985,272.968,884.857,272.968Zm13.45-70.909L887.546,206.2A52.754,52.754,0,0,0,866.9,220.621l-15.328,17.5a3.541,3.541,0,0,0,.331,4.988l30.636,26.826a3.537,3.537,0,0,0,4.99-.331l15.326-17.5a54.922,54.922,0,0,1,21.5-15.01l10.762-4.142a60.47,60.47,0,0,0,23.677-16.531l13.293-15.182a3.533,3.533,0,0,0-.329-4.988l-30.636-26.828a3.541,3.541,0,0,0-4.988.331l-13.295,15.182a62.631,62.631,0,0,1-24.523,17.122Z" transform="translate(-848.543 -166.399)" fill="#150035"/><g transform="translate(14.244 15.925)"><path d="M929.388,177.53a5.648,5.648,0,0,1-.49-.525l-5.553,6.341A61.311,61.311,0,0,1,898.5,200.454l-10.333,3.824a53.613,53.613,0,0,0-21.723,14.959l-8.382,9.573a5.749,5.749,0,0,1,.538,8.111L873.309,249.8a5.743,5.743,0,0,1,8.042-.586l8.354-9.54a53.6,53.6,0,0,1,21.815-14.993l10.271-3.781a61.3,61.3,0,0,0,24.949-17.146l5.465-6.242a5.749,5.749,0,0,1-.536-8.111L937.5,176.994A5.747,5.747,0,0,1,929.388,177.53Z" transform="translate(-856.546 -175.378)" fill="#a1dc8e"/><path d="M874.009,251.957l-16.324-14.295.709-.81a4.678,4.678,0,0,0-.439-6.593l-.808-.709,9.091-10.382a54.844,54.844,0,0,1,22.161-15.26l10.331-3.823a60.425,60.425,0,0,0,24.407-16.808l6.358-7.26.926,1.046a2.752,2.752,0,0,0,.278.3,4.673,4.673,0,0,0,6.591-.437l.71-.811,15.788,13.824-.709.811a4.67,4.67,0,0,0,.435,6.591l.81.709L948.15,205.1a62.554,62.554,0,0,1-25.386,17.447l-10.272,3.781a52.689,52.689,0,0,0-21.377,14.692l-9.051,10.338-.81-.687a4.686,4.686,0,0,0-6.535.477ZM860.659,237.4l13.215,11.574a6.867,6.867,0,0,1,7.912-.57l7.71-8.8a54.838,54.838,0,0,1,22.253-15.295l10.271-3.78a60.415,60.415,0,0,0,24.51-16.846l4.811-5.5a6.84,6.84,0,0,1-.528-7.99l-12.677-11.1a6.825,6.825,0,0,1-8.579.114l-4.8,5.483A62.585,62.585,0,0,1,899.476,202.1l-10.331,3.823a52.675,52.675,0,0,0-21.288,14.661l-7.73,8.826A6.843,6.843,0,0,1,860.659,237.4Z" transform="translate(-857.147 -176.018)" fill="#150035"/></g><g transform="translate(18.766 64.309)"><rect width="2.152" height="30.959" transform="translate(0 1.619) rotate(-48.793)" fill="#150035"/></g><g transform="translate(22.402 60.157)"><rect width="2.152" height="30.959" transform="matrix(0.659, -0.752, 0.752, 0.659, 0, 1.619)" fill="#150035"/></g><g transform="translate(42.536 45.144)"><rect width="2.152" height="30.959" transform="translate(0 1.619) rotate(-48.793)" fill="#150035"/></g><g transform="translate(81.964 21.352)"><rect width="2.152" height="30.959" transform="matrix(0.659, -0.752, 0.752, 0.659, 0, 1.619)" fill="#150035"/></g><g transform="translate(75.511 28.722)"><rect width="2.152" height="30.959" transform="matrix(0.659, -0.752, 0.752, 0.659, 0, 1.619)" fill="#150035"/></g><g transform="translate(45.285 42.674)"><path d="M877.873,205.792l3.626,3.174a11.372,11.372,0,0,0,11.561,2.066l14.735-5.644a3.886,3.886,0,0,0,1.171-6.551l-3.647-3.192a11.371,11.371,0,0,0-11.576-2.06l-14.705,5.656A3.887,3.887,0,0,0,877.873,205.792Z" transform="translate(-875.469 -191.747)" fill="#fff"/><path d="M889.41,213.291a12.417,12.417,0,0,1-8.194-3.088l-3.627-3.175a4.962,4.962,0,0,1,1.488-8.363l14.7-5.656a12.419,12.419,0,0,1,12.674,2.253l3.644,3.192a4.962,4.962,0,0,1-1.492,8.366l-14.735,5.642A12.463,12.463,0,0,1,889.41,213.291Zm-10.4-7.882,3.626,3.175a10.271,10.271,0,0,0,10.469,1.871l14.735-5.644a2.808,2.808,0,0,0,.844-4.735l-3.646-3.194a10.267,10.267,0,0,0-10.482-1.864l-14.705,5.656a2.811,2.811,0,0,0-.839,4.737Z" transform="translate(-875.895 -192.174)" fill="#150035"/></g><g transform="translate(5.857 70.023)"><path d="M857.593,210.069a2.932,2.932,0,1,1-4.137.275A2.932,2.932,0,0,1,857.593,210.069Z" transform="translate(-851.655 -208.266)" fill="#a1dc8e"/><path d="M856.081,216.71a3.994,3.994,0,1,1,.27-.008C856.262,216.706,856.171,216.71,856.081,216.71Zm.008-5.863c-.041,0-.083,0-.124,0a1.855,1.855,0,0,0-1.1,3.247,1.821,1.821,0,0,0,1.344.457,1.855,1.855,0,0,0,1.1-3.248h0A1.84,1.84,0,0,0,856.089,210.847Z" transform="translate(-852.081 -208.693)" fill="#150035"/></g><g transform="translate(31.182 92.203)"><path d="M872.891,223.464a2.932,2.932,0,1,1-4.137.275A2.932,2.932,0,0,1,872.891,223.464Z" transform="translate(-866.951 -221.665)" fill="#a1dc8e"/><path d="M871.38,230.1a4.008,4.008,0,1,1,2.646-7.023l0,0a4.009,4.009,0,0,1-2.377,7.013C871.56,230.1,871.469,230.1,871.38,230.1Zm.007-5.863a1.856,1.856,0,0,0-1.224,3.252,1.856,1.856,0,0,0,2.444-2.793A1.852,1.852,0,0,0,871.387,224.241Z" transform="translate(-867.377 -222.09)" fill="#150035"/></g><g transform="translate(86.99 7.381)"><path d="M906.6,172.233a2.931,2.931,0,1,1-4.137.273A2.93,2.93,0,0,1,906.6,172.233Z" transform="translate(-900.66 -170.432)" fill="#a1dc8e"/><path d="M905.09,178.87a4.008,4.008,0,1,1,2.644-7.022h0a4.007,4.007,0,0,1-2.644,7.022Zm0-5.863a1.856,1.856,0,1,0,1.22.459h0A1.849,1.849,0,0,0,905.093,173.008Z" transform="translate(-901.086 -170.857)" fill="#150035"/></g><g transform="translate(112.525 29.742)"><path d="M922.021,185.738a2.931,2.931,0,1,1-4.137.273A2.93,2.93,0,0,1,922.021,185.738Z" transform="translate(-916.083 -183.938)" fill="#a1dc8e"/><path d="M920.513,192.373a4.007,4.007,0,1,1,2.644-7.02h0a4.006,4.006,0,0,1-2.644,7.02Zm0-5.861a1.856,1.856,0,1,0,1.22.459A1.854,1.854,0,0,0,920.516,186.512Z" transform="translate(-916.509 -184.363)" fill="#150035"/></g><g transform="translate(62.059 44.084)"><rect width="2.152" height="18.144" transform="translate(0 1.619) rotate(-48.793)" fill="#150035"/></g><g transform="translate(55.7 46.456)"><rect width="2.152" height="18.144" transform="translate(0 1.619) rotate(-48.793)" fill="#150035"/></g><g transform="translate(114.981 44.465)"><rect width="11.231" height="2.152" transform="matrix(0.653, -0.757, 0.757, 0.653, 0, 8.507)" fill="#150035"/></g></g><g transform="translate(1134.076 416.6)"><g transform="translate(0 0)"><g transform="translate(0 6.022)"><path d="M1020.472,312.518c-2.455-3.071-5.151-2.459-11.952-3.98a38.074,38.074,0,0,0-17.758.248c-5.762,1.485-9.273,2.444-11.656,5.147l-3.073,1.594.008,6.379.02.159c.129,4.3,3.642,8.329,10.631,11.209a35.847,35.847,0,0,0,22.007,1.543c10.323-2.485,15.508-7.675,15.669-12.907l.02-.248v-6.134Z" transform="translate(-974.957 -306.535)" fill="#150035"/><path d="M1000.433,337.352a36.112,36.112,0,0,1-13.725-2.657c-7.137-2.94-11.149-7.262-11.295-12.172l-.023-.189-.007-7.035,3.48-1.8c2.664-2.906,6.621-3.924,12.058-5.326a39.236,39.236,0,0,1,18.26-.255c1.889.422,3.435.674,4.8.9,3.526.574,5.674.922,7.67,3.356l4.238,3.255-.026,7c-.187,6.219-6.354,11.422-16.489,13.864A38.344,38.344,0,0,1,1000.433,337.352Zm-22.9-20.747.007,5.725c.141,4.139,3.679,7.776,9.983,10.374a34.987,34.987,0,0,0,21.346,1.493c9-2.169,14.687-6.725,14.844-11.894l.025-.306,0-5.515-3.684-2.867c-1.5-1.881-3.041-2.131-6.419-2.68-1.324-.217-2.973-.485-4.924-.921a37.067,37.067,0,0,0-17.255.24c-5.841,1.5-8.99,2.4-11.119,4.816l-.311.243Z" transform="translate(-975.383 -306.96)" fill="#150035"/></g><path d="M1017.306,308.049c9.442,5.452,9.442,14.29,0,19.74s-24.75,5.452-34.192,0-9.442-14.29,0-19.742S1007.864,302.6,1017.306,308.049Z" transform="translate(-974.957 -302.905)" fill="#fff"/><path d="M1000.636,333.351c-6.386,0-12.771-1.4-17.634-4.212-4.912-2.836-7.619-6.672-7.619-10.8s2.707-7.965,7.621-10.8c9.722-5.619,25.541-5.616,35.266,0,4.914,2.836,7.621,6.67,7.621,10.8s-2.707,7.967-7.621,10.8C1013.409,331.945,1007.02,333.351,1000.636,333.351Zm0-27.906c-6,0-11.992,1.318-16.556,3.954-4.22,2.437-6.543,5.609-6.545,8.939s2.323,6.5,6.543,8.939c9.129,5.27,23.987,5.27,33.116,0,4.22-2.437,6.543-5.611,6.543-8.94s-2.323-6.5-6.543-8.937h0C1012.63,306.763,1006.633,305.445,1000.636,305.445Z" transform="translate(-975.383 -303.323)" fill="#150035"/><g transform="translate(7.293 5.442)"><path d="M1009.26,309.742c-6.593-3.324-17.283-3.324-23.877,0s-6.593,8.717,0,12.041,17.285,3.326,23.877,0S1015.855,313.068,1009.26,309.742Z" transform="translate(-979.362 -306.191)" fill="#150035"/><path d="M997.748,325.756a28.4,28.4,0,0,1-12.424-2.593c-3.569-1.8-5.536-4.278-5.536-6.982s1.967-5.18,5.536-6.978c6.851-3.457,18-3.457,24.848,0h0c3.57,1.8,5.536,4.277,5.536,6.978s-1.967,5.182-5.536,6.982A28.4,28.4,0,0,1,997.748,325.756Zm0-17.023a26.189,26.189,0,0,0-11.454,2.391c-2.768,1.394-4.354,3.24-4.354,5.058s1.586,3.666,4.354,5.061c6.315,3.185,16.591,3.185,22.907,0,2.768-1.4,4.354-3.24,4.354-5.061s-1.586-3.664-4.354-5.058h0A26.189,26.189,0,0,0,997.748,308.732Z" transform="translate(-979.788 -306.61)" fill="#150035"/></g><g transform="translate(7.594 9.044)"><path d="M1009.1,311.919c-6.593-3.325-17.283-3.325-23.877,0a9.166,9.166,0,0,0-4.55,4.219,9.152,9.152,0,0,0,4.55,4.219c6.594,3.326,17.285,3.326,23.877,0a9.149,9.149,0,0,0,4.551-4.219A9.162,9.162,0,0,0,1009.1,311.919Z" transform="translate(-979.506 -308.366)" fill="#a1dc8e"/><path d="M997.629,324.329a28.4,28.4,0,0,1-12.424-2.593,10.229,10.229,0,0,1-5.055-4.757l-.18-.422.18-.422a10.236,10.236,0,0,1,5.055-4.757c6.853-3.457,17.995-3.457,24.848,0a10.253,10.253,0,0,1,5.056,4.755l.18.424-.18.424a10.246,10.246,0,0,1-5.056,4.755A28.4,28.4,0,0,1,997.629,324.329Zm-15.29-7.771a8.788,8.788,0,0,0,3.836,3.258c6.315,3.185,16.591,3.185,22.907,0a8.814,8.814,0,0,0,3.838-3.258,8.825,8.825,0,0,0-3.838-3.258c-6.316-3.184-16.593-3.184-22.907,0A8.8,8.8,0,0,0,982.339,316.557Z" transform="translate(-979.97 -308.786)" fill="#150035"/></g></g><g transform="translate(37.953 27.08)"><rect width="1.656" height="5.259" fill="#a1dc8e"/></g><g transform="translate(3.796 22.635)"><rect width="1.656" height="5.26" fill="#a1dc8e"/></g><g transform="translate(26.687 6.709)"><rect width="1.656" height="3.394" fill="#a1dc8e"/></g><g transform="translate(11.558 6.021)"><g transform="translate(0.422 2.919)"><path d="M983.119,312.653v2.882l3.987,1.473,1.864-3.03.056-.033,14.046,8.109a22.721,22.721,0,0,0,3.422-1.141l1.515-.876v-2.881l-18.639-7.881Z" transform="translate(-982.291 -308.36)" fill="#150035"/><path d="M1003.276,323.3l-13.666-7.891-1.828,2.972-5.164-1.909v-3.952l7.035-3.8,19.513,8.25v3.907l-1.93,1.114a22.89,22.89,0,0,1-3.636,1.227Zm-13.98-9.917.474.207,13.752,7.94a21.336,21.336,0,0,0,2.972-1.016l1.018-.591v-1.856l-17.77-7.512-5.467,2.952v1.811l2.811,1.04,1.614-2.629Z" transform="translate(-982.619 -308.723)" fill="#150035"/></g><path d="M989.026,312.2l-.056.033-1.864,3.031-3.987-1.475,2.667-4.189,3.585-2.068,18.636,10.758v0l-4.21,2.43Z" transform="translate(-981.869 -306.582)" fill="#fff"/><path d="M1004.291,322.066l-14.513-8.379-1.828,2.972-5.586-2.066,3.326-5.224,4.176-2.409,19.22,11.128.586.586-.757.722ZM989.463,311.66l.474.207,14.354,8.286,2.56-1.477-16.985-9.806-3,1.73-2.007,3.151,2.389.882L988.867,312Z" transform="translate(-982.364 -306.96)" fill="#150035"/></g><g transform="translate(34.986 27.946)"><rect width="1.656" height="5.26" fill="#a1dc8e"/></g></g><g transform="translate(870.715 156.271)"><g transform="translate(0 36.621)"><rect width="1.8" height="115.474" fill="#150035"/></g><g transform="translate(0 158.517)"><rect width="1.8" height="16.379" fill="#150035"/></g><g transform="translate(266.847 135.412)"><path d="M990.9,304.709h1.8v-53.05c.011-.089,1.253-16.76-14.482-23.786l-.733,1.644c14.546,6.5,13.472,21.434,13.419,22.068Z" transform="translate(-977.489 -227.873)" fill="#150035"/></g><g transform="translate(280.295 218.765)"><rect width="1.8" height="17.877" fill="#150035"/></g><g transform="translate(54.838 231.229)"><g transform="translate(0.023 7.798)"><g transform="translate(0.901 0.901)"><path d="M850.958,313.735l9.823.2a.955.955,0,0,0,.493-.127l37.6-21.71c2.306-1.331,5.795-1.475,7.793-.323l85.291,49.243a.953.953,0,0,0,.172.078l28.313,9.513a.949.949,0,0,1,.646.9l-.005,7.114c.243,1-.386,2.121-1.849,2.967l-47,27.134c-2.306,1.331-5.795,1.477-7.793.323L851.318,323.735a2.279,2.279,0,0,1-1.324-1.975V314.68A.945.945,0,0,1,850.958,313.735Z" transform="translate(-849.993 -291)" fill="#150035"/></g><path d="M964.351,390.184,851.225,324.871a3.154,3.154,0,0,1-1.776-2.755v-7.079a1.832,1.832,0,0,1,.555-1.318,1.588,1.588,0,0,1,1.331-.526l9.846.2,37.6-21.71c2.6-1.5,6.414-1.637,8.694-.323l85.3,49.247,28.314,9.513a1.848,1.848,0,0,1,1.258,1.752l0,7.018c.28,1.414-.571,2.843-2.3,3.841l-47,27.134a9.9,9.9,0,0,1-4.849,1.227A7.791,7.791,0,0,1,964.351,390.184Zm-64.669-96.947-37.6,21.709a1.443,1.443,0,0,1-.964.248l-9.823-.2.018-.9-.066,8.035a1.482,1.482,0,0,0,.876,1.187l113.127,65.314c1.714.992,4.873.843,6.892-.323l47-27.134c1.03-.6,1.576-1.354,1.426-1.979l-.053-7.371L992.2,342.307a1.961,1.961,0,0,1-.331-.149l-85.291-49.243a6,6,0,0,0-2.924-.657A8.22,8.22,0,0,0,899.682,293.237Z" transform="translate(-849.449 -290.456)" fill="#150035"/></g><g transform="translate(0.9 0.901)"><path d="M851.327,319.026l113.127,65.314c2,1.152,5.487,1.008,7.793-.323l47-27.136c2.306-1.331,2.556-3.346.56-4.5L906.679,287.069c-2-1.154-5.487-1.008-7.793.323l-47,27.134C849.58,315.859,849.33,317.874,851.327,319.026Z" transform="translate(-849.979 -286.291)" fill="#fff"/></g><path d="M964.36,385.476,851.235,320.161a3.181,3.181,0,0,1-1.8-2.732,4.072,4.072,0,0,1,2.359-3.325l47-27.136c2.591-1.495,6.411-1.639,8.694-.323l113.127,65.314a3.185,3.185,0,0,1,1.8,2.733,4.071,4.071,0,0,1-2.356,3.323l-47,27.136a9.915,9.915,0,0,1-4.849,1.224A7.808,7.808,0,0,1,964.36,385.476Zm-64.669-96.948-47,27.137c-.914.525-1.457,1.185-1.457,1.765a1.525,1.525,0,0,0,.9,1.175l113.127,65.313c1.717.99,4.874.844,6.892-.323l47-27.134c.914-.528,1.458-1.189,1.458-1.767a1.525,1.525,0,0,0-.9-1.175L906.586,288.2a6,6,0,0,0-2.924-.656A8.215,8.215,0,0,0,899.691,288.527Z" transform="translate(-849.435 -285.746)" fill="#150035"/><g transform="translate(118.093 100.268)"><rect width="1.384" height="6.704" fill="#a1dc8e"/></g><g transform="translate(166.233 73.547)"><rect width="1.384" height="6.705" fill="#a1dc8e"/></g><g transform="translate(5.29 36.013)"><rect width="1.384" height="6.706" fill="#a1dc8e"/></g></g><g transform="translate(8.18)"><g transform="translate(0.9 0.902)"><path d="M821.847,151.919a.249.249,0,0,1,.079-.368l8.389-4.657a1.522,1.522,0,0,1,1.765.031l253.577,146.4a5.94,5.94,0,0,1,2.479,4.737V492.1a2.329,2.329,0,0,1-.725,1.917l-8.843,4.9-8.808-10.609,3.464-1.515L832.08,347.571a5.935,5.935,0,0,1-2.479-4.737v-180.4Z" transform="translate(-821.797 -146.629)" fill="#fff"/></g><path d="M1068.659,488.323l2.93-1.281-239.6-138.334a6.836,6.836,0,0,1-2.929-5.517v-180.1l-7.576-10.275a1.149,1.149,0,0,1,.364-1.692l8.275-4.583a2.4,2.4,0,0,1,2.766-.036l253.577,146.4a6.834,6.834,0,0,1,2.93,5.515V492.456a3.18,3.18,0,0,1-1.192,2.705l-9.5,5.265ZM831.107,148.038l-7.742,4.3,7.492,10.159V343.191a5.029,5.029,0,0,0,2.03,3.957l242.685,140.116-4,1.748,7.568,9.117,8.084-4.473a1.537,1.537,0,0,0,.369-1.2V298.421a5.035,5.035,0,0,0-2.028-3.957l-253.577-146.4a1.009,1.009,0,0,0-.492-.156A.652.652,0,0,0,831.107,148.038Z" transform="translate(-821.254 -146.084)" fill="#150035"/></g><g transform="translate(7.121 4.918)"><g transform="translate(0.002)"><g transform="translate(0.899 0.902)"><path d="M823.636,350.542l253.577,146.4c1.369.79,2.479-.048,2.479-1.874V301.035a5.934,5.934,0,0,0-2.479-4.735L823.636,149.9c-1.369-.79-2.479.048-2.479,1.874V345.807A5.934,5.934,0,0,0,823.636,350.542Z" transform="translate(-821.158 -149.599)" fill="#150035"/></g><path d="M1077.119,498.081l-253.577-146.4a6.838,6.838,0,0,1-2.927-5.515V152.128a3.06,3.06,0,0,1,1.306-2.783,2.453,2.453,0,0,1,2.522.129l253.577,146.4a6.834,6.834,0,0,1,2.929,5.517V495.429a3.06,3.06,0,0,1-1.306,2.783,2.155,2.155,0,0,1-1.086.291A2.875,2.875,0,0,1,1077.119,498.081ZM822.822,150.9c-.189.109-.407.5-.407,1.227V346.164a5.037,5.037,0,0,0,2.028,3.957l253.577,146.4c.144.083.5.265.722.131.189-.108.407-.493.407-1.225V301.394a5.035,5.035,0,0,0-2.03-3.959l-253.577-146.4a1.211,1.211,0,0,0-.533-.177A.373.373,0,0,0,822.822,150.9Z" transform="translate(-820.615 -149.055)" fill="#150035"/></g><g transform="translate(2.121 3.036)"><g transform="translate(0.899 0.901)"><path d="M823.166,345.719,1076.005,491.7c.4.232.729-.015.729-.55V298.887a1.742,1.742,0,0,0-.729-1.391L823.166,151.52c-.4-.232-.729.013-.729.55V344.329A1.747,1.747,0,0,0,823.166,345.719Z" transform="translate(-822.438 -151.432)" fill="#a1dc8e"/></g><path d="M1075.911,492.832,823.072,346.856l0,0a2.62,2.62,0,0,1-1.175-2.169V152.426a1.511,1.511,0,0,1,.7-1.368,1.351,1.351,0,0,1,1.376.038L1076.81,297.073a2.615,2.615,0,0,1,1.181,2.17V491.5a1.511,1.511,0,0,1-.7,1.368,1.262,1.262,0,0,1-.637.172A1.493,1.493,0,0,1,1075.911,492.832ZM823.695,344.685a.9.9,0,0,0,.278.611l252.218,145.619V299.243a.9.9,0,0,0-.28-.611L823.695,153.014Z" transform="translate(-821.895 -150.888)" fill="#150035"/></g><g transform="translate(0 184.681)"><g transform="translate(0.901 1.558)"><path d="M821.158,272.642v-11.1l258.534,149.266v11.1c0,1.7-1.192,2.386-2.662,1.538L823.822,277.257A5.887,5.887,0,0,1,821.158,272.642Z" transform="translate(-821.158 -261.543)" fill="#150035"/></g><path d="M1076.935,424.84,823.728,278.652a6.792,6.792,0,0,1-3.114-5.392V260.6L1080.5,410.646l.45.26v11.619a2.758,2.758,0,0,1-1.23,2.5,2.264,2.264,0,0,1-1.139.295A3.306,3.306,0,0,1,1076.935,424.84ZM822.414,263.719v9.54a4.984,4.984,0,0,0,2.214,3.836l253.208,146.188a.767.767,0,0,0,1.314-.758V411.944Z" transform="translate(-820.614 -260.602)" fill="#150035"/></g><g transform="translate(113.456 257.901)"><rect width="1.383" height="37.804" transform="translate(0 1.198) rotate(-59.973)" fill="#a1dc8e"/></g></g><g transform="translate(266.27 148.724)"><rect width="10.133" height="1.8" transform="translate(0 5.215) rotate(-30.979)" fill="#150035"/></g><g transform="translate(24.394 8.436)"><rect width="10.131" height="1.8" transform="translate(0 5.215) rotate(-30.979)" fill="#150035"/></g><g transform="translate(266.269 332.572)"><rect width="10.132" height="1.801" transform="translate(0 5.215) rotate(-30.976)" fill="#150035"/></g><g transform="translate(200.301 316.896)"><path d="M942.787,341.883l.695-1.2-5.492-3.2-.695,1.2Z" transform="translate(-937.295 -337.49)" fill="#a1dc8e"/></g><g transform="translate(74.123 269.016)"><path d="M961.046,366.371a5.121,5.121,0,0,0,2.69-.763l9.841-6.066-.942-1.533-9.843,6.066a3.324,3.324,0,0,1-3.4.056L861.975,308.57l-.892,1.563L958.5,365.694A5.131,5.131,0,0,0,961.046,366.371Z" transform="translate(-861.083 -308.57)" fill="#150035"/></g><g transform="translate(62.866 254.857)"><path d="M862.743,314.126l.876-1.571-7.22-4.025a.615.615,0,0,1-.01-1.07l10.053-5.891-.909-1.551-10.053,5.889a2.415,2.415,0,0,0,.043,4.194Z" transform="translate(-854.284 -300.018)" fill="#150035"/></g><g transform="translate(266.75 325.89)"><rect width="10.131" height="1.801" transform="matrix(0.857, -0.515, 0.515, 0.857, 0, 5.215)" fill="#150035"/></g><g transform="translate(29.994 11.595)"><rect width="10.131" height="1.8" transform="matrix(0.857, -0.515, 0.515, 0.857, 0, 5.216)" fill="#150035"/></g><g transform="translate(266.722 157.961)"><rect width="10.131" height="1.8" transform="translate(0 5.215) rotate(-30.979)" fill="#150035"/></g></g><g transform="translate(983.2 290.715)"><path d="M920.545,290.985a4.688,4.688,0,0,1-2.324-.687l-28.75-16.6c-2.926-1.689-5.217-6.033-5.217-9.892V232.324c0-2.162.757-3.839,2.074-4.6a3.881,3.881,0,0,1,3.97.253l28.75,16.6c2.924,1.689,5.215,6.033,5.215,9.892V285.95c0,2.162-.755,3.839-2.073,4.6A3.257,3.257,0,0,1,920.545,290.985Zm-1.5-2.121a2.358,2.358,0,0,0,2.315.253c.791-.457,1.245-1.611,1.245-3.167V254.468c0-3.212-2.01-7.084-4.387-8.459l-28.75-16.6a2.358,2.358,0,0,0-2.315-.253c-.792.459-1.247,1.611-1.247,3.167v31.482c0,3.212,2.01,7.084,4.389,8.459Z" transform="translate(-884.254 -227.288)" fill="#fff"/><g transform="translate(4.088 7.346)"><path d="M920.926,293.84l-28.75-16.6c-2.652-1.531-4.8-5.639-4.8-9.175V236.584c0-3.536,2.151-5.162,4.8-3.631l28.75,16.6c2.652,1.531,4.8,5.639,4.8,9.175V290.21C925.729,293.746,923.578,295.372,920.926,293.84Z" transform="translate(-886.297 -231.298)" fill="#a1dc8e"/><path d="M923.263,295.922a4.926,4.926,0,0,1-2.449-.724l-28.752-16.6c-2.993-1.73-5.339-6.169-5.339-10.108V237.011c0-2.255.8-4.01,2.2-4.816a4.113,4.113,0,0,1,4.219.253l28.75,16.6c3,1.728,5.341,6.167,5.341,10.108v31.482c0,2.253-.8,4.008-2.2,4.816A3.514,3.514,0,0,1,923.263,295.922Zm-1.373-2.586a2.132,2.132,0,0,0,2.066.253c.7-.406,1.121-1.51,1.121-2.952V259.155c0-3.136-1.952-6.911-4.263-8.243l-28.752-16.6a2.127,2.127,0,0,0-2.065-.253c-.7.406-1.121,1.508-1.121,2.952v31.482c0,3.134,1.95,6.909,4.263,8.243Z" transform="translate(-886.723 -231.725)" fill="#150035"/></g><g transform="translate(14.609 29.557)"><path d="M900.487,259.012l-.729-3.179L896.1,253.72l-.729,2.339-2.293-1.324,3.543-9.594,2.6,1.5,3.556,13.694Zm-1.237-5.533q-1.008-4.334-1.136-4.9t-.182-.882q-.226.884-1.3,4.27Z" transform="translate(-893.078 -245.141)" fill="#150035"/><g transform="translate(10.965 4.333)"><path d="M908.03,258.253q0,2.861-1.409,3.57t-4.078-.831l-2.843-1.641V247.758l3.152,1.82a10.375,10.375,0,0,1,3.818,3.7A9.531,9.531,0,0,1,908.03,258.253Zm-2.21-1.214a5.734,5.734,0,0,0-2.858-5.384L901.83,251v7.548l.912.526Q905.819,260.854,905.82,257.039Z" transform="translate(-899.701 -247.758)" fill="#150035"/></g></g></g><g transform="translate(932.065 232.459)"><g transform="translate(11.68 15.149)"><g transform="translate(62.689 8.861)"><rect width="2.154" height="8.589" fill="#150035"/></g><g transform="translate(68.527 12.974)"><rect width="8.13" height="2.154" transform="translate(0 8.093) rotate(-84.526)" fill="#150035"/></g><g transform="translate(74.313 17.829)"><rect width="7.666" height="2.152" transform="translate(0 7.509) rotate(-78.382)" fill="#150035"/></g><g transform="translate(79.986 23.372)"><rect width="7.218" height="2.153" transform="translate(0 6.842) rotate(-71.433)" fill="#150035"/></g><g transform="translate(85.494 29.543)"><rect width="6.809" height="2.151" transform="translate(0 6.101) rotate(-63.63)" fill="#150035"/></g><g transform="translate(90.78 36.275)"><rect width="6.469" height="2.154" transform="matrix(0.575, -0.818, 0.818, 0.575, 0, 5.293)" fill="#150035"/></g><g transform="translate(95.792 43.506)"><rect width="6.221" height="2.152" transform="translate(0 4.422) rotate(-45.306)" fill="#150035"/></g><g transform="translate(100.476 51.162)"><rect width="6.091" height="2.151" transform="matrix(0.818, -0.576, 0.576, 0.818, 0, 3.506)" fill="#150035"/></g><g transform="translate(104.774 59.17)"><rect width="6.09" height="2.151" transform="translate(0 2.554) rotate(-24.792)" fill="#150035"/></g><g transform="translate(108.629 67.45)"><rect width="6.22" height="2.152" transform="matrix(0.968, -0.252, 0.252, 0.968, 0, 1.57)" fill="#150035"/></g><g transform="translate(111.986 75.909)"><rect width="6.469" height="2.152" transform="matrix(0.996, -0.089, 0.089, 0.996, 0, 0.573)" fill="#150035"/></g><g transform="translate(114.665 84.019)"><rect width="2.153" height="6.809" transform="translate(0 2.149) rotate(-86.378)" fill="#150035"/></g><g transform="translate(116.612 91.542)"><rect width="2.153" height="7.218" transform="translate(0 2.11) rotate(-78.574)" fill="#150035"/></g><g transform="translate(117.998 98.961)"><rect width="2.152" height="7.666" transform="translate(0 2.042) rotate(-71.64)" fill="#150035"/></g><g transform="translate(118.804 106.191)"><rect width="2.152" height="8.131" transform="translate(0 1.958) rotate(-65.494)" fill="#150035"/></g><g transform="translate(119.018 113.148)"><rect width="2.151" height="8.59" transform="translate(0 1.863) rotate(-60.003)" fill="#150035"/></g><g transform="translate(118.634 119.755)"><rect width="2.153" height="9.025" transform="translate(0 1.765) rotate(-55.06)" fill="#150035"/></g><g transform="translate(117.653 125.939)"><rect width="2.153" height="9.422" transform="matrix(0.635, -0.772, 0.772, 0.635, 0, 1.662)" fill="#150035"/></g><g transform="translate(116.083 131.63)"><rect width="2.152" height="9.771" transform="translate(0 1.558) rotate(-46.394)" fill="#150035"/></g><g transform="translate(113.939 136.77)"><rect width="2.154" height="10.059" transform="translate(0 1.455) rotate(-42.498)" fill="#150035"/></g><g transform="translate(111.242 141.3)"><rect width="2.153" height="10.283" transform="translate(0 1.349) rotate(-38.797)" fill="#150035"/></g><g transform="translate(108.021 145.173)"><rect width="2.153" height="10.433" transform="translate(0 1.242) rotate(-35.227)" fill="#150035"/></g><g transform="translate(104.311 148.347)"><rect width="2.152" height="10.509" transform="translate(0 1.132) rotate(-31.737)" fill="#150035"/></g><g transform="translate(100.149 150.786)"><rect width="2.151" height="10.51" transform="translate(0 1.019) rotate(-28.272)" fill="#150035"/></g><g transform="translate(95.581 152.468)"><rect width="2.151" height="10.434" transform="translate(0 0.902) rotate(-24.782)" fill="#150035"/></g><g transform="translate(90.657 153.375)"><rect width="2.154" height="10.283" transform="translate(0 0.779) rotate(-21.21)" fill="#150035"/></g><g transform="translate(85.431 153.498)"><rect width="2.153" height="10.06" transform="matrix(0.954, -0.301, 0.301, 0.954, 0, 0.647)" fill="#150035"/></g><g transform="translate(79.96 152.837)"><rect width="2.153" height="9.77" transform="translate(0 0.507) rotate(-13.611)" fill="#150035"/></g><g transform="translate(74.304 151.402)"><rect width="2.154" height="9.423" transform="matrix(0.986, -0.164, 0.164, 0.986, 0, 0.353)" fill="#150035"/></g><g transform="translate(68.526 149.211)"><rect width="2.152" height="9.025" transform="translate(0 0.185) rotate(-4.943)" fill="#150035"/></g><g transform="translate(62.689 146.29)"><rect width="2.154" height="8.589" fill="#150035"/></g><g transform="translate(56.084 142.466)"><rect width="8.131" height="2.154" transform="matrix(0.096, -0.995, 0.995, 0.096, 0, 8.094)" fill="#150035"/></g><g transform="translate(49.568 137.968)"><rect width="7.666" height="2.152" transform="translate(0 7.509) rotate(-78.387)" fill="#150035"/></g><g transform="translate(43.208 132.841)"><rect width="7.217" height="2.153" transform="matrix(0.319, -0.948, 0.948, 0.319, 0, 6.841)" fill="#150035"/></g><g transform="translate(37.084 127.141)"><rect width="6.81" height="2.152" transform="translate(0 6.099) rotate(-63.591)" fill="#150035"/></g><g transform="translate(31.271 120.936)"><rect width="6.467" height="2.151" transform="translate(0 5.288) rotate(-54.854)" fill="#150035"/></g><g transform="translate(25.836 114.299)"><rect width="6.221" height="2.152" transform="matrix(0.703, -0.711, 0.711, 0.703, 0, 4.422)" fill="#150035"/></g><g transform="translate(20.838 107.312)"><rect width="6.091" height="2.151" transform="matrix(0.818, -0.576, 0.576, 0.818, 0, 3.506)" fill="#150035"/></g><g transform="translate(16.328 100.063)"><rect width="6.09" height="2.151" transform="translate(0 2.554) rotate(-24.792)" fill="#150035"/></g><g transform="translate(12.342 92.633)"><rect width="6.221" height="2.153" transform="translate(0 1.579) rotate(-14.705)" fill="#150035"/></g><g transform="translate(8.913 85.114)"><rect width="6.469" height="2.152" transform="translate(0 0.573) rotate(-5.084)" fill="#150035"/></g><g transform="translate(5.937 77.143)"><rect width="2.153" height="6.809" transform="translate(0 2.149) rotate(-86.385)" fill="#150035"/></g><g transform="translate(3.42 68.658)"><rect width="2.153" height="7.218" transform="matrix(0.198, -0.98, 0.98, 0.198, 0, 2.11)" fill="#150035"/></g><g transform="translate(1.582 60.321)"><rect width="2.152" height="7.666" transform="translate(0 2.042) rotate(-71.634)" fill="#150035"/></g><g transform="translate(0.438 52.218)"><rect width="2.152" height="8.131" transform="translate(0 1.958) rotate(-65.488)" fill="#150035"/></g><g transform="translate(0 44.433)"><rect width="2.153" height="8.59" transform="translate(0 1.865) rotate(-60.003)" fill="#150035"/></g><g transform="translate(0.268 37.052)"><rect width="2.152" height="9.025" transform="matrix(0.573, -0.82, 0.82, 0.573, 0, 1.764)" fill="#150035"/></g><g transform="translate(1.237 30.152)"><rect width="2.153" height="9.422" transform="translate(0 1.662) rotate(-50.549)" fill="#150035"/></g><g transform="translate(2.891 23.812)"><rect width="2.152" height="9.771" transform="translate(0 1.558) rotate(-46.395)" fill="#150035"/></g><g transform="translate(5.211 18.098)"><rect width="2.153" height="10.06" transform="matrix(0.737, -0.676, 0.676, 0.737, 0, 1.454)" fill="#150035"/></g><g transform="translate(8.17 13.077)"><rect width="2.153" height="10.283" transform="translate(0 1.349) rotate(-38.796)" fill="#150035"/></g><g transform="translate(11.735 8.803)"><rect width="2.153" height="10.434" transform="translate(0 1.242) rotate(-35.224)" fill="#150035"/></g><g transform="translate(15.864 5.323)"><rect width="2.152" height="10.51" transform="translate(0 1.132) rotate(-31.734)" fill="#150035"/></g><g transform="translate(20.511 2.678)"><rect width="2.152" height="10.51" transform="matrix(0.881, -0.474, 0.474, 0.881, 0, 1.019)" fill="#150035"/></g><g transform="translate(25.625 0.897)"><rect width="2.151" height="10.434" transform="translate(0 0.902) rotate(-24.782)" fill="#150035"/></g><g transform="translate(31.148)"><rect width="2.154" height="10.283" transform="translate(0 0.779) rotate(-21.211)" fill="#150035"/></g><g transform="translate(37.022 0.001)"><rect width="2.153" height="10.06" transform="matrix(0.954, -0.301, 0.301, 0.954, 0, 0.648)" fill="#150035"/></g><g transform="translate(43.182 0.9)"><rect width="2.152" height="9.771" transform="translate(0 0.506) rotate(-13.609)" fill="#150035"/></g><g transform="translate(49.559 2.69)"><rect width="2.154" height="9.422" transform="translate(0 0.353) rotate(-9.442)" fill="#150035"/></g><g transform="translate(56.086 5.353)"><rect width="2.152" height="9.025" transform="translate(0 0.185) rotate(-4.943)" fill="#150035"/></g><g transform="translate(62.689 8.861)"><rect width="2.154" height="8.589" fill="#150035"/></g></g><g transform="translate(74.618 10.379)"><rect width="1.656" height="10.192" fill="#fff"/></g><g transform="translate(81.542 15.302)"><rect width="9.649" height="1.657" transform="translate(0 9.605) rotate(-84.512)" fill="#fff"/></g><g transform="translate(88.398 21.112)"><rect width="9.097" height="1.654" transform="translate(0 8.909) rotate(-78.324)" fill="#fff"/></g><g transform="translate(95.12 27.742)"><rect width="8.566" height="1.654" transform="translate(0 8.119) rotate(-71.425)" fill="#fff"/></g><g transform="translate(101.633 35.12)"><rect width="8.08" height="1.657" transform="translate(0 7.24) rotate(-63.637)" fill="#fff"/></g><g transform="translate(107.871 43.17)"><rect width="7.676" height="1.656" transform="matrix(0.575, -0.818, 0.818, 0.575, 0, 6.28)" fill="#fff"/></g><g transform="translate(113.771 51.807)"><rect width="7.382" height="1.655" transform="translate(0 5.248) rotate(-45.312)" fill="#fff"/></g><g transform="translate(119.269 60.943)"><rect width="7.227" height="1.656" transform="matrix(0.817, -0.576, 0.576, 0.817, 0, 4.164)" fill="#fff"/></g><g transform="translate(124.3 70.486)"><rect width="7.226" height="1.655" transform="translate(0 3.035) rotate(-24.837)" fill="#fff"/></g><g transform="translate(128.799 80.336)"><rect width="7.382" height="1.656" transform="translate(0 1.873) rotate(-14.702)" fill="#fff"/></g><g transform="translate(132.707 90.387)"><rect width="7.676" height="1.656" transform="translate(0 0.689) rotate(-5.151)" fill="#fff"/></g><g transform="translate(135.876 100.018)"><rect width="1.656" height="8.081" transform="translate(0 1.652) rotate(-86.381)" fill="#fff"/></g><g transform="translate(138.247 108.937)"><rect width="1.656" height="8.566" transform="translate(0 1.623) rotate(-78.57)" fill="#fff"/></g><g transform="translate(139.945 117.727)"><rect width="1.656" height="9.097" transform="matrix(0.315, -0.949, 0.949, 0.315, 0, 1.571)" fill="#fff"/></g><g transform="translate(140.946 126.289)"><rect width="1.656" height="9.649" transform="translate(0 1.506) rotate(-65.487)" fill="#fff"/></g><g transform="translate(141.238 134.526)"><rect width="1.655" height="10.193" transform="translate(0 1.433) rotate(-60.003)" fill="#fff"/></g><g transform="translate(140.815 142.344)"><rect width="1.656" height="10.71" transform="translate(0 1.357) rotate(-55.057)" fill="#fff"/></g><g transform="translate(139.68 149.663)"><rect width="1.654" height="11.181" transform="matrix(0.635, -0.772, 0.772, 0.635, 0, 1.277)" fill="#fff"/></g><g transform="translate(137.84 156.396)"><rect width="1.656" height="11.595" transform="translate(0 1.199) rotate(-46.395)" fill="#fff"/></g><g transform="translate(135.317 162.471)"><rect width="1.657" height="11.938" transform="translate(0 1.119) rotate(-42.497)" fill="#fff"/></g><g transform="translate(132.136 167.825)"><rect width="1.656" height="12.203" transform="translate(0 1.038) rotate(-38.798)" fill="#fff"/></g><g transform="translate(128.332 172.399)"><rect width="1.654" height="12.382" transform="matrix(0.817, -0.577, 0.577, 0.817, 0, 0.954)" fill="#fff"/></g><g transform="translate(123.944 176.142)"><rect width="1.654" height="12.472" transform="translate(0 0.87) rotate(-31.731)" fill="#fff"/></g><g transform="translate(119.018 179.015)"><rect width="1.655" height="12.472" transform="translate(0 0.784) rotate(-28.266)" fill="#fff"/></g><g transform="translate(113.609 180.987)"><rect width="1.657" height="12.381" transform="translate(0 0.694) rotate(-24.775)" fill="#fff"/></g><g transform="translate(107.778 182.037)"><rect width="1.654" height="12.201" transform="translate(0 0.598) rotate(-21.209)" fill="#fff"/></g><g transform="translate(101.585 182.155)"><rect width="1.655" height="11.937" transform="matrix(0.954, -0.301, 0.301, 0.954, 0, 0.498)" fill="#fff"/></g><g transform="translate(95.1 181.341)"><rect width="1.656" height="11.595" transform="translate(0 0.39) rotate(-13.606)" fill="#fff"/></g><g transform="translate(88.395 179.607)"><rect width="1.655" height="11.182" transform="matrix(0.986, -0.164, 0.164, 0.986, 0, 0.272)" fill="#fff"/></g><g transform="translate(81.543 176.971)"><rect width="1.655" height="10.709" transform="translate(0 0.142) rotate(-4.937)" fill="#fff"/></g><g transform="translate(74.618 173.466)"><rect width="1.656" height="10.192" fill="#fff"/></g><g transform="translate(66.779 168.971)"><rect width="9.65" height="1.657" transform="translate(0 9.605) rotate(-84.512)" fill="#fff"/></g><g transform="translate(59.038 163.681)"><rect width="9.097" height="1.654" transform="translate(0 8.911) rotate(-78.382)" fill="#fff"/></g><g transform="translate(51.476 157.649)"><rect width="8.566" height="1.655" transform="translate(0 8.119) rotate(-71.422)" fill="#fff"/></g><g transform="translate(44.186 150.942)"><path d="M881.541,291.244l-1.484-.734,3.589-7.238,1.484.734Z" transform="translate(-880.057 -283.271)" fill="#fff"/></g><g transform="translate(37.255 143.634)"><rect width="7.675" height="1.655" transform="matrix(0.574, -0.819, 0.819, 0.574, 0, 6.283)" fill="#fff"/></g><g transform="translate(30.754 135.818)"><rect width="7.381" height="1.655" transform="matrix(0.703, -0.711, 0.711, 0.703, 0, 5.248)" fill="#fff"/></g><g transform="translate(24.764 127.576)"><rect width="7.227" height="1.655" transform="translate(0 4.167) rotate(-35.209)" fill="#fff"/></g><g transform="translate(19.34 119.014)"><rect width="7.227" height="1.655" transform="translate(0 3.036) rotate(-24.838)" fill="#fff"/></g><g transform="translate(14.534 110.226)"><rect width="7.382" height="1.656" transform="matrix(0.967, -0.254, 0.254, 0.967, 0, 1.873)" fill="#fff"/></g><g transform="translate(10.392 101.312)"><rect width="7.675" height="1.656" transform="translate(0 0.689) rotate(-5.151)" fill="#fff"/></g><g transform="translate(6.848 91.857)"><rect width="1.656" height="8.081" transform="translate(0 1.652) rotate(-86.381)" fill="#fff"/></g><g transform="translate(3.922 81.78)"><rect width="1.656" height="8.566" transform="translate(0 1.623) rotate(-78.575)" fill="#fff"/></g><g transform="translate(1.793 71.873)"><rect width="1.656" height="9.097" transform="matrix(0.315, -0.949, 0.949, 0.315, 0, 1.571)" fill="#fff"/></g><g transform="translate(0.481 62.239)"><rect width="1.655" height="9.649" transform="translate(0 1.506) rotate(-65.489)" fill="#fff"/></g><g transform="translate(0 52.981)"><rect width="1.656" height="10.193" transform="matrix(0.5, -0.866, 0.866, 0.5, 0, 1.434)" fill="#fff"/></g><g transform="translate(0.351 44.201)"><rect width="1.655" height="10.71" transform="translate(0 1.356) rotate(-55.061)" fill="#fff"/></g><g transform="translate(1.527 35.992)"><rect width="1.655" height="11.181" transform="translate(0 1.278) rotate(-50.551)" fill="#fff"/></g><g transform="translate(3.515 28.446)"><rect width="1.655" height="11.596" transform="translate(0 1.199) rotate(-46.392)" fill="#fff"/></g><g transform="translate(6.29 21.644)"><rect width="1.657" height="11.938" transform="translate(0 1.119) rotate(-42.497)" fill="#fff"/></g><g transform="translate(9.82 15.663)"><rect width="1.656" height="12.202" transform="matrix(0.779, -0.627, 0.627, 0.779, 0, 1.037)" fill="#fff"/></g><g transform="translate(14.068 10.569)"><rect width="1.655" height="12.382" transform="translate(0 0.955) rotate(-35.224)" fill="#fff"/></g><g transform="translate(18.983 6.417)"><rect width="1.655" height="12.472" transform="matrix(0.851, -0.526, 0.526, 0.851, 0, 0.87)" fill="#fff"/></g><g transform="translate(24.511 3.254)"><rect width="1.656" height="12.472" transform="translate(0 0.784) rotate(-28.266)" fill="#fff"/></g><g transform="translate(30.592 1.115)"><rect width="1.656" height="12.381" transform="matrix(0.908, -0.419, 0.419, 0.908, 0, 0.694)" fill="#fff"/></g><g transform="translate(37.16 0.027)"><rect width="1.654" height="12.201" transform="matrix(0.932, -0.362, 0.362, 0.932, 0, 0.598)" fill="#fff"/></g><g transform="translate(44.139)"><rect width="1.655" height="11.937" transform="translate(0 0.498) rotate(-17.499)" fill="#fff"/></g><g transform="translate(51.455 1.038)"><rect width="1.657" height="11.594" transform="translate(0 0.39) rotate(-13.607)" fill="#fff"/></g><g transform="translate(59.03 3.129)"><rect width="1.656" height="11.182" transform="matrix(0.986, -0.164, 0.164, 0.986, 0, 0.272)" fill="#fff"/></g><g transform="translate(66.78 6.254)"><rect width="1.655" height="10.71" transform="translate(0 0.142) rotate(-4.936)" fill="#fff"/></g><g transform="translate(74.618 10.379)"><rect width="1.656" height="10.192" fill="#fff"/></g></g><g transform="translate(1011.325 342.199)"><g transform="translate(0 0)"><path d="M901.878,269.3l4.969,12.464a4.349,4.349,0,0,1,.333,1.584V285.1a2.516,2.516,0,0,0,1.137,1.97l7.42,4.283c.51.295.97.205,1.166-.227l2.573-5.71a6.166,6.166,0,0,0,.482-2.526v-5.4a2.512,2.512,0,0,0-1.137-1.97l-1.921-1.109v-.205a2.512,2.512,0,0,0-1.137-1.97l-2.026-1.171h0a2.517,2.517,0,0,0-1.137-1.97l-1.921-1.109V261.83a2.516,2.516,0,0,0-1.137-1.97l-1.421-.82c-.629-.364-1.139-.068-1.137.661l.03,13.1c0,.291-.328.214-.465-.111l-1.611-3.836c-.285-.68-.877-1.174-1.326-1.1l-1.422.224C901.747,268.037,901.61,268.627,901.878,269.3Z" transform="translate(-900.913 -258.057)" fill="#fff"/><path d="M916.63,292.685a1.962,1.962,0,0,1-.978-.281l-7.421-4.286a3.326,3.326,0,0,1-1.55-2.687v-1.757a3.584,3.584,0,0,0-.275-1.28l-4.97-12.462a2.1,2.1,0,0,1,.013-1.8,1.3,1.3,0,0,1,.939-.652l1.422-.222a2.308,2.308,0,0,1,2.217,1.6l.479,1.139-.023-9.965a1.509,1.509,0,0,1,2.379-1.379l1.419.82a3.33,3.33,0,0,1,1.553,2.687v5.68l1.507.869a3.372,3.372,0,0,1,1.5,2.18l1.666.962a3.366,3.366,0,0,1,1.536,2.406l1.521.879a3.331,3.331,0,0,1,1.551,2.687v5.4a6.927,6.927,0,0,1-.555,2.868l-2.573,5.709a1.484,1.484,0,0,1-.892.816A1.506,1.506,0,0,1,916.63,292.685Zm-13.656-23.366,4.97,12.462a5.232,5.232,0,0,1,.392,1.892v1.757a1.7,1.7,0,0,0,.722,1.255l7.421,4.285a.1.1,0,0,1,.045.041l2.525-5.6a5.331,5.331,0,0,0,.409-2.189v-5.4a1.708,1.708,0,0,0-.724-1.253l-2.333-1.348v-.684a1.705,1.705,0,0,0-.725-1.253l-2.44-1.411V271.4a1.71,1.71,0,0,0-.724-1.255l-2.335-1.346v-6.637a1.708,1.708,0,0,0-.725-1.253l-1.3-.752.017,12.97a.968.968,0,0,1-.77.99,1.182,1.182,0,0,1-1.285-.78L904.5,269.5a1.162,1.162,0,0,0-.508-.608l-1.088.18a1.126,1.126,0,0,0,.07.247Z" transform="translate(-901.241 -258.385)" fill="#150035"/><g transform="translate(8.937 9.932)"><path d="M907.139,269.147v0Z" transform="translate(-906.311 -264.384)" fill="#fff"/><rect width="1.656" height="4.763" fill="#150035"/></g><g transform="translate(11.994 12.848)"><path d="M908.986,270.908v0Z" transform="translate(-908.157 -266.145)" fill="#fff"/><rect width="1.656" height="4.763" fill="#150035"/></g><g transform="translate(15.16 16.194)"><path d="M910.9,272.292v0Z" transform="translate(-910.07 -268.165)" fill="#fff"/><rect width="1.656" height="4.126" fill="#150035"/></g></g><g transform="translate(20.215 10.157)"><rect width="5.938" height="1.654" transform="translate(0 4.538) rotate(-49.838)" fill="#150035"/><g transform="translate(2.009 7.496)"><rect width="5.713" height="1.656" transform="translate(0 0.502) rotate(-5.043)" fill="#150035"/></g></g></g><g transform="translate(866.401 440.298)"><g transform="translate(0 6.021)"><path d="M858.795,326.832c-2.454-3.073-5.151-2.46-11.95-3.982a38.052,38.052,0,0,0-17.758.25c-5.762,1.483-9.273,2.442-11.656,5.147l-3.073,1.593.007,6.379.02.159c.129,4.3,3.644,8.329,10.631,11.209a35.835,35.835,0,0,0,22.006,1.543c10.323-2.485,15.51-7.675,15.671-12.906l.02-.25V329.84Z" transform="translate(-813.28 -320.848)" fill="#150035"/><path d="M838.755,351.665a36.081,36.081,0,0,1-13.724-2.659c-7.136-2.94-11.147-7.263-11.295-12.17l-.021-.192-.008-7.035,3.482-1.8c2.661-2.9,6.618-3.924,12.056-5.325a39.279,39.279,0,0,1,18.26-.258c1.891.424,3.439.677,4.806.9,3.525.574,5.672.924,7.667,3.358l4.237,3.253-.023,7C864,342.958,857.836,348.16,847.7,350.6A38.181,38.181,0,0,1,838.755,351.665Zm-22.894-20.748.008,5.724c.139,4.139,3.679,7.78,9.984,10.377a34.963,34.963,0,0,0,21.344,1.49c9-2.166,14.687-6.723,14.848-11.894l.02-.3,0-5.522-3.68-2.868c-1.5-1.881-3.043-2.131-6.417-2.68-1.326-.215-2.977-.483-4.929-.921a37.022,37.022,0,0,0-17.255.24c-5.843,1.5-8.99,2.4-11.116,4.818l-.313.243Z" transform="translate(-813.707 -321.273)" fill="#150035"/></g><path d="M855.631,322.361c9.442,5.452,9.442,14.29,0,19.742s-24.75,5.45-34.192,0-9.442-14.29,0-19.742S846.189,316.91,855.631,322.361Z" transform="translate(-813.28 -317.219)" fill="#fff"/><path d="M838.962,347.662c-6.386,0-12.773-1.4-17.634-4.212-4.914-2.836-7.621-6.672-7.621-10.8s2.707-7.967,7.621-10.8c9.724-5.613,25.545-5.613,35.27,0h0c4.911,2.836,7.618,6.674,7.618,10.8s-2.707,7.965-7.619,10.8C851.733,346.26,845.349,347.662,838.962,347.662Zm0-27.9c-6,0-11.993,1.318-16.558,3.95-4.22,2.437-6.543,5.613-6.543,8.94s2.323,6.5,6.543,8.939c9.129,5.271,23.985,5.271,33.114,0,4.22-2.437,6.543-5.611,6.545-8.939s-2.323-6.5-6.543-8.94h0C850.955,321.076,844.959,319.758,838.962,319.758Z" transform="translate(-813.707 -317.636)" fill="#150035"/><g transform="translate(7.295 5.44)"><path d="M847.586,324.056c-6.594-3.326-17.285-3.326-23.877,0s-6.594,8.715,0,12.04,17.283,3.326,23.877,0S854.178,327.38,847.586,324.056Z" transform="translate(-817.687 -320.504)" fill="#150035"/><path d="M836.073,340.066a28.428,28.428,0,0,1-12.424-2.589c-3.569-1.8-5.536-4.28-5.536-6.982s1.967-5.18,5.536-6.982c6.853-3.454,17.995-3.454,24.848,0h0c3.569,1.8,5.536,4.28,5.536,6.982s-1.967,5.18-5.536,6.982A28.424,28.424,0,0,1,836.073,340.066Zm0-17.02a26.213,26.213,0,0,0-11.453,2.387c-2.767,1.4-4.354,3.24-4.354,5.061s1.588,3.666,4.354,5.06c6.316,3.182,16.593,3.185,22.907,0,2.766-1.394,4.354-3.24,4.354-5.06s-1.588-3.666-4.354-5.061h0A26.214,26.214,0,0,0,836.073,323.046Z" transform="translate(-818.113 -320.922)" fill="#150035"/></g><g transform="translate(7.594 9.045)"><path d="M847.43,326.231c-6.594-3.324-17.285-3.324-23.877,0A9.164,9.164,0,0,0,819,330.45a9.149,9.149,0,0,0,4.551,4.219c6.593,3.326,17.283,3.326,23.877,0a9.152,9.152,0,0,0,4.55-4.219A9.167,9.167,0,0,0,847.43,326.231Z" transform="translate(-817.831 -322.681)" fill="#a1dc8e"/><path d="M835.954,338.638a28.428,28.428,0,0,1-12.424-2.589,10.241,10.241,0,0,1-5.055-4.755l-.182-.424.182-.424a10.236,10.236,0,0,1,5.055-4.757c6.853-3.454,17.995-3.454,24.848,0h0a10.229,10.229,0,0,1,5.055,4.757l.18.424-.18.424a10.248,10.248,0,0,1-5.055,4.755A28.424,28.424,0,0,1,835.954,338.638Zm-15.291-7.768a8.812,8.812,0,0,0,3.838,3.257c6.316,3.182,16.593,3.185,22.907,0a8.819,8.819,0,0,0,3.838-3.257,8.812,8.812,0,0,0-3.838-3.26h0c-6.315-3.182-16.591-3.182-22.907,0A8.8,8.8,0,0,0,820.663,330.87Z" transform="translate(-818.294 -323.099)" fill="#150035"/></g><g transform="translate(37.954 27.078)"><rect width="1.656" height="5.259" fill="#a1dc8e"/></g><g transform="translate(3.797 22.634)"><rect width="1.656" height="5.26" fill="#a1dc8e"/></g><g transform="translate(26.688 6.708)"><rect width="1.656" height="3.394" fill="#a1dc8e"/></g><g transform="translate(11.561 6.017)"><g transform="translate(0.42 2.922)"><path d="M821.444,326.966v2.881l3.987,1.474,1.863-3.03.058-.033,14.045,8.109a22.48,22.48,0,0,0,3.422-1.141l1.517-.876V331.47l-18.641-7.881Z" transform="translate(-820.616 -322.673)" fill="#150035"/><path d="M841.6,337.615l-13.666-7.891-1.828,2.972-5.164-1.909v-3.952l7.035-3.8,19.512,8.248v3.909l-1.929,1.113a23.465,23.465,0,0,1-3.636,1.229ZM827.624,327.7l.469.205,13.753,7.94a21.954,21.954,0,0,0,2.974-1.015l1.015-.591V332.38l-17.77-7.512-5.465,2.952v1.811l2.81,1.04,1.617-2.634Z" transform="translate(-820.944 -323.036)" fill="#150035"/></g><path d="M827.351,326.516l-.058.035-1.863,3.03-3.987-1.474,2.666-4.189,3.584-2.07,18.636,10.758v.007l-4.21,2.43Z" transform="translate(-820.196 -320.892)" fill="#fff"/><path d="M842.614,336.379,828.1,328l-1.828,2.972-5.584-2.068,3.323-5.225,4.175-2.409L847.41,332.4l.392.391-.319.775Zm-14.823-10.4.469.205,14.354,8.288,2.561-1.478-16.987-9.806-3,1.728-2.007,3.154,2.389.882,1.617-2.634Z" transform="translate(-820.69 -321.271)" fill="#150035"/></g><g transform="translate(28.522 2.959)"><g transform="translate(0 5.414)"><path d="M876.94,337.933c-1.2-3.743-3.94-4.129-9.757-7.967a38.079,38.079,0,0,0-16.689-6.076c-5.912-.659-9.536-1.01-12.724.671l-3.439.4-2.258,5.965-.038.156c-1.407,4.066.445,9.081,5.955,14.255a35.845,35.845,0,0,0,20.023,9.26c10.531,1.343,17.224-1.666,19.232-6.5l.108-.225,2.179-5.735Z" transform="translate(-830.508 -322.268)" fill="#150035"/><path d="M863.28,356.421a39.468,39.468,0,0,1-4.977-.331,37.115,37.115,0,0,1-20.624-9.545c-5.626-5.283-7.839-10.75-6.235-15.391l.05-.185,2.492-6.578,3.892-.449c3.523-1.773,7.584-1.318,13.162-.694a39.248,39.248,0,0,1,17.164,6.245c1.614,1.068,2.97,1.853,4.169,2.546,3.093,1.79,4.977,2.879,5.977,5.864l2.8,4.546-2.51,6.533C876.659,353.765,871.058,356.419,863.28,356.421Zm-27.747-30.04-2.028,5.351c-1.338,3.917.677,8.576,5.649,13.245a34.963,34.963,0,0,0,19.421,8.978c9.187,1.169,16.119-1.07,18.1-5.844l.129-.273,1.955-5.162-2.421-3.987c-.737-2.293-2.088-3.073-5.048-4.786-1.162-.674-2.609-1.512-4.278-2.611a37.08,37.08,0,0,0-16.215-5.906c-6-.666-9.255-.947-12.1.555l-.376.116Z" transform="translate(-830.934 -322.694)" fill="#150035"/></g><g transform="translate(2.2)"><path d="M875.546,332.542c6.889,8.449,3.75,16.712-7.013,18.452s-25.071-3.7-31.962-12.146-3.75-16.712,7.013-18.454S868.657,324.092,875.546,332.542Z" transform="translate(-831.834 -319)" fill="#fff"/><path d="M864.806,352.815c-10.349,0-22.435-5.253-28.641-12.863-3.584-4.4-4.752-8.945-3.285-12.8s5.359-6.485,10.96-7.391c11.074-1.791,25.874,3.826,32.969,12.528h0c3.584,4.4,4.752,8.944,3.285,12.8s-5.359,6.485-10.962,7.391A27.092,27.092,0,0,1,864.806,352.815Zm-16.558-31.248a25.426,25.426,0,0,0-4.065.315c-4.808.778-8.108,2.921-9.29,6.031s-.137,6.9,2.94,10.679c6.664,8.172,20.55,13.45,30.955,11.765,4.811-.778,8.111-2.921,9.293-6.03s.137-6.9-2.942-10.68h0C869.318,326.5,857.965,321.566,848.248,321.566Z" transform="translate(-832.263 -319.424)" fill="#150035"/></g><g transform="translate(9.273 5.655)"><path d="M866.557,332.068c-4.982-5.45-14.975-9.248-22.319-8.482s-9.26,5.8-4.278,11.255,14.975,9.248,22.32,8.482S871.539,337.518,866.557,332.068Z" transform="translate(-836.107 -322.415)" fill="#150035"/><path d="M860.791,344.92c-7.359,0-16.468-3.752-21.2-8.927-2.7-2.95-3.656-5.969-2.7-8.493s3.679-4.144,7.656-4.56c7.634-.786,18.051,3.164,23.225,8.826h0c2.7,2.95,3.656,5.967,2.7,8.492s-3.679,4.146-7.657,4.561A19.709,19.709,0,0,1,860.791,344.92Zm-14.146-19.934a18.107,18.107,0,0,0-1.869.094c-3.081.321-5.219,1.483-5.866,3.184s.18,3.988,2.271,6.276c4.773,5.22,14.368,8.866,21.414,8.137,3.083-.321,5.22-1.483,5.868-3.184s-.182-3.99-2.273-6.276h0C861.83,328.446,853.431,324.986,846.646,324.986Z" transform="translate(-836.535 -322.84)" fill="#150035"/></g><g transform="translate(9.276 9.024)"><path d="M865.271,334.1c-4.982-5.45-14.975-9.248-22.32-8.483a9.158,9.158,0,0,0-5.753,2.328,9.163,9.163,0,0,0,2.755,5.56c4.982,5.45,14.975,9.248,22.32,8.482a9.157,9.157,0,0,0,5.753-2.326A9.158,9.158,0,0,0,865.271,334.1Z" transform="translate(-836.104 -324.45)" fill="#a1dc8e"/><path d="M860.79,343.586c-7.359,0-16.468-3.752-21.2-8.927a10.242,10.242,0,0,1-3.036-6.243l-.02-.459.32-.331a10.238,10.238,0,0,1,6.417-2.651c7.634-.79,18.05,3.164,23.223,8.826h0a10.242,10.242,0,0,1,3.036,6.243l.02.459-.321.331a10.233,10.233,0,0,1-6.416,2.651A19.709,19.709,0,0,1,860.79,343.586ZM838.751,328.8a8.8,8.8,0,0,0,2.43,4.409c4.773,5.22,14.368,8.866,21.414,8.137a8.809,8.809,0,0,0,4.745-1.682,8.8,8.8,0,0,0-2.43-4.409h0c-4.773-5.22-14.371-8.871-21.414-8.137A8.811,8.811,0,0,0,838.751,328.8Z" transform="translate(-836.537 -324.874)" fill="#150035"/></g><g transform="translate(32.14 32.484)"><rect width="5.26" height="1.657" transform="translate(0 4.917) rotate(-69.195)" fill="#a1dc8e"/></g><g transform="translate(1.791 16.195)"><rect width="5.26" height="1.657" transform="translate(0 4.917) rotate(-69.198)" fill="#a1dc8e"/></g><g transform="translate(29.508 9.44)"><rect width="3.395" height="1.657" transform="translate(0 3.174) rotate(-69.2)" fill="#a1dc8e"/></g><g transform="translate(13.42 6.085)"><g transform="translate(0 2.715)"><path d="M840.655,326.2l-1.023,2.694,3.2,2.793,2.82-2.171.065-.01,10.248,12.569a22.63,22.63,0,0,0,3.6.149l1.729-.28,1.023-2.692L847.7,325.267Z" transform="translate(-838.652 -324.393)" fill="#150035"/><path d="M859.047,343.416a23.387,23.387,0,0,1-2.788-.171l-.335-.04-9.97-12.229-2.763,2.129-4.151-3.621,1.406-3.692,7.924-1.055,15.31,14.644-1.387,3.652-2.2.356Q859.567,343.416,859.047,343.416Zm-2.263-1.778a20.951,20.951,0,0,0,3.141.108l1.159-.19.659-1.737L847.8,326.486l-6.157.818L841,329l2.258,1.969,2.444-1.881.677-.118.372.363Z" transform="translate(-839.04 -324.739)" fill="#150035"/></g><g transform="translate(0.685)"><path d="M846.336,327.882l-.065.01-2.818,2.172-3.2-2.795,3.98-2.969,4.086-.661,13.6,16.677,0,0-4.8.776Z" transform="translate(-838.932 -322.744)" fill="#fff"/><path d="M857.3,342.347l-10.591-12.987-2.763,2.127-4.488-3.916,4.965-3.7,4.758-.772L863.55,340.73l-.72.722Zm-10.169-15,.373.363,10.475,12.848,2.921-.472-12.4-15.2-3.412.551-3,2.235,1.917,1.674,2.444-1.881Z" transform="translate(-839.454 -323.099)" fill="#150035"/></g></g></g></g><g transform="translate(915.288 130.546)"><g transform="translate(0 20.433)"><path d="M902.639,162.234l-11.525.412a53.634,53.634,0,0,0-24.717,7.048l-20.192,11.56a4.612,4.612,0,0,0-1.712,6.293l20.23,35.341a4.612,4.612,0,0,0,6.293,1.712l20.192-11.56a53.633,53.633,0,0,1,24.717-7.048l11.525-.412a61.281,61.281,0,0,0,28.265-8.061l17.515-10.025a4.61,4.61,0,0,0,1.71-6.293L954.712,145.86a4.612,4.612,0,0,0-6.293-1.712L930.9,154.173A61.3,61.3,0,0,1,902.639,162.234Z" transform="translate(-842.81 -142.461)" fill="#fff"/><path d="M869.162,226.711a5.7,5.7,0,0,1-4.949-2.861l-20.228-35.343a5.693,5.693,0,0,1,2.111-7.76l20.192-11.558A54.9,54.9,0,0,1,891.5,162l11.523-.411a60.48,60.48,0,0,0,27.77-7.921l17.513-10.025a5.687,5.687,0,0,1,7.763,2.111L976.3,181.1a5.684,5.684,0,0,1-2.111,7.76L956.675,198.88a62.613,62.613,0,0,1-28.761,8.2l-11.525.412a52.735,52.735,0,0,0-24.22,6.907l-20.192,11.56A5.654,5.654,0,0,1,869.162,226.711Zm33.94-62.973-11.523.411a52.764,52.764,0,0,0-24.22,6.907l-20.192,11.558a3.54,3.54,0,0,0-1.313,4.826l20.228,35.341a3.539,3.539,0,0,0,4.823,1.313l20.194-11.56a54.906,54.906,0,0,1,25.212-7.19l11.525-.412a60.43,60.43,0,0,0,27.77-7.919l17.515-10.025a3.532,3.532,0,0,0,1.311-4.823L954.2,146.82a3.535,3.535,0,0,0-4.823-1.311l-17.513,10.025a62.63,62.63,0,0,1-28.763,8.2Z" transform="translate(-843.235 -142.888)" fill="#150035"/><g transform="translate(13.144 14.186)"><path d="M938.329,153.042a5.741,5.741,0,0,1-.291-.657l-7.315,4.187a61.3,61.3,0,0,1-29.061,8.084l-11.013.25a53.623,53.623,0,0,0-25.412,7.07L854.193,178.3a5.747,5.747,0,0,1-2.133,7.843l9.71,16.967a5.742,5.742,0,0,1,7.795,2.063l11.005-6.3a53.59,53.59,0,0,1,25.51-7.071l10.942-.23a61.305,61.305,0,0,0,29.174-8.086l7.2-4.121a5.75,5.75,0,0,1,2.134-7.844l-9.356-16.344A5.749,5.749,0,0,1,938.329,153.042Z" transform="translate(-850.592 -150.847)" fill="#a1dc8e"/><path d="M869.762,207.241l-.541-.914a4.689,4.689,0,0,0-6.333-1.677l-.934.535-10.78-18.834.934-.535a4.668,4.668,0,0,0,1.732-6.374l-.533-.934,11.977-6.856a54.85,54.85,0,0,1,25.922-7.212l11.013-.25a60.4,60.4,0,0,0,28.55-7.942l8.373-4.791.54,1.295a3,3,0,0,0,.166.366,4.669,4.669,0,0,0,6.373,1.733l.935-.535,10.425,18.214-.934.535a4.67,4.67,0,0,0-1.734,6.374l.535.934-8.136,4.656a62.55,62.55,0,0,1-29.684,8.228l-10.944.23a52.676,52.676,0,0,0-24.995,6.927Zm-4.584-5.351a6.869,6.869,0,0,1,5.283,2.47l10.157-5.813a54.837,54.837,0,0,1,26.021-7.214l10.942-.228a60.422,60.422,0,0,0,28.66-7.945l6.341-3.627a6.83,6.83,0,0,1,2.1-7.73l-8.371-14.622a6.829,6.829,0,0,1-8.149-2.685l-6.324,3.621a62.589,62.589,0,0,1-29.573,8.227l-11.013.25a52.7,52.7,0,0,0-24.9,6.927l-10.182,5.828a6.833,6.833,0,0,1-2.1,7.728l8.725,15.247A6.754,6.754,0,0,1,865.177,201.89Z" transform="translate(-851.174 -151.456)" fill="#150035"/></g><g transform="translate(20.701 38.303)"><rect width="2.153" height="30.959" transform="translate(0 1.07) rotate(-29.786)" fill="#150035"/></g><g transform="translate(25.49 35.56)"><rect width="2.153" height="30.96" transform="matrix(0.868, -0.497, 0.497, 0.868, 0, 1.07)" fill="#150035"/></g><g transform="translate(49.416 27.923)"><rect width="2.153" height="30.96" transform="translate(0 1.07) rotate(-29.788)" fill="#150035"/></g><g transform="translate(94.443 18.269)"><rect width="2.153" height="30.96" transform="translate(0 1.07) rotate(-29.788)" fill="#150035"/></g><g transform="translate(85.942 23.135)"><rect width="2.153" height="30.959" transform="translate(0 1.07) rotate(-29.786)" fill="#150035"/></g><g transform="translate(49.451 32.629)"><path d="M874.272,169.624l2.394,4.184a11.371,11.371,0,0,0,10.258,5.717l15.77-.536a3.885,3.885,0,0,0,3.24-5.813l-2.409-4.207a11.379,11.379,0,0,0-10.275-5.717l-15.745.56A3.885,3.885,0,0,0,874.272,169.624Z" transform="translate(-872.677 -162.169)" fill="#fff"/><path d="M886.96,181.034a12.422,12.422,0,0,1-10.8-6.267l-2.394-4.182a4.962,4.962,0,0,1,4.131-7.422l15.743-.56a12.373,12.373,0,0,1,11.25,6.258l2.407,4.205a4.961,4.961,0,0,1-4.137,7.424l-15.768.536C887.245,181.032,887.1,181.034,886.96,181.034Zm-11.328-11.517,2.394,4.182a10.267,10.267,0,0,0,9.288,5.177l15.768-.536a2.809,2.809,0,0,0,2.343-4.2l-2.407-4.207a10.29,10.29,0,0,0-9.3-5.175l-15.743.558a2.811,2.811,0,0,0-2.339,4.205Z" transform="translate(-873.103 -162.595)" fill="#150035"/></g><g transform="translate(5.635 40.125)"><path d="M852.765,169.249a2.931,2.931,0,1,1-4-1.088A2.93,2.93,0,0,1,852.765,169.249Z" transform="translate(-846.212 -166.696)" fill="#a1dc8e"/><path d="M850.654,175.143a4.009,4.009,0,1,1,3.47-6h0a4.011,4.011,0,0,1-3.47,6Zm-.008-5.866a1.856,1.856,0,1,0,1.613.934h0a1.837,1.837,0,0,0-1.121-.869A1.916,1.916,0,0,0,850.646,169.277Z" transform="translate(-846.639 -167.123)" fill="#150035"/></g><g transform="translate(22.361 69.346)"><path d="M862.866,186.9a2.931,2.931,0,1,1-4-1.088A2.93,2.93,0,0,1,862.866,186.9Z" transform="translate(-856.315 -184.348)" fill="#a1dc8e"/><path d="M860.754,192.783a4.007,4.007,0,1,1,3.472-6l0,0a4.006,4.006,0,0,1-3.474,6Zm-.01-5.859a1.854,1.854,0,1,0,1.614.932A1.854,1.854,0,0,0,860.744,186.924Z" transform="translate(-856.741 -184.773)" fill="#150035"/></g><g transform="translate(102.746 7.318)"><path d="M911.421,149.434a2.931,2.931,0,1,1-4-1.088A2.93,2.93,0,0,1,911.421,149.434Z" transform="translate(-904.867 -146.881)" fill="#a1dc8e"/><path d="M909.31,155.326a4.008,4.008,0,1,1,3.472-6h0a4.011,4.011,0,0,1-3.472,6Zm-.008-5.866a1.858,1.858,0,0,0-1.609,2.778,1.857,1.857,0,0,0,3.224-1.843h0a1.861,1.861,0,0,0-1.613-.935Z" transform="translate(-905.294 -147.308)" fill="#150035"/></g><g transform="translate(119.611 36.774)"><path d="M921.605,167.225a2.932,2.932,0,1,1-4-1.088A2.932,2.932,0,0,1,921.605,167.225Z" transform="translate(-915.055 -164.672)" fill="#a1dc8e"/><path d="M919.495,173.116a4.007,4.007,0,1,1,3.468-6h0a4.006,4.006,0,0,1-3.468,6Zm-.01-5.863a1.857,1.857,0,1,0,1.613.935l0,0a1.86,1.86,0,0,0-1.611-.934Z" transform="translate(-915.48 -165.099)" fill="#150035"/></g><g transform="translate(68.22 33.279)"><rect width="2.153" height="18.144" transform="translate(0 1.07) rotate(-29.788)" fill="#150035"/></g><g transform="translate(61.436 33.451)"><rect width="2.153" height="18.144" transform="translate(0 1.07) rotate(-29.787)" fill="#150035"/></g></g><g transform="translate(77.026 8.02)"><path d="M890.787,158.958l-1.028-1.889c.281-.154,28.338-15.457,36.361-21.679l1.32,1.7C919.28,143.418,891.948,158.327,890.787,158.958Z" transform="translate(-889.759 -135.39)" fill="#150035"/></g><g transform="translate(113.478)"><path d="M913.076,148.415l-1.3-1.717c.129-.1,13.089-9.949,18.839-16.152l1.579,1.462C926.316,138.351,913.614,148.006,913.076,148.415Z" transform="translate(-911.776 -130.546)" fill="#150035"/></g><g transform="translate(59.038 31.424)"><path d="M881.813,152.947c-1.666,0-2.8-.083-2.919-.093l.162-2.146c.076,0,7.333.53,12.533-1.182l.672,2.043A35.457,35.457,0,0,1,881.813,152.947Z" transform="translate(-878.894 -149.526)" fill="#150035"/></g></g><g transform="translate(900.478 482.29)"><g transform="translate(0 7.793)"><path d="M893.7,367.054l-11.525.412a53.594,53.594,0,0,0-24.717,7.048l-20.192,11.558a4.612,4.612,0,0,0-1.712,6.293l20.23,35.341a4.611,4.611,0,0,0,6.293,1.712l20.192-11.558a53.615,53.615,0,0,1,24.717-7.05l11.525-.411a61.323,61.323,0,0,0,28.265-8.061l17.515-10.025a4.612,4.612,0,0,0,1.71-6.293l-20.229-35.343a4.61,4.61,0,0,0-6.293-1.71l-17.515,10.025A61.322,61.322,0,0,1,893.7,367.054Z" transform="translate(-833.863 -347.281)" fill="#fff"/><path d="M860.217,431.533a5.758,5.758,0,0,1-1.5-.2,5.656,5.656,0,0,1-3.444-2.666l-20.23-35.341a5.685,5.685,0,0,1,2.111-7.762l20.192-11.558a54.92,54.92,0,0,1,25.214-7.19l11.523-.412a60.454,60.454,0,0,0,27.77-7.919l17.513-10.026a5.69,5.69,0,0,1,7.763,2.113l20.229,35.341a5.687,5.687,0,0,1-2.109,7.762L947.735,403.7a62.629,62.629,0,0,1-28.763,8.2l-11.523.412a52.757,52.757,0,0,0-24.22,6.907l-20.192,11.558A5.659,5.659,0,0,1,860.217,431.533Zm33.944-62.978-11.525.412a52.758,52.758,0,0,0-24.219,6.907l-20.194,11.56a3.531,3.531,0,0,0-1.311,4.823l20.23,35.343a3.531,3.531,0,0,0,4.823,1.311l20.192-11.56a54.925,54.925,0,0,1,25.214-7.189l11.523-.412a60.44,60.44,0,0,0,27.77-7.921l17.513-10.023a3.538,3.538,0,0,0,1.311-4.825L945.26,351.641a3.535,3.535,0,0,0-4.824-1.313l-17.513,10.025a62.613,62.613,0,0,1-28.761,8.2Z" transform="translate(-834.29 -347.707)" fill="#150035"/><g transform="translate(13.148 14.18)"><path d="M929.386,357.86a5.645,5.645,0,0,1-.291-.656l-7.314,4.187a61.3,61.3,0,0,1-29.061,8.083l-11.013.252a53.605,53.605,0,0,0-25.412,7.069l-11.043,6.32a5.749,5.749,0,0,1-2.132,7.844l9.71,16.965a5.743,5.743,0,0,1,7.795,2.065l11.005-6.3a53.627,53.627,0,0,1,25.51-7.071l10.942-.229a61.307,61.307,0,0,0,29.174-8.088l7.2-4.121a5.748,5.748,0,0,1,2.134-7.843l-9.356-16.344A5.75,5.75,0,0,1,929.386,357.86Z" transform="translate(-841.649 -355.661)" fill="#a1dc8e"/><path d="M860.817,412.06l-.54-.912a4.68,4.68,0,0,0-6.331-1.679l-.935.533-10.78-18.833.932-.535a4.67,4.67,0,0,0,1.733-6.374l-.533-.934,11.975-6.856a54.868,54.868,0,0,1,25.922-7.209l11.016-.25a60.41,60.41,0,0,0,28.55-7.945l8.377-4.795.467,1.134a4.472,4.472,0,0,0,6.6,2.263l.934-.533,10.425,18.212-.932.535a4.673,4.673,0,0,0-1.734,6.374l.533.934-8.132,4.656a62.572,62.572,0,0,1-29.687,8.228l-10.942.23a52.708,52.708,0,0,0-25,6.929Zm-4.583-5.351a6.866,6.866,0,0,1,5.283,2.47l10.157-5.813a54.83,54.83,0,0,1,26.021-7.212l10.942-.23a60.424,60.424,0,0,0,28.662-7.945l6.339-3.629a6.839,6.839,0,0,1,2.1-7.727L937.37,362a6.838,6.838,0,0,1-8.147-2.684l-6.326,3.621a62.568,62.568,0,0,1-29.571,8.225l-11.015.252a52.686,52.686,0,0,0-24.9,6.927l-10.184,5.828a6.828,6.828,0,0,1-2.1,7.728l8.725,15.245A6.76,6.76,0,0,1,856.234,406.709Z" transform="translate(-842.231 -356.272)" fill="#150035"/></g><g transform="translate(20.705 38.301)"><rect width="2.154" height="30.959" transform="translate(0 1.07) rotate(-29.789)" fill="#150035"/></g><g transform="translate(25.495 35.559)"><rect width="2.154" height="30.96" transform="matrix(0.868, -0.497, 0.497, 0.868, 0, 1.07)" fill="#150035"/></g><g transform="translate(49.419 27.922)"><rect width="2.154" height="30.959" transform="translate(0 1.07) rotate(-29.789)" fill="#150035"/></g><g transform="translate(94.448 18.267)"><rect width="2.154" height="30.96" transform="matrix(0.868, -0.497, 0.497, 0.868, 0, 1.07)" fill="#150035"/></g><g transform="translate(85.945 23.133)"><rect width="2.154" height="30.961" transform="translate(0 1.07) rotate(-29.788)" fill="#150035"/></g><g transform="translate(49.454 32.629)"><path d="M865.33,374.443l2.394,4.182a11.375,11.375,0,0,0,10.258,5.719l15.77-.536a3.885,3.885,0,0,0,3.238-5.815l-2.407-4.205a11.376,11.376,0,0,0-10.275-5.717l-15.745.56A3.884,3.884,0,0,0,865.33,374.443Z" transform="translate(-863.733 -366.99)" fill="#fff"/><path d="M878.018,385.852a12.423,12.423,0,0,1-10.8-6.267l-2.394-4.182a4.963,4.963,0,0,1,4.131-7.424l15.745-.558a12.442,12.442,0,0,1,11.248,6.257l2.407,4.205a4.963,4.963,0,0,1-4.137,7.424l-15.77.538C878.3,385.85,878.16,385.852,878.018,385.852Zm-11.328-11.52,2.394,4.184a10.265,10.265,0,0,0,9.288,5.179l15.768-.536a2.811,2.811,0,0,0,2.343-4.205l-2.407-4.205a10.229,10.229,0,0,0-9.3-5.176l-15.745.558a2.809,2.809,0,0,0-2.339,4.2Z" transform="translate(-864.16 -367.415)" fill="#150035"/></g><g transform="translate(5.643 40.125)"><path d="M843.822,374.069a2.931,2.931,0,1,1-4-1.089A2.93,2.93,0,0,1,843.822,374.069Z" transform="translate(-837.272 -371.517)" fill="#a1dc8e"/><path d="M841.711,379.956a4.008,4.008,0,1,1,3.47-6l0,0a4.005,4.005,0,0,1-3.472,6ZM841.7,374.1a1.855,1.855,0,1,0,1.614.932A1.85,1.85,0,0,0,841.7,374.1Z" transform="translate(-837.698 -371.943)" fill="#150035"/></g><g transform="translate(22.363 69.341)"><path d="M853.923,391.714a2.932,2.932,0,1,1-4-1.088A2.932,2.932,0,0,1,853.923,391.714Z" transform="translate(-847.37 -389.163)" fill="#a1dc8e"/><path d="M851.812,397.605a4.007,4.007,0,1,1,3.472-6h0a4.009,4.009,0,0,1-3.472,6Zm-.008-5.866a1.857,1.857,0,1,0,1.614.937l0,0a1.849,1.849,0,0,0-1.123-.869A1.91,1.91,0,0,0,851.8,391.74Z" transform="translate(-847.797 -389.589)" fill="#150035"/></g><g transform="translate(102.755 7.318)"><path d="M902.478,354.252a2.932,2.932,0,1,1-4-1.088A2.932,2.932,0,0,1,902.478,354.252Z" transform="translate(-895.928 -351.701)" fill="#a1dc8e"/><path d="M900.367,360.142a4.007,4.007,0,1,1,1.043-7.872,3.967,3.967,0,0,1,2.425,1.874h0a4.006,4.006,0,0,1-3.469,6Zm-.01-5.864a1.86,1.86,0,1,0,1.613.937l0,0a1.872,1.872,0,0,0-1.611-.935Z" transform="translate(-896.353 -352.127)" fill="#150035"/></g><g transform="translate(119.616 36.775)"><path d="M912.663,372.044a2.932,2.932,0,1,1-4-1.088A2.93,2.93,0,0,1,912.663,372.044Z" transform="translate(-906.112 -369.493)" fill="#a1dc8e"/><path d="M910.551,377.932a4.007,4.007,0,1,1,3.47-6l0,0a4.014,4.014,0,0,1-1.489,5.469A3.971,3.971,0,0,1,910.551,377.932Zm-.011-5.861a1.83,1.83,0,0,0-.919.245,1.857,1.857,0,1,0,.919-.245Z" transform="translate(-906.538 -369.919)" fill="#150035"/></g><g transform="translate(68.224 33.277)"><rect width="2.154" height="18.145" transform="translate(0 1.07) rotate(-29.786)" fill="#150035"/></g><g transform="translate(61.439 33.449)"><rect width="2.154" height="18.145" transform="translate(0 1.07) rotate(-29.786)" fill="#150035"/></g></g><g transform="translate(73.305)"><path d="M879.286,363.942l-.72-2.026c.2-.073,20.012-7.2,33.007-18.916l1.442,1.6C899.7,356.606,879.488,363.871,879.286,363.942Z" transform="translate(-878.566 -343)" fill="#150035"/></g><g transform="translate(51.467 7.871)"><path d="M866.361,356.8c-.555,0-.894-.01-.985-.013l.065-2.151c.177,0,17.791.442,32.328-6.879l.967,1.921C885.53,356.327,870.361,356.8,866.361,356.8Z" transform="translate(-865.376 -347.754)" fill="#150035"/></g><g transform="translate(9.295 80.068)"><path d="M850.043,411.147a16.189,16.189,0,0,1-10.139-3.169l1.4-1.636-.7.818.7-.821c.321.27,8.041,6.546,21.364-1.212,15.1-8.793,24.93-13.591,33.659-13.767l.041,2.151c-8.215.166-18.18,5.066-32.617,13.475C858.333,410.139,853.723,411.147,850.043,411.147Z" transform="translate(-839.904 -391.361)" fill="#150035"/></g><g transform="translate(3.444 83.778)"><path d="M853.521,404.9c-14.219-.854-17.036-10.31-17.151-10.712l2.071-.588c.1.343,2.586,8.394,15.209,9.154Z" transform="translate(-836.37 -393.602)" fill="#150035"/></g></g><g transform="translate(733.335 364.972)"><g transform="translate(0 12.464)"><path d="M797.13,285.212,786,282.189a53.6,53.6,0,0,0-25.694-.594L737.6,286.648a4.612,4.612,0,0,0-3.5,5.5l8.844,39.75a4.613,4.613,0,0,0,5.5,3.5l22.712-5.055a53.6,53.6,0,0,1,25.694.6l11.129,3.021a61.311,61.311,0,0,0,29.384.68l19.7-4.382a4.612,4.612,0,0,0,3.5-5.5l-8.844-39.75a4.611,4.611,0,0,0-5.5-3.5l-19.7,4.382A61.3,61.3,0,0,1,797.13,285.212Z" transform="translate(-732.909 -279.244)" fill="#fff"/><path d="M824.482,337.6a62.436,62.436,0,0,1-16.359-2.175L796.992,332.4a52.656,52.656,0,0,0-25.177-.579L749.1,336.875a5.687,5.687,0,0,1-6.786-4.318l-8.844-39.748a5.687,5.687,0,0,1,4.316-6.786l22.71-5.055a54.887,54.887,0,0,1,26.212.608l11.127,3.021a60.417,60.417,0,0,0,28.869.669l19.7-4.384a5.689,5.689,0,0,1,6.788,4.318l8.844,39.748a5.7,5.7,0,0,1-4.316,6.79l-19.7,4.381A62.345,62.345,0,0,1,824.482,337.6Zm-41.265-9.18a54.794,54.794,0,0,1,14.339,1.906l11.131,3.025a60.462,60.462,0,0,0,28.866.666l19.7-4.382a3.538,3.538,0,0,0,2.682-4.219l-8.844-39.748a3.532,3.532,0,0,0-4.217-2.684l-19.7,4.382a62.611,62.611,0,0,1-29.9-.694l-11.129-3.021a52.749,52.749,0,0,0-25.179-.583l-22.712,5.055a3.534,3.534,0,0,0-2.682,4.217l8.844,39.75a3.532,3.532,0,0,0,4.219,2.684l22.712-5.053A54.748,54.748,0,0,1,783.217,328.421Z" transform="translate(-733.335 -279.668)" fill="#150035"/><g transform="translate(10.947 8.962)"><path d="M832.926,290.59a5.509,5.509,0,0,1-.084-.714l-8.227,1.831a61.3,61.3,0,0,1-30.152-.894l-10.593-3.025a53.621,53.621,0,0,0-26.366-.781l-12.419,2.763a5.749,5.749,0,0,1-4.363,6.859l4.245,19.081a5.744,5.744,0,0,1,6.833,4.283l12.377-2.755a53.622,53.622,0,0,1,26.458.808l10.52,3.025a61.315,61.315,0,0,0,30.258.926l8.1-1.8a5.747,5.747,0,0,1,4.362-6.858l-4.091-18.384A5.747,5.747,0,0,1,832.926,290.59Z" transform="translate(-739.438 -284.657)" fill="#a1dc8e"/><path d="M818.621,324.955a62.482,62.482,0,0,1-17.253-2.424l-10.518-3.023a52.676,52.676,0,0,0-25.929-.793L751.508,321.7l-.245-1.031a4.674,4.674,0,0,0-5.553-3.48l-1.05.233-4.714-21.182L741,296a4.675,4.675,0,0,0,3.545-5.573l-.234-1.051,13.47-3a54.844,54.844,0,0,1,26.9.8l10.593,3.026a60.407,60.407,0,0,0,29.621.876l9.417-2.094.131,1.394a3.078,3.078,0,0,0,.048.4,4.671,4.671,0,0,0,5.574,3.543l1.05-.233,4.558,20.483-1.051.235a4.676,4.676,0,0,0-3.543,5.575l.232,1.05-9.146,2.035A62.369,62.369,0,0,1,818.621,324.955Zm-42.3-9.641a54.738,54.738,0,0,1,15.124,2.124l10.52,3.023a60.4,60.4,0,0,0,29.727.909l7.129-1.586a6.841,6.841,0,0,1,4.3-6.757l-3.661-16.449a6.865,6.865,0,0,1-6.987-4.98l-7.113,1.583a62.6,62.6,0,0,1-30.682-.907l-10.593-3.026a52.69,52.69,0,0,0-25.834-.765l-11.454,2.55a6.839,6.839,0,0,1-4.3,6.755l3.815,17.149a6.858,6.858,0,0,1,6.717,4.219l11.424-2.541A54.663,54.663,0,0,1,776.319,315.314Z" transform="translate(-739.947 -285.081)" fill="#150035"/></g><g transform="translate(21.044 12.619)"><rect width="2.152" height="30.959" transform="translate(0 0.467) rotate(-12.545)" fill="#150035"/></g><g transform="translate(26.431 11.419)"><rect width="2.152" height="30.961" transform="matrix(0.976, -0.217, 0.217, 0.976, 0, 0.467)" fill="#150035"/></g><g transform="translate(51.545 11.217)"><rect width="2.152" height="30.961" transform="translate(0 0.467) rotate(-12.543)" fill="#150035"/></g><g transform="translate(97.409 15.345)"><rect width="2.153" height="30.959" transform="translate(0 0.468) rotate(-12.545)" fill="#150035"/></g><g transform="translate(87.847 17.473)"><rect width="2.154" height="30.959" transform="translate(0 0.468) rotate(-12.545)" fill="#150035"/></g><g transform="translate(48.642 16.951)"><path d="M763.46,295.29,764.508,300a11.373,11.373,0,0,0,8.1,8.5l15.219,4.161a3.885,3.885,0,0,0,4.818-4.591l-1.053-4.73a11.377,11.377,0,0,0-8.119-8.507l-15.2-4.132A3.885,3.885,0,0,0,763.46,295.29Z" transform="translate(-762.289 -289.48)" fill="#fff"/><path d="M789.3,314.3a5.063,5.063,0,0,1-1.325-.179l-15.22-4.164a12.419,12.419,0,0,1-8.869-9.3l-1.046-4.707a4.962,4.962,0,0,1,6.144-5.864l15.2,4.134a12.422,12.422,0,0,1,8.887,9.31l1.053,4.732A4.968,4.968,0,0,1,789.3,314.3Zm-24.361-18.821,1.048,4.705a10.271,10.271,0,0,0,7.336,7.7l15.22,4.164a2.809,2.809,0,0,0,3.482-3.32L790.968,304a10.273,10.273,0,0,0-7.351-7.7l-15.2-4.134a2.81,2.81,0,0,0-3.48,3.323Z" transform="translate(-762.715 -289.906)" fill="#150035"/></g><g transform="translate(5.065 10.348)"><path d="M742.837,288.864a2.932,2.932,0,1,1-3.5-2.225A2.93,2.93,0,0,1,742.837,288.864Z" transform="translate(-735.968 -285.492)" fill="#a1dc8e"/><path d="M740.392,293.936a4.014,4.014,0,1,1,.879-.1A4.063,4.063,0,0,1,740.392,293.936Zm.008-5.866a1.776,1.776,0,0,0-.4.046,1.856,1.856,0,0,0-.593,3.378,1.857,1.857,0,0,0,2.808-1.969v0A1.862,1.862,0,0,0,740.4,288.07Z" transform="translate(-736.394 -285.919)" fill="#150035"/></g><g transform="translate(12.374 43.209)"><path d="M747.253,308.712a2.932,2.932,0,1,1-3.5-2.225A2.93,2.93,0,0,1,747.253,308.712Z" transform="translate(-740.382 -305.34)" fill="#a1dc8e"/><path d="M744.819,313.784a4.007,4.007,0,1,1,.871-.1A3.918,3.918,0,0,1,744.819,313.784Zm0-5.864a1.9,1.9,0,0,0-.407.045,1.856,1.856,0,1,0,2.214,1.409v0a1.857,1.857,0,0,0-1.806-1.452Z" transform="translate(-740.809 -305.766)" fill="#150035"/></g><g transform="translate(107.535 7.804)"><path d="M804.732,287.327a2.932,2.932,0,1,1-3.5-2.225A2.934,2.934,0,0,1,804.732,287.327Z" transform="translate(-797.859 -283.956)" fill="#a1dc8e"/><path d="M802.3,292.4a4.008,4.008,0,1,1,3.914-4.879v0A4,4,0,0,1,802.3,292.4Zm0-5.864a1.766,1.766,0,0,0-.4.046,1.853,1.853,0,0,0-1.409,2.214,1.856,1.856,0,1,0,1.811-2.26Z" transform="translate(-798.286 -284.382)" fill="#150035"/></g><g transform="translate(114.908 40.933)"><path d="M809.183,307.337a2.932,2.932,0,1,1-3.5-2.224A2.931,2.931,0,0,1,809.183,307.337Z" transform="translate(-802.313 -303.966)" fill="#a1dc8e"/><path d="M806.749,312.408a4.009,4.009,0,1,1,.871-.1A3.921,3.921,0,0,1,806.749,312.408Zm0-5.864a1.9,1.9,0,0,0-.407.045A1.856,1.856,0,1,0,808.558,308v0a1.835,1.835,0,0,0-.815-1.162A1.854,1.854,0,0,0,806.752,306.544Z" transform="translate(-802.739 -304.392)" fill="#150035"/></g><g transform="translate(67.915 21.907)"><rect width="2.154" height="18.144" transform="translate(0 0.468) rotate(-12.548)" fill="#150035"/></g><g transform="translate(61.385 20.059)"><rect width="2.153" height="18.145" transform="translate(0 0.468) rotate(-12.544)" fill="#150035"/></g></g><g transform="translate(0.585 68.721)"><path d="M734.671,328.176l-.983-1.916c.285-.147,28.884-14.682,55.467-12.363l-.187,2.142C763.021,313.8,734.951,328.032,734.671,328.176Z" transform="translate(-733.688 -313.648)" fill="#150035"/></g><g transform="translate(36.157 73.952)"><path d="M794.306,321.385c-18.705-4.77-38.53-1.063-38.727-1.022l-.406-2.116c.2-.036,20.488-3.834,39.662,1.051Z" transform="translate(-755.174 -316.807)" fill="#150035"/></g><g transform="translate(66.247 79.424)"><path d="M787.7,325.2a117.95,117.95,0,0,0-14.354-2.947l.261-2.137a120.555,120.555,0,0,1,14.649,3Z" transform="translate(-773.348 -320.112)" fill="#150035"/></g><g transform="translate(90.045 6.265)"><path d="M788.431,284.74l-.709-2.035c1.025-.356,25.275-8.717,39.982-6.366l-.339,2.124C813.176,276.2,788.676,284.653,788.431,284.74Z" transform="translate(-787.722 -275.924)" fill="#150035"/></g><g transform="translate(114.189 0)"><path d="M828.5,278.244c-10.7-6.743-25.467-2.743-25.614-2.7l-.58-2.073c.639-.179,15.816-4.308,27.343,2.954Z" transform="translate(-802.305 -272.14)" fill="#150035"/></g></g><g transform="translate(1001.924 439.09)"><path d="M933.865,360.049l-9.464,6.589a53.62,53.62,0,0,0-16.957,19.315l-10.712,20.654a4.611,4.611,0,0,0,1.972,6.217l36.149,18.747a4.609,4.609,0,0,0,6.217-1.97l10.712-20.654a53.593,53.593,0,0,1,16.957-19.315l9.462-6.589a61.309,61.309,0,0,0,19.392-22.088l9.291-17.916a4.612,4.612,0,0,0-1.972-6.217l-36.149-18.747a4.612,4.612,0,0,0-6.217,1.97l-9.291,17.916A61.3,61.3,0,0,1,933.865,360.049Z" transform="translate(-895.137 -316.481)" fill="#fff"/><path d="M937.392,433.589a5.674,5.674,0,0,1-2.608-.636l-36.149-18.747a5.687,5.687,0,0,1-2.432-7.667l10.712-20.656a54.888,54.888,0,0,1,17.3-19.7l9.464-6.589a60.466,60.466,0,0,0,19.051-21.7l9.29-17.916a5.691,5.691,0,0,1,7.667-2.43l36.151,18.747a5.7,5.7,0,0,1,2.432,7.667l-9.29,17.914a62.615,62.615,0,0,1-19.733,22.477l-9.464,6.589a52.757,52.757,0,0,0-16.616,18.925l-10.712,20.656A5.69,5.69,0,0,1,937.392,433.589Zm29.679-114.531a3.571,3.571,0,0,0-1.073.167,3.505,3.505,0,0,0-2.069,1.742l-9.291,17.914A62.6,62.6,0,0,1,934.9,361.359l-9.462,6.588a52.761,52.761,0,0,0-16.616,18.927l-10.71,20.654a3.536,3.536,0,0,0,1.51,4.767l36.149,18.747a3.54,3.54,0,0,0,4.766-1.51l10.71-20.654a54.9,54.9,0,0,1,17.3-19.7l9.462-6.588a60.481,60.481,0,0,0,19.051-21.7l9.291-17.914a3.542,3.542,0,0,0-1.512-4.767L968.7,319.457A3.525,3.525,0,0,0,967.071,319.058Z" transform="translate(-895.563 -316.907)" fill="#150035"/><g transform="translate(12.909 14.57)"><path d="M961.273,329.04a5.7,5.7,0,0,1-.6-.394l-3.879,7.482a61.312,61.312,0,0,1-20.048,22.538l-9.122,6.179a53.623,53.623,0,0,0-17.53,19.707l-5.858,11.3a5.748,5.748,0,0,1,2.457,7.748l17.353,9a5.744,5.744,0,0,1,7.67-2.487l5.838-11.257a53.6,53.6,0,0,1,17.611-19.763l9.073-6.121a61.294,61.294,0,0,0,20.141-22.6L988.2,343a5.749,5.749,0,0,1-2.457-7.748l-16.718-8.67A5.749,5.749,0,0,1,961.273,329.04Z" transform="translate(-902.786 -325.133)" fill="#a1dc8e"/><path d="M925.08,414.621l-19.265-9.992.495-.954a4.678,4.678,0,0,0-2-6.3l-.954-.5,6.351-12.248a54.811,54.811,0,0,1,17.882-20.1l9.123-6.177a60.469,60.469,0,0,0,19.7-22.142l4.444-8.571,1.146.8a2.587,2.587,0,0,0,.343.225h0a4.68,4.68,0,0,0,6.3-2l.5-.955,18.627,9.661-.495.955a4.678,4.678,0,0,0,2,6.3l.954.495-4.313,8.32a62.559,62.559,0,0,1-20.493,23l-9.073,6.122a52.67,52.67,0,0,0-17.258,19.364l-6.326,12.2-.949-.475a4.687,4.687,0,0,0-6.232,2.022Zm-16.439-10.95,15.594,8.088a6.874,6.874,0,0,1,7.548-2.439l5.386-10.389a54.882,54.882,0,0,1,17.967-20.161l9.073-6.121A60.393,60.393,0,0,0,984,350.445l3.362-6.485a6.843,6.843,0,0,1-2.42-7.632l-14.957-7.76a6.832,6.832,0,0,1-8.3,2.159l-3.354,6.47a62.618,62.618,0,0,1-20.4,22.935L928.8,366.31a52.673,52.673,0,0,0-17.179,19.311l-5.4,10.416A6.843,6.843,0,0,1,908.641,403.67Z" transform="translate(-903.36 -325.707)" fill="#150035"/></g><g transform="translate(16.456 79.326)"><rect width="2.152" height="30.961" transform="translate(0 1.91) rotate(-62.588)" fill="#150035"/></g><g transform="translate(18.996 74.427)"><rect width="2.152" height="30.961" transform="translate(0 1.91) rotate(-62.588)" fill="#150035"/></g><g transform="translate(34.97 55.047)"><rect width="2.152" height="30.959" transform="translate(0 1.91) rotate(-62.587)" fill="#150035"/></g><g transform="translate(67.587 22.539)"><rect width="2.152" height="30.96" transform="translate(0 1.91) rotate(-62.591)" fill="#150035"/></g><g transform="translate(63.077 31.236)"><rect width="2.152" height="30.96" transform="matrix(0.46, -0.888, 0.888, 0.46, 0, 1.91)" fill="#150035"/></g><g transform="translate(39.175 46.64)"><path d="M921.971,363.407l4.28,2.219a11.374,11.374,0,0,0,11.72-.752l12.964-8.993a3.885,3.885,0,0,0-.426-6.641l-4.3-2.232a11.376,11.376,0,0,0-11.733.762l-12.932,9A3.885,3.885,0,0,0,921.971,363.407Z" transform="translate(-918.799 -344.649)" fill="#fff"/><path d="M931.919,368.413a12.47,12.47,0,0,1-5.737-1.4l-4.28-2.22a4.963,4.963,0,0,1-.55-8.477l12.932-9a12.416,12.416,0,0,1,12.843-.833l4.3,2.23a4.962,4.962,0,0,1,.543,8.482l-12.964,8.995A12.427,12.427,0,0,1,931.919,368.413Zm9.474-21.182a10.282,10.282,0,0,0-5.879,1.849l-12.932,9a2.812,2.812,0,0,0,.313,4.8h0l4.278,2.22a10.274,10.274,0,0,0,10.611-.682l12.964-8.993a2.811,2.811,0,0,0-.311-4.8l-4.3-2.23A10.3,10.3,0,0,0,941.392,347.231Z" transform="translate(-919.225 -345.077)" fill="#150035"/></g><g transform="translate(5.732 87.22)"><path d="M903.959,370.568a2.932,2.932,0,1,1-3.952,1.253A2.934,2.934,0,0,1,903.959,370.568Z" transform="translate(-898.599 -369.161)" fill="#a1dc8e"/><path d="M903.033,377.608a4.018,4.018,0,1,1,1.214-.189A4.035,4.035,0,0,1,903.033,377.608Zm.005-5.866a1.856,1.856,0,1,0,.558,3.626,1.839,1.839,0,0,0,1.088-.914,1.857,1.857,0,0,0-1.646-2.712Z" transform="translate(-899.025 -369.588)" fill="#150035"/></g><g transform="translate(35.617 102.719)"><path d="M922.008,379.929a2.932,2.932,0,1,1-3.952,1.253A2.932,2.932,0,0,1,922.008,379.929Z" transform="translate(-916.649 -378.522)" fill="#a1dc8e"/><path d="M921.081,386.969a4.024,4.024,0,1,1,1.217-.19A3.99,3.99,0,0,1,921.081,386.969Zm.008-5.866a1.856,1.856,0,0,0-.858,3.5,1.856,1.856,0,0,0,2.5-.793,1.856,1.856,0,0,0-1.642-2.71Z" transform="translate(-917.076 -378.949)" fill="#150035"/></g><g transform="translate(69.587 7.035)"><path d="M942.526,322.136a2.932,2.932,0,1,1-3.952,1.253A2.934,2.934,0,0,1,942.526,322.136Z" transform="translate(-937.167 -320.729)" fill="#a1dc8e"/><path d="M941.6,329.176a4.027,4.027,0,1,1,1.215-.19A3.938,3.938,0,0,1,941.6,329.176Zm.008-5.866a1.861,1.861,0,0,0-1.649,1,1.851,1.851,0,0,0,.79,2.5,1.858,1.858,0,0,0,2.5-.793,1.858,1.858,0,0,0-1.644-2.71Z" transform="translate(-937.594 -321.156)" fill="#150035"/></g><g transform="translate(99.718 22.659)"><path d="M960.726,331.574a2.932,2.932,0,1,1-3.952,1.253A2.93,2.93,0,0,1,960.726,331.574Z" transform="translate(-955.366 -330.165)" fill="#a1dc8e"/><path d="M959.8,338.615a4.009,4.009,0,0,1-1.209-7.829,4.008,4.008,0,0,1,2.422,7.641A4.035,4.035,0,0,1,959.8,338.615Zm0-5.866a1.857,1.857,0,0,0-1.649,1,1.857,1.857,0,0,0,.792,2.5,1.86,1.86,0,0,0,1.417.124,1.858,1.858,0,0,0,.293-3.417A1.858,1.858,0,0,0,959.8,332.749Z" transform="translate(-955.793 -330.593)" fill="#150035"/></g><g transform="translate(53.677 49.362)"><rect width="2.152" height="18.144" transform="matrix(0.46, -0.888, 0.888, 0.46, 0, 1.91)" fill="#150035"/></g><g transform="translate(48.067 53.182)"><rect width="2.152" height="18.145" transform="translate(0 1.91) rotate(-62.593)" fill="#150035"/></g><g transform="translate(76.87 62.794)"><path d="M942.88,370.211l-.887-1.964a87.958,87.958,0,0,0,17.328-10.73,11.168,11.168,0,0,1,14.873.3c.26.26.511.53.753.82l-1.659,1.376c-.2-.237-.4-.459-.608-.666a9,9,0,0,0-11.982-.182A88.717,88.717,0,0,1,942.88,370.211Z" transform="translate(-941.993 -354.834)" fill="#150035"/></g><g transform="translate(70.597 76.316)"><path d="M938.338,370.99l-.134-2.147c.1-.007,10.384-.712,17.485-5.841l1.261,1.745C949.335,370.247,938.785,370.962,938.338,370.99Z" transform="translate(-938.204 -363.002)" fill="#150035"/></g></g><g transform="translate(1116.643 327.8)"><g transform="translate(0 0)"><path d="M1033.092,270.88l-9.247-6.892a53.613,53.613,0,0,0-23.689-9.97l-22.982-3.623a4.61,4.61,0,0,0-5.273,3.838l-6.341,40.225a4.613,4.613,0,0,0,3.838,5.273l22.982,3.623a53.585,53.585,0,0,1,23.689,9.97l9.247,6.891a61.3,61.3,0,0,0,27.091,11.4l19.934,3.141a4.61,4.61,0,0,0,5.273-3.836l6.341-40.225a4.611,4.611,0,0,0-3.838-5.273l-19.934-3.142A61.319,61.319,0,0,1,1033.092,270.88Z" transform="translate(-964.428 -249.261)" fill="#fff"/><path d="M1073.488,336.319a5.4,5.4,0,0,1-.889-.071l-19.934-3.142a62.61,62.61,0,0,1-27.568-11.6l-9.247-6.891a52.716,52.716,0,0,0-23.212-9.771l-22.983-3.624a5.683,5.683,0,0,1-4.73-6.5l6.339-40.223a5.7,5.7,0,0,1,6.5-4.733l22.98,3.622a54.921,54.921,0,0,1,24.165,10.171l9.247,6.891a60.425,60.425,0,0,0,26.614,11.2l19.934,3.144a5.689,5.689,0,0,1,4.733,6.5l-6.341,40.225A5.7,5.7,0,0,1,1073.488,336.319Zm-96.607-84.48a3.546,3.546,0,0,0-3.492,2.987l-6.339,40.227a3.534,3.534,0,0,0,2.942,4.04l22.983,3.626a54.882,54.882,0,0,1,24.164,10.169l9.247,6.891a60.459,60.459,0,0,0,26.616,11.2l19.934,3.142a3.536,3.536,0,0,0,4.04-2.944l6.343-40.225a3.533,3.533,0,0,0-2.944-4.04l-19.934-3.146a62.581,62.581,0,0,1-27.564-11.6l-9.247-6.891a52.767,52.767,0,0,0-23.215-9.77l-22.982-3.622A3.437,3.437,0,0,0,976.88,251.839Z" transform="translate(-964.854 -249.688)" fill="#150035"/><g transform="translate(10.532 10.474)"><path d="M1063,289.716a5.668,5.668,0,0,1,.182-.694l-8.324-1.313a61.291,61.291,0,0,1-27.725-11.882l-8.748-6.7a53.6,53.6,0,0,0-24.243-10.391l-12.569-1.982A5.746,5.746,0,0,1,975,261.54l-3.043,19.31a5.744,5.744,0,0,1,4.786,6.488l12.525,1.975a53.623,53.623,0,0,1,24.323,10.449l8.677,6.671a61.325,61.325,0,0,0,27.814,11.95l8.2,1.291a5.745,5.745,0,0,1,6.571-4.781l2.934-18.6A5.748,5.748,0,0,1,1063,289.716Z" transform="translate(-970.727 -255.527)" fill="#a1dc8e"/><path d="M1059.663,321.393l-9.26-1.46a62.607,62.607,0,0,1-28.3-12.161l-8.677-6.669a52.685,52.685,0,0,0-23.833-10.242l-13.574-2.139.151-1.05a4.688,4.688,0,0,0-3.889-5.273l-1.063-.167,3.379-21.435,1.065.167A4.68,4.68,0,0,0,981,257.077l.167-1.063,13.631,2.149a54.857,54.857,0,0,1,24.732,10.6l8.747,6.7a60.406,60.406,0,0,0,27.24,11.674l9.528,1.5-.387,1.336a2.8,2.8,0,0,0-.1.394l0,.005a4.67,4.67,0,0,0,3.886,5.339l1.063.169-3.265,20.73-1.065-.169a4.674,4.674,0,0,0-5.343,3.889Zm-81.3-34.478,11.561,1.823a54.822,54.822,0,0,1,24.81,10.659l8.677,6.669a60.436,60.436,0,0,0,27.326,11.743l7.215,1.136a6.842,6.842,0,0,1,6.475-4.714h0l2.623-16.642a6.824,6.824,0,0,1-4.674-7.194l-7.2-1.137a62.563,62.563,0,0,1-28.214-12.089l-8.747-6.7a52.691,52.691,0,0,0-23.758-10.182l-11.588-1.826a6.843,6.843,0,0,1-6.475,4.712l-2.735,17.353A6.865,6.865,0,0,1,978.366,286.915Z" transform="translate(-971.215 -256.014)" fill="#150035"/></g><g transform="translate(21.052 12.416)"><rect width="30.959" height="2.151" transform="translate(0 30.578) rotate(-81.006)" fill="#150035"/></g><g transform="translate(26.503 13.275)"><rect width="30.96" height="2.151" transform="translate(0 30.579) rotate(-81.002)" fill="#150035"/></g><g transform="translate(49.944 22.292)"><rect width="30.96" height="2.151" transform="translate(0 30.579) rotate(-81.002)" fill="#150035"/></g><g transform="translate(91.105 42.942)"><rect width="30.96" height="2.151" transform="translate(0 30.579) rotate(-81.006)" fill="#150035"/></g><g transform="translate(81.429 41.417)"><rect width="30.958" height="2.151" transform="translate(0 30.577) rotate(-81.006)" fill="#150035"/></g><g transform="translate(47.137 27.599)"><path d="M994.864,270.292l-.75,4.762a11.372,11.372,0,0,0,4.422,10.879l12.636,9.45a3.884,3.884,0,0,0,6.164-2.507l.755-4.786a11.374,11.374,0,0,0-4.436-10.889l-12.631-9.419A3.886,3.886,0,0,0,994.864,270.292Z" transform="translate(-992.898 -265.931)" fill="#fff"/><path d="M1013.915,297.666a4.937,4.937,0,0,1-2.962-.993l-12.634-9.45a12.423,12.423,0,0,1-4.841-11.911l.75-4.76a4.962,4.962,0,0,1,7.868-3.205l12.629,9.417a12.423,12.423,0,0,1,4.856,11.92l-.755,4.788a4.928,4.928,0,0,1-3.031,3.825A5.018,5.018,0,0,1,1013.915,297.666Zm-17.561-26.78-.752,4.762a10.279,10.279,0,0,0,4.007,9.851l12.634,9.45a2.811,2.811,0,0,0,4.459-1.813l.755-4.788a10.274,10.274,0,0,0-4.018-9.858l-12.629-9.419a2.811,2.811,0,0,0-4.455,1.815Z" transform="translate(-993.324 -266.358)" fill="#150035"/></g><g transform="translate(10.27 5.202)"><path d="M977.535,256.868a2.932,2.932,0,1,1-2.44-3.353A2.931,2.931,0,0,1,977.535,256.868Z" transform="translate(-970.632 -252.404)" fill="#a1dc8e"/><path d="M975.067,260.845a4.053,4.053,0,0,1-.628-.05,4.008,4.008,0,1,1,4.583-3.334h0A4.011,4.011,0,0,1,975.067,260.845Zm-.007-5.864a1.856,1.856,0,0,0-1.828,1.566,1.856,1.856,0,0,0,3.666.579h0A1.859,1.859,0,0,0,975.353,255,1.96,1.96,0,0,0,975.06,254.981Z" transform="translate(-971.057 -252.83)" fill="#150035"/></g><g transform="translate(5.028 38.455)"><path d="M974.369,276.953a2.932,2.932,0,1,1-2.44-3.353A2.933,2.933,0,0,1,974.369,276.953Z" transform="translate(-967.465 -272.488)" fill="#a1dc8e"/><path d="M971.9,280.93a3.85,3.85,0,0,1-.628-.05,4.007,4.007,0,1,1,1.248-7.916,4.007,4.007,0,0,1-.621,7.965Zm-.008-5.863a1.85,1.85,0,1,0,.293.022A1.948,1.948,0,0,0,971.894,275.068Z" transform="translate(-967.891 -272.914)" fill="#150035"/></g><g transform="translate(106.544 40.39)"><path d="M1035.684,278.123a2.931,2.931,0,1,1-2.439-3.353A2.93,2.93,0,0,1,1035.684,278.123Z" transform="translate(-1028.78 -273.656)" fill="#a1dc8e"/><path d="M1033.217,282.1a3.866,3.866,0,0,1-.628-.051,4.006,4.006,0,1,1,4.583-3.333h0A4.014,4.014,0,0,1,1033.217,282.1Zm-.005-5.866a1.86,1.86,0,1,0,1.5.765,1.838,1.838,0,0,0-1.212-.742A1.918,1.918,0,0,0,1033.212,276.235Z" transform="translate(-1029.206 -274.083)" fill="#150035"/></g><g transform="translate(101.26 73.916)"><path d="M1032.493,298.373a2.932,2.932,0,1,1-2.44-3.353A2.933,2.933,0,0,1,1032.493,298.373Z" transform="translate(-1025.589 -293.905)" fill="#a1dc8e"/><path d="M1030.025,302.351a3.865,3.865,0,0,1-.628-.051,4.007,4.007,0,1,1,1.25-7.915,4.011,4.011,0,0,1,3.333,4.583h0A4.013,4.013,0,0,1,1030.025,302.351Zm-.007-5.866a1.858,1.858,0,0,0-1.495,2.95,1.827,1.827,0,0,0,1.208.738,1.856,1.856,0,1,0,.58-3.666A1.963,1.963,0,0,0,1030.018,296.486Z" transform="translate(-1026.015 -294.333)" fill="#150035"/></g><g transform="translate(63.258 38.236)"><rect width="18.146" height="2.151" transform="translate(0 17.923) rotate(-81.006)" fill="#150035"/></g><g transform="translate(57.858 34.125)"><rect width="18.144" height="2.151" transform="translate(0 17.921) rotate(-81.006)" fill="#150035"/></g></g><g transform="translate(84.707 87.34)"><path d="M1047.047,307.673c-14.616,0-30.836-3.079-31.03-3.118l.407-2.114c.227.045,22.831,4.341,38.419,2.719l.224,2.141A78.479,78.479,0,0,1,1047.047,307.673Z" transform="translate(-1016.017 -302.441)" fill="#150035"/></g><g transform="translate(113.374 92.562)"><path d="M1036.436,312.184c-1.81,0-2.955-.111-3.1-.126l.219-2.141c.121.012,11.818,1.123,21.53-4.323l1.051,1.879C1048.857,311.552,1040.759,312.184,1036.436,312.184Z" transform="translate(-1033.332 -305.595)" fill="#150035"/></g></g></g></svg>