<svg xmlns="http://www.w3.org/2000/svg" width="98.006" height="88.957" viewBox="0 0 98.006 88.957"><g transform="translate(-901.976 -161.04)"><g transform="translate(341.946 -151.8)"><path d="M577.639,408.344a.258.258,0,0,0,.427-.113,2.964,2.964,0,0,0-.181-1.751c-.2-.88-.353-1.784-.468-2.677a.219.219,0,0,0-.438,0,9.22,9.22,0,0,0,.048,2.281A4.023,4.023,0,0,0,577.639,408.344Z" transform="translate(-5.065 -27.203)" fill="#00112c"/><path d="M577.831,416.243a4.216,4.216,0,0,0,.344,2.088c.217.482.534,1.253,1.157,1.265a.241.241,0,0,0,.237-.237c.015-.408-.318-.74-.518-1.07a5.383,5.383,0,0,1-.709-2.045A.255.255,0,0,0,577.831,416.243Z" transform="translate(-5.332 -30.922)" fill="#00112c"/><path d="M582.631,428.555c.244.019.307-.282.181-.436-.361-.437-.854-.712-1.186-1.176a5.959,5.959,0,0,1-.723-1.8.147.147,0,0,0-.281,0,2.731,2.731,0,0,0,.286,2.216A2.235,2.235,0,0,0,582.631,428.555Z" transform="translate(-6.139 -33.632)" fill="#00112c"/><path d="M594.16,430.946a6.633,6.633,0,0,0-1.912-.06,9.178,9.178,0,0,1-2.492-.405c-.081-.027-.124.092-.057.134,1.121.707,3.37,1.746,4.565.728A.239.239,0,0,0,594.16,430.946Z" transform="translate(-8.883 -35.262)" fill="#00112c"/><path d="M603.964,431.876c-.091.011-.135.161-.025.179a17.409,17.409,0,0,0,3.267.387c.822-.027,2.242-.092,2.616-.951.067-.155.03-.394-.174-.428-.778-.129-1.641.385-2.442.473C606.12,431.654,605.046,431.731,603.964,431.876Z" transform="translate(-13.142 -35.431)" fill="#00112c"/><path d="M618.989,431.472a18.729,18.729,0,0,0,2.717.193,4.7,4.7,0,0,0,2.44-.183.238.238,0,0,0,0-.408,4.7,4.7,0,0,0-2.44-.183,18.729,18.729,0,0,0-2.717.193A.2.2,0,0,0,618.989,431.472Z" transform="translate(-17.63 -35.365)" fill="#00112c"/><path d="M632.234,431.55a17.423,17.423,0,0,0,2.755.208c.787.031,1.9.275,2.5-.362a.258.258,0,0,0,0-.36c-.538-.571-1.445-.4-2.159-.375a19.479,19.479,0,0,0-3.1.221A.349.349,0,0,0,632.234,431.55Z" transform="translate(-21.568 -35.303)" fill="#00112c"/><path d="M646.518,430.467a7.027,7.027,0,0,0,2.613.1c.658-.109,1.714-.187,2.024-.861a.241.241,0,0,0-.141-.349c-.549-.142-.98.2-1.5.373a6.349,6.349,0,0,1-2.849.216C646.325,429.894,646.166,430.4,646.518,430.467Z" transform="translate(-25.865 -34.915)" fill="#00112c"/><path d="M659.028,430.74l3.115.073a.4.4,0,0,0,0-.8l-3.115.074A.328.328,0,0,0,659.028,430.74Z" transform="translate(-29.579 -35.122)" fill="#00112c"/><path d="M675.487,429.343c-.58.083-1.119.288-1.69.407a13.781,13.781,0,0,1-2.293.188.273.273,0,0,0,0,.546c1.352.05,3.148.265,4.23-.715C675.945,429.577,675.715,429.309,675.487,429.343Z" transform="translate(-33.336 -34.921)" fill="#00112c"/><path d="M684.937,429.233a10.574,10.574,0,0,0,1.693-.514c.373-.164.94-.433.956-.889a.2.2,0,0,0-.2-.2c-.38-.009-.742.378-1.056.576a10.714,10.714,0,0,1-1.518.728C684.634,429.008,684.763,429.276,684.937,429.233Z" transform="translate(-37.378 -34.408)" fill="#00112c"/><path d="M688.874,423a.31.31,0,0,0,.62,0c.089-1,.153-2,.174-3.006.014-.725.205-1.578-.3-2.159a.257.257,0,0,0-.361,0c-.509.581-.318,1.434-.3,2.159C688.722,421.006,688.787,422,688.874,423Z" transform="translate(-38.555 -31.451)" fill="#00112c"/><path d="M566.316,353.995a8.153,8.153,0,0,0-.121,4.453.238.238,0,0,0,.456,0,8.152,8.152,0,0,0-.123-4.453A.111.111,0,0,0,566.316,353.995Z" transform="translate(-1.767 -12.313)" fill="#00112c"/><path d="M569.871,381.7a10.3,10.3,0,0,0-.452-1.978c-.075-.219-.461-.2-.429.058.081.669.13,1.342.2,2.012.034.321.075.639.118.959.06.438.178.417.379.849.07.151.309.072.3-.083a3.966,3.966,0,0,0,.064-.672C569.988,382.467,569.927,382.086,569.871,381.7Z" transform="translate(-2.685 -20.003)" fill="#00112c"/><path d="M573.1,391.074a.324.324,0,0,0-.232-.231c-.022-.116-.041-.23-.058-.346-.014-.088-.134-.054-.143.02a2.062,2.062,0,0,1-.055.359.321.321,0,0,0-.165.286,3.5,3.5,0,0,0,2.711,3.356.275.275,0,0,0,.211-.5A4.866,4.866,0,0,1,573.1,391.074Z" transform="translate(-3.721 -23.262)" fill="#00112c"/><path d="M585.573,396.97a5.908,5.908,0,0,1-2.915-.313c-.1-.055-.17.065-.108.143a2.962,2.962,0,0,0,2.1,1,17.835,17.835,0,0,0,1.9.061,2.848,2.848,0,0,0,1.8-.263.277.277,0,0,0,0-.471C587.636,396.6,586.418,396.941,585.573,396.97Z" transform="translate(-6.743 -25.12)" fill="#00112c"/><path d="M603.43,398.149a5.3,5.3,0,0,0-2.466.321,4.632,4.632,0,0,1-3.187-.105c-.053-.029-.113.043-.066.086a3.2,3.2,0,0,0,2.461.965,7.406,7.406,0,0,0,3.323-.767A.276.276,0,0,0,603.43,398.149Z" transform="translate(-11.29 -25.551)" fill="#00112c"/><path d="M617.541,398a8.361,8.361,0,0,0-3.878.159.184.184,0,0,0,0,.352,8.332,8.332,0,0,0,3.878.158A.349.349,0,0,0,617.541,398Z" transform="translate(-16.037 -25.474)" fill="#00112c"/><path d="M649.161,399.08a9.569,9.569,0,0,0-1.876.32c-.813.153-1.663.156-2.484.249a.31.31,0,0,0,0,.62c1.437.16,3.389.271,4.542-.753A.258.258,0,0,0,649.161,399.08Z" transform="translate(-25.32 -25.851)" fill="#00112c"/><path d="M659.425,398.795a7.459,7.459,0,0,0-2.536.367.073.073,0,0,0,0,.14,7.477,7.477,0,0,0,2.536.366,4.389,4.389,0,0,0,2.3-.185.293.293,0,0,0,0-.5A4.4,4.4,0,0,0,659.425,398.795Z" transform="translate(-29.018 -25.747)" fill="#00112c"/><path d="M675.092,398.913a4.291,4.291,0,0,0-2.055-.229c-.829.013-1.653.055-2.48.109a.419.419,0,0,0,0,.837c.827.055,1.651.1,2.48.11a4.3,4.3,0,0,0,2.055-.229A.349.349,0,0,0,675.092,398.913Z" transform="translate(-33.009 -25.727)" fill="#00112c"/><path d="M686.685,396.421a13.481,13.481,0,0,1-3.663,1.255.237.237,0,0,0,0,.455,4.7,4.7,0,0,0,2.52-.046,1.865,1.865,0,0,0,1.544-1.354A.275.275,0,0,0,686.685,396.421Z" transform="translate(-36.816 -25.042)" fill="#00112c"/><path d="M691.524,386.826A16.1,16.1,0,0,0,691.5,389a14.713,14.713,0,0,1-.51,2.832.147.147,0,0,0,.267.112c.777-1.43,1.482-3.617.7-5.177A.238.238,0,0,0,691.524,386.826Z" transform="translate(-39.254 -22.126)" fill="#00112c"/><path d="M691.678,372.6a3.724,3.724,0,0,0-.241,1.187c.007.6.013,1.205.02,1.807.011,1.1.072,2.194.139,3.294a.292.292,0,0,0,.584,0c.069-1.1.129-2.193.14-3.294q.007-.722.015-1.441a5.221,5.221,0,0,0-.236-1.553A.22.22,0,0,0,691.678,372.6Z" transform="translate(-39.389 -17.867)" fill="#00112c"/><path d="M691.149,360.741a.351.351,0,0,0-.419.054c-.509.6-.141,1.326-.009,2.036.205,1.1.431,2.162.7,3.241a.183.183,0,0,0,.352,0,8.145,8.145,0,0,0,.125-3.055C691.8,362.284,691.89,361.124,691.149,360.741Z" transform="translate(-39.099 -14.345)" fill="#00112c"/><path d="M691.246,354.072c.221.447.859.057.66-.385a12.622,12.622,0,0,1-.717-4.168c-.021-.21-.328-.354-.441-.12a2.2,2.2,0,0,0-.343.742,8.126,8.126,0,0,0,.06,1.527A7.617,7.617,0,0,0,691.246,354.072Z" transform="translate(-39.076 -10.923)" fill="#00112c"/><path d="M627.27,405.447c-.345.321-.882.306-1.234.635-.172.162.083.412.259.258.354-.315.894-.288,1.258-.611C627.746,405.558,627.459,405.269,627.27,405.447Z" transform="translate(-19.768 -27.742)" fill="#00112c"/><path d="M645.917,333.509a.238.238,0,0,0-.475,0l-.071,1.15c-.018.3-.06.635.179.848a.187.187,0,0,0,.258,0c.239-.213.2-.552.179-.848Z" transform="translate(-25.577 -6.127)" fill="#00112c"/><path d="M657.419,335.469a1.479,1.479,0,0,0,.088-.8q-.005-.575-.012-1.15a.219.219,0,0,0-.437,0c0,.336-.006.671-.01,1.007a1.823,1.823,0,0,0,.087.945A.166.166,0,0,0,657.419,335.469Z" transform="translate(-29.076 -6.135)" fill="#00112c"/><path d="M657.145,370.781c1.333-6.107.99-12.332.155-18.548-.464-3.445-1.04-6.877-1.62-10.3-.382-2.258-.619-4.531-.86-6.8a37.317,37.317,0,0,1,.113-4.629c.055-.594-.69-.7-1-.322a.814.814,0,0,0-.811-.571c-7.874,0-15.757-.183-23.636-.18-.206-1.1-.242-2.229-.407-3.326a.393.393,0,0,0-.486-.277,7.165,7.165,0,0,1-2.251.451,15.6,15.6,0,0,0-.8-5.586c-.384-1.594-.678-3.207-1.13-4.783a3.056,3.056,0,0,0-1.936-2.414,12.385,12.385,0,0,0-4.289-.646,71.324,71.324,0,0,0-8.418.64c-.557-.025-1.114-.036-1.667-.031a49.42,49.42,0,0,0-12.242,1.8c-.775.119-1.55.242-2.322.375a8.015,8.015,0,0,0-3.784,1.454c-.163.127-.317.263-.468.4a6.3,6.3,0,0,0-3.2,3.849c-.583,2.339.687,4.549,2.069,6.332a4.462,4.462,0,0,1-1.441.048,1.192,1.192,0,0,0-.457-.062c-.154.043-.258.249-.419.257a.324.324,0,0,0-.319.319,21.837,21.837,0,0,0,.034,3.044q-5.413.151-10.824.236c-4.328.069-8.641.272-12.961.5,0-.02-.006-.04-.009-.06a.037.037,0,0,0-.071,0c0,.022-.007.043-.01.064l-1.376.073a.274.274,0,0,0,0,.547c.333.018.666.031,1,.048a4.641,4.641,0,0,0-.915.368.184.184,0,0,0,0,.314,5.636,5.636,0,0,0,1,.506v.022a99.089,99.089,0,0,0-.161,21.676,54.132,54.132,0,0,0,2.024,12.121,14.66,14.66,0,0,0,.711,1.826,11.362,11.362,0,0,0,1.456,2.538,8.192,8.192,0,0,0,2.052,1.845c-.049.241-.1.482-.137.727h0c-.123-.232-.446-.029-.346.2.083.192.157.387.232.581a46.538,46.538,0,0,0,.319,10.982,102.447,102.447,0,0,0,2.345,13.177,1.237,1.237,0,0,0,1.19.905,45.781,45.781,0,0,0,6-.587c.468-.07.942-.124,1.417-.173,1.187-.068,2.373-.123,3.564-.123l3.621,0a30.134,30.134,0,0,0,10.626,2.142c6.137.269,12.286-.473,18.375-1.134,12.653-1.375,26.274,2.736,38.338-2.585a1.581,1.581,0,0,0,2.416-1.687c-.1-.354-.19-.707-.277-1.061a41.77,41.77,0,0,0-.944-10.212c-.133-.735-.269-1.47-.4-2.205-.085-2.425-.157-4.854-.366-7.27a11.845,11.845,0,0,0,2.1-1.238,1.247,1.247,0,0,0,.871-.777A2.605,2.605,0,0,0,657.145,370.781Zm-40.663,5.311.117-.123q-.006,1.165-.01,2.328l-.145.006-.919.013c-.029-.672-.029-1.349-.028-2.028,0-.729.006-1.5-.059-2.266a2.922,2.922,0,0,0,1.176-.919q-.006,1.211-.013,2.419l-.008.008c-.114.11-.23.221-.345.33C616.1,376.007,616.333,376.245,616.481,376.092Zm-9.2,7.937a5.448,5.448,0,0,1-1.5-3.128,30.171,30.171,0,0,1-.511-4.3c0-.032,0-.066-.006-.1a.564.564,0,0,0,.252-.936c0-.02,0-.037,0-.055l.959.07a2.731,2.731,0,0,0,1.251-.083.165.165,0,0,0,0-.284,2.647,2.647,0,0,0-1.094-.094c-.381,0-.765.044-1.146.08a1.5,1.5,0,0,0-.354-.749c-.047-.71-.106-1.421-.2-2.122.859.13,1.689.4,2.538.563a.1.1,0,0,0,0,.02,25.179,25.179,0,0,1,1.178,6.907c-.268.29-.54.577-.8.873a3.637,3.637,0,0,1-.906.752c-.187.107-.024.371.166.284a4.1,4.1,0,0,0,.959-.655,3.206,3.206,0,0,0,.587-.691q-.008.913-.1,1.827a.345.345,0,0,0,.345.344l.137,0a4.324,4.324,0,0,1-.85,1.432c-.109.121.064.3.18.181a4.653,4.653,0,0,0,1.015-1.6c.7.025,1.41.068,2.121.092a8.456,8.456,0,0,0,.44,1.438c.028.071.155.068.144-.019-.055-.441-.166-.926-.221-1.41a14.593,14.593,0,0,0,3.1-.2c.01.542.076,1.1.092,1.608a.073.073,0,0,0,.146,0c.016-.532.085-1.116.091-1.678.187-.043.373-.09.559-.146a.375.375,0,0,0,.258-.456c-.06-.177-.112-.354-.16-.53.223.459.441.92.646,1.389q0,.807,0,1.614c-1.03.094-2.06.2-3.085.333a22.794,22.794,0,0,1-3.409.148A4.461,4.461,0,0,1,607.284,384.029ZM618.937,326.2q.025,1.278.05,2.555c0,.262.008.534.019.811q-2.583.077-5.165.208c-5.435.279-10.856.746-16.291,1.046a26.918,26.918,0,0,0-.068-3.1.489.489,0,0,0-.489-.489,12.66,12.66,0,0,1-3.03-.148l-.151-.018c.448-1.843.043-4.21,1.477-5.523a5.311,5.311,0,0,1,2.44-.869,33.253,33.253,0,0,1,3.421-.461c1.869-.183,3.743-.291,5.617-.386.039.052.074.106.111.157.1.14.357.064.3-.126-.006-.018-.011-.034-.018-.051l2.043-.1c2.527-.129,5.059-.232,7.591-.216.014.138.031.275.048.41a.146.146,0,0,0,.292,0c.015-.136.025-.272.033-.405.567.007,1.134.018,1.7.039.031.029.064.056.094.085.043.191.087.384.132.576-.12.3-.237.611-.343.922-.039.117.146.2.2.085.085-.174.172-.345.259-.517.41,1.7.876,3.383,1.121,5.11-.339-.006-.679,0-1.019.027A.383.383,0,0,0,618.937,326.2Zm-22.372,4.673c-.436.023-.871.042-1.306.062a4.573,4.573,0,0,1-.536-2.748,13.573,13.573,0,0,0,1.8.057A12.859,12.859,0,0,1,596.565,330.876Zm20.119-12.292c-.854,0-1.708.008-2.562.029a.081.081,0,0,0,0-.021c-.114-.492-.233-.981-.365-1.468.069,0,.139.013.208.018a13.717,13.717,0,0,1,2.643.909C616.634,318.228,616.661,318.406,616.684,318.583Zm-13.277-.823c.711-.019,1.419-.043,2.125-.079a13.1,13.1,0,0,0,.708,1.352c-.919.061-1.838.125-2.756.2A2.853,2.853,0,0,0,603.407,317.76Zm-.532.013a9.31,9.31,0,0,0,.212,1.494c-.6.051-1.194.106-1.789.17-.347-.5-.809-.957-1.186-1.42.854-.093,1.709-.17,2.564-.239Zm-6.355,1.8c-.53-.2-1.067-.375-1.606-.543.127-.078.261-.146.4-.212.265-.064.531-.123.8-.179a3.032,3.032,0,0,0,1.563.774c.088,0,.169-.111.11-.193a2.712,2.712,0,0,0-1.117-.695c.936-.179,1.883-.321,2.833-.437l.122.2a7.534,7.534,0,0,0,.924,1.238l-.211.024a22.383,22.383,0,0,0-3.643.585A.375.375,0,0,0,596.52,319.572Zm-4.365,3c-.032.367-.046.735-.052,1.1,0,.215,0,.43,0,.643a4.759,4.759,0,0,1-.482.127c.141-.636.281-1.27.427-1.9C592.085,322.554,592.119,322.566,592.155,322.574Zm.642-3.026.424-.141a5.568,5.568,0,0,0-.993,2.559l-.039-.009C592.378,321.151,592.577,320.35,592.8,319.548Zm13.31-1.9c1.072-.063,2.141-.153,3.213-.286.029.244.055.484.086.7.02.134.2.081.215-.029a5.319,5.319,0,0,0,.041-.715,23.469,23.469,0,0,1,3.508-.222c.159.5.3,1.017.431,1.529-1.683.053-3.365.146-5.049.254l-1.715.11C606.619,318.532,606.363,318.092,606.107,317.649Zm15.128-.543a4.978,4.978,0,0,1,.422.8,11.038,11.038,0,0,0-.847-.812,3.2,3.2,0,0,0,.076-.433A2.439,2.439,0,0,1,621.235,317.106Zm-.908-.4c-.08-.06-.16-.12-.243-.179.108,0,.211,0,.314.008C620.375,316.588,620.347,316.643,620.327,316.7Zm-2.708,1.9c-.148,0-.3-.008-.447-.01,0-.088-.018-.175-.022-.263C617.308,318.413,617.465,318.506,617.619,318.6Zm-28.171,3.088c.015-.023.034-.041.049-.063a15.9,15.9,0,0,0-.189,2.8c-.032-.006-.062-.014-.095-.021A3.015,3.015,0,0,1,589.448,321.688Zm1.836,4.3c.062-.279.122-.557.184-.836a2.29,2.29,0,0,0,.658-.179c.02.438.048.877.078,1.316a6.5,6.5,0,0,1-1.454.3A.84.84,0,0,0,591.284,325.989Zm1.1.9a.187.187,0,0,0,.2-.083,2.789,2.789,0,0,0,.843-.555.165.165,0,0,0-.16-.274c-.207.053-.414.113-.622.176.023-.536.029-1.074.043-1.613a1.675,1.675,0,0,0,.141-.19.155.155,0,0,0-.127-.238c.02-.489.051-.977.112-1.461a.3.3,0,0,0,.071-.469c.031-.186.069-.368.111-.551a4.044,4.044,0,0,1,1.305-2.164c.676.254,1.359.5,2.033.772l.007,0a5.026,5.026,0,0,0-1.54.821c-1.685,1.373-1.006,4-1.344,5.969a13.122,13.122,0,0,0-1.415-.044C592.161,326.96,592.275,326.928,592.384,326.89Zm27.921-5.485c0-.018-.008-.034-.011-.05.007.013.015.026.022.038Zm.112.184a6.918,6.918,0,0,1,.471,1.247c-.066.02-.127.045-.2.062-.01,0-.017.009-.026.013q-.148-.637-.3-1.27C620.381,321.625,620.4,321.6,620.418,321.589Zm.342,1.555c.065-.011.129-.031.193-.046a8.315,8.315,0,0,1,.207,1.392,1.875,1.875,0,0,0,.035.216c-.049,0-.1.015-.146.019-.1-.529-.208-1.056-.328-1.581A.1.1,0,0,0,620.759,323.143Zm.52,1.865a1.6,1.6,0,0,0,1.106.959c-.386-.048-.771-.09-1.155-.122-.038-.274-.079-.548-.127-.821C621.161,325.021,621.221,325.012,621.28,325.008Zm1.92.993a.375.375,0,0,0,.5-.179,1.318,1.318,0,0,0,.357-.305,3.5,3.5,0,0,0,.774.72c-.641-.048-1.284-.123-1.929-.205A1.809,1.809,0,0,0,623.2,326Zm-32.888.971a3.9,3.9,0,0,0,.441.087c-.154.02-.307.048-.461.078A1.163,1.163,0,0,0,590.312,326.972Zm0,1.059a7.611,7.611,0,0,1,1.1-.1,28.422,28.422,0,0,1,2.9.217,3.464,3.464,0,0,0,.563,2.8l-.481.022c-.41.018-.819.029-1.23.046a4.987,4.987,0,0,0-.05-1.261,1.39,1.39,0,0,0-1.021-1.221.091.091,0,0,0-.069.165c.536.342.571,1.053.576,1.629a4.073,4.073,0,0,1-.1.711l-1.681.062c-.128-.415-.273-.823-.364-1.252A7.839,7.839,0,0,1,590.307,328.031Zm-22.589,44.46c.029.11.062.218.1.324a.244.244,0,0,0-.113.1,7.24,7.24,0,0,1-.583-.465A3.377,3.377,0,0,0,567.718,372.491Zm48.793,9.289.074.055v.119C616.561,381.9,616.535,381.838,616.51,381.78Zm.072-.205-.21-.1a4.306,4.306,0,0,0-.566-.893.084.084,0,0,0-.033-.024,14.226,14.226,0,0,1-.234-1.94l.9.013.144,0Q616.584,380.106,616.582,381.575Zm-1.152-7.642a8.389,8.389,0,0,0-.277-1.555c.246-.026.4-.373.5-.57a1.866,1.866,0,0,0,.253-.816c0-.213-.314-.208-.328,0a1.273,1.273,0,0,1-.174.508.341.341,0,0,0-.372-.2l-.3.05a.348.348,0,0,0-.519.091l-1.048.193c.051-.366.081-.737.142-1.07,1.107.076,2.216.134,3.327.155q-.007,1.063-.014,2.125A2.8,2.8,0,0,1,615.43,373.933Zm-.339-1.985c-.018.024-.036.048-.052.073-.006-.021-.015-.042-.022-.063Zm-9.286-2.375c-.2-.165-.4-.328-.6-.5a.073.073,0,0,0-.1.1c.121.135.249.268.378.4-.316,0-.634.012-.95.025a.146.146,0,0,0,0,.292c.449.022.9.05,1.347.08a11.816,11.816,0,0,1,1.578,1.753c.158.234.541.009.378-.219a7.852,7.852,0,0,0-1.492-1.5c1.215.086,2.431.191,3.645.3a.169.169,0,0,0-.015.069c-.005.4-.012.8-.017,1.194a.181.181,0,0,0,.363,0q-.008-.6-.018-1.194a.16.16,0,0,0-.008-.043c.931.081,1.862.156,2.794.221-.137.358-.25.721-.355,1.091-.007.026-.013.053-.021.078a18.282,18.282,0,0,1-4.442.394c-.142-.009-.174.225-.034.25a13.848,13.848,0,0,0,4.319-.039,2.826,2.826,0,0,0-.069.539.147.147,0,0,0,.272.074,2.2,2.2,0,0,0,.291-.682c.4-.059.8-.121,1.2-.183a21.6,21.6,0,0,1,.5,4.919,16.164,16.164,0,0,0,.534,4.649l-.04.009c0-.031-.007-.062-.012-.092a.11.11,0,0,0-.211,0c-.008.048-.013.1-.02.148a13.726,13.726,0,0,1-3.163.23,2.012,2.012,0,0,1,.268-.917c.067-.113-.081-.209-.172-.132a1.391,1.391,0,0,0-.486,1.041c-.621-.019-1.242-.046-1.856-.057a5.218,5.218,0,0,0,.127-.906c.013-.258-.4-.258-.4,0a4.852,4.852,0,0,1-.049.621,24.047,24.047,0,0,0-1.395-8.623c.132.019.265.037.4.048s.207-.215.073-.271a8.255,8.255,0,0,0-3.43-.549,11.839,11.839,0,0,0-.863-3.147c-.079-.179-.333-.045-.3.126a29.2,29.2,0,0,1,.443,4.909c-.038,0-.076,0-.115,0a135.515,135.515,0,0,1-18.573,1.05,66.956,66.956,0,0,1-10.886-.7c-1.994-.362-4.684-.679-6.088-2.355a.645.645,0,0,0-.409-.874c-.865-.3-1.164-1.213-1.606-1.926a14.74,14.74,0,0,1-1.534-4.09,70.409,70.409,0,0,1-1.676-11.829c-.544-6.386-.365-12.894-1.223-19.25a11.869,11.869,0,0,0,2.16.368,11.66,11.66,0,0,0-.5,2.877.292.292,0,0,0,.583,0,17.158,17.158,0,0,1,.317-2.848c1.821.119,3.723,0,5.221.047,3.917.127,7.831.172,11.746.1q3.073-.056,6.143-.147c-3.071,4.321-7.065,7.9-10.6,11.824-3.106,3.445-6.364,7.68-6.93,12.421-.029.256.359.281.43.058,3.19-9.914,11.761-15.877,17.29-24.31,5.74-.169,11.478-.413,17.216-.65,7.887-.324,15.77-.711,23.664-.872,7.393-.151,14.769.045,22.157.193.052.2.1.4.145.592.168.8.347,1.61.459,2.423.05.374.574.235.608-.083a9.374,9.374,0,0,0,0-2.319c-.025-.187-.046-.387-.071-.591l.55.01a1.3,1.3,0,0,0,.465-.073c-.619,5.717.486,11.673,1.288,17.305-.094,4.183.6,8.374.762,12.55.007.185.014.375.02.568a45.38,45.38,0,0,1-1.039,7.9,24.282,24.282,0,0,1-4,1.565,58.753,58.753,0,0,1-11.885,2.164c-.586.06-1.174.116-1.761.172a42.892,42.892,0,0,0-5.554-.067c-4.172.258-8.318.717-12.492.9-.167-.022-.334-.037-.5-.067a.771.771,0,0,0-.593.124q-.015-2.934-.035-5.867a.361.361,0,0,0-.356-.358C613.25,370.022,609.539,369.547,605.805,369.573Zm22.573-42.838c.12.891.182,1.8.342,2.69q-1.041,0-2.083.01c.01-.243-.02-.5-.023-.728a6.441,6.441,0,0,0-.141-1.363.146.146,0,0,0-.28,0,6.437,6.437,0,0,0-.141,1.363c0,.229-.035.486-.023.73q-3.211.026-6.422.116c.01-.267.016-.536.033-.795.047-.724.039-1.458.046-2.187.354,0,.709.013,1.066.038a.515.515,0,0,0,.193.015c.481.039.962.1,1.443.157a8.5,8.5,0,0,0-.111,1.023c-.02.487-.18,1.141.13,1.558a.222.222,0,0,0,.377,0c.31-.417.153-1.071.131-1.558a8.713,8.713,0,0,0-.1-.968c.4.053.8.1,1.2.148a3.992,3.992,0,0,1,.3,1.168c.036.4-.173.781-.019,1.15a.184.184,0,0,0,.267.108c.654-.451.3-1.621-.029-2.375A9.616,9.616,0,0,0,628.379,326.734ZM589.9,328.1a5.451,5.451,0,0,0,.256,3.036c-.664.025-1.328.045-1.991.064a7.209,7.209,0,0,0,.058-1.19,6.534,6.534,0,0,0-.161-1.6C588.677,328.344,589.287,328.209,589.9,328.1Zm-3.767.41a.891.891,0,0,0,.293-.166,4.608,4.608,0,0,0,1.134.1,6.992,6.992,0,0,1,.085,1.565c-.015.39-.151.81-.185,1.213l-1.5.045A23.784,23.784,0,0,1,586.135,328.507ZM568.382,374.44q.6.312,1.237.569c.046.017.094.034.14.053a14.469,14.469,0,0,0,2.249,1.2c3.4,1.513,7.585,1.742,11.247,2.031a86.327,86.327,0,0,0,12.311-.169,46.988,46.988,0,0,0,8.689-1.062c.011.36.018.72.035,1.078.112,2.265.443,5.272,2.328,6.812a4.3,4.3,0,0,0,2.139.841c-.669,1.623-1.778,3.035-2.366,4.678-.074.206.222.3.333.14a20.552,20.552,0,0,0,2.419-4.767l.029,0a13.676,13.676,0,0,0,3.758,0c1.09-.206,2.21-.284,3.314-.386a12.711,12.711,0,0,0,1.5-.16,4.25,4.25,0,0,0,.455-.139c.032-.011.356-.118.159-.062a.421.421,0,0,0-.111-.823h-.016a.187.187,0,0,0-.049,0c.231-.071-.108-.027-.3-.055a2.762,2.762,0,0,0-.5-.021q0-.937,0-1.874a.8.8,0,0,0,.22.038c.214,0,.206-.309,0-.328a.851.851,0,0,1-.219-.1q0-1.652-.006-3.3a1.424,1.424,0,0,0,.257-.05.129.129,0,0,0,0-.246,1.438,1.438,0,0,0-.257-.05c0-.291,0-.581,0-.871l.029.022c2.26,1.5,5.643,1.652,8.243,1.742a94.545,94.545,0,0,0,13.9-.518,66.322,66.322,0,0,0,10.053-1.766,8.922,8.922,0,0,0-.053,3.862,13.561,13.561,0,0,0,1.042,3.951.037.037,0,0,0,.067-.008,15.183,15.183,0,0,0,.182-3.942c-.115-1.366.043-2.81-.52-4.068q.763-.225,1.512-.487c-.592,6.358-1.242,13.11.171,19.4l-.008,0c-.081.036-.164.067-.244.1a10.006,10.006,0,0,0-2.163.447.4.4,0,0,0-.256.26c-4.993.726-10.086.909-15.106,1.143q-2.906.135-5.812.245a97.542,97.542,0,0,0-13.12,0c-1.541.137-3.1.31-4.685.491q-7.891.132-15.784.144c-2.591,0-5.19-.039-7.79-.051q-.94-.238-1.868-.541a.938.938,0,0,0-.751-.879,12.523,12.523,0,0,0-2.025-.2c-.2-.091-.4-.179-.6-.276a.314.314,0,0,0-.446.28c-2.706.1-5.5.788-8.2,1.087-.174-.437-.359-.972-.537-1.3a22.354,22.354,0,0,1-1.781-3.79q-.51-2.361-.929-4.744a79.108,79.108,0,0,0-1.147-9.526C568.637,377.151,568.521,375.8,568.382,374.44Zm3.6,23.354c.029.056.055.114.082.171l-.041,0C572.007,397.91,571.994,397.852,571.979,397.794Z" fill="#00112c"/><path d="M576.029,350.849c.165-.337-.333-.632-.5-.295-1.267,2.493-2.54,4.984-3.863,7.446-.895,1.669-2.077,3.332-3.03,5.051-.13-.669-.261-1.327-.452-2a.055.055,0,0,0-.106,0,8.292,8.292,0,0,0-.128,3.349c-.179.394-.341.788-.478,1.188a.221.221,0,0,0,.366.213c.127-.129.244-.272.365-.409a4.932,4.932,0,0,0,.331.786.257.257,0,0,0,.466-.061,4.42,4.42,0,0,0-.075-1.641,49.688,49.688,0,0,0,2.982-5.449C573.338,356.336,574.68,353.59,576.029,350.849Z" transform="translate(-2.226 -11.26)" fill="#00112c"/><path d="M603.609,344.619c.139-.189-.177-.368-.314-.183-4.56,6.081-9.88,11.512-15.062,17.052-4.958,5.3-10.093,10.8-13.625,17.19a.219.219,0,0,0,.378.221,175.624,175.624,0,0,1,14.56-18.008A195.5,195.5,0,0,0,603.609,344.619Z" transform="translate(-4.36 -9.448)" fill="#00112c"/><path d="M613.438,350.844c.041-.024,0-.085-.037-.064-5.99,3.128-10.916,8.018-15.139,13.219a102.134,102.134,0,0,0-6.122,8.475,57.416,57.416,0,0,0-5.073,8.752.218.218,0,0,0,.377.22c1.726-2.64,3.155-5.483,4.856-8.147a103.5,103.5,0,0,1,6.374-8.888C602.84,359.2,607.574,354.143,613.438,350.844Z" transform="translate(-8.098 -11.371)" fill="#00112c"/><path d="M632,345.441c-1.959,5.482-5.46,10.287-9.088,14.776-1.812,2.242-3.726,4.4-5.662,6.535a65.063,65.063,0,0,0-5.334,5.989c-.177.253.193.482.4.309a55.909,55.909,0,0,0,5.835-6.313c1.915-2.2,3.789-4.434,5.561-6.748,3.4-4.438,6.638-9.165,8.427-14.508C632.174,345.39,632.034,345.353,632,345.441Z" transform="translate(-15.54 -9.757)" fill="#00112c"/><path d="M647.143,350.837c.081-.167-.162-.315-.251-.147-1.709,3.238-3.531,6.411-5.356,9.584-1.683,2.926-3.667,5.888-4.732,9.11-.1.29.308.419.467.2a79.406,79.406,0,0,0,4.879-8.948C643.855,357.389,645.556,354.143,647.143,350.837Z" transform="translate(-23.009 -11.324)" fill="#00112c"/><path d="M650.587,373.159c2.307-2.258,4.085-5.166,6.014-7.746,2.3-3.078,4.513-6.226,6.914-9.228.055-.071-.039-.173-.1-.1a99.185,99.185,0,0,0-6.615,7.724c-2.23,2.918-4.836,5.817-6.667,9A.293.293,0,0,0,650.587,373.159Z" transform="translate(-26.995 -12.955)" fill="#00112c"/><path d="M661.251,378.852c6.635-7.832,10.956-18,19.144-24.46.019-.014,0-.043-.025-.032-4.364,2.583-7.453,6.4-10.457,10.43-3.283,4.4-6.077,9.149-9.063,13.754C660.693,378.784,661.064,379.074,661.251,378.852Z" transform="translate(-30.21 -12.445)" fill="#00112c"/><path d="M674.6,385.379c3.553-3.634,7.485-8.165,8.681-13.224a.146.146,0,0,0-.282-.077c-1.661,5.211-6.329,8.313-8.8,12.991A.256.256,0,0,0,674.6,385.379Z" transform="translate(-34.212 -17.726)" fill="#00112c"/><path d="M587.442,420.1c2.136-2.84,4.043-5.893,6.135-8.776.073-.1-.094-.231-.172-.134-2.154,2.756-4.807,5.528-6.339,8.689A.218.218,0,0,0,587.442,420.1Z" transform="translate(-8.095 -29.471)" fill="#00112c"/><path d="M601.6,418.39c2.755-1.961,4.5-5.663,5.169-8.906.094-.457-.593-.653-.7-.194-.838,3.505-2.979,5.764-4.916,8.652C600.976,418.209,601.335,418.582,601.6,418.39Z" transform="translate(-12.312 -28.833)" fill="#00112c"/><path d="M614.145,420.732c.835-1.364,1.374-2.924,2.1-4.353.87-1.714,1.835-3.379,2.787-5.047a.146.146,0,0,0-.251-.147c-1.789,2.841-4.317,6.044-5.1,9.35A.257.257,0,0,0,614.145,420.732Z" transform="translate(-16.078 -29.458)" fill="#00112c"/><path d="M648.846,419.161a28.184,28.184,0,0,1,6.1-8.7.109.109,0,0,0-.154-.154,28.518,28.518,0,0,0-6.342,8.688A.218.218,0,1,0,648.846,419.161Z" transform="translate(-26.495 -29.206)" fill="#00112c"/><path d="M668.352,420.714c2.854-2.347,4.167-6.42,7.953-7.6.038-.011.033-.076-.01-.071-3.961.426-6.1,4.545-8.287,7.4C667.847,420.659,668.176,420.857,668.352,420.714Z" transform="translate(-32.353 -30.037)" fill="#00112c"/><path d="M681.724,418.6a9.086,9.086,0,0,1,1.132-3.719c.02-.041-.041-.079-.063-.036a9.3,9.3,0,0,0-1.36,3.755C681.422,418.786,681.724,418.788,681.724,418.6Z" transform="translate(-36.39 -30.57)" fill="#00112c"/></g></g></svg>