<svg xmlns="http://www.w3.org/2000/svg" width="139.141" height="334.603" viewBox="0 0 139.141 334.603"><g transform="translate(-8.182 -4.661)"><g transform="translate(8.182 64.779)"><path d="M41.136,208.863c-4.434-12.285-9.6-24.28-14.539-36.42-4.725-11.486-9.959-22.972-12.576-35.184A57.384,57.384,0,0,1,12.64,119.3a48.734,48.734,0,0,1,5.016-17.083c2.617-5.379,5.743-10.541,8.8-15.7l9.959-17.011L56.184,35.849c3.344-5.67,6.688-11.34,9.959-17.011,1.6-2.762,2.981-5.888,4.87-8.433,1.672-2.181,3.344-.073,4.289,1.672,1.236,2.4,1.381,5.307,1.527,8a57.091,57.091,0,0,1-.218,8.651,54.5,54.5,0,0,1-5.089,17.083c-4.943,9.886-12.14,18.537-14.1,29.8C55.529,86.3,57.129,98,51.895,107.89c-1.236,2.254-2.69,4.507-3.126,7.124a11.505,11.505,0,0,0,1.454,7.56c2.98,5.6,6.615,10.832,9.886,16.284L65.125,147a1.778,1.778,0,0,0,3.053-1.817L57.638,127.954c-1.6-2.69-3.707-5.452-4.871-8.36s-.218-5.452,1.236-8.069A44.07,44.07,0,0,0,59.164,95.6c.727-5.743.727-11.486,1.527-17.229a46.636,46.636,0,0,1,5.6-16.284c2.835-5.016,6.106-9.814,8.651-15.048a55.873,55.873,0,0,0,5.089-17.083,48.838,48.838,0,0,0,.436-9.232,27.434,27.434,0,0,0-1.09-8.433c-1.309-3.926-5.234-8.8-9.668-5.961-2.4,1.527-3.707,4.725-5.089,7.051-1.745,2.98-3.562,5.961-5.307,8.941L38.592,57.512C31.831,69.071,24.925,80.629,18.237,92.261a83.954,83.954,0,0,0-7.778,16.574,50.155,50.155,0,0,0-2.181,18.246c.8,12.722,5.307,24.789,10.1,36.42,5.089,12.649,10.4,25.225,15.629,37.8,1.309,2.98,2.544,5.961,3.926,8.941.8,1.817,3.926.509,3.2-1.381Z" transform="translate(-8.182 -5.488)" fill="#00112c"/></g><g transform="translate(73.76 109.234)"><path d="M9.463,105.992c3.344,1.89,7.2,1.163,10.25-.945,3.562-2.617,5.379-6.833,6.252-11.05.945-4.652,1.236-9.523,1.817-14.248.582-4.871,1.236-9.668,1.89-14.539a168.952,168.952,0,0,1,5.888-27.551,86.66,86.66,0,0,1,5.307-13.23c1.963-4.071,4.216-8.578,7.342-11.995,1.454-1.527,3.344-2.908,5.6-2.617a7.793,7.793,0,0,1,5.161,3.126c3.417,4.144,2.617,9.814,1.454,14.684-1.236,5.307-2.69,10.541-3.635,15.993-.8,5.161-1.454,10.323-1.745,15.484-1.163,21.445,4.289,42.817-.145,64.117a93.17,93.17,0,0,1-10.759,28.133A100.792,100.792,0,0,1,35.343,164c-1.6,1.89-3.2,3.707-4.943,5.452-1.89,1.89-4,3.562-5.743,5.525-1.454,1.527.436,4.362,2.326,3.053a5.484,5.484,0,0,0,2.326-6.615c-.436-1.163-2.4-1.163-2.254.291a2.585,2.585,0,0,1-1.527,2.762l1.454,3.562c3.78-2.617,7.124-6.4,10.1-9.886a100.544,100.544,0,0,0,8.433-11.413,97.72,97.72,0,0,0,11.34-25.3,94.555,94.555,0,0,0,3.707-28.86c-.145-11.558-1.89-22.972-2.035-34.53a135.661,135.661,0,0,1,3.925-34.239c1.309-5.161,2.98-10.323,2.4-15.7A14.38,14.38,0,0,0,58.024,7.418c-9.378-5.161-15.847,6.034-19.482,12.94a109.031,109.031,0,0,0-9.6,27.188c-2.472,10.832-3.707,21.808-4.8,32.785-.582,5.6-.654,11.558-2.4,16.865-1.527,4.725-6.324,9.3-11.631,7.27-.872-.364-1.454,1.018-.654,1.527Z" transform="translate(-9.084 -6.1)" fill="#00112c"/></g><g transform="translate(64.527 4.661)"><path d="M14.207,62.209C9.7,45.926,14.5,26.662,28.165,16.121,41.323,6.016,61.459,5.144,74.4,16.048c12.94,10.977,16.72,29.732,11.413,45.434A54.983,54.983,0,0,1,71.564,83.218a65.3,65.3,0,0,1-10.4,8.069c-3.562,2.181-7.488,4.216-10.1,7.56-3.053,3.707-3.417,8.142-3.78,12.794-.218,2.254-.436,4.8-1.963,6.615s-4,2.617-6.179,3.344C34.416,123.273,27.8,125.745,23,122.91c-2.69-1.672-5.307-6.106-2.98-9.014,1.6-2.035-1.018-4.943-2.981-2.908-2.98,2.98-2.835,7.342-.872,10.9,2.254,4.144,6.4,6.252,11.05,6.47,5.452.291,11.2-1.817,16.066-3.926a12.617,12.617,0,0,0,7.778-10.468c.654-4.58.291-9.3,3.635-12.94,3.2-3.489,7.633-5.525,11.486-8.142a62.954,62.954,0,0,0,19.264-21.3c9.087-16.5,8.651-37.365-3.271-52.486C70.328,4.053,49.1.782,32.308,9.215,15.3,17.72,6.5,37.929,9.555,56.394a41.756,41.756,0,0,0,1.6,6.615,1.579,1.579,0,0,0,3.053-.8Z" transform="translate(-8.957 -4.661)" fill="#00112c"/></g><g transform="translate(65.461 115.956)"><path d="M15.249,10.238a4.214,4.214,0,0,0-1.672-3.562,1.378,1.378,0,0,0-2.254.654c-.8,3.053-.8,6.4-1.09,9.523l-.945,9.523c-.218,2.4-.8,5.161.509,7.27,1.454,2.254,4.289,2.326,6.688,2.472a90.136,90.136,0,0,0,18.246-.509c5.161-.727,9.014-3.417,10.177-8.723a55.13,55.13,0,0,0,.945-9.16c.218-3.489.945-7.2,0-10.686-.291-1.236-1.89-1.018-2.326,0C42.291,10.165,42.51,13.727,42.291,17a69.408,69.408,0,0,1-.582,8.723c-.582,3.053-2.108,5.161-5.089,6.106-2.908.945-6.179.945-9.16,1.09a91.025,91.025,0,0,1-9.959,0c-1.163-.073-3.635.218-4.58-.582-1.09-.8-.727-2.617-.654-3.78.291-3.489.582-6.906.872-10.323.363-3.417,1.018-7.124.8-10.613L12.269,8.929a8.053,8.053,0,0,1,2.326,1.527c.218.291.582.073.654-.218Z" transform="translate(-8.97 -6.192)" fill="#00112c"/></g><g transform="translate(71.002 109.199)"><path d="M12.4,8.178C13.564,6.434,10.22,5.2,9.348,6.942c-1.817,3.417,5.089,4.725,6.906,5.161a46.034,46.034,0,0,0,25.661-1.018c1.963-.727,1.09-3.853-.872-3.2a43.727,43.727,0,0,1-15.266,2.544,41.352,41.352,0,0,1-7.851-.945,28.317,28.317,0,0,1-3.344-.872L10.947,7.306a.848.848,0,0,0,1.454.872Z" transform="translate(-9.046 -6.099)" fill="#00112c"/></g><g transform="translate(71.731 118.25)"><path d="M12.046,7.9a1.017,1.017,0,0,0-1.163-1.09c-1.018.073-1.163.8-1.672,1.454A1.218,1.218,0,0,0,9.429,9.72c1.309,1.236,3.053,1.09,4.8,1.09,2.69-.073,5.379-.145,8.069-.291,2.617-.218,5.161-.363,7.706-.582,2.544-.291,5.307-.291,7.778-1.018a1.381,1.381,0,0,0-.363-2.69A51.214,51.214,0,0,0,30,6.958c-2.4.218-4.871.436-7.342.654-2.326.218-4.725.364-7.051.509a18.759,18.759,0,0,1-3.489.218,3.7,3.7,0,0,1-1.236-.509l-.291-.073c-.654-.145-.436-.073.509.218.073.582.945.436.945-.073Z" transform="translate(-9.056 -6.224)" fill="#00112c"/></g><g transform="translate(70.526 114.011)"><path d="M9.891,10.121c4.652-.291,9.3-.945,13.957-1.09,2.254-.073,4.434-.073,6.688,0,2.181,0,4.725.218,6.833-.363a.776.776,0,0,0,.218-1.381,16.039,16.039,0,0,0-6.4-1.09c-2.4-.073-4.871,0-7.342.073A66.687,66.687,0,0,0,9.673,8.3c-.945.218-.8,1.89.218,1.817Z" transform="translate(-9.039 -6.166)" fill="#00112c"/></g><g transform="translate(71.524 114.464)"><path d="M9.56,9.02c3.78,2.254,8.8,2.981,13.158,2.762a26.778,26.778,0,0,0,6.833-1.018c1.963-.582,4.362-1.381,5.816-2.908.727-.727-.073-1.817-1.018-1.672-1.89.363-3.707,1.381-5.525,1.89a31.829,31.829,0,0,1-6.4,1.09c-4.289.218-8.069-.872-12.14-2.035A1.027,1.027,0,0,0,9.56,9.02Z" transform="translate(-9.053 -6.172)" fill="#00112c"/></g><g transform="translate(67.812 114.249)"><path d="M11.913,14.03c3.417.945,6.106-3.635,4.216-6.4-2.544-3.562-7.27.073-7.124,3.489a3.462,3.462,0,0,0,1.018,2.472c.872.872,2.181.8,3.271.945a72,72,0,0,0,10.468.364,86.378,86.378,0,0,0,9.6-1.163c3.271-.582,6.833-1.236,9.741-2.908a1.311,1.311,0,0,0-1.018-2.4c-3.853.654-7.56,2.108-11.486,2.762a60.887,60.887,0,0,1-12.067.8,48.231,48.231,0,0,1-5.6-.364c-.8-.073-1.163,0-1.236-.8a2.583,2.583,0,0,1,.582-1.454c.8-.945,2.035-.8,2.108.582.073,1.163-.582,2.762-2.035,2.472-1.018-.145-1.454,1.308-.436,1.6Z" transform="translate(-9.002 -6.169)" fill="#00112c"/></g><g transform="translate(70.893 120.422)"><path d="M10.764,9.323l-1.09.436c-.727.291-.945,1.527,0,1.745a13.57,13.57,0,0,0,1.6.509l1.963.218c1.163.145,2.4.145,3.635.218a66.122,66.122,0,0,0,7.56-.218,54.63,54.63,0,0,0,6.906-1.09,32.578,32.578,0,0,0,7.342-2.108c1.527-.872.363-2.98-1.163-2.762-2.254.436-4.434,1.381-6.688,1.89a57.359,57.359,0,0,1-7.051,1.308c-2.181.218-4.434.364-6.615.364-1.236,0-2.4,0-3.635-.073-1.163-.073-2.4,0-3.562-.073l.436,1.745,1.018-.582c.8-.436.218-1.89-.654-1.527Z" transform="translate(-9.044 -6.254)" fill="#00112c"/></g><g transform="translate(87.034 70.86)"><path d="M16.508,8.116c-.872,7.051-1.745,14.03-2.69,21.009-.436,3.417-.872,6.833-1.381,10.25l-.727,5.452-.436,2.835-.218,1.381c-.218.872-.073.945.509.073l1.963.291.509.436V52.46c1.09-.872.872-2.762,0-3.707a2.778,2.778,0,0,0-3.707,0,3.083,3.083,0,0,0,.654,5.089,3.685,3.685,0,0,0,4.871-2.035,32.75,32.75,0,0,0,.582-3.853l.509-3.78,1.018-7.2c1.309-9.6,2.472-19.191,3.707-28.86a2.581,2.581,0,0,0-5.161,0Z" transform="translate(-9.266 -5.572)" fill="#00112c"/></g><g transform="translate(81.329 69.572)"><path d="M14.356,48.86A308.614,308.614,0,0,1,19.008,8.8c.654-3.271-4.362-4.652-4.943-1.381A317.346,317.346,0,0,0,9.195,48.86c-.218,3.344,4.943,3.344,5.161,0Z" transform="translate(-9.188 -5.554)" fill="#00112c"/></g><g transform="translate(132.684 53.762)"><path d="M10.451,7.241v.073l.291-.654-.509,1.018L9.942,8.7a1.667,1.667,0,0,0,.073,1.018,2.445,2.445,0,0,0,1.163,1.527,3.052,3.052,0,0,0,1.963.291,2.765,2.765,0,0,0,1.6-1.236l.727-1.672a1.62,1.62,0,0,0,0-1.018l-.291-1.018A2.5,2.5,0,0,0,13.65,5.424a2.35,2.35,0,0,0-1.963.291l-.509.364a2.845,2.845,0,0,0-.727,1.163Z" transform="translate(-9.894 -5.337)" fill="#00112c"/></g><g transform="translate(134.098 49.345)"><path d="M10.437,7.164,10,8.981a2.557,2.557,0,1,0,4.943,1.308l.436-1.745a2.649,2.649,0,0,0-.291-1.963,2.371,2.371,0,0,0-1.527-1.236,2.649,2.649,0,0,0-1.963.291,2.22,2.22,0,0,0-1.163,1.527Z" transform="translate(-9.914 -5.276)" fill="#00112c"/></g><g transform="translate(56.305 148.256)"><path d="M22.607,6.879c-.654.8-1.527,1.381-2.181,2.181-.654.945-1.236,1.89-1.817,2.835-1.236,1.89-2.4,3.853-3.489,5.816A53.128,53.128,0,0,0,9.958,29.923a34.6,34.6,0,0,0-.945,11.922c.363,3.562,1.236,8.287,4.289,10.613.8.582,1.6-.436,1.527-1.163a32.671,32.671,0,0,0-1.817-5.089,28.589,28.589,0,0,1-1.09-5.525A33.94,33.94,0,0,1,13.084,29.56a54.732,54.732,0,0,1,4.652-11.05c1.018-1.817,2.036-3.562,3.126-5.307.509-.872,1.163-1.745,1.672-2.69.509-.872.727-1.89,1.163-2.762.363-.727-.582-1.527-1.09-.872Z" transform="translate(-8.844 -6.637)" fill="#00112c"/></g><g transform="translate(63.805 146.591)"><path d="M28.586,9.684a1,1,0,0,0,1.527-.145c.654-.8.291-1.527-.073-2.253a1.318,1.318,0,0,0-1.454-.654c-2.544.654-2.762,3.271-4,5.234-1.6,2.69-3.2,5.379-4.725,8.142a139.541,139.541,0,0,0-8,15.775c-2.108,4.871-3.489,10.177-2.69,15.557.654,4.289,2.835,9.523,7.27,11.05a.922.922,0,0,0,1.018-1.381c-2.617-3.489-4.943-6.615-5.307-11.2C11.721,44.8,13.466,39.78,15.5,35.2c2.254-4.871,4.725-9.6,7.342-14.248,1.236-2.254,2.544-4.507,3.853-6.688a25.8,25.8,0,0,0,1.672-3.126,5.28,5.28,0,0,1,.654-1.6c.363-.436.727-.582,1.163-1.018l-.8.145L29.1,9.03c-.363-.291-.872.363-.509.654Z" transform="translate(-8.947 -6.614)" fill="#00112c"/></g><g transform="translate(71.808 203.578)"><path d="M9.571,9.237l1.745.945.8.436a1.426,1.426,0,0,0,1.09-.073.734.734,0,0,0,.509-.945l-.364-.727-.945-.509-1.817-.872C9.425,6.984,8.407,8.656,9.571,9.237Z" transform="translate(-9.057 -7.398)" fill="#00112c"/></g><g transform="translate(85.334 66.553)"><path d="M9.243,5.894l.073.872.145.727h.363l.218-.727V5.894c.073-.509-.8-.509-.8,0Z" transform="translate(-9.243 -5.513)" fill="#00112c"/></g><g transform="translate(80.823 47.544)"><path d="M13.983,24.642c-.073,1.6.145,3.489-.727,4.871l1.6.654c.727-1.963,0-4.507-.218-6.543-.218-2.108-.509-4.289-.8-6.4l-.945-6.688c-.218-1.745,0-4.216-1.89-5.161a.689.689,0,0,0-.945.145C8.6,6.9,9.331,9.013,9.621,10.758l.945,6.615c.363,2.253.654,4.434,1.018,6.688.363,2.035.436,4.652,1.672,6.324.654.945,2.108.073,1.527-.872-.872-1.454-.582-3.344-.582-4.871Z" transform="translate(-9.181 -5.251)" fill="#00112c"/></g><g transform="translate(95.184 49.846)"><path d="M11.087,31.531c1.89-4.071,3.853-8.069,5.743-12.213,1.745-3.926,3.78-8,5.161-12.14a1.559,1.559,0,0,0-2.835-1.163A119.576,119.576,0,0,0,14.14,18.228c-1.672,4.144-3.2,8.433-4.725,12.649-.291.945,1.236,1.6,1.672.654Z" transform="translate(-9.378 -5.283)" fill="#00112c"/></g><g transform="translate(79.948 30.223)"><path d="M16.3,25.514a2.5,2.5,0,0,1-3.708-.582c-1.09-1.381-.945-3.417-.8-5.089a7.063,7.063,0,0,1,1.09-4c.364-.582.8-.945,1.454-.654l.654.945,1.018-.145c-2.98-.509-4.58-4.652-2.69-7.051,2.4-3.053,7.851.145,7.27,3.635l1.89-.8a2.309,2.309,0,0,1-.363-2.98,2.679,2.679,0,0,1,3.707-.8c3.562,1.672,2.981,6.179,1.745,9.232-.582,1.527,1.817,2.108,2.472.654a20.567,20.567,0,0,1,7.706-9.16l-1.89-.727a20.219,20.219,0,0,1-2.326,15.048c-.727,1.308,1.09,2.835,2.108,1.6a14.26,14.26,0,0,1,6.906-4.725L40.871,18.68c.145,3.2-1.163,5.307-2.544,8-.436.8.436,1.963,1.309,1.381,2.908-2.035,4-5.961,3.853-9.378a1.261,1.261,0,0,0-1.6-1.236,15.971,15.971,0,0,0-8.142,5.379l2.108,1.6A22.843,22.843,0,0,0,38.327,7.267a1.25,1.25,0,0,0-1.89-.727,22.764,22.764,0,0,0-8.723,10.323l2.326,1.018c1.09-2.835,1.6-6.179.218-8.941A7.21,7.21,0,0,0,24.3,5.014c-4.652-.073-7.124,6.324-3.126,9.014a1.284,1.284,0,0,0,1.89-.8,7.222,7.222,0,0,0-8.142-8c-4.58.654-5.961,5.888-4.216,9.668a6.558,6.558,0,0,0,4.434,3.635c2.108.364,3.053-2.035,2.253-3.707a3.849,3.849,0,0,0-4.725-2.181c-2.326.945-3.126,3.707-3.344,5.961-.291,2.762-.436,6.761,2.181,8.578,1.817,1.163,4.725,1.163,5.67-1.018a.547.547,0,0,0-.872-.654Z" transform="translate(-9.169 -5.013)" fill="#00112c"/></g><g transform="translate(51.717 4.827)"><path d="M70.022,6.653a22.534,22.534,0,0,0-5.307-1.672,30.429,30.429,0,0,0-5.743-.291A40.443,40.443,0,0,0,48.359,6.8,58.99,58.99,0,0,0,28.731,18.865C17.536,28.97,7.65,43.654,8.885,59.429c.654,7.633,3.78,15.629,9.959,20.427,1.236.945,2.762-1.09,1.672-2.108C-2.746,55.5,23.352,20.465,46.105,10.142A39.025,39.025,0,0,1,57.882,6.8,36.484,36.484,0,0,1,69.8,7.38a.38.38,0,0,0,.218-.727Z" transform="translate(-8.781 -4.664)" fill="#00112c"/></g><g transform="translate(60.797 57.767)"><path d="M10.107,20.884a92.073,92.073,0,0,0,7.124-6.979c2.181-2.254,4.652-4.434,6.47-7.051.654-1.018-.8-1.89-1.6-1.236-2.617,2.035-4.725,4.8-6.906,7.2a83.709,83.709,0,0,0-6.179,7.269c-.436.654.509,1.236,1.09.8Z" transform="translate(-8.905 -5.392)" fill="#00112c"/></g><g transform="translate(57.273 50.757)"><path d="M10.821,22.2c2.908-2.4,5.743-4.943,8.433-7.633,1.309-1.308,2.544-2.617,3.78-4,.509-.582,1.018-1.163,1.454-1.745A8.908,8.908,0,0,0,25.651,6.28c.291-.654-.582-1.236-1.163-.872A9.631,9.631,0,0,0,22.67,6.571a27.959,27.959,0,0,0-1.963,2.181c-1.163,1.381-2.4,2.69-3.708,4.071-2.472,2.69-5.089,5.234-7.778,7.706-1.09,1.018.509,2.617,1.6,1.672Z" transform="translate(-8.857 -5.295)" fill="#00112c"/></g><g transform="translate(53.619 45.882)"><path d="M10.209,21.41c3.053-2.762,6.179-5.234,9.45-7.706,1.454-1.09,2.98-2.181,4.434-3.271a19.991,19.991,0,0,0,4.652-3.489A1,1,0,0,0,27.8,5.272c-1.89.509-3.417,1.817-5.016,2.98-1.527,1.09-3.126,2.326-4.652,3.562a109.52,109.52,0,0,0-9.087,8.36.851.851,0,0,0,1.163,1.236Z" transform="translate(-8.807 -5.228)" fill="#00112c"/></g><g transform="translate(58.652 39.649)"><path d="M10.624,16l6.034-4.434c1.817-1.309,4.144-2.69,5.525-4.434.582-.8.145-2.4-1.09-1.89-2.108.872-3.925,2.617-5.743,4.071L9.243,14.182c-1.018.872.291,2.617,1.381,1.817Z" transform="translate(-8.876 -5.143)" fill="#00112c"/></g><g transform="translate(58.706 33.246)"><path d="M10.716,13.881c4.362-2.326,9.014-4.434,12.867-7.56.582-.436-.073-1.454-.727-1.236C18.131,6.611,13.842,9.374,9.48,11.845c-1.381.727-.145,2.762,1.236,2.035Z" transform="translate(-8.877 -5.055)" fill="#00112c"/></g><g transform="translate(64.652 30.282)"><path d="M10.522,8.154l2.762-1.6c.945-.582.073-1.89-.872-1.454L9.5,6.337c-1.236.509-.145,2.472,1.018,1.817Z" transform="translate(-8.958 -5.014)" fill="#00112c"/></g><g transform="translate(74.921 23.099)"><path d="M9.918,6.514a.8.8,0,0,0,0-1.6.8.8,0,1,0,0,1.6Z" transform="translate(-9.1 -4.915)" fill="#00112c"/></g><g transform="translate(76.957 14.285)"><path d="M10.018,23.2c2.4-6.034,7.488-10.4,13.3-13.23a26.49,26.49,0,0,1,8.8-2.472,24.109,24.109,0,0,1,4.58-.073c1.454.145,3.053.727,4.507.436a.981.981,0,0,0,.436-1.672c-1.163-1.018-2.98-1.09-4.434-1.236a21.6,21.6,0,0,0-5.307,0,28.889,28.889,0,0,0-9.814,2.908A26.836,26.836,0,0,0,9.145,22.986a.45.45,0,1,0,.872.218Z" transform="translate(-9.128 -4.794)" fill="#00112c"/></g><g transform="translate(116.192 16.808)"><path d="M11.159,7.486a2.484,2.484,0,0,1,2.035,0c.727.291,1.09,1.018,1.89,1.018.436.073.727-.291.945-.654.436-1.163-1.236-2.326-2.108-2.762a5.029,5.029,0,0,0-3.707.218c-1.163.509-.291,2.69.945,2.181Z" transform="translate(-9.667 -4.828)" fill="#00112c"/></g><g transform="translate(132.441 40.474)"><path d="M10.545,6.463a.655.655,0,0,0,0-1.309.655.655,0,0,0,0,1.309Z" transform="translate(-9.891 -5.154)" fill="#00112c"/></g><g transform="translate(76.343 99.42)"><path d="M9.46,6.483a38.144,38.144,0,0,0-.218,8.142c.145,2.035.291,5.089,1.745,6.615a.711.711,0,0,0,1.236-.291,7.355,7.355,0,0,0-.364-3.053c-.291-1.163-.509-2.326-.727-3.489a36.549,36.549,0,0,1-.727-7.924c.073-.727-.872-.654-.945,0Z" transform="translate(-9.119 -5.965)" fill="#00112c"/></g><g transform="translate(75.466 112.587)"><path d="M9.38,6.582a.218.218,0,0,0,0-.436c-.363,0-.363.436,0,.436Z" transform="translate(-9.107 -6.146)" fill="#00112c"/></g><g transform="translate(76.678 143.602)"><path d="M9.857,26.226c3.126-2.981,5.961-6.179,8.8-9.378,1.381-1.6,2.69-3.2,4-4.8,1.163-1.381,2.835-2.835,3.126-4.725A.6.6,0,0,0,25.05,6.6c-1.745.654-2.835,2.4-4,3.78-1.381,1.745-2.835,3.417-4.216,5.161-2.69,3.344-5.307,6.615-7.633,10.177a.415.415,0,0,0,.654.509Z" transform="translate(-9.124 -6.573)" fill="#00112c"/></g><g transform="translate(69.09 152.453)"><path d="M10.216,33.344c3.853-4.652,7.924-9.087,12.14-13.376,2.108-2.108,4.216-4.144,6.4-6.179,2.181-1.963,4.58-3.635,6.106-6.179.291-.436-.145-1.09-.654-.872-2.762,1.018-4.8,3.126-6.979,5.089-2.254,2.108-4.434,4.289-6.543,6.47A128.463,128.463,0,0,0,9.126,32.544c-.436.654.582,1.454,1.09.8Z" transform="translate(-9.02 -6.694)" fill="#00112c"/></g><g transform="translate(64.901 159.136)"><path d="M10.35,41.074q6.87-9.051,14.612-17.447c2.472-2.617,5.089-5.234,7.706-7.706,1.381-1.309,2.835-2.617,4.216-3.853a21.1,21.1,0,0,0,3.853-3.78c.364-.654-.291-1.745-1.09-1.454a16.224,16.224,0,0,0-4,3.053c-1.454,1.236-2.835,2.617-4.216,3.925-2.835,2.762-5.6,5.6-8.215,8.505a160.392,160.392,0,0,0-14.1,18.028c-.582.8.654,1.454,1.236.727Z" transform="translate(-8.962 -6.786)" fill="#00112c"/></g><g transform="translate(66.12 167.766)"><path d="M10.31,41A208.462,208.462,0,0,1,22.959,23.839c2.181-2.617,4.434-5.161,6.688-7.706,1.236-1.309,2.472-2.69,3.708-3.925,1.09-1.163,2.69-2.326,3.344-3.78.291-.654-.218-1.817-1.09-1.454-1.454.582-2.472,1.89-3.562,2.981-1.236,1.309-2.544,2.617-3.707,3.925q-3.816,4.144-7.2,8.505A149.02,149.02,0,0,0,9.075,40.341c-.436.8.727,1.381,1.236.654Z" transform="translate(-8.979 -6.905)" fill="#00112c"/></g><g transform="translate(70.452 176.257)"><path d="M10.835,35.82c3.053-4.8,6.324-9.378,9.668-13.957,1.745-2.326,3.562-4.58,5.452-6.833,1.672-1.963,4-4.071,5.089-6.324.436-.945-.509-2.108-1.454-1.527-2.4,1.381-4.289,4.289-6.034,6.4-1.672,2.108-3.344,4.216-5.016,6.4a138.435,138.435,0,0,0-9.378,14.9.961.961,0,0,0,1.672.945Z" transform="translate(-9.038 -7.022)" fill="#00112c"/></g><g transform="translate(76.131 189.315)"><path d="M11.05,23.377c2.326-2.4,4.725-4.725,6.979-7.2l3.417-3.635a13.6,13.6,0,0,0,2.908-3.562,1.171,1.171,0,0,0-1.6-1.6A13.692,13.692,0,0,0,19.41,10.51l-3.344,3.707c-2.326,2.472-4.434,5.016-6.615,7.488a1.157,1.157,0,0,0,1.6,1.672Z" transform="translate(-9.116 -7.201)" fill="#00112c"/></g><g transform="translate(108.903 114.181)"><path d="M22.709,6.246C19.22,8.063,16.676,11.7,14.64,14.969a36.439,36.439,0,0,0-4.58,11.777c-.727,3.707-.945,8.069,1.454,11.268,2.035,2.762,5.743,4.289,8.941,2.762,1.309-.654.363-2.835-1.018-2.4-3.344,1.09-6.252-1.163-7.124-4.434s0-6.979.945-10.25a34.62,34.62,0,0,1,4.071-8.8c1.817-2.835,4.289-5.161,6.179-7.851.364-.509-.291-1.09-.8-.8Z" transform="translate(-9.567 -6.168)" fill="#00112c"/></g><g transform="translate(57.29 75.606)"><path d="M9.132,28.515c4.943,2.326,10.9-.073,14.1-4.144a21.352,21.352,0,0,0,3.853-8.215c.363-1.527.654-3.126.872-4.652.218-1.6.727-3.417.291-4.943a1.332,1.332,0,0,0-2.4-.291c-1.09,2.108-.8,5.089-1.163,7.415A22.657,22.657,0,0,1,22,21.391C19.527,25.68,14.584,28.806,9.568,27.5c-.582-.145-1.018.727-.436,1.018Z" transform="translate(-8.857 -5.637)" fill="#00112c"/></g><g transform="translate(29.163 261.119)"><path d="M13.61,9.409c1.09,3.417-2.326,6.542-3.853,9.232-1.89,3.417-1.817,6.761,1.018,9.668,6.4,6.615,15.848,9.232,24.716,10.323,10.759,1.381,21.954.945,32.785.073,8.651-.8,20.136-1.236,25.807-8.869,4.362-5.888,1.381-18.392-7.488-16.72-2.035.363-1.454,3.271.436,3.344,2.835.145,4.507,2.326,5.161,4.87a7.774,7.774,0,0,1-2.472,8.36c-2.908,2.617-6.906,3.707-10.686,4.434A133.587,133.587,0,0,1,64.787,35.8a173.13,173.13,0,0,1-28.133.073c-8.215-.8-16.72-2.908-23.117-8.433-1.6-1.381-3.126-3.053-2.69-5.307a12.975,12.975,0,0,1,2.181-4.507C14.7,15.006,16.59,12.1,15.5,8.9a.979.979,0,0,0-1.89.509Z" transform="translate(-8.47 -8.189)" fill="#00112c"/></g><g transform="translate(44.757 268.426)"><path d="M9.062,9.762c7.633,5.089,17.011,7.415,26.1,7.706A57.5,57.5,0,0,0,48.826,16.45a42.961,42.961,0,0,0,6.833-1.817c1.89-.582,4.652-1.236,6.034-2.762a1.337,1.337,0,0,0-.945-2.253c-1.963,0-4.071,1.309-5.888,1.963-2.108.654-4.144,1.236-6.252,1.672a57.018,57.018,0,0,1-13.085,1.236c-8.942-.145-17.447-2.617-25.661-6.106a.8.8,0,0,0-.8,1.381Z" transform="translate(-8.685 -8.29)" fill="#00112c"/></g><g transform="translate(15.213 274.014)"><path d="M22.134,11.448c1.163.945,2.326-.218,2.254-1.527-.218-1.89-2.472-1.963-3.489-.727a8.329,8.329,0,0,0-1.236,3.562l-1.09,5.6L16.391,29.186c-1.454,7.27-2.908,14.539-4.289,21.809L9.994,61.9,8.9,67.5c-.291,1.672-.872,3.417-.509,5.089a1.447,1.447,0,0,0,2.617.363A8.75,8.75,0,0,0,12.1,69.1l.727-3.853,1.454-8.069c1.018-5.452,2.035-10.832,3.053-16.211l2.835-16.284,1.381-7.706.727-4.289.363-1.527.364-.509c-.872-.073-.872-.291-.073-.582-.8-.363-1.381.8-.8,1.381Z" transform="translate(-8.278 -8.367)" fill="#00112c"/></g><g transform="translate(106.518 272.497)"><path d="M14.521,14.906A5.82,5.82,0,0,0,16.484,9.6a1.272,1.272,0,0,0-2.544,0c-.291,2.544-.145,5.161-.218,7.778-.073,2.326-.145,4.725-.218,7.051q-.327,7.633-.872,15.266c-.363,4.943-.8,9.886-1.381,14.757l-.872,7.415c-.363,2.544-1.018,5.161-.8,7.706a1.485,1.485,0,0,0,2.908.364c.872-2.326.945-4.871,1.236-7.342.363-2.472.582-4.943.872-7.415.509-5.016.945-10.1,1.236-15.193q.545-7.415.654-14.83c.073-2.617.145-5.161.145-7.778A69.454,69.454,0,0,0,16.484,9.6l-1.963,1.09c1.672.8.8,3.053-.218,4l.218.218Z" transform="translate(-9.534 -8.346)" fill="#00112c"/></g><g transform="translate(23.612 308.027)"><path d="M8.471,10.034c1.381,2.035,4,3.417,6.106,4.58a44.44,44.44,0,0,0,7.415,3.126c5.161,1.745,10.831,2.326,16.284,2.69a247.775,247.775,0,0,0,38.165-.363A104.768,104.768,0,0,0,98.613,15.85c2.181-.654,1.236-4.071-.945-3.417-12.285,3.925-25.225,4.8-38.092,4.943C48.38,17.449,36.749,18.1,25.7,15.7a49.4,49.4,0,0,1-8.651-2.544c-1.381-.654-2.69-1.308-3.925-2.035A21.968,21.968,0,0,0,9.416,8.871a.837.837,0,0,0-.945,1.163Z" transform="translate(-8.394 -8.834)" fill="#00112c"/></g><g transform="translate(86.044 297.721)"><path d="M12.25,9.876c-.945,2.326-1.817,4.58-2.835,6.833a1.208,1.208,0,0,0,.436,1.672c5.016,2.835,12.358-.218,13.3-6.106a1.735,1.735,0,0,0-.436-1.745,7.485,7.485,0,0,0-8.433-.945.888.888,0,0,0,.436,1.6,7.777,7.777,0,0,1,5.525,1.89l-.436-1.745c-.8,3.707-5.016,6.543-8.723,4.943l.582,1.381c.8-2.4,1.745-4.8,2.617-7.2.436-1.236-1.527-1.745-2.035-.582Z" transform="translate(-9.253 -8.693)" fill="#00112c"/></g><g transform="translate(108.124 195.824)"><path d="M10.248,13.178c.073-1.527,0-3.707.582-5.089L9.593,7.871a7.794,7.794,0,0,0,.8,3.344l.945,3.2c.654,2.4,1.308,4.871,1.817,7.342,1.018,4.8,1.163,9.741,2.108,14.612.218,1.09,1.672.654,1.745-.291.582-4.871-.436-10.177-1.527-14.975a59.369,59.369,0,0,0-1.963-7.269c-.727-1.963-1.308-5.016-2.908-6.4a.63.63,0,0,0-1.018.654c.509,1.454.363,3.562.436,5.089Z" transform="translate(-9.556 -7.291)" fill="#00112c"/></g><g transform="translate(105.368 209.597)"><path d="M9.549,8.245c1.454,4.507,2.908,8.869,3.344,13.594.509,4.652-.218,9.087-.436,13.739,0,.872,1.308,1.309,1.672.436,2.035-4.434,2.035-9.741,1.454-14.466A30.053,30.053,0,0,0,10.712,7.737c-.363-.509-1.381-.218-1.163.509Z" transform="translate(-9.519 -7.48)" fill="#00112c"/></g><g transform="translate(100.498 223.809)"><path d="M9.554,9.058C12.607,16.182,12.389,23.742,11.3,31.3c-.073.654.945,1.309,1.308.509,3.417-7.488,2.035-16.429-1.527-23.7-.509-1.018-2.035-.073-1.527.945Z" transform="translate(-9.452 -7.676)" fill="#00112c"/></g><g transform="translate(96.495 233.797)"><path d="M10.667,8.949A27.776,27.776,0,0,1,11.83,19.563c-.291,3.635-1.454,6.979-2.4,10.4-.218.654.654,1.236,1.09.654,5.089-5.961,4.8-15.266,1.963-22.172-.436-1.09-2.181-.654-1.817.509Z" transform="translate(-9.397 -7.813)" fill="#00112c"/></g><g transform="translate(87.987 249.481)"><path d="M12.151,8.819l-1.745,6.034c-.509,1.817-1.308,3.78-1.09,5.67a.744.744,0,0,0,1.381.363c1.163-1.527,1.454-3.635,1.963-5.452L14.187,9.4a1.059,1.059,0,1,0-2.035-.582Z" transform="translate(-9.279 -8.029)" fill="#00112c"/></g><g transform="translate(17.147 146.681)"><path d="M23.571,6.687a38.2,38.2,0,0,0-9.959,10.25c-2.4,3.707-5.161,8.8-5.307,13.3,0,.654.8.654,1.018.145.8-2.035,1.236-4.289,2.035-6.324a41.876,41.876,0,0,1,3.344-6.47,40.628,40.628,0,0,1,9.45-10.177c.363-.364-.145-1.018-.582-.727Z" transform="translate(-8.305 -6.615)" fill="#00112c"/></g><g transform="translate(15.107 159.337)"><path d="M23.838,7a51.879,51.879,0,0,0-10.1,12.067C11.116,23.429,8.717,28.3,8.281,33.461c-.073.509.8.8,1.09.291,1.963-4.58,3.489-9.3,6.034-13.667a56.344,56.344,0,0,1,9.45-12.067A.72.72,0,0,0,23.838,7Z" transform="translate(-8.277 -6.789)" fill="#00112c"/></g><g transform="translate(18.742 173.564)"><path d="M20.4,7.144a30.333,30.333,0,0,0-8.505,9.232C10,19.648,7.9,24.3,8.4,28.153c.145.872,1.236.582,1.527,0,.654-1.672.872-3.635,1.381-5.379a38.391,38.391,0,0,1,2.4-5.307,29.544,29.544,0,0,1,7.633-8.8c.872-.654,0-2.181-.945-1.527Z" transform="translate(-8.327 -6.985)" fill="#00112c"/></g><g transform="translate(24.218 195.847)"><path d="M9.691,7.412a9.428,9.428,0,0,0-.363,8.8l.436-.145a9.386,9.386,0,0,1,.363-8.36c.218-.291-.291-.582-.436-.291Z" transform="translate(-8.402 -7.291)" fill="#00112c"/></g><g transform="translate(26.633 205.636)"><path d="M8.763,8.153a.364.364,0,1,0,0-.727.364.364,0,0,0,0,.727Z" transform="translate(-8.435 -7.426)" fill="#00112c"/></g></g></svg>