<svg xmlns="http://www.w3.org/2000/svg" width="120.87" height="90.675" viewBox="0 0 120.87 90.675">
  <g id="Grupo_288" data-name="Grupo 288" transform="translate(-21.505 -19.27)">
    <g id="Grupo_288-2" data-name="Grupo 288" transform="translate(47.333 38.25)">
      <path id="Caminho_287" data-name="Caminho 287" d="M34.12,70.022A33.365,33.365,0,0,1,26.188,58.33,27.416,27.416,0,0,1,24.618,44.7,26.136,26.136,0,0,1,41.1,23.917c9.336-3.511,20.821-2.727,29.373,2.52,8.1,4.957,13.22,14.335,11.278,23.878a27.583,27.583,0,0,1-8.138,14.253,39.161,39.161,0,0,1-6.486,4.875c-1.157.7-2.355,1.322-3.553,1.942l-1.859.826a10.453,10.453,0,0,0-1.735,1.281.584.584,0,0,0,.413.992,9.427,9.427,0,0,0,1.859-.165,17.08,17.08,0,0,0,1.776-.826c1.239-.578,2.4-1.2,3.594-1.9a39.364,39.364,0,0,0,6.445-4.668,30.22,30.22,0,0,0,8.717-12.848,23.627,23.627,0,0,0,.124-15.285,26.985,26.985,0,0,0-8.3-11.857C66.219,20.076,54.239,18.3,43.87,20.819a28.215,28.215,0,0,0-13.426,7.395,29.269,29.269,0,0,0-7.271,12.394c-3.1,10.782.868,23.672,9.791,30.612.826.62,1.942-.413,1.157-1.2Z" transform="translate(-22.13 -19.73)" fill="#00112c"/>
    </g>
    <g id="Grupo_289" data-name="Grupo 289" transform="translate(56.589 87.281)">
      <path id="Caminho_288" data-name="Caminho 288" d="M22.4,21.434a12.475,12.475,0,0,0,5.66,4.544,13.734,13.734,0,0,0,3.635.867c1.074.124,2.727.331,3.677-.289a.654.654,0,0,0-.165-1.2c-.95-.289-2.19.041-3.222,0a14.008,14.008,0,0,1-3.222-.7,14.642,14.642,0,0,1-5.784-3.635c-.289-.289-.785.083-.578.413Z" transform="translate(-22.354 -20.916)" fill="#00112c"/>
    </g>
    <g id="Grupo_290" data-name="Grupo 290" transform="translate(68.851 90.811)">
      <path id="Caminho_289" data-name="Caminho 289" d="M23.121,24.145c2.768-.207,5.577-.413,8.345-.7l3.966-.454a28.057,28.057,0,0,0,4.173-.5.763.763,0,0,0-.207-1.487,28.634,28.634,0,0,0-4.172.454L31.053,22c-2.685.331-5.371.785-8.056,1.2-.537.083-.413.992.124.95Z" transform="translate(-22.651 -21.002)" fill="#00112c"/>
    </g>
    <g id="Grupo_291" data-name="Grupo 291" transform="translate(64.121 89.325)">
      <path id="Caminho_290" data-name="Caminho 290" d="M22.654,25.512a8.757,8.757,0,0,0,.041,2.933l.248,2.768.537,5.949a.865.865,0,0,0,.868.826c8.221-.083,16.4-.454,24.581-1.033a.946.946,0,0,0,.909-.909c-.124-2.561-.372-5.123-.7-7.684-.207-1.2-.372-2.437-.62-3.635-.207-1.2-.248-2.644-1.115-3.553a.763.763,0,0,0-1.239.33c-.33,1.074.165,2.272.372,3.346.248,1.2.454,2.437.661,3.636.372,2.52.661,5.04.826,7.56l.909-.95c-8.18.7-16.4,1.074-24.581,1.2l.826.868L24.6,31.007l-.289-2.974a7.537,7.537,0,0,0-.5-2.685.643.643,0,0,0-1.157.165Z" transform="translate(-22.536 -20.966)" fill="#00112c"/>
    </g>
    <g id="Grupo_292" data-name="Grupo 292" transform="translate(88.562 93.907)">
      <path id="Caminho_291" data-name="Caminho 291" d="M24.584,23.4c.578-.372,3.883-1.859,3.346.124-.537,1.859-3.1.7-4.379.909a.6.6,0,0,0-.248.991c1.942,1.694,6.321.826,6.155-2.272a2.164,2.164,0,0,0-2.107-2.066,4.875,4.875,0,0,0-3.388,1.529.506.506,0,0,0,.62.785Z" transform="translate(-23.128 -21.077)" fill="#00112c"/>
    </g>
    <g id="Grupo_293" data-name="Grupo 293" transform="translate(58.783 96.79)">
      <path id="Caminho_292" data-name="Caminho 292" d="M29.1,24.011a3.205,3.205,0,0,0-3.429-2.851,3.619,3.619,0,0,0-3.264,3.3.8.8,0,0,0,.62.785c2.272.744,5.081.744,6.9-.95.372-.372-.041-.909-.5-.826-2.024.413-3.925.826-5.949.165l.578,1.033a2.081,2.081,0,0,1,4.049-.372.516.516,0,0,0,.992-.289Z" transform="translate(-22.407 -21.147)" fill="#00112c"/>
    </g>
    <g id="Grupo_294" data-name="Grupo 294" transform="translate(70.8 71.724)">
      <path id="Caminho_293" data-name="Caminho 293" d="M24.483,40.415a61.9,61.9,0,0,1,.744-11.03,37.4,37.4,0,0,1,1.033-5.205c.454-1.487,1.611-2.148,3.057-1.4,1.322.7,1.859,2.313,2.148,3.677a20.038,20.038,0,0,1,.33,4.957,22.839,22.839,0,0,1-.744,5,47.11,47.11,0,0,0-1.487,4.668.6.6,0,0,0,.992.578A8.787,8.787,0,0,0,32.5,37.73a21.7,21.7,0,0,0,.95-4.544,19.661,19.661,0,0,0-.785-9.047c-.909-2.314-3.264-4.255-5.825-3.388a4.039,4.039,0,0,0-2.4,2.768,34.514,34.514,0,0,0-.992,5,60.394,60.394,0,0,0-.7,11.9.868.868,0,0,0,1.735,0Z" transform="translate(-22.698 -20.54)" fill="#00112c"/>
    </g>
    <g id="Grupo_295" data-name="Grupo 295" transform="translate(64.363 62.367)">
      <path id="Caminho_294" data-name="Caminho 294" d="M31.92,32.4c-.124-1.239-1.074-1.942-1.859-2.851a30.841,30.841,0,0,1-2.314-2.892A29.372,29.372,0,0,1,25.806,23.6a12.488,12.488,0,0,0-1.9-3.1.828.828,0,0,0-1.363.578,7.325,7.325,0,0,0,1.322,3.47c.661,1.115,1.4,2.231,2.19,3.3a26.04,26.04,0,0,0,2.4,2.809c.868.95,1.776,2.066,3.14,2.066a.355.355,0,0,0,.331-.33Z" transform="translate(-22.542 -20.313)" fill="#00112c"/>
    </g>
    <g id="Grupo_296" data-name="Grupo 296" transform="translate(80.696 59.38)">
      <path id="Caminho_295" data-name="Caminho 295" d="M23.832,36.348a73.3,73.3,0,0,0,5.742-7.6l2.768-4.007c.785-1.115,2.148-2.437,2.189-3.842.041-.578-.578-.785-1.033-.578a3.641,3.641,0,0,0-1.4,1.446l-1.363,2.024-2.644,3.842a82.311,82.311,0,0,0-5.081,8.056c-.289.537.413,1.157.826.661Z" transform="translate(-22.937 -20.241)" fill="#00112c"/>
    </g>
    <g id="Grupo_297" data-name="Grupo 297" transform="translate(60.33 51.18)">
      <path id="Caminho_296" data-name="Caminho 296" d="M27.841,32.493c-1.57.33-3.1.826-4.627,1.281l.909.7a7.18,7.18,0,0,1,1.115-5.123,3.178,3.178,0,0,1,4.131-.868l-.413-.744a1.549,1.549,0,0,1-1.115,1.487l.992.413a3.792,3.792,0,0,1,1.528-5.37c2.4-1.115,5.04,1.239,4.916,3.677l.661-.826c-.95.165-1.033-1.653-.909-2.231a4.242,4.242,0,0,1,2.479-2.768,1.962,1.962,0,0,1,2.685.826c.289.661.372,1.818-.454,2.107l1.033.62c-.7-1.9,1.239-4.586,3.346-3.677a2.871,2.871,0,0,1,.785,4.5l1.487.62c.041-2.313,1.859-4.916,4.462-4.09a2.223,2.223,0,0,1,1.694,2.313,2.005,2.005,0,0,1-2.107,1.818l.454,1.57a17.437,17.437,0,0,1,4.627-2.561l-1.074-.62a3.7,3.7,0,0,1-2.107,4.71c-.909.33-.537,1.776.413,1.487A5.13,5.13,0,0,0,56.1,25.1a.851.851,0,0,0-1.033-.62,20.605,20.605,0,0,0-5.04,2.768.871.871,0,0,0,.413,1.611,3.684,3.684,0,0,0,3.718-2.809,3.806,3.806,0,0,0-1.942-4.3c-3.883-2.066-7.395,1.57-7.56,5.371a.882.882,0,0,0,1.487.578,4.656,4.656,0,0,0-1.528-7.436c-3.346-1.2-6.775,2.685-5.494,5.866a.894.894,0,0,0,1.074.62A3.2,3.2,0,0,0,41.887,22.5a3.7,3.7,0,0,0-4.875-2.107,5.719,5.719,0,0,0-3.8,5c0,1.818,1.115,3.8,3.181,3.387a.894.894,0,0,0,.62-.826c.248-3.594-3.677-6.816-7.147-5.453A5.611,5.611,0,0,0,27.3,30.552a.948.948,0,0,0,.991.413,3.664,3.664,0,0,0,1.818-1.322,2.653,2.653,0,0,0,.537-2.272c-.578-1.281-2.974-1.281-4.131-.95a5.564,5.564,0,0,0-3.429,2.974,8.007,8.007,0,0,0-.372,5.288.719.719,0,0,0,.868.5c1.529-.578,3.1-1.115,4.586-1.818.5-.248.124-.95-.331-.868Z" transform="translate(-22.444 -20.043)" fill="#00112c"/>
    </g>
    <g id="Grupo_298" data-name="Grupo 298" transform="translate(75.146 78.204)">
      <path id="Caminho_297" data-name="Caminho 297" d="M23.753,23.682a5.225,5.225,0,0,1,.991-1.9l-1.115-.454c-.041,2.148.124,4.255-.041,6.4-.083,1.074-.165,2.148-.331,3.222a26.811,26.811,0,0,0-.454,3.181.739.739,0,0,0,1.446.165,10.825,10.825,0,0,0,.578-3.057c.124-1.157.248-2.313.289-3.511a31.687,31.687,0,0,0-.206-6.569.655.655,0,0,0-1.281.165,5.283,5.283,0,0,1-.537,2.066c-.124.413.5.661.661.289Z" transform="translate(-22.803 -20.697)" fill="#00112c"/>
    </g>
    <g id="Grupo_299" data-name="Grupo 299" transform="translate(65.5 95.688)">
      <path id="Caminho_298" data-name="Caminho 298" d="M23.127,23.269a106.158,106.158,0,0,0,12.022.207c1.983-.083,4.007-.165,5.99-.331a44.234,44.234,0,0,0,5.784-.578.737.737,0,0,0-.207-1.446c-1.983.041-3.966.372-5.99.537-1.9.165-3.842.289-5.784.372-3.925.165-7.891.165-11.815.124-.744-.041-.744,1.074,0,1.115Z" transform="translate(-22.569 -21.12)" fill="#00112c"/>
    </g>
    <g id="Grupo_300" data-name="Grupo 300" transform="translate(66.433 98.209)">
      <path id="Caminho_299" data-name="Caminho 299" d="M22.96,24.4c7.6-.744,15.2-1.611,22.887-1.694a.766.766,0,0,0,0-1.529A99.579,99.579,0,0,0,22.878,23.66c-.413.083-.372.785.083.744Z" transform="translate(-22.592 -21.181)" fill="#00112c"/>
    </g>
    <g id="Grupo_301" data-name="Grupo 301" transform="translate(33.152 88.908)">
      <path id="Caminho_300" data-name="Caminho 300" d="M22.138,28.357a71.348,71.348,0,0,0,9.336-1.694c3.1-.661,6.238-1.363,9.336-2.066,1.033-.248,6.734-.785,5.205-3.14-1.074-1.653-3.429,1.281-1.157,1.57.785.124,1.033-1.157.372-1.487l-.083-.041.372.454v-.041l-.083.661-.62.083-.372-.5c-.165-.372-2.107.289-2.52.372l-2.974.7c-1.859.413-3.718.826-5.536,1.281-3.759.909-7.767,1.611-11.361,3.057-.372.165-.372.785.083.785Z" transform="translate(-21.786 -20.956)" fill="#00112c"/>
    </g>
    <g id="Grupo_302" data-name="Grupo 302" transform="translate(43.275 86.633)">
      <path id="Caminho_301" data-name="Caminho 301" d="M22.795,23.305l3.388-.454a5.214,5.214,0,0,0,2.768-.7c.454-.331.124-.95-.289-1.115a5.79,5.79,0,0,0-2.892.207l-3.181.537c-.868.124-.661,1.611.207,1.528Z" transform="translate(-22.032 -20.901)" fill="#00112c"/>
    </g>
    <g id="Grupo_303" data-name="Grupo 303" transform="translate(21.505 79.011)">
      <path id="Caminho_302" data-name="Caminho 302" d="M22.06,24.216c4.3-.5,8.634-.909,12.972-1.239q3.222-.248,6.445-.372l3.222-.124a6.25,6.25,0,0,0,2.892-.413.6.6,0,0,0,0-1.033,5.363,5.363,0,0,0-2.685-.289l-3.429.124c-2.231.165-4.42.289-6.61.5-4.379.413-8.675.991-12.972,1.776-.62.083-.454,1.157.165,1.074Z" transform="translate(-21.505 -20.716)" fill="#00112c"/>
    </g>
    <g id="Grupo_304" data-name="Grupo 304" transform="translate(35.218 72.771)">
      <path id="Caminho_303" data-name="Caminho 303" d="M22.518,22.207l4.462.083c1.157.041,2.933.33,3.966-.331a.579.579,0,0,0,0-.95c-1.033-.7-2.809-.372-3.966-.33l-4.462.083a.724.724,0,0,0,0,1.446Z" transform="translate(-21.837 -20.565)" fill="#00112c"/>
    </g>
    <g id="Grupo_305" data-name="Grupo 305" transform="translate(28.085 60.513)">
      <path id="Caminho_304" data-name="Caminho 304" d="M21.959,21.362A40.495,40.495,0,0,0,30.428,23.8c1.4.248,2.809.454,4.214.578a19.223,19.223,0,0,0,4.627.165c.744-.083,1.157-1.363.165-1.529-1.322-.207-2.685-.165-4.049-.289a43.849,43.849,0,0,1-4.544-.537c-2.851-.454-5.618-1.2-8.428-1.9-.62-.165-1.074.785-.454,1.074Z" transform="translate(-21.664 -20.269)" fill="#00112c"/>
    </g>
    <g id="Grupo_306" data-name="Grupo 306" transform="translate(38.529 57.43)">
      <path id="Caminho_305" data-name="Caminho 305" d="M22.385,21.479c1.9.331,4.049,1.033,6.032.744a.555.555,0,0,0,.124-.992c-1.776-.826-4.049-.826-5.99-1.033-.7-.083-.909,1.115-.165,1.281Z" transform="translate(-21.917 -20.194)" fill="#00112c"/>
    </g>
    <g id="Grupo_307" data-name="Grupo 307" transform="translate(36.917 39.143)">
      <path id="Caminho_306" data-name="Caminho 306" d="M21.935,20.4a30.4,30.4,0,0,0,4.5,5.494c.826.826,1.694,1.653,2.6,2.437a13.234,13.234,0,0,0,2.851,2.148.587.587,0,0,0,.7-.909,24.341,24.341,0,0,0-2.685-2.355,32.835,32.835,0,0,1-2.479-2.313c-1.652-1.611-3.181-3.346-4.792-5.04-.33-.33-.95.124-.7.537Z" transform="translate(-21.878 -19.751)" fill="#00112c"/>
    </g>
    <g id="Grupo_308" data-name="Grupo 308" transform="translate(48.026 38.84)">
      <path id="Caminho_307" data-name="Caminho 307" d="M22.29,20.821l2.644,3.635c.744.991,1.446,2.437,2.561,3.057a.573.573,0,0,0,.826-.661c-.248-1.239-1.446-2.355-2.19-3.346l-2.52-3.429c-.578-.785-1.9-.041-1.322.744Z" transform="translate(-22.147 -19.744)" fill="#00112c"/>
    </g>
    <g id="Grupo_309" data-name="Grupo 309" transform="translate(57.696 21.198)">
      <path id="Caminho_308" data-name="Caminho 308" d="M22.686,24.611a9.808,9.808,0,0,0,1.281-4.71H22.728a87.42,87.42,0,0,0,1.735,9.832l.909,4.916a27.011,27.011,0,0,0,1.157,4.792c.289.661,1.239.289,1.239-.331a20.351,20.351,0,0,0-.744-4.71l-.992-4.916a78.785,78.785,0,0,0-2.107-9.75.6.6,0,0,0-1.157.33,6.179,6.179,0,0,1-.372,4.379.168.168,0,0,0,.289.165Z" transform="translate(-22.381 -19.317)" fill="#00112c"/>
    </g>
    <g id="Grupo_310" data-name="Grupo 310" transform="translate(66.878 29.786)">
      <path id="Caminho_309" data-name="Caminho 309" d="M22.65,20.237l-.041,5.288v2.437a3.994,3.994,0,0,0,.372,2.313.5.5,0,0,0,.826,0,3.641,3.641,0,0,0,.372-2.107c.041-.868,0-1.735,0-2.644l-.041-5.288a.744.744,0,0,0-1.487,0Z" transform="translate(-22.603 -19.525)" fill="#00112c"/>
    </g>
    <g id="Grupo_311" data-name="Grupo 311" transform="translate(77.418 19.969)">
      <path id="Caminho_310" data-name="Caminho 310" d="M25.3,19.778a52.467,52.467,0,0,0-1.9,8.675c-.207,1.322-.33,2.685-.413,4.049-.083,1.281-.33,2.892.248,4.131.248.537.909.289,1.074-.124.5-1.2.248-2.768.33-4.007.083-1.363.165-2.727.331-4.049a50.531,50.531,0,0,1,1.694-8.262.713.713,0,0,0-1.363-.413Z" transform="translate(-22.858 -19.287)" fill="#00112c"/>
    </g>
    <g id="Grupo_312" data-name="Grupo 312" transform="translate(82.579 29.858)">
      <path id="Caminho_311" data-name="Caminho 311" d="M26.126,20l-1.735,4.214-.826,2.066a4.969,4.969,0,0,0-.578,2.024.584.584,0,0,0,.991.413c.95-.909,1.281-2.685,1.776-3.925l1.735-4.42c.331-.868-1.033-1.2-1.363-.372Z" transform="translate(-22.983 -19.526)" fill="#00112c"/>
    </g>
    <g id="Grupo_313" data-name="Grupo 313" transform="translate(93.068 19.27)">
      <path id="Caminho_312" data-name="Caminho 312" d="M35.513,19.716A61.538,61.538,0,0,1,30.349,30.5a53.261,53.261,0,0,1-3.222,4.751c-1.2,1.611-2.644,3.057-3.759,4.71-.5.744.537,1.322,1.115.868a25.156,25.156,0,0,0,3.842-4.5,57,57,0,0,0,3.47-5.205,56.3,56.3,0,0,0,4.957-11.03c.289-.826-.991-1.157-1.239-.372Z" transform="translate(-23.237 -19.27)" fill="#00112c"/>
    </g>
    <g id="Grupo_314" data-name="Grupo 314" transform="translate(98.025 36.327)">
      <path id="Caminho_313" data-name="Caminho 313" d="M30.965,19.762a30.275,30.275,0,0,0-4.131,3.016,14.108,14.108,0,0,0-3.388,3.8.668.668,0,0,0,1.033.826c1.157-1.074,2.107-2.4,3.222-3.512a25.3,25.3,0,0,1,3.883-3.057c.62-.413.041-1.446-.62-1.074Z" transform="translate(-23.357 -19.683)" fill="#00112c"/>
    </g>
    <g id="Grupo_315" data-name="Grupo 315" transform="translate(102.85 36.47)">
      <path id="Caminho_314" data-name="Caminho 314" d="M24.233,31.232c4.668-1.116,9.171-3.1,13.633-4.71l13.592-4.957c1.115-.413.62-2.231-.537-1.818L37.2,24.829c-4.462,1.694-9.171,3.1-13.426,5.288-.62.331-.207,1.239.454,1.116Z" transform="translate(-23.474 -19.687)" fill="#00112c"/>
    </g>
    <g id="Grupo_316" data-name="Grupo 316" transform="translate(108.575 50.238)">
      <path id="Caminho_315" data-name="Caminho 315" d="M24.555,23.622a13.926,13.926,0,0,1,3.47-1.611c.992-.289,2.355-.289,3.1-.95a.487.487,0,0,0-.083-.785c-.909-.578-2.644-.041-3.594.289a12.8,12.8,0,0,0-3.553,1.9c-.661.537-.041,1.652.661,1.157Z" transform="translate(-23.612 -20.02)" fill="#00112c"/>
    </g>
    <g id="Grupo_317" data-name="Grupo 317" transform="translate(110.338 56.856)">
      <path id="Caminho_316" data-name="Caminho 316" d="M24.2,22.328c5.288-.33,10.576-.537,15.864-.537,2.6,0,5.247.041,7.849.165,1.322.041,2.685.124,4.007.207,1.033.041,2.644.5,3.511-.165a.543.543,0,0,0,.083-.868c-.744-.785-2.148-.578-3.181-.661-1.322-.083-2.685-.124-4.007-.165q-4.028-.124-8.056-.124A149.2,149.2,0,0,0,24.2,21.213c-.7.083-.744,1.157,0,1.115Z" transform="translate(-23.655 -20.18)" fill="#00112c"/>
    </g>
    <g id="Grupo_318" data-name="Grupo 318" transform="translate(111.126 65.059)">
      <path id="Caminho_317" data-name="Caminho 317" d="M24.048,21.429c3.429.95,7.436,1.694,10.948.868a.679.679,0,0,0-.207-1.322c-1.694-.083-3.388.041-5.123,0a33.371,33.371,0,0,1-5.329-.578c-.661-.165-.95.868-.289,1.033Z" transform="translate(-23.674 -20.379)" fill="#00112c"/>
    </g>
    <g id="Grupo_319" data-name="Grupo 319" transform="translate(109.422 71.43)">
      <path id="Caminho_318" data-name="Caminho 318" d="M24.1,21.781c4.09.909,8.221,1.818,12.352,2.644l6.114,1.239c1.983.413,4.131,1.115,6.155.95.537-.041.868-.826.289-1.115-1.818-.95-4.007-1.115-5.99-1.487l-6.114-1.2c-4.172-.826-8.3-1.528-12.476-2.272-.785-.124-1.157,1.033-.331,1.239Z" transform="translate(-23.633 -20.533)" fill="#00112c"/>
    </g>
    <g id="Grupo_320" data-name="Grupo 320" transform="translate(107.736 78.644)">
      <path id="Caminho_319" data-name="Caminho 319" d="M24.258,22.178a12.9,12.9,0,0,1,3.966.33,33.44,33.44,0,0,0,3.429,1.157c.62.041.785-.744.454-1.115-.785-.992-2.479-1.322-3.635-1.57a14.453,14.453,0,0,0-4.214-.207c-.868.083-.909,1.446,0,1.4Z" transform="translate(-23.592 -20.707)" fill="#00112c"/>
    </g>
    <g id="Grupo_321" data-name="Grupo 321" transform="translate(105.106 82.058)">
      <path id="Caminho_320" data-name="Caminho 320" d="M23.932,22.193c3.635,1.735,7.23,3.553,10.741,5.453,1.776.909,3.511,1.9,5.205,2.892l2.644,1.529a4.227,4.227,0,0,0,2.437.992.608.608,0,0,0,.578-.785c-.331-.826-.991-1.157-1.735-1.611l-2.644-1.529c-1.776-1.033-3.553-2.024-5.371-2.974-3.635-1.9-7.312-3.677-11.072-5.288-.909-.413-1.694.868-.785,1.322Z" transform="translate(-23.528 -20.79)" fill="#00112c"/>
    </g>
    <g id="Grupo_322" data-name="Grupo 322" transform="translate(101.216 89.312)">
      <path id="Caminho_321" data-name="Caminho 321" d="M23.928,22.3a7.569,7.569,0,0,1,4.379,3.512c.454.62,1.735.248,1.4-.62A7.621,7.621,0,0,0,24.3,20.98c-.868-.165-1.239,1.115-.372,1.322Z" transform="translate(-23.434 -20.966)" fill="#00112c"/>
    </g>
    <g id="Grupo_323" data-name="Grupo 323" transform="translate(94.608 91.563)">
      <path id="Caminho_322" data-name="Caminho 322" d="M23.559,22.379c2.272,1.983,4.586,4.007,6.9,5.99,2.313,1.942,4.544,3.966,6.9,5.784.867.661,1.9-.744,1.157-1.446-2.19-2.024-4.586-3.883-6.858-5.784-2.313-1.942-4.627-3.8-6.982-5.7-.785-.661-1.942.454-1.115,1.157Z" transform="translate(-23.274 -21.02)" fill="#00112c"/>
    </g>
    <g id="Grupo_324" data-name="Grupo 324" transform="translate(39.34 95.689)">
      <path id="Caminho_323" data-name="Caminho 323" d="M38.449,21.244c-2.892,2.148-5.742,4.379-8.593,6.651L25.6,31.241l-2.189,1.735a3.7,3.7,0,0,0-1.446,1.735.5.5,0,0,0,.5.661c1.57-.124,2.933-1.694,4.09-2.644l4.255-3.346c2.851-2.313,5.742-4.586,8.552-6.982.62-.537-.206-1.652-.909-1.157Z" transform="translate(-21.936 -21.12)" fill="#00112c"/>
    </g>
  </g>
</svg>
