<svg xmlns="http://www.w3.org/2000/svg" width="85.596" height="76.948" viewBox="0 0 85.596 76.948">
  <path id="Caminho_21" data-name="Caminho 21" d="M90.429,334.313c-2.664.449-5.451.148-8.18.235a36.261,36.261,0,0,0-4.578.327c-6.981,1.116-14.012.668-21.02.637-4.046-.016-6.77-2.7-7.626-6.409-.465-2.013.564-3.588,1.345-4.992-2.961-4.984-2.961-4.984.061-9.426-.6-1.749-1.222-3.507-1.806-5.276-.731-2.214.8-3.87,1.593-5.42-.384-1.134-.722-1.926-.915-2.752-1.309-5.572,1.512-9.024,7.186-8.888,3.249.077,6.5.116,9.751.093a13.955,13.955,0,0,0,2.583-.552,25.752,25.752,0,0,0-.645-3.19c-1.22-3.559-2.5-7.1-3.789-10.63a26.015,26.015,0,0,1-1.717-10.037,5.019,5.019,0,0,1,3-4.4,2.444,2.444,0,0,1,3.253.552,26.1,26.1,0,0,1,2.606,4.375c1.437,3.1,2.693,6.283,4.077,9.408a10.671,10.671,0,0,0,4.619,5.363,13.994,13.994,0,0,1,5.989,6.788c1.329,2.77,2.49,5.619,3.754,8.42.836,1.855,1.5,3.89,3.779,4.523a5.506,5.506,0,0,0,1.49-.018c.221-.777.365-1.439.6-2.068.278-.753.631-1.477.986-2.3l5.3.858c.373-1.528.688-2.811.992-4.052a21.192,21.192,0,0,1,8.736-1.463c5.611.313,11.2.938,16.746,1.427a11.594,11.594,0,0,1,4.034,11.427,13.989,13.989,0,0,0,.158,3.062q.472,8.706.936,17.418a30.878,30.878,0,0,1-2.046,11.431,31.691,31.691,0,0,1-13.373,1.165,73.285,73.285,0,0,0-12.273-.6c-.3.012-.6-.272-1.116-.52-.379-1.285-.806-2.719-1.165-3.931C99.184,333.371,94.859,333.566,90.429,334.313ZM72.508,318.407l.055.008c.051-.394.1-.789.15-1.185a5.55,5.55,0,0,0,.515-1.289c.03-.223-.323-.5-.5-.751-.446.392-1.169.716-1.281,1.187-.237,1,.686.726,1.246.8ZM126.2,302.44c-.035-.136-.4-.189-.619-.278,0,.152-.069.355,0,.448a5.494,5.494,0,0,0,.643.623c.446,1.9.446,1.9,2.064,3.194-.708-1.376-.536-2.823-2.173-3.1A2.506,2.506,0,0,0,126.2,302.44ZM107.315,315.6c-.067-.276-.132-.55-.2-.826-.124-1.483.026-3.085-1.97-4.038-.1,1.922-.5,3.655,2.082,3.915ZM79.445,307.64c-.824.2-1.4.339-1.993.483-.061.276-.262.633-.183.911a16.035,16.035,0,0,1-.562,10.691,8.659,8.659,0,0,0,.623,1.343c2.413,3.592,1.13,4.465-1.222,7.07-.781.864-1.822,1.492-2.6,2.354a19.848,19.848,0,0,0-1.678,2.526c4.544.686,18.7.057,22.935-1.023a18.809,18.809,0,0,0,.461-2.748c.071-2.393.067-4.791.018-7.186-.106-5.295-.258-10.587-.4-16.022-.1-.1-.3-.5-.574-.56-3.005-.635-4.584-2.658-5.666-5.378-1.323-3.33-2.853-6.575-4.284-9.862A9.8,9.8,0,0,0,80,285.349,12.82,12.82,0,0,1,73.99,278.6c-.905-2.391-1.964-4.726-3.03-7.052-.85-1.857-1.743-3.7-2.75-5.475a1.5,1.5,0,0,0-2.553.229,9.33,9.33,0,0,0-.917,3.9,27.436,27.436,0,0,0,1.37,6.49,94.915,94.915,0,0,0,4.3,10.987c1.457,2.983,1.455,5.493-.879,7.839C72.821,299.555,77.312,302.412,79.445,307.64Zm19.522-6.847c-.505,1.132-1.3,2.137-1.364,3.184-.288,4.933-1.2,9.818-.446,14.838.546,3.667.276,7.456.375,11.421,2.206,2.111,2.206,2.111,5.625,2.06,1.059-3.292.248-6.7.278-10.049.03-3.253-.1-6.508-.225-9.759-.13-3.4.059-6.831-.528-10.37ZM53.26,325.67c-2.208.83-2.77,2.409-1.617,4.458,1.339,2.388,3.19,3.973,6.141,3.777,2.009-.134,4.046.191,5.875-1.22.682-.526,1.942-.235,2.9-.485a12.274,12.274,0,0,0,3.754-1.315c1.589-1.072,1.739-2.815,1.236-4.6-.448-1.593-1.713-2.076-3.135-2.119-1.869-.055-3.744.069-4.653.091A25.152,25.152,0,0,0,53.26,325.67Zm14.108-20.7c1.429.552,3.6-.743,4.2-2.181a2.821,2.821,0,0,0-.737-3.283,14.316,14.316,0,0,0-8.15-4.008c-2.524-.392-5.071-.668-7.616-.891a2.813,2.813,0,0,0-1.91.489,5.407,5.407,0,0,0-1.928,5.051,4.337,4.337,0,0,0,3.563,3.894c1.331.25,2.669.455,3.781.643A11.878,11.878,0,0,1,67.368,304.975Zm3.172,3.813c-2.957-2.031-5.991-3.758-9.887-3.076-2.492.436-5.071.363-7.6.611-2.094.2-2.924,1.526-2.354,3.539.893,3.149,2.514,4.436,5.863,4.432,3.391,0,6.78-.148,10.171-.207,2.3-.039,3.409-1.889,5.25-3.158C71.449,310.109,71.157,309.21,70.54,308.788Zm-4.3,13.454a4.654,4.654,0,0,0,2.443-1.528,2.443,2.443,0,0,0-.375-3.6,6.316,6.316,0,0,0-2.727-1.214,33.971,33.971,0,0,0-13.513,1.421,2.751,2.751,0,0,0-1.382,1.869,2.858,2.858,0,0,0,1.946,3.186,53.346,53.346,0,0,0,6.027.461,19.47,19.47,0,0,0,2.983-.414A31.377,31.377,0,0,0,66.244,322.243Zm50.437,8.8c-1.727-5.319-3.143-10.758-5.861-15.853a28.221,28.221,0,0,0,3.19,12.687,55.529,55.529,0,0,1,2.376,5.359C116.565,332.016,116.819,331.468,116.681,331.046Zm1.7-11.311c1.425-2.472.106-3.635-.345-4.878a36.853,36.853,0,0,0-1.871-4.17c-.684-1.333-1.488-2.606-2.238-3.906C114.091,311.432,116.634,314.982,118.379,319.734Zm-7.271,14.686c.448-.674,1.047-1.157,1.027-1.611a19.248,19.248,0,0,0-2.421-8.131C109.523,327.912,108.679,331.2,111.108,334.421Zm6.271-9.834c.473,3.363.919,4.219,4.477,8.138C120.573,327.549,119.737,326.131,117.379,324.586Zm6.829-17.537c-.367,3.241-.126,3.77,3.417,7.291C127.121,311.272,125.664,309.259,124.207,307.049Zm.217,11.155a10.282,10.282,0,0,0-2.47-5.329C121.888,316.221,121.87,316.234,124.425,318.2Zm6.591,7.143c1.023-2.127,1.023-2.127-1.585-3.135C129.936,323.211,130.441,324.209,131.016,325.347Zm-1.22,10.66c1.384-1.264,1.394-1.262.653-4.178C130.249,333.11,130.05,334.392,129.8,336.007Zm-23.124-38.545a2,2,0,0,0,.451,1.309c.25.3.757.377,1.149.554a3.172,3.172,0,0,0,.276-.905c-.006-.771.158-1.684-1.232-1.849C107.129,296.811,106.7,297.122,106.672,297.462Zm23.638,4.6c-.568-.865-.954-1.453-1.414-2.157C128.26,301.253,128.678,301.828,130.31,302.059Zm-8.489.394a10.334,10.334,0,0,0-1.274-1.5c-.237,1.54.179,2.4,1.768,3.59A11,11,0,0,0,121.821,302.453Zm-9.962.548c-.032-.252-.3-.475-.461-.71-.138.213-.4.438-.379.635.024.244.282.467.438.7C111.605,303.414,111.883,303.189,111.859,303Zm6.812,5.755a5.652,5.652,0,0,0-.994-.887c-.11.29-.384.655-.292.85a4.471,4.471,0,0,0,.9.994C118.479,309.259,118.759,308.875,118.671,308.756Zm1.69,27.968-.58,1.153c.3.1.641.331.881.252.181-.059.229-.518.339-.808C120.79,337.122,120.575,336.923,120.362,336.724Zm-11.756-15.888.179.329.057-.461Zm15.786,9.219c.1-.1.3-.235.284-.3a4.266,4.266,0,0,0-.337-.692l-.329.282C124.136,329.583,124.264,329.818,124.392,330.055Zm3.152-2.24-.126-.335-.126.333Zm-4.923-30.233.1-.4-.325.059Zm1.741,25.764c.075-.077.075-.229.108-.349l-.522-.051.1.375C124.153,323.334,124.313,323.4,124.362,323.346Z" transform="translate(-48.157 -263.256)" fill="#00112c"/>
</svg>
