<svg xmlns="http://www.w3.org/2000/svg" width="89.757" height="112.131" viewBox="0 0 89.757 112.131"><g transform="translate(-42.161 -70.501)"><path d="M123.231,95.228c.754.585,1.524,1.185,2.2,1.71.44,4.878.954,9.646-3.127,13.538a15.663,15.663,0,0,0,2.44,1.047c1.567.273,3.47-.15,4.477,1.374,1.1,1.66,2.494,3.543,2.568,5.379a168.2,168.2,0,0,1-.273,18.165c-.141,2.059-1.617,4.027-2.44,5.938-3.324.793-6.244,1.491-9.429,2.25a12.9,12.9,0,0,0-.767,2.767c-.566,11.014-5.784,19.9-13.811,26.756-6.85,5.856-15.027,9.607-24.617,8.175a13.569,13.569,0,0,0-3.63-.193c-5.815.741-10.829-1.576-15.443-4.49a18.1,18.1,0,0,1-7.871-10.461c-.936-3.3-1.836-6.627-2.536-9.984-.576-2.763-.891-5.585-1.222-8.391-.236-2-.31-4.018-.475-6.267L45.148,141.1c-2.3-3.58-3.556-7.451-2.735-11.941a60.042,60.042,0,0,0,.336-6.662,15.78,15.78,0,0,1,.587-4.187,19.936,19.936,0,0,0,.2-13.354c-.689-2.085.446-3.946,1.042-5.862.579-1.851,1.517-3.433.31-5.7s.028-4.987,1.864-6.606a23.293,23.293,0,0,0,5.08-6.619,21.019,21.019,0,0,1,3.142-3.6,12.618,12.618,0,0,1,1.918.414,9.89,9.89,0,0,1,1.465.845c4.02-1.506,7.836-3.637,11.878-4.23,3.392-.5,6.5-2,9.811-2.234,3.881-.277,7.67-1.875,11.8.134,2.525,1.227,5.89.683,8.862,1.058a13.758,13.758,0,0,1,3.439.984c1.792.732,4,.483,5.249,2.542,1.172,1.935,3.444.251,5.045,1.276a21.03,21.03,0,0,1,6.46,6.911c.7,1.14.117,3.069.117,4.542.943.459,1.664.808,2.739,1.331C123.6,91.737,123.415,93.464,123.231,95.228ZM60.715,85.27a2.011,2.011,0,0,0-.581.089c-.117.056-.171.247-.254.377.236-.2.472-.407.694-.626l.271-.9Zm19.307-7.585c-3.2,1.753-3.2,1.753-3.78,4.627,2.284-1.032,3.89-2.119,3.667-4.733,1.058-.178.936-.863.741-1.63a15.028,15.028,0,0,1-.23-1.569c-.221-.323-.431-.919-.665-.928-2.477-.1-3.645,1.062-4.141,4.321,1.736-1.244,3.257-2.334,4.781-3.418Q80.209,76.02,80.022,77.685ZM95.673,81.25c-1.06.932-2.074,1.929-3.207,2.759a1.8,1.8,0,0,1-1.63.21,3.182,3.182,0,0,1-1.079-1.929c-.137-1.745.943-3,2.067-4.217,1-1.094,2.5-1.948,2.393-3.808-3.251.007-3.37-.045-4.352,2.135-1.686,3.745-3.814,7.061-7.607,9.375-1.051-.854-1.953-1.591-2.982-2.427a11.74,11.74,0,0,1-3.22,1.192A16.768,16.768,0,0,1,72.2,84c-1.242,1.081-2.254,2.08-3.4,2.891a1.863,1.863,0,0,1-1.66.052,2.029,2.029,0,0,1-.847-1.465c-.076-2.382,1.339-4.139,2.616-5.977.847-1.218,2.642-1.907,2.382-4.165-2.527.241-4.185,1.222-5.13,3.561a36,36,0,0,1-5.7,9.952,4.121,4.121,0,0,1-5.1,1.309c-2.163,1.7-2.2,3.873-2.273,6.137q-.507,16.66-1.164,33.318c-.069,1.814-.386,3.617-.483,5.431a49.267,49.267,0,0,0-.217,7.843,145.951,145.951,0,0,0,4,21.42c2.124,8.142,7.555,13.04,15.181,14.945,5.175,1.294,10.8.778,16.23,1.071,12.593-2.878,22.07-9.644,27.237-21.806,3.394-7.99,4.1-16.414,3.981-24.951-.18-13.127.457-26.281-1.615-39.347-.613-3.875-.3-3.925-4.376-3.108-.828-.986-.1-1.814.156-2.765a11.618,11.618,0,0,0,.015-2.813c2.731-.147,2.731-.147,3.344-2.169l-3.3,2.178c-.871,1.859-2.052,2.28-3.654.9-.2-3.106,3.292-3.933,3.888-6.458a1.969,1.969,0,0,0-2.813.338A33.787,33.787,0,0,0,106.4,84c-1,1.253-1.859,2.676-4.059,2.681,0-.743-.288-1.669.052-2.15,1.162-1.641,2.633-3.058,3.808-4.69.7-.98,1.029-2.2-.223-3.184-1.669.093-2.252,1.359-3.043,2.564a62.11,62.11,0,0,1-4.668,6.267,2.034,2.034,0,0,1-3.27.169c.167-1.456.345-3,.531-4.538,2.8-.9,4.341-3.218,6-5.385.147-.193-.013-.8-.225-1.045s-.8-.522-1-.4c-.958.587-2.156,1.118-2.679,2.015A32,32,0,0,0,95.673,81.25Zm24.888,60.614c1.539-.23,2.7-.446,3.884-.568,2.852-.295,3.979-1.992,4.62-4.69a45.807,45.807,0,0,0,.492-16.77c-.761-5.682-2.187-6.4-8.257-5.706a1.791,1.791,0,0,0-.524.267C119.692,118.343,119.5,134.7,120.561,141.863Zm-71.924-2.791c1.456-5.984,1.6-18.111.269-23.817-.9.557-2.013.858-2.351,1.543a15.836,15.836,0,0,0-1.671,5.056c-.362,3.175-.325,6.4-.483,9.594a9.327,9.327,0,0,0,1.838,6.213C46.73,138.314,47.748,138.572,48.637,139.072Zm1.745-45.407c-1.838,1.14-2.323,1.63-1.784,2.319,1.688,2.148.873,4.4.147,7.026C51.127,101.134,51.127,101.134,50.382,93.666Zm4.638-14.533c-1.727,2.334-3.7,4.081-2.551,7.462,1.729-2.117,3.181-3.888,3.676-6.237C56.185,80.155,55.689,79.841,55.019,79.133Zm29.69-2.763a27.73,27.73,0,0,0,2.36-1.762c.535-.485,1.452-1.209.34-1.844a2.417,2.417,0,0,0-2.191.163A2.443,2.443,0,0,0,84.71,76.369ZM119.6,96.177c.466-.9.834-1.615,1.3-2.516C118.879,93.783,118.717,94.6,119.6,96.177Zm.735,7.6c1.723-1.287,2.59-2.349,1.81-4.107C120.154,100.423,119.538,101.541,120.331,103.778ZM70.994,81.9l-.325-.99c-.327.176-.808.271-.943.542a5.6,5.6,0,0,0-.312,1.5,2.245,2.245,0,0,0,.85-.186A4.411,4.411,0,0,0,70.994,81.9Zm47.758,4.74-.726-.661c-.215.29-.641.626-.589.86.063.288.52.494.806.735C118.413,87.259,118.582,86.95,118.751,86.637Zm1.682,21.979c-.126-.1-.245-.26-.379-.273s-.282.128-.423.2c.121.1.241.262.368.271S120.288,108.688,120.433,108.617Zm-70.242.219-.217.377.321.059Zm8.6-26.049a1.741,1.741,0,0,0,.15-.466c0-.043-.215-.1-.332-.152a1.615,1.615,0,0,0-.141.462C58.469,82.678,58.68,82.732,58.795,82.786ZM84.686,81l-.414-.813c-.137.108-.41.256-.39.314a5.466,5.466,0,0,0,.4.837ZM47.579,89.652l.158.407.163-.412Z" transform="translate(0 0)" fill="#00112c"/><path d="M80.109,104.581c-1.829,5.013-4.629,8.138-9.334,9.083a20.98,20.98,0,0,1-10.147-.893,7.641,7.641,0,0,1-5.381-5.208c-.1-.312.158-.743.358-1.547.687.429,1.506.648,1.784,1.162a7.12,7.12,0,0,0,5.169,3.816c2.958.546,6.025,1.461,8.914.061a20.855,20.855,0,0,0,4.2-3.288C76.828,106.763,77.138,104.826,80.109,104.581Z" transform="translate(15.247 39.777)" fill="#00112c"/><path d="M61.755,105.058c-.707-.119-1.331-.089-1.389-.256-1.207-3.485-.7-6.97.16-10.428.059-.234.626-.5.932-.468s.628.371.889.628a.787.787,0,0,1,.15.555C62.258,98.41,62,101.727,61.755,105.058Z" transform="translate(20.415 27.315)" fill="#00112c"/><path d="M62.547,84.955c-3.487-.462-5.912,3.333-9.611,1.968-.119-.043-.141-.349-.334-.873,2.531-1.846,5.721-2.354,8.6-3.506.364-.145,1.146.756,1.736,1.172Z" transform="translate(12.187 14.037)" fill="#00112c"/><path d="M72.853,85.947c-2.735,1.032-2.735,1.032-9.516-2.906.013-1.55,1.162-1.374,2.044-1.14a14.984,14.984,0,0,1,3.311,1.365C69.906,83.925,71.028,84.758,72.853,85.947Z" transform="translate(24.716 13.127)" fill="#00112c"/><path d="M65.634,92.089c-.349-.47-1.242-1.142-1.326-1.9a2.725,2.725,0,0,1,2.542-2.778,2.339,2.339,0,0,1,2.232,2.321C68.913,91.125,67.656,92.133,65.634,92.089Z" transform="translate(25.835 19.733)" fill="#00112c"/><path d="M58.991,89.379A29.007,29.007,0,0,1,57,91.824a1.319,1.319,0,0,1-1.944-.672,10.94,10.94,0,0,1,.091-2.367c.156-1.053.7-2.154,1.866-1.723C57.8,87.351,58.265,88.48,58.991,89.379Z" transform="translate(15.024 19.218)" fill="#00112c"/></g></svg>