<svg xmlns="http://www.w3.org/2000/svg" width="348.165" height="358.416" viewBox="0 0 348.165 358.416"><g transform="translate(-500.827 -39.648)"><g transform="translate(500.827 149.23)"><g transform="translate(11.575)"><g transform="translate(0 34.845)"><path d="M836.5,195.381l.193-32.542h-11.49c-8.036-11.791-20.232-22.866-36.756-32.4-64.314-37.134-168.605-37.134-232.924,0-16.521,9.531-28.719,20.605-36.755,32.4H507.282l.2,32.491c-.07,1.69.042,7.371.042,7.371l.336,1.417c2.068,22.638,17.722,43.514,47.67,60.806,64.319,37.136,168.61,37.136,232.924,0,29.948-17.292,45.774-39.589,47.826-62.223C836.275,202.7,836.578,197.035,836.5,195.381Z" transform="translate(-503.689 -99.12)" fill="#a2db8f"/><path d="M674.055,298.235c-42.832,0-85.65-9.406-118.254-28.23-30.021-17.339-47.109-39.223-49.412-63.311l-.378-1.932s-.11-5.842-.04-7.585l-.219-35.917h13.22c8.605-12.031,20.981-22.767,36.828-31.924,65.209-37.632,171.307-37.634,236.493,0,15.854,9.157,28.24,19.893,36.843,31.924h13.206l-.2,36.055c.063,1.859-.207,6.969-.237,7.557C839.65,229.76,822.029,252.842,792.294,270,759.705,288.824,716.871,298.233,674.055,298.235Zm-160.912-94,.331,1.549c2.016,22.093,17.452,41.615,45.889,58.031,63.238,36.518,166.129,36.518,229.366,0,27.667-15.965,44.019-37.08,46.056-59.45.106-1.986.261-5.769.214-6.847v-.169l.167-28.952h-9.78l-1.064-1.556c-8.027-11.777-20.006-22.318-35.592-31.32-63.238-36.509-166.128-36.509-229.359,0-15.593,9-27.57,19.543-35.59,31.316l-1.057,1.56h-9.787l.174,28.9C513.047,198.822,513.12,202.958,513.143,204.238Z" transform="translate(-505.753 -101.111)" fill="#150035"/></g><g transform="translate(188.83 39.144)"><path d="M718.8,162.36c-8.036-11.791-20.232-22.866-36.756-32.4-26.917-15.542-60.862-24.487-95.931-27.018V291.463c35.069-2.528,69.014-11.476,95.931-27.018,29.948-17.292,45.774-39.589,47.826-62.223,0,0,.3-5.665.228-7.32l.193-32.542Z" transform="translate(-586.113 -102.941)" fill="#150035"/></g><g transform="translate(0.021)"><path d="M788.447,115.615c64.326,37.136,64.326,97.345,0,134.477s-168.605,37.136-232.924,0-64.319-97.34,0-134.477S724.133,78.477,788.447,115.615Z" transform="translate(-503.708 -84.286)" fill="#fff"/><path d="M674.043,283.418c-42.832,0-85.65-9.413-118.254-28.233-32.258-18.627-50.027-43.605-50.027-70.332s17.769-51.712,50.027-70.334C621,76.87,727.1,76.87,792.282,114.519c32.265,18.622,50.032,43.6,50.032,70.327s-17.767,51.712-50.032,70.339C759.693,274,716.859,283.418,674.043,283.418Zm0-190.1c-41.54,0-83.063,9.129-114.684,27.385C529.41,138,512.9,160.777,512.9,184.853S529.394,231.706,559.351,249c63.238,36.518,166.129,36.518,229.366,0,29.958-17.29,46.46-40.078,46.46-64.15S818.675,138,788.718,120.7C757.1,102.443,715.568,93.314,674.043,93.314Z" transform="translate(-505.762 -86.282)" fill="#150035"/></g><g transform="translate(34.858 156.291)"><rect width="5.096" height="34.933" fill="#150035"/></g><g transform="translate(153.819 193.663)"><rect width="5.106" height="34.926" fill="#150035"/></g><g transform="translate(286.989 165.98)"><rect width="2.547" height="30.563" fill="#a2db8f"/></g><g transform="translate(307.357 148.715)"><rect width="2.552" height="30.565" fill="#a2db8f"/></g></g><g transform="translate(55.185 25.156)"><path d="M732.584,118.949c47.309,27.309,47.309,71.584,0,98.891-47.29,27.314-123.975,27.314-171.284,0-47.29-27.307-47.29-71.582,0-98.887C608.609,91.644,685.295,91.644,732.584,118.949Z" transform="translate(-522.259 -94.986)" fill="#a2db8f"/><path d="M649,243.815c-31.668,0-63.327-6.958-87.429-20.88-24.031-13.866-37.263-32.531-37.263-52.539s13.232-38.664,37.263-52.532c48.206-27.833,126.645-27.833,174.851,0,24.024,13.868,37.263,32.531,37.263,52.532s-13.239,38.673-37.263,52.539C712.324,236.857,680.663,243.815,649,243.815Zm0-139.8c-30.383,0-60.733,6.676-83.867,20.027-21.717,12.539-33.684,29.006-33.684,46.35s11.967,33.818,33.684,46.359c46.251,26.7,121.482,26.7,167.719,0,21.722-12.541,33.691-29.008,33.691-46.359s-11.97-33.811-33.691-46.35C709.737,110.7,679.37,104.018,649,104.018Z" transform="translate(-524.312 -96.988)" fill="#150035"/></g><g transform="translate(57.408 52.862)"><path d="M731.193,130.748c-47.29-27.314-123.975-27.314-171.284,0-17.508,10.109-28.491,22.546-33.045,35.59,4.554,13.041,15.537,25.479,33.045,35.588,47.308,27.314,123.994,27.314,171.284,0,17.515-10.109,28.508-22.546,33.052-35.588C759.7,153.294,748.708,140.856,731.193,130.748Z" transform="translate(-523.09 -106.777)" fill="#fff"/><path d="M647.727,227.9c-31.675,0-63.327-6.958-87.429-20.88-17.649-10.2-29.636-23.162-34.638-37.505l-.4-1.175.4-1.177c5-14.346,16.989-27.309,34.638-37.51,48.206-27.831,126.645-27.831,174.851,0,17.656,10.2,29.633,23.164,34.629,37.51l.411,1.177-.411,1.175c-5,14.343-16.973,27.309-34.629,37.505C711.047,220.942,679.379,227.895,647.727,227.9Zm-114.9-59.56c4.678,12.245,15.379,23.463,31.029,32.5,46.251,26.708,121.482,26.7,167.719,0,15.654-9.037,26.348-20.255,31.029-32.5-4.681-12.247-15.375-23.465-31.029-32.5h0c-46.237-26.7-121.468-26.7-167.719,0C548.211,144.874,537.51,156.092,532.831,168.339Z" transform="translate(-525.258 -108.779)" fill="#150035"/></g><g transform="translate(204.177 30.387)"><rect width="5.09" height="27.701" fill="#150035"/></g><g transform="translate(230.457 38.314)"><rect width="5.097" height="27.7" fill="#150035"/></g><g transform="translate(58.756 30.387)"><path d="M624.135,99.214v25.959l-38.657,9.668-43.051,24.965-14.17,16.528-2.425-17,16.6-27.287,22.807-16.256L594.35,104.4Z" transform="translate(-525.832 -99.214)" fill="#150035"/></g><g transform="translate(153.324 92.89)"><g transform="translate(0 4.935)"><path d="M614.254,142.593l.026-4.61-2.888-5c-1.133-1.671-1.607,1.758-3.957.407-9.108-5.268-23.888-5.268-33,0-2.345,1.351-2.709.472-3.858,2.143l-2.98,2.449.024,4.6c-.007.237.009,1.039.009,1.039l.047.207c.3,3.205,2.5,6.164,6.758,8.612,9.11,5.266,23.891,5.266,33,0,4.258-2.448,6.495-5.607,6.789-8.819C614.224,143.625,614.264,142.826,614.254,142.593Z" transform="translate(-564.023 -125.853)" fill="#a2db8f"/><path d="M592.994,162.04a37.3,37.3,0,0,1-18.3-4.439c-6.319-3.654-8.123-7.992-8.485-11.091l-.1-.757s-.014-.968,0-1.262l-.031-6.133,3.952-3.238a5.818,5.818,0,0,1,3.407-2.237,4.444,4.444,0,0,0,1.26-.529c9.961-5.743,25.357-5.917,35.632-.522a4.168,4.168,0,0,1,2.991-.794,4.34,4.34,0,0,1,3.073,2l3.515,6.06-.033,5.578c0,.414-.031,1.191-.031,1.191-.425,4.683-3.466,8.8-8.574,11.735A37.2,37.2,0,0,1,592.994,162.04Zm-19.745-16.707.047.235c.228,2.594,2.834,4.613,4.977,5.849,7.994,4.608,21.465,4.608,29.441,0,3.031-1.746,4.819-3.894,5.007-6.044l.019-.63v-.115l.023-3.642-1.048-1.807a5.286,5.286,0,0,1-3.995-.634c-7.982-4.615-21.463-4.615-29.448,0a11.616,11.616,0,0,1-2.759,1.165l-.611.651-1.671,1.363Z" transform="translate(-566.077 -127.914)" fill="#150035"/></g><g transform="translate(0.007)"><path d="M607.437,131.287c9.127,5.261,9.127,13.793,0,19.057-9.108,5.268-23.888,5.268-33,0s-9.122-13.8,0-19.057S598.329,126.023,607.437,131.287Z" transform="translate(-564.031 -123.754)" fill="#a2db8f"/><path d="M592.99,159.939a37.377,37.377,0,0,1-18.3-4.443c-5.548-3.208-8.612-7.691-8.612-12.623s3.064-9.406,8.612-12.618c10.266-5.914,26.334-5.926,36.591,0h-.016c5.562,3.212,8.628,7.693,8.628,12.618s-3.067,9.416-8.628,12.623A37.257,37.257,0,0,1,592.99,159.939Zm0-26.955c-5.367,0-10.731,1.147-14.721,3.452-3.212,1.854-5.048,4.2-5.048,6.436s1.835,4.591,5.048,6.438c7.994,4.61,21.465,4.61,29.441,0,3.214-1.847,5.05-4.192,5.05-6.438s-1.835-4.582-5.05-6.436h0C603.721,134.131,598.354,132.984,592.99,132.984Z" transform="translate(-566.08 -125.813)" fill="#150035"/></g></g><g transform="translate(38.158 205.188)"><path d="M640.663,217.249c-49.177-4.037-90.754-17.3-123.6-39.415l2.855-4.23c32.1,21.623,72.867,34.6,121.167,38.567Z" transform="translate(-517.066 -173.604)" fill="#150035"/></g><g transform="translate(0 164.849)"><path d="M531.487,193.947c-22.145-18.387-30.324-34.563-30.66-35.245l4.568-2.265c.08.162,8.1,15.948,29.344,33.586Z" transform="translate(-500.827 -156.437)" fill="#150035"/></g></g><g transform="translate(528.341 39.648)"><g transform="translate(13.193)"><g transform="translate(0 1.878)"><path d="M730.874,211.718l-41.859-38.593,15.448-18.559c4.183-5.017-3.539-16-13.051-18.585l-47.259-12.846a22.145,22.145,0,0,1-10.522-6.911L612.39,91.276c4-4.573,7.329-8.386,7.832-9.011,1.344-1.7-4.422-20.742-4.991-22.739-.512-1.812-10.774-15.466-12.595-17.873a.353.353,0,0,0-.573.019L580.1,69.261l.035.08a4.773,4.773,0,0,0-1.356,2.7l-4.032,28.379C566.1,96.242,545.308,86.377,542.8,85.188a.351.351,0,0,0-.437.117l-22.025,27.763c-2.615,3.2-.648,9.749,5.8,14.8L570.3,162.48c3.527,2.77,6.065,6.377,6.774,9.646L585.955,213c1.791,8.236,13.77,16.1,20.276,13.316l32.3-13.838c2.578-1.107,6.413-.526,10.245,1.534l47.912,25.845c5.393,2.9,9.832,2.545,11.935.209l22.29-27.831A.384.384,0,0,0,730.874,211.718Z" transform="translate(-516.707 -39.005)" fill="#a2db8f"/><path d="M705.177,245.888a17.486,17.486,0,0,1-8.231-2.378l-47.917-25.845c-3.071-1.654-6.227-2.214-8.062-1.433l-32.307,13.831c-3.266,1.4-7.522.907-11.986-1.4-5.99-3.083-10.593-8.457-11.726-13.683L576.072,174.1c-.587-2.669-2.836-5.816-5.874-8.205l-44.16-34.615c-4.5-3.527-7.348-7.959-7.823-12.16a8.157,8.157,0,0,1,1.621-6.194l23.258-29.314,2.242.764c2.225,1.048,19.125,9.07,28.853,13.737l3.548-24.985a7.125,7.125,0,0,1,.973-2.719l-.014-.031.886-1.241,22.73-28.552,1.563-.139a2.841,2.841,0,0,1,2.228,1.166c12.33,16.336,12.823,18.1,12.99,18.679l.2.707c6.385,21.686,5.341,23,4.331,24.273-.449.559-3.1,3.6-6.481,7.465l19.837,23.305a19.618,19.618,0,0,0,9.272,6.119L693.506,135c6.887,1.87,13.558,7.966,15.518,14.181,1.032,3.276.611,6.272-1.191,8.433l-13.92,16.721,40.116,36.988a2.871,2.871,0,0,1,.3,3.9l-22.307,27.859A8.991,8.991,0,0,1,705.177,245.888Zm-62.211-35.031a18.206,18.206,0,0,1,8.445,2.39l47.915,25.845c4.413,2.387,7.7,2.058,8.88.74l20.956-26.177L687,174.787,703.981,154.4c.851-1.022.611-2.58.254-3.71-1.281-4.072-6.142-9.242-12.043-10.847L644.942,127a24.724,24.724,0,0,1-11.777-7.707l-22.65-26.6,1.431-1.631c3.438-3.915,6.37-7.28,7.421-8.511-.023-1.114-.512-5.313-4.88-20.135l-.223-.745c-.456-1.076-4.7-7.073-10.508-14.837L584.423,71.107l.054.136L583.4,72.505a2.268,2.268,0,0,0-.7,1.335l-4.519,31.774-3.09-1.494c-7.639-3.7-24.788-11.836-30.371-14.482l-20.979,26.431a3.4,3.4,0,0,0-.545,2.5c.249,2.185,1.927,5.632,5.929,8.767l44.16,34.62c3.978,3.125,6.85,7.268,7.679,11.084l8.88,40.872c.806,3.706,4.561,7.942,9.127,10.3,3.008,1.558,5.889,2.03,7.707,1.243l32.3-13.829A10.057,10.057,0,0,1,642.966,210.857Z" transform="translate(-518.15 -40.447)" fill="#150035"/></g><g transform="translate(22.199)"><path d="M608.037,48.105l35.1,41.232a22.187,22.187,0,0,0,10.522,6.911l47.25,12.839c9.517,2.589,17.241,13.568,13.063,18.587l-20.737,24.9c-1.654,2-1.487,5.247.444,8.7l24.2,43.166c4.873,8.7-2.028,13.737-11.681,8.53l-47.917-25.843c-3.83-2.068-7.665-2.639-10.247-1.534l-32.3,13.833c-6.5,2.789-18.491-5.08-20.274-13.316l-8.884-40.87c-.71-3.271-3.24-6.871-6.777-9.651l-44.153-34.613c-8.9-6.972-9.4-16.872-.853-16.759l42.428.59c3.389.045,5.659-1.614,6.058-4.429l5-35.233C589.295,38.048,600.969,39.8,608.037,48.105Z" transform="translate(-526.15 -38.209)" fill="#fff"/><path d="M714.925,219.03a18.306,18.306,0,0,1-8.466-2.406l-47.917-25.848c-3.078-1.666-6.255-2.225-8.067-1.443l-32.3,13.84c-3.266,1.389-7.531.907-11.991-1.405-5.99-3.088-10.588-8.459-11.725-13.681l-8.878-40.872c-.585-2.683-2.834-5.827-5.877-8.208L535.546,104.39c-6.185-4.848-9.188-11.378-7.47-16.249,1.142-3.229,4.307-4.993,8.2-4.993l42.423.585c1.516.021,3.278-.357,3.539-2.268l5.012-35.231a7.274,7.274,0,0,1,5.388-6.185c5.48-1.619,13.57,1.774,18.754,7.867l35.1,41.234a19.535,19.535,0,0,0,9.265,6.114l47.252,12.842c6.892,1.877,13.563,7.975,15.52,14.193,1.027,3.273.6,6.267-1.191,8.419l-20.74,24.9c-.933,1.121-.653,3.424.712,5.865l24.2,43.166c2.622,4.678,2.556,9.15-.2,11.944A8.71,8.71,0,0,1,714.925,219.03Zm-62.455-35.073a18.219,18.219,0,0,1,8.455,2.4L708.843,212.2c4.378,2.359,7.682,2.115,8.9.879,1.092-1.114.872-3.346-.6-5.978l-24.2-43.166c-2.46-4.394-2.531-8.7-.181-11.526l20.735-24.906c.853-1.025.611-2.573.256-3.7-1.281-4.07-6.138-9.249-12.048-10.854L654.453,100.1a24.723,24.723,0,0,1-11.777-7.7l-35.1-41.232c-4.314-5.073-10.365-7.221-13.544-6.307a2.29,2.29,0,0,0-1.814,2.077l-5.008,35.226c-.573,4.058-3.987,6.617-8.577,6.582l-42.43-.58c-1.788.033-3,.529-3.393,1.645-.815,2.293.949,6.8,5.837,10.628L582.8,135.06c3.98,3.116,6.85,7.261,7.679,11.086l8.878,40.872c.813,3.7,4.559,7.933,9.124,10.292,3.013,1.56,5.905,2.03,7.717,1.248l32.3-13.838A10.091,10.091,0,0,1,652.469,183.957Z" transform="translate(-527.597 -39.648)" fill="#150035"/></g><g transform="translate(56.156 100.591)"><rect width="35.755" height="5.019" transform="translate(0 27.967) rotate(-51.46)" fill="#150035"/></g><g transform="translate(72.592 154.82)"><rect width="35.754" height="5.018" transform="matrix(0.623, -0.782, 0.782, 0.623, 0, 27.974)" fill="#150035"/></g><g transform="translate(127.202 146.124)"><rect width="35.754" height="5.018" transform="translate(0 27.978) rotate(-51.491)" fill="#150035"/></g><g transform="translate(8.252 62.462)"><rect width="35.751" height="5.019" transform="matrix(0.623, -0.782, 0.782, 0.623, 0, 27.964)" fill="#150035"/></g><g transform="translate(171.402 169.452)"><rect width="35.761" height="5.02" transform="matrix(0.623, -0.782, 0.782, 0.623, 0, 27.982)" fill="#150035"/></g></g><g transform="translate(17.779 109.894)"><path d="M600.322,185.781a33.692,33.692,0,0,1-33.008-27.013l-4.65-23.033a46.012,46.012,0,0,0-18.921-28.78L520.1,90.527l2.865-4.112,23.641,16.423a50.965,50.965,0,0,1,20.97,31.908l4.655,23.026a28.67,28.67,0,0,0,38.544,21.019l14.348-5.611,1.821,4.671L612.6,183.464A33.743,33.743,0,0,1,600.322,185.781Z" transform="translate(-520.102 -86.415)" fill="#150035"/></g><g transform="translate(183.303 46.04)"><path d="M638.727,158.844l-10.139-17.036a17.275,17.275,0,0,1,1.9-20.342l10.778-12.214a19.874,19.874,0,0,0-8.946-32.112L590.544,64.023l1.5-4.782,41.777,13.11a24.886,24.886,0,0,1,11.206,40.221l-10.772,12.21a12.277,12.277,0,0,0-1.354,14.461l10.139,17.036Z" transform="translate(-590.544 -59.241)" fill="#150035"/></g><g transform="translate(0 89.389)"><path d="M523.573,97.251c-9.538-7.024-10.981-18.5-11.037-18.975l4.982-.587c.012.1,1.278,9.822,9.03,15.525Z" transform="translate(-512.536 -77.689)" fill="#150035"/></g><g transform="translate(226.699 153.1)"><path d="M613.061,149.154l-4.049-2.968,13.149-17.924a12.115,12.115,0,0,0,1.189-12.348l-4.23-8.974,4.537-2.138,4.232,8.972a17.149,17.149,0,0,1-1.682,17.459Z" transform="translate(-609.012 -104.802)" fill="#150035"/></g></g><g transform="translate(627.569 95.37)"><path d="M606.113,70.166c-10.191-5.531-21.39-8.034-31.175-6.22-19.55,3.7-26.005,23.359-14.416,43.922s36.838,34.251,56.386,30.557,26.019-23.362,14.432-43.925A64.617,64.617,0,0,0,606.113,70.166Zm-5.828,59.981a46.356,46.356,0,0,1-12.4-4.49,51.36,51.36,0,0,1-11.443-8.426,46.683,46.683,0,0,1-8.027-10.247L612.162,130.5A32.9,32.9,0,0,1,600.286,130.147Zm17.76-1.643L565.267,99.912c-5.539-16.395,3.734-29.133,20.7-28.447,7.444.305,15.513,3.21,22.723,8.18l-1.41,3.191-.435.982c-7.907-5.48-16.963-7.919-24.41-6.565-9.606,1.868-14.59,9.869-12.508,20.013l46.329,25.086c5.731-4.075,7.632-11.476,5.036-19.673-.04-.129-.073-.244-.113-.376L609.048,104.6l-3-5.318,17.692-3.344.035.063C631.364,109.635,628.982,123.1,618.046,128.5Z" transform="translate(-554.764 -63.361)" fill="#150035"/></g></g></svg>