<svg xmlns="http://www.w3.org/2000/svg" width="315.712" height="399.844" viewBox="0 0 315.712 399.844"><g transform="translate(-548.471 -41.613)"><g transform="translate(548.471 215.817)"><g transform="translate(10.496 0)"><g transform="translate(0 31.597)"><path d="M853.462,223.818l.175-29.511H843.215c-7.287-10.692-18.344-20.735-33.33-29.379-58.319-33.673-152.889-33.673-211.213,0-14.981,8.64-26.042,18.683-33.329,29.375H554.926l.177,29.464c-.064,1.532.038,6.682.038,6.682l.3,1.287c1.875,20.528,16.07,39.458,43.227,55.136,58.323,33.675,152.893,33.675,211.213,0,27.157-15.678,41.507-35.9,43.368-56.423C853.253,230.453,853.528,225.316,853.462,223.818Z" transform="translate(-551.668 -136.529)" fill="#a2db8f"/><path d="M706.011,316.948c-38.84,0-77.664-8.532-107.229-25.6-27.225-15.721-42.72-35.567-44.808-57.409l-.343-1.749s-.1-5.3-.034-6.878l-.2-32.571h11.988c7.8-10.91,19.026-20.645,33.4-28.947,59.131-34.124,155.337-34.129,214.447,0,14.376,8.3,25.607,18.037,33.408,28.947h11.975l-.185,32.7c.057,1.685-.188,6.32-.215,6.85-2.041,22.569-18.02,43.5-44.983,59.061C783.678,308.412,744.836,316.944,706.011,316.948ZM560.1,231.711l.3,1.406c1.828,20.034,15.825,37.736,41.612,52.621,57.343,33.112,150.643,33.112,207.989,0,25.086-14.476,39.914-33.624,41.761-53.908.1-1.8.237-5.231.194-6.209v-.153l.151-26.255h-8.868l-.965-1.411c-7.279-10.677-18.141-20.238-32.273-28.4-57.345-33.106-150.645-33.106-207.982,0-14.14,8.163-25,17.724-32.273,28.4l-.959,1.415h-8.875l.16,26.208C560.011,226.8,560.079,230.55,560.1,231.711Z" transform="translate(-553.397 -138.198)" fill="#150035"/></g><g transform="translate(171.229 35.496)"><path d="M754.075,193.907c-7.287-10.692-18.344-20.735-33.33-29.379-24.408-14.093-55.189-22.207-86.989-24.5v170.95c31.8-2.293,62.581-10.409,86.989-24.5,27.157-15.678,41.507-35.9,43.368-56.423,0,0,.275-5.137.209-6.635l.175-29.511Z" transform="translate(-633.757 -140.028)" fill="#150035"/></g><g transform="translate(0.021)"><path d="M809.883,150.107c58.33,33.673,58.33,88.271,0,121.942s-152.889,33.675-211.213,0-58.323-88.269,0-121.942S751.564,116.428,809.883,150.107Z" transform="translate(-551.687 -121.698)" fill="#fff"/><path d="M706,302.128c-38.84,0-77.664-8.534-107.229-25.6-29.253-16.888-45.364-39.539-45.364-63.774s16.111-46.892,45.364-63.78c59.131-34.137,155.337-34.137,214.447,0,29.26,16.888,45.368,39.536,45.368,63.772s-16.109,46.894-45.368,63.782C783.667,293.594,744.825,302.128,706,302.128Zm0-172.381c-37.668,0-75.321,8.278-103.994,24.832-27.157,15.687-42.125,36.342-42.125,58.174S574.834,255.236,602,270.916c57.343,33.112,150.643,33.112,207.989,0,27.165-15.68,42.128-36.342,42.128-58.172s-14.962-42.479-42.128-58.166C781.316,138.024,743.655,129.746,706,129.746Z" transform="translate(-553.407 -123.369)" fill="#150035"/></g><g transform="translate(31.61 141.723)"><rect width="4.621" height="31.676" fill="#150035"/></g><g transform="translate(139.482 175.611)"><rect width="4.63" height="31.67" fill="#150035"/></g><g transform="translate(260.239 150.508)"><rect width="2.31" height="27.715" fill="#a2db8f"/></g><g transform="translate(278.708 134.853)"><rect width="2.314" height="27.716" fill="#a2db8f"/></g></g><g transform="translate(50.041 22.81)"><path d="M760.956,154.128c42.9,24.764,42.9,64.912,0,89.671-42.882,24.768-112.419,24.768-155.316,0s-42.882-64.908,0-89.667S718.074,129.367,760.956,154.128Z" transform="translate(-570.235 -132.398)" fill="#a2db8f"/><path d="M685.025,267.217c-28.716,0-57.422-6.309-79.28-18.934-21.791-12.576-33.79-29.5-33.79-47.644s12-35.06,33.79-47.633c43.713-25.241,114.84-25.241,158.553,0,21.787,12.574,33.79,29.5,33.79,47.633s-12,35.068-33.79,47.644C742.443,260.908,713.733,267.217,685.025,267.217Zm0-126.766c-27.551,0-55.072,6.051-76.049,18.158-19.693,11.372-30.545,26.3-30.545,42.029s10.852,30.666,30.545,42.038c41.94,24.212,110.161,24.214,152.086,0,19.7-11.372,30.551-26.3,30.551-42.038s-10.854-30.658-30.551-42.029C740.1,146.506,712.564,140.451,685.025,140.451Z" transform="translate(-571.956 -134.074)" fill="#150035"/></g><g transform="translate(52.057 47.935)"><path d="M759.791,165.924c-42.882-24.768-112.42-24.768-155.316,0-15.879,9.169-25.836,20.447-29.967,32.275,4.132,11.824,14.089,23.1,29.967,32.268,42.9,24.768,112.434,24.768,155.316,0,15.883-9.167,25.851-20.445,29.974-32.268C785.642,186.371,775.674,175.093,759.791,165.924Z" transform="translate(-571.086 -144.19)" fill="#fff"/><path d="M683.956,253.884c-28.723,0-57.422-6.309-79.28-18.934-16-9.248-26.873-21-31.408-34.011l-.366-1.063.366-1.07c4.534-13.006,15.4-24.764,31.408-34.013,43.713-25.235,114.84-25.235,158.553,0,16.013,9.25,26.871,21.007,31.4,34.013l.373,1.07-.373,1.063c-4.53,13.008-15.388,24.764-31.4,34.011C741.374,247.574,712.657,253.879,683.956,253.884ZM579.77,199.875c4.242,11.1,13.946,21.274,28.137,29.469,41.94,24.218,110.161,24.212,152.086,0,14.2-8.195,23.892-18.365,28.137-29.469-4.244-11.108-13.942-21.278-28.137-29.473h0c-41.925-24.212-110.146-24.212-152.086,0C593.715,178.6,584.012,188.767,579.77,199.875Z" transform="translate(-572.902 -145.866)" fill="#150035"/></g><g transform="translate(185.146 27.554)"><rect width="4.615" height="25.119" fill="#150035"/></g><g transform="translate(208.976 34.742)"><rect width="4.622" height="25.118" fill="#150035"/></g><g transform="translate(53.28 27.554)"><path d="M662.617,136.3V159.84l-35.054,8.767-39.038,22.638-12.849,14.987-2.2-15.419,15.049-24.743,20.681-14.741,26.4-10.324Z" transform="translate(-573.476 -136.301)" fill="#150035"/></g><g transform="translate(139.033 84.231)"><g transform="translate(0 4.474)"><path d="M657.55,178.455l.023-4.181-2.619-4.532c-1.027-1.515-1.455,1.592-3.586.366-8.259-4.775-21.661-4.775-29.922,0-2.126,1.225-2.459.43-3.5,1.945l-2.7,2.22.021,4.174c-.006.213.009.942.009.942l.043.185c.271,2.909,2.271,5.591,6.13,7.809,8.261,4.777,21.664,4.777,29.922,0,3.859-2.218,5.887-5.082,6.154-7.995C657.522,179.39,657.558,178.666,657.55,178.455Z" transform="translate(-612 -163.273)" fill="#a2db8f"/><path d="M638.129,195.947a33.8,33.8,0,0,1-16.592-4.027c-5.73-3.311-7.366-7.245-7.692-10.057l-.1-.684s-.013-.88,0-1.144l-.028-5.561,3.586-2.938a5.276,5.276,0,0,1,3.088-2.029,3.948,3.948,0,0,0,1.142-.477c9.032-5.21,22.993-5.367,32.311-.473a3.783,3.783,0,0,1,2.712-.722,3.939,3.939,0,0,1,2.787,1.813l3.188,5.493-.03,5.058c0,.377-.028,1.082-.028,1.082-.386,4.244-3.143,7.973-7.775,10.639A33.736,33.736,0,0,1,638.129,195.947Zm-17.9-15.15.043.213c.207,2.35,2.57,4.183,4.513,5.3,7.249,4.178,19.465,4.178,26.7,0,2.749-1.583,4.37-3.529,4.543-5.48l.015-.569v-.107l.021-3.3-.95-1.641a4.794,4.794,0,0,1-3.622-.575c-7.238-4.183-19.462-4.183-26.7,0a10.589,10.589,0,0,1-2.5,1.059l-.556.588-1.515,1.236Z" transform="translate(-613.721 -165)" fill="#150035"/></g><g transform="translate(0.006)"><path d="M651.37,168.006c8.274,4.769,8.274,12.508,0,17.281s-21.661,4.775-29.922,0-8.274-12.512,0-17.281S643.111,163.233,651.37,168.006Z" transform="translate(-612.008 -161.175)" fill="#a2db8f"/><path d="M638.126,193.845a33.894,33.894,0,0,1-16.592-4.029c-5.029-2.909-7.809-6.974-7.809-11.447s2.781-8.532,7.809-11.444c9.309-5.361,23.88-5.372,33.18,0H654.7c5.046,2.913,7.824,6.978,7.824,11.444s-2.778,8.538-7.824,11.447A33.783,33.783,0,0,1,638.126,193.845Zm0-24.442a27.4,27.4,0,0,0-13.349,3.128c-2.913,1.683-4.577,3.808-4.577,5.838s1.664,4.161,4.577,5.836c7.249,4.181,19.465,4.181,26.7,0,2.915-1.675,4.579-3.8,4.579-5.836s-1.664-4.155-4.579-5.838h0A27.393,27.393,0,0,0,638.126,169.4Z" transform="translate(-613.724 -162.9)" fill="#150035"/></g></g><g transform="translate(34.602 186.06)"><path d="M676.786,250.269c-44.593-3.661-82.295-15.687-112.076-35.742l2.589-3.838c29.107,19.61,66.075,31.376,109.875,34.975Z" transform="translate(-564.71 -210.69)" fill="#150035"/></g><g transform="translate(0 149.482)"><path d="M576.273,227.539c-20.08-16.673-27.5-31.344-27.8-31.962l4.142-2.054c.075.147,7.347,14.462,26.611,30.455Z" transform="translate(-548.471 -193.523)" fill="#150035"/></g></g><g transform="translate(693.754 41.613)"><path d="M706.016,109.142a.842.842,0,0,0-.78.1l-.6.349-8.078,2.621L727.321,54.33a.49.49,0,0,0-.177-.652l-17.854-11h0c-.426-.217-1.1.03-1.66.91l-80.918,128.3c-.49.784-.765,1.114-.494,1.506l.245.43L646,185.227s-.094.377-.224.929l-27.92,65.138c-.371.854-.222,1.434.136,1.666h0a.55.55,0,0,0,.124.072l18.071,11.057a.432.432,0,0,0,.616-.168l61.534-117.674,25.533-25.386a.525.525,0,0,0-.094-.822l-17.734-10.905Z" transform="translate(-615.535 -40.494)" fill="#a2db8f"/><path d="M637.546,267.385A2.564,2.564,0,0,1,636.2,267l-18.063-11.05a3.3,3.3,0,0,1-1.1-4.377l27.547-64.264L626.04,176.483l-.533-.914c-.946-1.366-.068-2.732.4-3.469L706.962,43.584c1.285-2.033,3.177-2.3,4.406-1.668L729.374,53a2.6,2.6,0,0,1,.921,3.452l-28.31,53.263,3.309-1.178a3.144,3.144,0,0,1,1.662-.435l.477-.162,18.572,11.423a2.629,2.629,0,0,1,.469,4.121l-25.294,25.147-61.807,118.2-1.159.462A2.386,2.386,0,0,1,637.546,267.385ZM621.1,252.813l15.789,9.661,61.085-116.609L722.076,121.9l-15.244-9.373-.426.194-13.042,4.225,32.5-61.147-15.548-9.582L629.828,173.806l19.712,11.51-.588,2.448Z" transform="translate(-616.654 -41.613)" fill="#150035"/><g transform="translate(18.473 11.293)"><path d="M716.3,48.9,635.386,177.2c-.863,1.368-.328,2.7.814,2.037l28.925-16.7c.987-.569,1.573.356,1.036,1.615l-39.63,92.45c-.8,1.867.788,2.516,1.867.763l86.347-140.812c.833-1.362.3-2.655-.835-2l-29.43,16.993c-.984.569-1.579-.362-1.031-1.624L718.141,49.7C718.946,47.849,717.393,47.173,716.3,48.9Z" transform="translate(-624.205 -45.794)" fill="#fff"/><path d="M628.154,261.616a2.831,2.831,0,0,1-1.3-.311c-1.2-.616-2.069-2.267-1.146-4.421l38.39-89.556-25.723,14.854a2.854,2.854,0,0,1-3.586-.375,3.732,3.732,0,0,1-.073-4.613l80.918-128.3c1.3-2.063,3.218-2.3,4.438-1.66,1.189.626,2.054,2.28,1.125,4.428l-33.447,77.317,26.219-15.135a2.845,2.845,0,0,1,3.569.362,3.72,3.72,0,0,1,.121,4.573L631.318,259.581A3.776,3.776,0,0,1,628.154,261.616Zm38.652-100.249a2.691,2.691,0,0,1,1.809.686,3.487,3.487,0,0,1,.6,4.044l-33.564,78.291,76.414-124.578-25.416,14.677a2.876,2.876,0,0,1-3.424-.23,3.485,3.485,0,0,1-.6-4.059l29-67.036-71.266,113,24.828-14.338A3.233,3.233,0,0,1,666.806,161.367Z" transform="translate(-625.324 -46.913)" fill="#150035"/></g><g transform="translate(26.674 104.666)"><rect width="4.219" height="21.627" transform="matrix(0.514, -0.858, 0.858, 0.514, 0, 3.619)" fill="#150035"/></g><g transform="translate(82.641 16.504)"><rect width="4.217" height="21.627" transform="translate(0 3.617) rotate(-59.067)" fill="#150035"/></g><g transform="translate(15.363 176.281)"><rect width="4.22" height="21.629" transform="matrix(0.514, -0.858, 0.858, 0.514, 0, 3.62)" fill="#150035"/></g><g transform="translate(27.161 2.475)"><g transform="translate(13.642 0)"><rect width="56.854" height="4.225" transform="translate(0 47.953) rotate(-57.504)" fill="#150035"/></g><g transform="translate(0 54.375)"><rect width="17.786" height="4.22" transform="translate(0 15.009) rotate(-57.548)" fill="#150035"/></g></g><g transform="translate(22.434 175.468)"><g transform="translate(13.638 0)"><rect width="56.85" height="4.222" transform="translate(0 47.935) rotate(-57.478)" fill="#150035"/></g><g transform="translate(0 54.367)"><rect width="17.782" height="4.225" transform="matrix(0.537, -0.844, 0.844, 0.537, 0, 15.003)" fill="#150035"/></g></g><g transform="translate(47.711 97.82)"><path d="M644.808,95.41c-.633,3.7-4.965,5.48-5.74,5.774a.05.05,0,0,0,0,.083c.776.292,5.107,2.065,5.74,5.764.006.055.07.055.085,0,.629-3.7,5-5.472,5.772-5.764a.042.042,0,0,0,0-.083c-.776-.294-5.144-2.075-5.772-5.774C644.879,95.355,644.815,95.355,644.808,95.41Z" transform="translate(-639.046 -78.648)" fill="#a2db8f"/><path d="M652.625,95.41c-.633,3.7-4.965,5.48-5.738,5.774a.044.044,0,0,0,0,.083c.771.292,5.1,2.065,5.736,5.764a.042.042,0,0,0,.083,0c.628-3.7,5-5.472,5.783-5.764a.047.047,0,0,0,0-.083c-.782-.294-5.154-2.075-5.783-5.774A.042.042,0,0,0,652.625,95.41Z" transform="translate(-630.211 -78.648)" fill="#a2db8f"/><path d="M652.625,87.561c-.633,3.7-4.965,5.489-5.738,5.774a.044.044,0,0,0,0,.083c.771.294,5.1,2.065,5.736,5.768a.042.042,0,0,0,.083,0c.628-3.7,5-5.474,5.783-5.768a.047.047,0,0,0,0-.083c-.782-.286-5.154-2.073-5.783-5.774A.042.042,0,0,0,652.625,87.561Z" transform="translate(-630.211 -87.521)" fill="#a2db8f"/><path d="M660.433,87.561c-.631,3.7-4.956,5.489-5.728,5.774a.044.044,0,0,0,0,.083c.771.294,5.1,2.065,5.728,5.768a.044.044,0,0,0,.087,0c.633-3.7,5-5.474,5.776-5.768a.044.044,0,0,0,0-.083c-.773-.286-5.144-2.073-5.776-5.774A.044.044,0,0,0,660.433,87.561Z" transform="translate(-621.372 -87.521)" fill="#a2db8f"/></g></g></g></svg>