<svg xmlns="http://www.w3.org/2000/svg" width="373.827" height="384.834" viewBox="0 0 373.827 384.834"><g transform="translate(-295.399 -271.174)"><g transform="translate(295.399 388.834)"><g transform="translate(12.426)"><g transform="translate(0 37.413)"><path d="M655.34,433.747l.207-34.943H643.21c-8.629-12.66-21.723-24.549-39.465-34.787-69.054-39.871-181.032-39.871-250.091.005-17.739,10.233-30.839,22.122-39.467,34.782H301.854l.209,34.888c-.078,1.814.043,7.912.043,7.912l.363,1.524c2.22,24.306,19.028,46.721,51.184,65.285,69.059,39.876,181.037,39.876,250.091,0,32.156-18.564,49.145-42.5,51.35-66.809C655.1,441.6,655.418,435.521,655.34,433.747Z" transform="translate(-297.994 -330.39)" fill="#a2db8f"/><path d="M481.031,544.292c-45.987,0-91.96-10.1-126.967-30.314C321.83,495.363,303.48,471.864,301.01,446l-.406-2.071s-.119-6.275-.043-8.144l-.237-38.566h14.194c9.242-12.918,22.53-24.445,39.545-34.275,70.016-40.406,183.934-40.411,253.924,0,17.023,9.83,30.319,21.357,39.558,34.275h14.179l-.219,38.715c.068,2-.222,7.483-.255,8.114-2.417,26.721-21.337,51.5-53.263,69.93C573,534.187,527,544.287,481.031,544.292ZM308.261,443.365l.356,1.665c2.165,23.721,18.736,44.682,49.272,62.308,67.9,39.207,178.373,39.207,246.272,0,29.706-17.141,47.263-39.813,49.451-63.832.113-2.132.28-6.194.229-7.352v-.182l.179-31.086h-10.5l-1.143-1.673c-8.619-12.643-21.481-23.963-38.216-33.629-67.9-39.2-178.373-39.2-246.264,0-16.743,9.666-29.6,20.986-38.216,33.624l-1.133,1.678H308.039l.187,31.03C308.158,437.549,308.236,441.992,308.261,443.365Z" transform="translate(-300.324 -332.638)" fill="#150035"/></g><g transform="translate(202.75 42.03)"><path d="M523.151,398.264c-8.629-12.66-21.723-24.549-39.465-34.787-28.9-16.687-65.348-26.292-103-29.009V536.885c37.653-2.715,74.1-12.322,103-29.012,32.156-18.564,49.145-42.5,51.35-66.809,0,0,.323-6.083.245-7.857l.207-34.943Z" transform="translate(-380.685 -334.468)" fill="#150035"/></g><g transform="translate(0.025)"><path d="M603.742,349.2c69.067,39.871,69.067,104.52,0,144.388s-181.032,39.873-250.091,0-69.059-104.517,0-144.388S534.688,309.319,603.742,349.2Z" transform="translate(-298.016 -315.557)" fill="#fff"/><path d="M481.015,529.472c-45.987,0-91.961-10.1-126.967-30.311-34.636-20-53.714-46.819-53.714-75.516s19.079-55.523,53.714-75.521c70.016-40.421,183.934-40.421,253.924,0,34.643,20,53.72,46.814,53.72,75.511s-19.076,55.526-53.72,75.526C572.981,519.368,526.99,529.472,481.015,529.472Zm0-204.112c-44.6,0-89.183,9.8-123.135,29.4C325.725,373.337,308,397.8,308,423.646s17.709,50.3,49.875,68.87c67.9,39.207,178.373,39.207,246.272,0,32.166-18.567,49.885-43.032,49.885-68.88s-17.719-50.3-49.885-68.873C570.2,335.162,525.6,325.36,481.015,325.36Z" transform="translate(-300.334 -317.809)" fill="#150035"/></g><g transform="translate(37.43 167.811)"><rect width="5.472" height="37.507" fill="#150035"/></g><g transform="translate(165.158 207.937)"><rect width="5.482" height="37.5" fill="#150035"/></g><g transform="translate(308.144 178.213)"><rect width="2.735" height="32.816" fill="#a2db8f"/></g><g transform="translate(330.013 159.676)"><rect width="2.74" height="32.817" fill="#a2db8f"/></g></g><g transform="translate(59.252 27.009)"><path d="M542.4,351.987c50.8,29.322,50.8,76.86,0,106.177-50.775,29.327-133.113,29.327-183.908,0-50.775-29.317-50.775-76.855,0-106.172C409.282,322.667,491.62,322.667,542.4,351.987Z" transform="translate(-316.567 -326.256)" fill="#a2db8f"/><path d="M452.764,486.165c-34,0-67.992-7.471-93.873-22.419-25.8-14.891-40.007-34.928-40.007-56.414s14.207-41.513,40.007-56.4c51.762-29.887,135.982-29.887,187.741,0,25.8,14.888,40.01,34.926,40.01,56.4s-14.215,41.523-40.01,56.414C520.754,478.694,486.759,486.165,452.764,486.165Zm0-150.1c-32.62,0-65.207,7.165-90.046,21.5-23.317,13.465-36.167,31.146-36.167,49.766s12.85,36.313,36.167,49.776c49.66,28.669,130.436,28.671,180.081,0,23.322-13.463,36.174-31.144,36.174-49.776s-12.852-36.3-36.174-49.766C517.976,343.235,485.371,336.065,452.764,336.065Z" transform="translate(-318.884 -328.515)" fill="#150035"/></g><g transform="translate(61.637 56.759)"><path d="M540.825,363.784c-50.775-29.327-133.113-29.327-183.908,0-18.8,10.856-30.591,24.211-35.481,38.216,4.89,14,16.682,27.354,35.481,38.208,50.8,29.327,133.133,29.327,183.908,0C559.632,429.353,571.434,416,576.314,402,571.434,387.994,559.632,374.64,540.825,363.784Z" transform="translate(-317.382 -338.049)" fill="#fff"/><path d="M451.325,468.207c-34.007,0-67.992-7.471-93.873-22.419-18.948-10.947-31.817-24.869-37.189-40.272l-.434-1.259.434-1.267c5.371-15.4,18.241-29.322,37.189-40.272,51.762-29.882,135.982-29.882,187.741,0,18.958,10.95,31.817,24.872,37.181,40.272l.441,1.267-.441,1.259c-5.364,15.4-18.224,29.325-37.181,40.272C519.314,460.736,485.312,468.2,451.325,468.207Zm-123.362-63.95c5.023,13.147,16.513,25.19,33.316,34.893,49.66,28.676,130.436,28.669,180.081,0,16.808-9.7,28.29-21.746,33.316-34.893-5.026-13.15-16.508-25.195-33.316-34.9h0c-49.645-28.666-130.421-28.666-180.081,0C344.476,379.062,332.986,391.106,327.963,404.256Z" transform="translate(-319.829 -340.306)" fill="#150035"/></g><g transform="translate(219.226 32.626)"><rect width="5.465" height="29.742" fill="#150035"/></g><g transform="translate(247.442 41.138)"><rect width="5.472" height="29.741" fill="#150035"/></g><g transform="translate(63.086 32.626)"><path d="M425.953,330.741v27.872l-41.506,10.38L338.222,395.8l-15.214,17.746-2.6-18.257,17.819-29.3,24.488-17.454,31.262-12.224Z" transform="translate(-320.404 -330.741)" fill="#150035"/></g><g transform="translate(164.625 99.737)"><g transform="translate(0 5.298)"><path d="M412.265,375.09l.025-4.95-3.1-5.366c-1.219-1.794-1.726,1.885-4.249.436-9.779-5.656-25.649-5.656-35.43,0-2.518,1.448-2.909.507-4.143,2.3l-3.2,2.629.025,4.943c-.008.252.01,1.115.01,1.115l.048.22c.32,3.444,2.692,6.62,7.259,9.247,9.782,5.656,25.651,5.656,35.43,0,4.572-2.626,6.974-6.017,7.289-9.466C412.232,376.2,412.275,375.34,412.265,375.09Z" transform="translate(-358.331 -357.115)" fill="#a2db8f"/><path d="M389.55,396.083c-7.067,0-14.131-1.587-19.647-4.768-6.784-3.921-8.722-8.578-9.11-11.906l-.113-.812s-.015-1.042,0-1.355l-.03-6.585,4.244-3.479a6.255,6.255,0,0,1,3.656-2.4,4.651,4.651,0,0,0,1.355-.565c10.7-6.169,27.226-6.353,38.259-.56a4.463,4.463,0,0,1,3.212-.853,4.656,4.656,0,0,1,3.3,2.145l3.774,6.5-.035,5.99c0,.447-.035,1.282-.035,1.282-.454,5.026-3.719,9.441-9.2,12.6C403.676,394.494,396.612,396.083,389.55,396.083Zm-21.2-17.938.053.252c.245,2.783,3.043,4.953,5.344,6.277,8.581,4.948,23.047,4.948,31.608,0,3.255-1.875,5.177-4.178,5.379-6.489l.02-.674v-.126l.025-3.908-1.125-1.943a5.685,5.685,0,0,1-4.292-.681c-8.568-4.953-23.042-4.953-31.616,0a12.505,12.505,0,0,1-2.962,1.254l-.656.7-1.794,1.463Z" transform="translate(-360.649 -359.44)" fill="#150035"/></g><g transform="translate(0.008)"><path d="M404.947,363.1c9.8,5.646,9.8,14.81,0,20.461-9.779,5.657-25.649,5.657-35.43,0s-9.8-14.815,0-20.461S395.168,357.453,404.947,363.1Z" transform="translate(-358.342 -355.017)" fill="#a2db8f"/><path d="M389.545,393.981A40.132,40.132,0,0,1,369.9,389.21c-5.957-3.444-9.247-8.258-9.247-13.553s3.29-10.1,9.247-13.548c11.023-6.35,28.275-6.363,39.288,0h-.018c5.972,3.446,9.264,8.26,9.264,13.548s-3.293,10.11-9.264,13.553C403.672,392.381,396.607,393.981,389.545,393.981Zm0-28.941c-5.763,0-11.525,1.229-15.807,3.7-3.449,1.993-5.419,4.511-5.419,6.913s1.97,4.927,5.419,6.91c8.581,4.95,23.048,4.95,31.608,0,3.454-1.983,5.424-4.5,5.424-6.91s-1.97-4.92-5.424-6.913h0C401.068,366.268,395.305,365.04,389.545,365.04Z" transform="translate(-360.652 -357.34)" fill="#150035"/></g></g><g transform="translate(40.971 220.309)"><path d="M444.345,451.995c-52.8-4.335-97.445-18.574-132.707-42.321l3.065-4.544c34.464,23.219,78.238,37.154,130.1,41.412Z" transform="translate(-311.638 -405.13)" fill="#150035"/></g><g transform="translate(0 176.997)"><path d="M328.319,428.24C304.542,408.5,295.76,391.127,295.4,390.4l4.9-2.432c.086.174,8.7,17.126,31.507,36.061Z" transform="translate(-295.399 -387.963)" fill="#150035"/></g></g><g transform="translate(324.941 271.174)"><g transform="translate(14.165)"><g transform="translate(0 2.018)"><path d="M541.045,455.79,496.1,414.353l16.586-19.929c4.491-5.384-3.8-17.174-14.013-19.952l-50.742-13.793a23.815,23.815,0,0,1-11.3-7.42L413.83,326.469c4.3-4.907,7.869-9,8.409-9.673,1.443-1.827-4.748-22.27-5.359-24.415-.55-1.945-11.568-16.606-13.523-19.19a.379.379,0,0,0-.616.018l-23.585,29.625.04.083a5.132,5.132,0,0,0-1.456,2.9l-4.329,30.47c-9.285-4.483-31.608-15.075-34.3-16.352a.374.374,0,0,0-.467.126L315,349.87c-2.811,3.439-.7,10.468,6.227,15.89l47.414,37.164c3.785,2.972,6.512,6.847,7.271,10.357l9.537,43.887c1.92,8.843,14.785,17.288,21.771,14.3L441.9,456.608c2.768-1.188,6.885-.568,11,1.645l51.444,27.753c5.79,3.118,10.556,2.73,12.814.225l23.933-29.882A.41.41,0,0,0,541.045,455.79Z" transform="translate(-311.095 -270.348)" fill="#a2db8f"/><path d="M513.534,492.554A18.768,18.768,0,0,1,504.7,490l-51.449-27.748c-3.3-1.776-6.686-2.379-8.656-1.542L409.9,475.564c-3.5,1.5-8.076.974-12.867-1.506-6.431-3.31-11.374-9.078-12.59-14.689l-9.532-43.89c-.631-2.869-3.043-6.244-6.307-8.813L321.189,369.5c-4.834-3.787-7.889-8.548-8.4-13.057a8.761,8.761,0,0,1,1.741-6.653l24.973-31.472,2.407.82c2.389,1.125,20.535,9.736,30.98,14.747l3.807-26.825a7.718,7.718,0,0,1,1.044-2.919l-.013-.033.949-1.332,24.4-30.659,1.678-.146a3.044,3.044,0,0,1,2.394,1.251c13.238,17.54,13.768,19.432,13.947,20.055l.217.759c6.855,23.282,5.735,24.692,4.65,26.06-.482.6-3.325,3.87-6.958,8.018l21.3,25.023a21.051,21.051,0,0,0,9.956,6.57L501,373.5c7.395,2.011,14.555,8.555,16.659,15.229,1.11,3.517.659,6.734-1.277,9.052l-14.946,17.956,43.072,39.712a3.088,3.088,0,0,1,.326,4.186l-23.951,29.913A9.657,9.657,0,0,1,513.534,492.554Zm-66.8-37.61a19.517,19.517,0,0,1,9.068,2.566l51.444,27.748c4.738,2.563,8.265,2.213,9.537.795l22.5-28.1-45.268-41.733,18.231-21.887c.913-1.1.656-2.77.272-3.984-1.378-4.372-6.6-9.923-12.933-11.646l-50.73-13.791a26.509,26.509,0,0,1-12.645-8.278L411.9,328.068l1.536-1.754c3.691-4.2,6.84-7.814,7.968-9.138-.028-1.193-.553-5.7-5.24-21.62l-.24-.8c-.49-1.156-5.046-7.594-11.283-15.928L383.88,304.894l.056.146L382.78,306.4a2.443,2.443,0,0,0-.744,1.433l-4.852,34.116-3.318-1.6c-8.2-3.969-26.618-12.711-32.612-15.549l-22.523,28.376a3.664,3.664,0,0,0-.588,2.684c.27,2.346,2.071,6.045,6.368,9.413l47.415,37.171c4.271,3.353,7.355,7.8,8.243,11.9l9.537,43.885c.863,3.979,4.9,8.528,9.8,11.053,3.232,1.673,6.325,2.182,8.278,1.337l34.679-14.848A10.8,10.8,0,0,1,446.738,454.944Z" transform="translate(-312.722 -271.974)" fill="#150035"/></g><g transform="translate(23.835)"><path d="M408.459,280.177l37.686,44.271a23.83,23.83,0,0,0,11.3,7.42l50.732,13.786c10.218,2.78,18.511,14.568,14.025,19.957l-22.266,26.731c-1.776,2.142-1.6,5.634.477,9.343L526.4,448.031c5.233,9.338-2.177,14.747-12.542,9.158l-51.449-27.75c-4.112-2.218-8.23-2.831-11-1.645l-34.678,14.853c-6.984,2.992-19.853-5.455-21.768-14.3l-9.539-43.882c-.762-3.51-3.479-7.377-7.276-10.359l-47.407-37.166c-9.552-7.483-10.1-18.113-.916-17.991l45.555.633c3.638.048,6.075-1.733,6.5-4.756L387.25,277C388.335,269.378,400.87,271.256,408.459,280.177Z" transform="translate(-320.536 -269.55)" fill="#fff"/><path d="M523.3,463.779a19.649,19.649,0,0,1-9.093-2.586l-51.446-27.75c-3.305-1.791-6.716-2.389-8.661-1.549l-34.681,14.858c-3.509,1.494-8.086.974-12.875-1.506-6.431-3.315-11.369-9.085-12.59-14.689l-9.532-43.887c-.628-2.879-3.043-6.254-6.31-8.81L330.7,340.69c-6.641-5.2-9.865-12.216-8.021-17.446,1.226-3.467,4.625-5.361,8.808-5.361l45.55.628c1.627.023,3.52-.384,3.8-2.435l5.382-37.827a7.81,7.81,0,0,1,5.785-6.643c5.884-1.736,14.57,1.907,20.133,8.447l37.693,44.276a20.94,20.94,0,0,0,9.948,6.562l50.735,13.791c7.4,2.016,14.563,8.56,16.664,15.239,1.1,3.512.648,6.726-1.279,9.04L503.635,395.7c-1,1.2-.7,3.676.765,6.3l25.984,46.347c2.816,5.023,2.742,9.825-.209,12.824A9.352,9.352,0,0,1,523.3,463.779Zm-67.059-37.658a19.553,19.553,0,0,1,9.075,2.573l51.454,27.753c4.7,2.531,8.248,2.268,9.555.944,1.173-1.2.936-3.6-.648-6.419l-25.987-46.347c-2.639-4.718-2.715-9.348-.194-12.378l22.265-26.739c.916-1.1.656-2.765.275-3.979-1.375-4.367-6.59-9.928-12.935-11.654l-50.73-13.788a26.544,26.544,0,0,1-12.645-8.27l-37.689-44.273c-4.632-5.445-11.126-7.753-14.54-6.769a2.458,2.458,0,0,0-1.948,2.23l-5.377,37.822c-.616,4.357-4.281,7.1-9.209,7.067l-45.558-.626c-1.92.038-3.224.568-3.643,1.769-.876,2.462,1.019,7.3,6.265,11.411l47.407,37.171c4.276,3.346,7.354,7.794,8.248,11.9l9.532,43.882c.873,3.974,4.895,8.52,9.8,11.053,3.234,1.675,6.34,2.18,8.286,1.34l34.676-14.858A10.847,10.847,0,0,1,456.245,426.121Z" transform="translate(-322.169 -271.174)" fill="#150035"/></g><g transform="translate(105.051 69.062)"><path d="M405.279,364.045l-7.816-1.171a10.3,10.3,0,0,1-7.284-5.788l-11.21-28.495c-1.6-4.07-3.858-10.453-6.752-7.69l-2.606,2.536c-1.448,1.41-4.8.648-7.38-1.693l-4.5-4.087c-2.538-2.4-3.325-5.354-1.784-6.719l12.347-10.907a3.548,3.548,0,0,1,2.912-.621l9.174,1.375a10.262,10.262,0,0,1,7.281,5.793l20.964,53.265C409.709,362.607,408.218,364.489,405.279,364.045Z" transform="translate(-353.143 -297.327)" fill="#150035"/><path d="M407.29,367.349a7.84,7.84,0,0,1-1.092-.078h0l-7.814-1.178a12.342,12.342,0,0,1-8.866-7.044l-11.492-29.2c-.691-1.776-2.311-5.937-3.335-6.4l-2.447,2.657c-2.261,2.2-6.724,1.471-10.152-1.645l-4.5-4.075c-2.1-1.993-3.265-4.324-3.23-6.421a4.425,4.425,0,0,1,1.468-3.31l12.343-10.917a5.546,5.546,0,0,1,4.557-1.1l9.168,1.378a12.344,12.344,0,0,1,8.858,7.052l20.971,53.263a5.254,5.254,0,0,1-.472,5.3A4.883,4.883,0,0,1,407.29,367.349Zm-.494-4.077c.775.129,1.191-.038,1.3-.161s.154-.578-.126-1.3L387,308.54a8.318,8.318,0,0,0-5.7-4.536l-9.169-1.375a1.708,1.708,0,0,0-1.274.139L358.5,313.68a4.776,4.776,0,0,0,1.839,3.734l4.468,4.052c2.14,1.943,4.292,2.084,4.617,1.743l2.606-2.536a3.894,3.894,0,0,1,3.588-1.163c2.765.621,4.3,4.067,6.176,8.871l11.48,29.186a8.328,8.328,0,0,0,5.7,4.534Z" transform="translate(-354.36 -298.547)" fill="#150035"/></g><g transform="translate(60.295 108.006)"><rect width="38.391" height="5.389" transform="translate(0 30.028) rotate(-51.46)" fill="#150035"/></g><g transform="translate(77.942 166.232)"><rect width="38.389" height="5.388" transform="matrix(0.623, -0.782, 0.782, 0.623, 0, 30.036)" fill="#150035"/></g><g transform="translate(136.577 156.895)"><rect width="38.39" height="5.388" transform="translate(0 30.04) rotate(-51.491)" fill="#150035"/></g><g transform="translate(8.86 67.066)"><rect width="38.386" height="5.389" transform="matrix(0.623, -0.782, 0.782, 0.623, 0, 30.025)" fill="#150035"/></g><g transform="translate(184.035 181.942)"><rect width="38.397" height="5.39" transform="matrix(0.623, -0.782, 0.782, 0.623, 0, 30.044)" fill="#150035"/></g></g><g transform="translate(19.089 117.995)"><path d="M400.806,424.632a36.175,36.175,0,0,1-35.44-29l-5-24.733a49.4,49.4,0,0,0-20.313-30.9l-25.384-17.636,3.076-4.415,25.381,17.631a54.728,54.728,0,0,1,22.518,34.26l5,24.725a30.784,30.784,0,0,0,41.385,22.568l15.4-6.025,1.958,5.016-15.4,6.025A36.19,36.19,0,0,1,400.806,424.632Z" transform="translate(-314.674 -317.942)" fill="#150035"/></g><g transform="translate(196.811 49.435)"><path d="M436.849,397.713l-10.884-18.292A18.547,18.547,0,0,1,428,357.579l11.573-13.117a21.338,21.338,0,0,0-9.6-34.479L385.115,295.9l1.61-5.134,44.854,14.073a26.721,26.721,0,0,1,12.035,43.189l-11.565,13.109a13.178,13.178,0,0,0-1.453,15.526l10.884,18.292Z" transform="translate(-385.115 -290.768)" fill="#150035"/></g><g transform="translate(0 95.977)"><path d="M318.958,330.221c-10.243-7.541-11.79-19.858-11.85-20.373l5.349-.633c.013.1,1.373,10.549,9.7,16.672Z" transform="translate(-307.108 -309.215)" fill="#150035"/></g><g transform="translate(243.408 164.385)"><path d="M407.931,383.95l-4.347-3.187L417.7,361.518a13.013,13.013,0,0,0,1.277-13.258l-4.541-9.638,4.872-2.293,4.541,9.633a18.4,18.4,0,0,1-1.8,18.743Z" transform="translate(-403.584 -336.329)" fill="#150035"/></g></g></g></svg>