<svg xmlns="http://www.w3.org/2000/svg" width="661.121" height="398.169" viewBox="0 0 661.121 398.169"><g transform="translate(-144.421 -51.92)"><g transform="translate(145.421 79.746)"><path d="M385.379,97.372H145.421v346H385.378V124a26.628,26.628,0,0,1,26.628-26.628H385.379Z" transform="translate(-145.421 -97.372)" fill="#fff" stroke="#000" stroke-linecap="round" stroke-linejoin="round" stroke-miterlimit="10" stroke-width="2"/><g transform="translate(119.554 225.036)"><circle cx="49.841" cy="49.841" r="49.841" transform="translate(0 0.007)" stroke="#000" stroke-linecap="round" stroke-linejoin="round" stroke-miterlimit="10" stroke-width="2"/><path d="M370.347,596.9c.127.067.25.129.375.194.678.352,1.364.695,2.064,1.019h0L393.7,552.87l-49.336,7.016A49.8,49.8,0,0,0,370.347,596.9Z" transform="translate(-343.86 -503.022)" fill="#47c3f1" stroke="#000" stroke-linecap="round" stroke-linejoin="round" stroke-miterlimit="10" stroke-width="2"/><path d="M387.751,475.991,410.9,520.117l24.1-43.609c-1.04-.574-2.1-1.127-3.193-1.633A49.747,49.747,0,0,0,387.751,475.991Z" transform="translate(-361.064 -470.269)" fill="#ede73b" stroke="#000" stroke-linecap="round" stroke-linejoin="round" stroke-miterlimit="10" stroke-width="2"/><path d="M395.314,568.519c8.226-21.845,25.979-66.706,36.352-92.812,1.056.4,2.107.843,3.148,1.325a49.841,49.841,0,0,1-39.5,91.487Z" transform="translate(-364.063 -472.425)" stroke="#000" stroke-linecap="round" stroke-linejoin="round" stroke-miterlimit="10" stroke-width="2"/><path d="M402.709,552.757s-2.538,28.135-3.659,49.716a50.026,50.026,0,0,1-31.6-14.468Z" transform="translate(-353.016 -502.977)" fill="red" stroke="#000" stroke-linecap="round" stroke-linejoin="round" stroke-miterlimit="10" stroke-width="2"/></g><g transform="translate(34.767 21.112)"><path d="M216.794,203.265l31.071-51.521,30.324,53.689L296.7,169.28l15.615,19.351,24.953-44.183L364.2,187.861" transform="translate(-208.488 -137.15)" fill="none" stroke="#000" stroke-linecap="round" stroke-linejoin="round" stroke-miterlimit="10" stroke-width="2"/><circle cx="7.297" cy="7.297" r="7.297" transform="translate(32.179 7.297)" fill="red" stroke="#000" stroke-linecap="round" stroke-linejoin="round" stroke-miterlimit="10" stroke-width="2"/><circle cx="7.297" cy="7.297" r="7.297" transform="translate(0 59.982)" fill="#ede73b" stroke="#000" stroke-linecap="round" stroke-linejoin="round" stroke-miterlimit="10" stroke-width="2"/><circle cx="7.297" cy="7.297" r="7.297" transform="translate(80.919 25.053)" fill="#47c3f1" stroke="#000" stroke-linecap="round" stroke-linejoin="round" stroke-miterlimit="10" stroke-width="2"/><circle cx="7.297" cy="7.297" r="7.297" transform="translate(120.733)" stroke="#000" stroke-linecap="round" stroke-linejoin="round" stroke-miterlimit="10" stroke-width="2"/><circle cx="7.297" cy="7.297" r="7.297" transform="translate(174.339 9.925)" stroke="#000" stroke-linecap="round" stroke-linejoin="round" stroke-miterlimit="10" stroke-width="2"/><circle cx="7.297" cy="7.297" r="7.297" transform="translate(97.156 44.223)" fill="#ede73b" stroke="#000" stroke-linecap="round" stroke-linejoin="round" stroke-miterlimit="10" stroke-width="2"/><line y1="28.365" x2="21.106" transform="translate(160.53 17.222)" fill="none" stroke="#000" stroke-linecap="round" stroke-linejoin="round" stroke-miterlimit="10" stroke-width="2"/><circle cx="7.297" cy="7.297" r="7.297" transform="translate(148.414 43.55)" fill="#fff" stroke="#000" stroke-linecap="round" stroke-linejoin="round" stroke-miterlimit="10" stroke-width="2"/><circle cx="7.297" cy="7.297" r="7.297" transform="translate(62.751 64.557)" fill="#47c3f1" stroke="#000" stroke-linecap="round" stroke-linejoin="round" stroke-miterlimit="10" stroke-width="2"/></g><rect width="21.446" height="207.951" transform="translate(32.59 116.81)" fill="#fff2ed" stroke="#000" stroke-linecap="round" stroke-linejoin="round" stroke-miterlimit="10" stroke-width="2"/><rect width="21.446" height="106.542" transform="translate(79.664 218.218)" fill="#47c3f1" stroke="#000" stroke-linecap="round" stroke-linejoin="round" stroke-miterlimit="10" stroke-width="2"/><g transform="translate(132.199 174.364)"><circle cx="6.845" cy="6.845" r="6.845" fill="#47c3f1" stroke="#000" stroke-linecap="round" stroke-linejoin="round" stroke-miterlimit="10" stroke-width="2"/><circle cx="6.845" cy="6.845" r="6.845" transform="translate(20.136)" fill="red" stroke="#000" stroke-linecap="round" stroke-linejoin="round" stroke-miterlimit="10" stroke-width="2"/><circle cx="6.845" cy="6.845" r="6.845" transform="translate(40.272)" fill="#ede73b" stroke="#000" stroke-linecap="round" stroke-linejoin="round" stroke-miterlimit="10" stroke-width="2"/><circle cx="6.845" cy="6.845" r="6.845" transform="translate(60.408)" stroke="#000" stroke-linecap="round" stroke-linejoin="round" stroke-miterlimit="10" stroke-width="2"/></g><path d="M366.783,272.05l10.276,5.4,10.277-5.4,10.274,5.4,10.278-5.4,10.279,5.4,10.28-5.4,10.28,5.4" transform="translate(-233.195 -166.635)" fill="none" stroke="#000" stroke-linecap="round" stroke-linejoin="round" stroke-miterlimit="10" stroke-width="2"/><path d="M367.3,286.454l10.276,5.4,10.277-5.4,10.274,5.4,10.278-5.4,10.278,5.4,10.28-5.4,10.28,5.4" transform="translate(-233.4 -172.347)" fill="none" stroke="#000" stroke-linecap="round" stroke-linejoin="round" stroke-miterlimit="10" stroke-width="2"/><path d="M366.268,301.617l10.275,5.4,10.277-5.4,10.274,5.4,10.278-5.4,10.278,5.4,10.28-5.4,10.28,5.4" transform="translate(-232.991 -178.359)" fill="none" stroke="#000" stroke-linecap="round" stroke-linejoin="round" stroke-miterlimit="10" stroke-width="2"/><line x2="22.509" transform="translate(17.873 23.428)" stroke="#000" stroke-linecap="round" stroke-linejoin="round" stroke-miterlimit="10" stroke-width="2"/><line x2="22.509" transform="translate(17.873 30.881)" stroke="#000" stroke-linecap="round" stroke-linejoin="round" stroke-miterlimit="10" stroke-width="2"/><line x2="22.509" transform="translate(17.873 38.334)" stroke="#000" stroke-linecap="round" stroke-linejoin="round" stroke-miterlimit="10" stroke-width="2"/></g><g transform="translate(417.435 52.92)"><path d="M672.782,77.066a21.3,21.3,0,0,0-21.3,21.3,21.3,21.3,0,0,0-21.312-21.3,21.3,21.3,0,0,0,21.313-21.3A21.3,21.3,0,0,0,672.782,77.066Z" transform="translate(-609.649 -54.05)" fill="#ede73b" stroke="#000" stroke-linecap="round" stroke-linejoin="round" stroke-miterlimit="10" stroke-width="2"/><g transform="translate(135.302 39.586)"><path d="M1024.1,455.982H832.07a11.7,11.7,0,0,1-11.7-11.7V130.221a11.7,11.7,0,0,1,11.7-11.7H1024.1a11.7,11.7,0,0,1,11.7,11.7V444.278A11.706,11.706,0,0,1,1024.1,455.982Z" transform="translate(-820.366 -118.516)" fill="#fff2ed" stroke="#000" stroke-linecap="round" stroke-linejoin="round" stroke-miterlimit="10" stroke-width="2"/><circle cx="16.171" cy="16.171" r="16.171" transform="translate(91.549 288.016)" fill="#fff2ed" stroke="#000" stroke-linecap="round" stroke-linejoin="round" stroke-miterlimit="10" stroke-width="2"/><rect width="215.441" height="239.241" transform="translate(0 35.48)" fill="#0abf53" stroke="#000" stroke-linecap="round" stroke-linejoin="round" stroke-miterlimit="10" stroke-width="2"/></g><g transform="translate(280.835 73.98)"><path d="M1064.176,289.349a2.621,2.621,0,0,1-2.257-4.006l18.232-29.256a2.621,2.621,0,0,1,2.187-1.234h0a2.621,2.621,0,0,1,2.22,1.173l6.985,10.548,16.109-25.85a2.62,2.62,0,0,1,4.436-.112l6.985,10.547,16.137-25.9a2.62,2.62,0,0,1,4.447,2.771l-18.232,29.256a2.623,2.623,0,0,1-2.753,1.18l-.149-.031a2.619,2.619,0,0,1-1.655-1.119l-6.9-10.415-16.078,25.8a2.619,2.619,0,0,1-2.75,1.18l-.149-.031a2.614,2.614,0,0,1-1.657-1.119l-6.9-10.417-16.075,25.8A2.629,2.629,0,0,1,1064.176,289.349Z" transform="translate(-1061.523 -194.748)" fill="#fff" stroke="#000" stroke-linecap="round" stroke-linejoin="round" stroke-miterlimit="10" stroke-width="2"/><path d="M1184.385,175.509l-2.728,21.4,19.51,9.2-21.194,4.019-2.728,21.4-10.368-18.912-21.188,4.019,14.779-15.707L1150.1,182.012l19.511,9.2Z" transform="translate(-1094.896 -175.509)" fill="#fc7ee4" stroke="#000" stroke-linecap="round" stroke-linejoin="round" stroke-miterlimit="10" stroke-width="2"/></g><g transform="translate(153.649)"><path d="M986.074,228.984a2.664,2.664,0,0,1-1.835-2.424l-3.134-42.545L955.876,207a2.57,2.57,0,0,1-2.664.562,2.668,2.668,0,0,1-1.641-2.218l-6.8-56.12L922.83,171.167a2.61,2.61,0,0,1-2.585.719l-.033-.01a2.625,2.625,0,0,1-1.757-2.075l-8.875-47.585a3.111,3.111,0,0,1,2.1-3.552,2.522,2.522,0,0,1,3.151,2.092L922.8,163.5l22.234-22.229a2.559,2.559,0,0,1,2.7-.68,2.658,2.658,0,0,1,1.7,2.24l6.831,56.416,25.455-23.192a2.572,2.572,0,0,1,2.726-.537,2.7,2.7,0,0,1,1.593,2.337l3.53,47.919a3.057,3.057,0,0,1-2.456,3.28A2.423,2.423,0,0,1,986.074,228.984Z" transform="translate(-874.067 -78.952)" fill="#fff" stroke="#000" stroke-linecap="round" stroke-linejoin="round" stroke-miterlimit="10" stroke-width="2"/><path d="M877.562,52.92l13.691,21.86,25.021-6.266L899.715,88.291l13.691,21.86-23.926-9.638-16.56,19.776,1.772-25.732-23.926-9.638,25.021-6.266Z" transform="translate(-850.768 -52.92)" fill="red" stroke="#000" stroke-linecap="round" stroke-linejoin="round" stroke-miterlimit="10" stroke-width="2"/></g><path d="M1012.22,145.3l10.277,5.4,10.277-5.4,10.277,5.4,10.277-5.4,10.277,5.4,10.277-5.4,10.283,5.4" transform="translate(-761.138 -89.55)" fill="none" stroke="#000" stroke-linecap="round" stroke-linejoin="round" stroke-miterlimit="10" stroke-width="2"/><path d="M637.992,165.44a20.9,20.9,0,0,0-20.906,20.906,20.907,20.907,0,0,0-20.921-20.906,20.908,20.908,0,0,0,20.921-20.907A20.9,20.9,0,0,0,637.992,165.44Z" transform="translate(-596.164 -89.246)" fill="#ede73b" stroke="#000" stroke-linecap="round" stroke-linejoin="round" stroke-miterlimit="10" stroke-width="2"/><path d="M790.707,81.7a9.907,9.907,0,0,0-9.907,9.907,9.908,9.908,0,0,0-9.915-9.907,9.908,9.908,0,0,0,9.915-9.907A9.907,9.907,0,0,0,790.707,81.7Z" transform="translate(-665.444 -60.404)" fill="#ede73b" stroke="#000" stroke-linecap="round" stroke-linejoin="round" stroke-miterlimit="10" stroke-width="2"/><g transform="translate(58.423 29.157)"><circle cx="25.054" cy="25.054" r="25.054" fill="#e0e0e0" stroke="#000" stroke-linecap="round" stroke-linejoin="round" stroke-miterlimit="10" stroke-width="2"/><g transform="translate(18.986 14.406)"><line y1="21.297" x2="9.678" transform="translate(1.229)" fill="none" stroke="#000" stroke-linecap="round" stroke-linejoin="round" stroke-miterlimit="10" stroke-width="2"/><ellipse cx="2.383" cy="3.736" rx="2.383" ry="3.736" transform="translate(0 0.751)" fill="none" stroke="#000" stroke-linecap="round" stroke-linejoin="round" stroke-miterlimit="10" stroke-width="2"/><ellipse cx="2.383" cy="3.736" rx="2.383" ry="3.736" transform="translate(7.372 13.073)" fill="none" stroke="#000" stroke-linecap="round" stroke-linejoin="round" stroke-miterlimit="10" stroke-width="2"/></g><circle cx="17.743" cy="17.743" r="17.743" transform="translate(7.311 7.311)" fill="none" stroke="#000" stroke-linecap="round" stroke-linejoin="round" stroke-miterlimit="10" stroke-width="2"/><path d="M712.713,138.24a11.8,11.8,0,0,0,.952,7.88" transform="translate(-700.685 -115.908)" fill="none" stroke="#000" stroke-linecap="round" stroke-linejoin="round" stroke-miterlimit="10" stroke-width="2"/></g><g transform="translate(85.636 60.427)"><circle cx="38.357" cy="38.357" r="38.357" fill="#47c3f1" stroke="#000" stroke-linecap="round" stroke-linejoin="round" stroke-miterlimit="10" stroke-width="2"/><g transform="translate(7.912 7.912)"><circle cx="30.445" cy="30.445" r="30.445" fill="#47c3f1" stroke="#000" stroke-linecap="round" stroke-linejoin="round" stroke-miterlimit="10" stroke-width="2"/><path d="M796.407,259.3a30.289,30.289,0,0,0,16.542-4.892,7.474,7.474,0,0,1-2.787-3.01c-.517-1.256-.4-2.736-1.088-3.908a147.915,147.915,0,0,0-19.921,4.857l-.025.186a52.085,52.085,0,0,0-.608,5.415c-.015.1-.039.2-.057.3A30.444,30.444,0,0,0,796.407,259.3Z" transform="translate(-765.962 -198.41)" fill="#47c3f1" stroke="#000" stroke-linecap="round" stroke-linejoin="round" stroke-miterlimit="10" stroke-width="2"/><g transform="translate(8.025 7.617)"><path d="M781.286,230.262c-.269-1.126-.542-2.867-.821-3.991a12.118,12.118,0,0,0-1.109-3.168,4.157,4.157,0,0,0-2.535-2.07c-1.387-.323-2.815.334-4.239.3a4.48,4.48,0,0,1-4.045-3.038,13.627,13.627,0,0,1-.194-4.134,4.309,4.309,0,0,0-1.5-3.7,13.7,13.7,0,0,1-1.708-.941,2.717,2.717,0,0,1-.211-3.3,16.287,16.287,0,0,1,2.367-2.675,10.375,10.375,0,0,0,2.591-8.174l8.059-3.074,17.731,9.65,2.981,19.379s-.314,3.539,0,4.28Z" transform="translate(-764.475 -184.141)" fill="#ede73b" stroke="#000" stroke-linecap="round" stroke-linejoin="round" stroke-miterlimit="10" stroke-width="2"/><path d="M800.349,218.306a6.818,6.818,0,0,0-2.664-3.426c-1.458-.952-3.392-1.445-4.172-3s-.011-3.4.374-5.106a12.567,12.567,0,0,0-.046-5.5,6.027,6.027,0,0,0-1.069-2.495,2.836,2.836,0,0,0-2.371-1.135c-1.221.11-2.1,1.172-2.928,2.073s-2.016,1.78-3.18,1.395a2.96,2.96,0,0,1-1.322-1.066c-2.063-2.635-2.447-6.242-2.049-9.565q-4.553-.348-9.121-.43l1.219.024-2.425-.045a.908.908,0,0,1-.752-.255.869.869,0,0,1-.031-.722,13.777,13.777,0,0,1,7.868-8.756,20.68,20.68,0,0,1,11.946-1.122,27.924,27.924,0,0,1,11.128,4.659,21.391,21.391,0,0,1,4.377,4.022,27.747,27.747,0,0,1,4.288,8.434c1.663,4.807,2.8,10.037,1.515,14.959a9.523,9.523,0,0,1-1.464,3.281c-1.969,2.666-5.812,3.591-9.119,3.775" transform="translate(-766.566 -178.783)" stroke="#000" stroke-linecap="round" stroke-linejoin="round" stroke-miterlimit="10" stroke-width="2"/></g><g transform="translate(15.273 25.68)"><path d="M779.1,210.687a2.916,2.916,0,0,0-.039-.43,2.684,2.684,0,0,0-.083-.427,2.263,2.263,0,0,0-.17-.4,1.725,1.725,0,0,0-.263-.343,1.257,1.257,0,0,0-.332-.273.932.932,0,0,0-.419-.1.918.918,0,0,0-.415.11,1.215,1.215,0,0,0-.334.268,1.691,1.691,0,0,0-.264.34,2.264,2.264,0,0,0-.174.4,2.755,2.755,0,0,0-.081.427,2.235,2.235,0,0,0,0,.862,2.746,2.746,0,0,0,.084.426,2.227,2.227,0,0,0,.177.4,1.75,1.75,0,0,0,.244.357,1.261,1.261,0,0,0,.343.263.915.915,0,0,0,.419.083.9.9,0,0,0,.417-.089,1.239,1.239,0,0,0,.347-.258,1.745,1.745,0,0,0,.244-.357,2.267,2.267,0,0,0,.167-.4,2.629,2.629,0,0,0,.11-.42A3.1,3.1,0,0,0,779.1,210.687Z" transform="translate(-776.487 -208.715)"/></g></g><path d="M834.1,190.192a28.329,28.329,0,0,1,4.961,8.728" transform="translate(-776.148 -167.778)" fill="none" stroke="#000" stroke-linecap="round" stroke-linejoin="round" stroke-miterlimit="10" stroke-width="2"/></g><g transform="translate(126.725 111.093)"><circle cx="42.519" cy="42.519" r="42.519" fill="#dd7800" stroke="#000" stroke-linecap="round" stroke-linejoin="round" stroke-miterlimit="10" stroke-width="2"/><g transform="translate(8.771 8.771)"><circle cx="33.748" cy="33.748" r="33.748" fill="#dd7800" stroke="#000" stroke-linecap="round" stroke-linejoin="round" stroke-miterlimit="10" stroke-width="2"/><path d="M862.607,325.276a33.666,33.666,0,0,0,25.737-11.929l-12.085-9s-.041,1.321-.041-4a23.788,23.788,0,0,1,1.882-9.289,15.4,15.4,0,0,0-11.733-23.739l.007-.042H857.8c-.042.09-11.856,1.617-11.773,15.3,0,0-.33,3.821-2.213,5.516s-2.541,1.749-2.522,3.344c.019,1.648,2,1.553,2,1.553s2.5.086,2.5,3.156c0,2.593-.232,4.991-.232,4.991a3.206,3.206,0,0,0,3.7,3.721c2.847-.174,5.235-.039,4.246-.007.609.128,1.609.788,2.23,3.586.824,3.708.729,2.3.824,3.708l-10.711,8.673A33.591,33.591,0,0,0,862.607,325.276Z" transform="translate(-828.859 -257.78)" fill="#fc7ee4" stroke="#000" stroke-linecap="round" stroke-linejoin="round" stroke-miterlimit="10" stroke-width="2"/><path d="M891.333,337.7l-12.085-9s-.01.32-.02.008L859.545,336.5l-10.711,8.673a33.722,33.722,0,0,0,42.5-7.467Z" transform="translate(-831.849 -282.137)" stroke="#000" stroke-linecap="round" stroke-linejoin="round" stroke-miterlimit="10" stroke-width="2"/><g transform="translate(16.82 7.244)"><path d="M863.92,268.675c3.494-2.585,11.237-2.427,11.237-2.427h0a16.054,16.054,0,0,1,12.23,24.744,14.417,14.417,0,0,0-2.975,8.945" transform="translate(-854.651 -264.616)" fill="none" stroke="#fff" stroke-linecap="round" stroke-linejoin="round" stroke-miterlimit="10" stroke-width="2"/><circle cx="0.007" cy="0.007" r="0.007" transform="translate(2.456 7.002)" fill="#fff"/><circle cx="0.125" cy="0.125" r="0.125" transform="translate(0.491 5.098)" fill="#fff"/><circle cx="0.037" cy="0.037" r="0.037" transform="translate(1.332 2.272)" fill="#fff"/><circle cx="0.037" cy="0.037" r="0.037" transform="translate(2.788 1.303)" fill="#fff"/><circle cx="0.037" cy="0.037" r="0.037" transform="translate(3.653 7.018)" fill="#fff"/><path d="M875,265.975c4.288,1.631,8.355,4.343,10.321,8.487,2.555,5.384,1.5,11.84-.829,17.325-1.073,2.524-2.5,5.047-4.832,6.5-.685.427-.122,1.333-.912,1.165l-9.925-4.516c2.2-.8,3.305-2.877,4.24-5.021.667-1.53,1.2-3.284.6-4.841s-2.844-2.482-4.011-1.288a7.181,7.181,0,0,0-1.018,1.982c-.331.67-1.023,1.307-1.743,1.1a1.419,1.419,0,0,1-.891-1.375,5.658,5.658,0,0,1,.375-1.708,3.741,3.741,0,0,0-.252-3.322c-.878-1.153-2.557-1.175-3.964-1.521a7.27,7.27,0,0,1-5.526-7.668,13.519,13.519,0,0,1-5.171-.007,3.852,3.852,0,0,1-2.418-1.249,2.915,2.915,0,0,1-.416-2.238,5.476,5.476,0,0,1,4.152-3.992,11.907,11.907,0,0,1,5.962.369,26.025,26.025,0,0,0,3.763.616l2.311.086S872.56,265.048,875,265.975Z" transform="translate(-848.561 -263.546)" fill="#ede73b" stroke="#000" stroke-linecap="round" stroke-linejoin="round" stroke-miterlimit="10" stroke-width="2"/><g transform="translate(2.861 18.469)"><path d="M855.918,296.122a2.934,2.934,0,0,0-.039-.43,2.762,2.762,0,0,0-.083-.427,2.254,2.254,0,0,0-.17-.4,1.723,1.723,0,0,0-.263-.343,1.254,1.254,0,0,0-.333-.273.931.931,0,0,0-.419-.1.916.916,0,0,0-.415.11,1.214,1.214,0,0,0-.334.268,1.7,1.7,0,0,0-.264.34,2.268,2.268,0,0,0-.174.4,2.74,2.74,0,0,0-.081.427,2.238,2.238,0,0,0,0,.862,2.683,2.683,0,0,0,.084.426,2.247,2.247,0,0,0,.177.4,1.747,1.747,0,0,0,.244.357,1.254,1.254,0,0,0,.343.263.915.915,0,0,0,.419.083.9.9,0,0,0,.417-.089,1.24,1.24,0,0,0,.347-.258,1.747,1.747,0,0,0,.244-.357,2.26,2.26,0,0,0,.167-.4,2.634,2.634,0,0,0,.11-.42A3.109,3.109,0,0,0,855.918,296.122Z" transform="translate(-853.302 -294.15)"/></g></g><line y1="1.81" x2="4.219" transform="translate(17.507 35.976)" fill="red" stroke="#000" stroke-linecap="round" stroke-linejoin="round" stroke-miterlimit="10" stroke-width="2"/><path d="M832.927,323.2a24.426,24.426,0,0,0,6.65,9.345" transform="translate(-825.542 -279.957)" fill="none" stroke="#000" stroke-linecap="round" stroke-linejoin="round" stroke-miterlimit="10" stroke-width="2"/></g></g><g transform="translate(166.978 165.743)"><path d="M985.124,439.235c0,25.847-25.132,46.8-56.134,46.8s-56.134-20.953-56.134-46.8V414.218H985.123S985.124,437.287,985.124,439.235Z" transform="translate(-872.855 -361.925)" fill="#ede73b" stroke="#000" stroke-linecap="round" stroke-linejoin="round" stroke-miterlimit="10" stroke-width="2"/><circle cx="56.134" cy="56.134" r="56.134" fill="#ede73b" stroke="#000" stroke-linecap="round" stroke-linejoin="round" stroke-miterlimit="10" stroke-width="2"/><g transform="translate(16.471 16.471)"><circle cx="39.663" cy="39.663" r="39.663" fill="none" stroke="#000" stroke-linecap="round" stroke-linejoin="round" stroke-miterlimit="10" stroke-width="2"/></g><g transform="translate(12.474 91.414)"><line y2="15.31" fill="none" stroke="#000" stroke-linecap="round" stroke-linejoin="round" stroke-miterlimit="10" stroke-width="2"/><line y2="13.414" transform="translate(12.475 11.4)" fill="none" stroke="#000" stroke-linecap="round" stroke-linejoin="round" stroke-miterlimit="10" stroke-width="2"/><line y2="11.679" transform="translate(24.948 18.107)" fill="none" stroke="#000" stroke-linecap="round" stroke-linejoin="round" stroke-miterlimit="10" stroke-width="2"/><line y2="11.556" transform="translate(37.422 20.854)" fill="none" stroke="#000" stroke-linecap="round" stroke-linejoin="round" stroke-miterlimit="10" stroke-width="2"/><line y2="11.898" transform="translate(49.897 20.512)" fill="none" stroke="#000" stroke-linecap="round" stroke-linejoin="round" stroke-miterlimit="10" stroke-width="2"/><line y2="11.679" transform="translate(62.371 18.107)" fill="none" stroke="#000" stroke-linecap="round" stroke-linejoin="round" stroke-miterlimit="10" stroke-width="2"/><line y2="13.414" transform="translate(74.847 11.4)" fill="none" stroke="#000" stroke-linecap="round" stroke-linejoin="round" stroke-miterlimit="10" stroke-width="2"/><line y2="15.306" transform="translate(87.321 0.004)" fill="none" stroke="#000" stroke-linecap="round" stroke-linejoin="round" stroke-miterlimit="10" stroke-width="2"/></g><path d="M958.446,381.516c-4.628,1.112-9.132,3.8-11.2,8.085s-.906,10.235,3.267,12.523c3.252,1.783,7.3,1.054,10.865,2.063a12.355,12.355,0,0,1,8.5,12.751,13.68,13.68,0,0,1-10.406,11.586" transform="translate(-901.957 -348.958)" fill="none" stroke="#000" stroke-linecap="round" stroke-linejoin="round" stroke-miterlimit="10" stroke-width="2"/><path d="M917.078,419.1a24.766,24.766,0,0,0,7.307,18.255" transform="translate(-890.385 -363.858)" fill="none" stroke="#000" stroke-linecap="round" stroke-linejoin="round" stroke-miterlimit="10" stroke-width="2"/><path d="M930.2,341.366a33.686,33.686,0,0,0-20.506,13.214" transform="translate(-887.463 -333.037)" fill="none" stroke="#000" stroke-linecap="round" stroke-linejoin="round" stroke-miterlimit="10" stroke-width="2"/></g><g transform="translate(234.952 169.043)"><path d="M1007.01,452.664c8.991,10.279,23.859,13.374,37.291,11.685s25.982-7.43,38.624-12.34,26.074-9.1,39.514-7.476c6.038.729,11.874,2.614,17.667,4.489v-97.1c-5.793-1.875-11.63-3.76-17.667-4.489-13.44-1.623-26.872,2.566-39.514,7.476s-25.192,10.651-38.624,12.34-28.3-1.406-37.291-11.685Z" transform="translate(-994.024 -338.601)" fill="#47c3f1" stroke="#000" stroke-linecap="round" stroke-linejoin="round" stroke-miterlimit="10" stroke-width="2"/><path d="M1001.628,341.1a8.068,8.068,0,1,0-11.57,7.26V478.3h8.416V347.489A8.04,8.04,0,0,0,1001.628,341.1Z" transform="translate(-985.492 -333.033)" fill="#fff" stroke="#000" stroke-linecap="round" stroke-linejoin="round" stroke-miterlimit="10" stroke-width="2"/><g transform="translate(29.874 35.399)"><path d="M1116.556,391.691c-5.794,3.1-9.423,9.5-12.065,15.89s-4.678,13.2-8.654,18.724c-3.638,5.051-8.66,8.676-13.031,12.992s-8.3,9.854-8.566,16.255" transform="translate(-1050.556 -391.691)" fill="none" stroke="#000" stroke-linecap="round" stroke-linejoin="round" stroke-miterlimit="10" stroke-width="2"/><path d="M1082.855,414.319c-1.78,4.342-3.618,8.78-6.656,12.207-2.7,3.05-6.192,5.113-9.31,7.656s-6.023,5.871-6.687,10.038" transform="translate(-1044.989 -400.663)" fill="none" stroke="#000" stroke-linecap="round" stroke-linejoin="round" stroke-miterlimit="10" stroke-width="2"/><path d="M1172.892,417.981c-5.027,2.18-8.422,7.409-10.425,12.86s-2.9,11.3-4.624,16.864-4.511,11.068-9.147,14.1" transform="translate(-1080.079 -402.116)" fill="none" stroke="#000" stroke-linecap="round" stroke-linejoin="round" stroke-miterlimit="10" stroke-width="2"/><path d="M1186.757,452.592c-2.8,3.043-3.438,7.613-4.714,11.68a33.172,33.172,0,0,1-4.452,9.08" transform="translate(-1091.537 -415.839)" fill="none" stroke="#000" stroke-linecap="round" stroke-linejoin="round" stroke-miterlimit="10" stroke-width="2"/><path d="M1041.883,405.064a44.958,44.958,0,0,1-6.889,6.976" transform="translate(-1034.994 -396.994)" fill="none" stroke="#000" stroke-linecap="round" stroke-linejoin="round" stroke-miterlimit="10" stroke-width="2"/></g></g><line x2="3.824" y2="0.108" transform="translate(105.441 104.123)" fill="#ede73b" stroke="#000" stroke-linecap="round" stroke-linejoin="round" stroke-miterlimit="10" stroke-width="2"/></g><g transform="translate(219.982 90.836)"><g transform="translate(121.58)"><path d="M519.82,132.627H478.877a8.439,8.439,0,0,1-8.439-8.439h0a8.439,8.439,0,0,1,8.439-8.439H519.82a8.439,8.439,0,0,1,8.439,8.439h0A8.439,8.439,0,0,1,519.82,132.627Z" transform="translate(-470.438 -115.749)" fill="#f4f2ec" stroke="#000" stroke-linecap="round" stroke-linejoin="round" stroke-miterlimit="10" stroke-width="2"/><path d="M519.82,160.6H478.877a8.439,8.439,0,0,1-8.439-8.439h0a8.439,8.439,0,0,1,8.439-8.439H519.82a8.439,8.439,0,0,1,8.439,8.439h0A8.439,8.439,0,0,1,519.82,160.6Z" transform="translate(-470.438 -126.839)" fill="#f4f2ec" stroke="#000" stroke-linecap="round" stroke-linejoin="round" stroke-miterlimit="10" stroke-width="2"/><path d="M539.592,222.505h0A8.607,8.607,0,0,0,548.2,213.9V192.325a1.266,1.266,0,0,0-1.266-1.266H532.251a1.266,1.266,0,0,0-1.266,1.266V213.9A8.607,8.607,0,0,0,539.592,222.505Z" transform="translate(-494.446 -145.611)" fill="#f4f2ec" stroke="#000" stroke-linecap="round" stroke-linejoin="round" stroke-miterlimit="10" stroke-width="2"/><path d="M545.782,195.9l8.253,8.254V191.179h-8.253Z" transform="translate(-500.313 -145.658)" fill="#f4f2ec" stroke="#000" stroke-linecap="round" stroke-linejoin="round" stroke-miterlimit="10" stroke-width="2"/><path d="M519.82,188.565H478.877a8.439,8.439,0,0,1-8.439-8.439h0a8.439,8.439,0,0,1,8.439-8.439H519.82a8.439,8.439,0,0,1,8.439,8.439h0A8.439,8.439,0,0,1,519.82,188.565Z" transform="translate(-470.438 -137.93)" fill="#f4f2ec" stroke="#000" stroke-linecap="round" stroke-linejoin="round" stroke-miterlimit="10" stroke-width="2"/><path d="M475.2,176.8H472.51a8.4,8.4,0,0,0-2.072,5.527h0a8.4,8.4,0,0,0,2.072,5.527H475.2c4.148,0,7.51-2.475,7.51-5.527h0C482.707,179.278,479.345,176.8,475.2,176.8Z" transform="translate(-470.438 -139.959)" fill="#f4f2ec" stroke="#000" stroke-linecap="round" stroke-linejoin="round" stroke-miterlimit="10" stroke-width="2"/><path d="M475.2,148.543H472.51a8.4,8.4,0,0,0-2.072,5.527h0a8.4,8.4,0,0,0,2.072,5.527H475.2c4.148,0,7.51-2.475,7.51-5.527h0C482.707,151.017,479.345,148.543,475.2,148.543Z" transform="translate(-470.438 -128.752)" fill="#f4f2ec" stroke="#000" stroke-linecap="round" stroke-linejoin="round" stroke-miterlimit="10" stroke-width="2"/><path d="M475.2,120.574H472.51a8.4,8.4,0,0,0-2.072,5.527h0a8.4,8.4,0,0,0,2.072,5.527H475.2c4.148,0,7.51-2.475,7.51-5.527h0C482.707,123.049,479.345,120.574,475.2,120.574Z" transform="translate(-470.438 -117.662)" fill="#f4f2ec" stroke="#000" stroke-linecap="round" stroke-linejoin="round" stroke-miterlimit="10" stroke-width="2"/></g><path d="M569.733,247.778H548.174c-.658,0-1.317.019-1.973.075a52.194,52.194,0,0,0-2.419,103.722l-.014.425h5.256c.551.018,1.1.029,1.658.029s1.095-.011,1.639-.028l129.133.028C676.8,293.671,628.561,247.778,569.733,247.778Z" transform="translate(-360.007 -168.101)" fill="#ede73b" stroke="#000" stroke-linecap="round" stroke-linejoin="round" stroke-miterlimit="10" stroke-width="2"/><path d="M824,673.58V680.9l-.062.191v0c-4.428,0-4.261-3.447-8.689-3.447s-4.425,3.45-8.85,3.45-4.427-3.45-8.853-3.45-4.425,3.45-8.85,3.45-4.428-3.45-8.857-3.45-4.425,3.45-8.85,3.45-4.427-3.45-8.854-3.45-4.425,3.45-8.85,3.45-4.428-3.45-8.856-3.45-4.425,3.45-8.851,3.45-4.427-3.45-8.853-3.45-4.425,3.45-8.85,3.45V679.37l.4-5.789-.4,5.789a41.336,41.336,0,0,1,41.337-41.337h64.957l-.231,43.06" transform="translate(-446.97 -322.845)" fill="#fff" stroke="#000" stroke-linecap="round" stroke-linejoin="round" stroke-miterlimit="10" stroke-width="2"/><path d="M588.895,665.37l-5.055,15.722,13.844-43.06H519.114a41.337,41.337,0,0,0-41.337,41.337v1.725c4.425,0,4.425-3.45,8.85-3.45s4.427,3.45,8.853,3.45,4.425-3.45,8.851-3.45,4.428,3.45,8.857,3.45,4.425-3.45,8.85-3.45,4.427,3.45,8.853,3.45,4.425-3.45,8.851-3.45,4.428,3.45,8.857,3.45,4.425-3.45,8.85-3.45,4.427,3.45,8.853,3.45,4.425-3.45,8.85-3.45,4.261,3.447,8.69,3.447v0" transform="translate(-351.768 -322.844)" fill="#fff" stroke="#000" stroke-linecap="round" stroke-linejoin="round" stroke-miterlimit="10" stroke-width="2"/><path d="M536.115,640.12,547.5,654.409a4.12,4.12,0,1,0,6.443-5.136l-8.959-11.242h-3.044a41.6,41.6,0,0,0-6.595.53A4.056,4.056,0,0,0,536.115,640.12Z" transform="translate(-374.595 -322.844)" fill="#fff" stroke="#000" stroke-linecap="round" stroke-linejoin="round" stroke-miterlimit="10" stroke-width="2"/><path d="M650.688,655.7a11.217,11.217,0,0,1-9.18-6.625l.05.074a4.916,4.916,0,0,0-4.529-3h-2.141a8.117,8.117,0,0,1-8.117-8.117h29.993Z" transform="translate(-410.847 -322.844)" fill="#e0e0e0" stroke="#000" stroke-linecap="round" stroke-linejoin="round" stroke-miterlimit="10" stroke-width="2"/><path d="M580.016,638.032h-9.738a4.1,4.1,0,0,0,.866,2.089l11.388,14.289a4.12,4.12,0,1,0,6.444-5.136Z" transform="translate(-388.446 -322.844)" fill="#fff" stroke="#000" stroke-linecap="round" stroke-linejoin="round" stroke-miterlimit="10" stroke-width="2"/><path d="M479.808,690.332H587.89" transform="translate(-352.573 -343.582)" fill="#fff" stroke="#000" stroke-linecap="round" stroke-linejoin="round" stroke-miterlimit="10" stroke-width="2"/><path d="M562.41,638.032h-9.738a4.093,4.093,0,0,0,.866,2.089l11.388,14.289a4.12,4.12,0,1,0,6.443-5.136Z" transform="translate(-381.465 -322.844)" fill="#fff" stroke="#000" stroke-linecap="round" stroke-linejoin="round" stroke-miterlimit="10" stroke-width="2"/><path d="M756.771,539.922,698.978,420.53h-92.69L542.751,551.788h80.7l29.185-88.654,29.185,88.654Z" transform="translate(-377.531 -236.601)" fill="#47c3f1" stroke="#000" stroke-linecap="round" stroke-linejoin="round" stroke-miterlimit="10" stroke-width="2"/><rect width="1.223" transform="translate(154.659 205.708)" fill="none"/><g transform="translate(79.891 183.888)"><path d="M410.648,520.415A117.294,117.294,0,0,0,576.6,420.462l.184.01H505.259c-2.792,17.783-6.372,24.652-24.057,32.246-6.883-10.216-12.07-16.935-25.315-16.935a38.284,38.284,0,0,0-31.846,17c-.741-.155-8-.238-8.784-.238a11.16,11.16,0,0,0-4.18,21.509h0v.051c-5.419.766-9.572,6.3-9.572,11.929a12.266,12.266,0,0,0,9.353,11.54h0c-5.419.765-9.5,5.894-9.5,11.524,0,5.554,4.525,9.482,9.291,11.313" transform="translate(-401.357 -420.462)" fill="#fff2ed" stroke="#000" stroke-linecap="round" stroke-linejoin="round" stroke-miterlimit="10" stroke-width="2"/><path d="M415.713,508.674a50.432,50.432,0,0,0,20.9,3.727" transform="translate(-407.049 -455.44)" fill="none" stroke="#000" stroke-linecap="round" stroke-linejoin="round" stroke-miterlimit="10" stroke-width="2"/><path d="M416.8,548.2a51.847,51.847,0,0,0,19.366,3.119" transform="translate(-407.482 -471.111)" fill="none" stroke="#000" stroke-linecap="round" stroke-linejoin="round" stroke-miterlimit="10" stroke-width="2"/></g><circle cx="53.9" cy="53.9" r="53.9" transform="translate(20.082 72.32)" fill="#f4f2ec" stroke="#000" stroke-linecap="round" stroke-linejoin="round" stroke-miterlimit="10" stroke-width="2"/><rect width="90.096" height="20.692" transform="translate(165.22 294.496)" fill="#47c3f1" stroke="#000" stroke-linecap="round" stroke-linejoin="round" stroke-miterlimit="10" stroke-width="2"/><rect width="90.096" height="20.692" transform="translate(292.746 294.496)" fill="#47c3f1" stroke="#000" stroke-linecap="round" stroke-linejoin="round" stroke-miterlimit="10" stroke-width="2"/><g transform="translate(272.128 315.187)"><path d="M776.209,640.12,787.6,654.409a4.12,4.12,0,1,0,6.443-5.136l-8.959-11.242h-3.044a41.6,41.6,0,0,0-6.595.53A4.059,4.059,0,0,0,776.209,640.12Z" transform="translate(-741.925 -638.031)" fill="#fff" stroke="#000" stroke-linecap="round" stroke-linejoin="round" stroke-miterlimit="10" stroke-width="2"/><line x2="104.465" transform="translate(0 31.563)" fill="#e0e0e0" stroke="#000" stroke-linecap="round" stroke-linejoin="round" stroke-miterlimit="10" stroke-width="2"/><path d="M820.111,638.032h-9.738a4.1,4.1,0,0,0,.866,2.089l11.388,14.289a4.12,4.12,0,1,0,6.444-5.136Z" transform="translate(-755.776 -638.031)" fill="#fff" stroke="#000" stroke-linecap="round" stroke-linejoin="round" stroke-miterlimit="10" stroke-width="2"/><path d="M802.5,638.032h-9.738a4.1,4.1,0,0,0,.866,2.089l11.388,14.289a4.12,4.12,0,1,0,6.443-5.136Z" transform="translate(-748.795 -638.031)" fill="#fff" stroke="#000" stroke-linecap="round" stroke-linejoin="round" stroke-miterlimit="10" stroke-width="2"/><path d="M879.483,638.032H857.807a8.117,8.117,0,0,0,8.117,8.117h2.141a4.915,4.915,0,0,1,4.529,3l-.049-.074a11.239,11.239,0,0,0,6.939,6.177V638.032Z" transform="translate(-774.585 -638.031)" fill="#e0e0e0" stroke="#000" stroke-linecap="round" stroke-linejoin="round" stroke-miterlimit="10" stroke-width="2"/></g><line x2="25.241" y2="67.963" transform="translate(288.838 215.577)" fill="none" stroke="#000" stroke-linecap="round" stroke-linejoin="round" stroke-miterlimit="10" stroke-width="2"/><g transform="translate(46.348 90.45)"><ellipse cx="27.633" cy="35.173" rx="27.633" ry="35.173" transform="translate(0.001)" fill="#fff" stroke="#000" stroke-linecap="round" stroke-linejoin="round" stroke-miterlimit="10" stroke-width="2"/><path d="M375.666,304.5a52.256,52.256,0,0,0-12.873-34.407c-9.992,5.3-17.019,17.843-17.019,32.48,0,15.727,8.11,29.04,19.3,33.541A52.235,52.235,0,0,0,375.666,304.5Z" transform="translate(-345.774 -267.399)" stroke="#000" stroke-linecap="round" stroke-linejoin="round" stroke-miterlimit="10" stroke-width="2"/></g><g transform="translate(132.812 94.212)"><path d="M522.355,318.789H494.8a5.753,5.753,0,0,1-5.753-5.753V277.617a5.753,5.753,0,0,1,5.753-5.753h27.552a5.753,5.753,0,0,1,5.753,5.753v35.419A5.753,5.753,0,0,1,522.355,318.789Z" transform="translate(-489.049 -271.863)" fill="#fff2ed" stroke="#000" stroke-linecap="round" stroke-linejoin="round" stroke-miterlimit="10" stroke-width="2"/><ellipse cx="1.52" cy="3.186" rx="1.52" ry="3.186" transform="translate(18.009 14.287)" fill="#f4f2ec" stroke="#000" stroke-linecap="round" stroke-linejoin="round" stroke-miterlimit="10" stroke-width="2"/><ellipse cx="1.52" cy="3.186" rx="1.52" ry="3.186" transform="translate(9.751 14.287)" fill="#f4f2ec" stroke="#000" stroke-linecap="round" stroke-linejoin="round" stroke-miterlimit="10" stroke-width="2"/><path d="M545.782,309.609a8.116,8.116,0,1,0,3.16-15.592" transform="translate(-511.545 -280.648)" fill="#f4f2ec" stroke="#000" stroke-linecap="round" stroke-linejoin="round" stroke-miterlimit="10" stroke-width="2"/><path d="M522.306,271.863H494.85a5.8,5.8,0,0,0-5.8,5.8v1.113h29.519v9.534l4.717-2.44a8.094,8.094,0,0,1,3.161-.638h1.66v-7.567A5.8,5.8,0,0,0,522.306,271.863Z" transform="translate(-489.049 -271.863)" stroke="#000" stroke-linecap="round" stroke-linejoin="round" stroke-miterlimit="10" stroke-width="2"/><circle cx="1.978" cy="1.978" r="1.978" transform="translate(13.418 22.081)" fill="#f4f2ec" stroke="#000" stroke-linecap="round" stroke-linejoin="round" stroke-miterlimit="10" stroke-width="2"/><path d="M507.726,320.171s4.125,3.927,8.258,0" transform="translate(-496.455 -291.018)" fill="none" stroke="#000" stroke-linecap="round" stroke-linejoin="round" stroke-miterlimit="10" stroke-width="2"/></g><path d="M351.877,202.858a73.974,73.974,0,1,0,10.165,144.919l15.125,28.445a130.93,130.93,0,0,0,20.891-7.437l-15.846-29.8a73.972,73.972,0,0,0-30.336-136.128Zm41.5,79.56a50.791,50.791,0,1,1-44.294-56.547A50.792,50.792,0,0,1,393.375,282.419Z" transform="translate(-268.973 -150.072)" fill="#0abf53" stroke="#000" stroke-linecap="round" stroke-linejoin="round" stroke-miterlimit="10" stroke-width="2"/><line y1="9.257" x2="23.182" transform="translate(117.876 213.941)" fill="#0f775e" stroke="#000" stroke-linecap="round" stroke-linejoin="round" stroke-miterlimit="10" stroke-width="2"/><path d="M691.924,383.187l22.568,22.567H691.74Z" transform="translate(-436.608 -221.793)" stroke="#000" stroke-linecap="round" stroke-linejoin="round" stroke-miterlimit="10" stroke-width="2"/><line x1="8.023" y2="24.37" transform="translate(247.293 239.752)" fill="none" stroke="#000" stroke-linecap="round" stroke-linejoin="round" stroke-miterlimit="10" stroke-width="2"/><line y1="57.679" transform="translate(183.793 126.22)" stroke="#000" stroke-linecap="round" stroke-linejoin="round" stroke-miterlimit="10" stroke-width="2"/><line y1="53.9" transform="translate(255.316 126.22)" stroke="#000" stroke-linecap="round" stroke-linejoin="round" stroke-miterlimit="10" stroke-width="2"/><path d="M424.183,374.49a27.357,27.357,0,0,1-12.076,8.624" transform="translate(-325.728 -218.345)" fill="none" stroke="#000" stroke-linecap="round" stroke-linejoin="round" stroke-miterlimit="10" stroke-width="2"/><path d="M750.992,406.278l30.557.007A114.418,114.418,0,0,0,777.7,384.6Z" transform="translate(-460.103 -222.355)" fill="#fff2ed" stroke="#000" stroke-linecap="round" stroke-linejoin="round" stroke-miterlimit="10" stroke-width="2"/><path d="M705.394,339.477a34.229,34.229,0,0,0,6.325,24.285" transform="translate(-441.921 -204.462)" fill="none" stroke="#000" stroke-linecap="round" stroke-linejoin="round" stroke-miterlimit="10" stroke-width="2"/><line x1="17.33" y2="14.878" transform="translate(288.838 162.138)" fill="none" stroke="#000" stroke-linecap="round" stroke-linejoin="round" stroke-miterlimit="10" stroke-width="2"/><path d="M349.823,221.919A63.471,63.471,0,0,0,286.3,285.447" transform="translate(-275.841 -157.848)" fill="none" stroke="#000" stroke-linecap="round" stroke-linejoin="round" stroke-miterlimit="10" stroke-width="2"/><circle cx="1.958" cy="1.958" r="1.958" transform="translate(9.332 133.763)" stroke="#000" stroke-linecap="round" stroke-linejoin="round" stroke-miterlimit="10" stroke-width="2"/></g></g></svg>