<svg xmlns="http://www.w3.org/2000/svg" width="172.233" height="107.571" viewBox="0 0 172.233 107.571"><g transform="translate(-729.055 -114.712)"><g transform="translate(730.055 115.712)"><path d="M759.028,167.4l-28.973-29.627,2.251-19.383h37.461" transform="translate(-730.055 -116.718)" stroke="#000" stroke-linecap="round" stroke-linejoin="round" stroke-miterlimit="10" stroke-width="2"/><path d="M883.142,180.481l-56.749-62.09H787.18L776.44,167.4l46.566,46.952a9.677,9.677,0,0,0,15.629-2.736l2.737,2.736a9.7,9.7,0,0,0,16.358-4.917,9.694,9.694,0,0,0,12.7-.875h0a9.7,9.7,0,0,0,.564-13.094,9.7,9.7,0,0,0,12.152-14.986Z" transform="translate(-747.468 -116.718)" fill="#ede73b" stroke="#000" stroke-linecap="round" stroke-linejoin="round" stroke-miterlimit="10" stroke-width="2"/><path d="M793.635,118.391" transform="translate(-753.923 -116.718)" fill="#fc7ee4" stroke="#000" stroke-linecap="round" stroke-linejoin="round" stroke-miterlimit="10" stroke-width="2"/><line x1="31.659" y1="32.607" transform="translate(91.864 46.143)" fill="#ede73b" stroke="#000" stroke-linecap="round" stroke-linejoin="round" stroke-miterlimit="10" stroke-width="2"/><line x1="27.245" y1="28.06" transform="translate(82.953 64.781)" fill="#ede73b" stroke="#000" stroke-linecap="round" stroke-linejoin="round" stroke-miterlimit="10" stroke-width="2"/><line x1="21.197" y1="21.832" transform="translate(70.667 73.368)" fill="#ede73b" stroke="#000" stroke-linecap="round" stroke-linejoin="round" stroke-miterlimit="10" stroke-width="2"/><path d="M871.63,119.1h0a49.647,49.647,0,0,0-18.014-3.383h-4.551a29.292,29.292,0,0,0-16.746,5.259L818.064,130.7c-.05.033-.1.067-.148.1l-.24.164.007.011a13.556,13.556,0,0,0,15.166,22.462l.005.007.2-.129c.064-.042.127-.082.19-.126l12.934-8.551A13.687,13.687,0,0,1,863.1,146.1l.156.147,33.234,33.235,6.593-5.873V123.782h-6.517A68.771,68.771,0,0,1,871.63,119.1Z" transform="translate(-760.822 -115.712)" fill="#0abf53" stroke="#000" stroke-linecap="round" stroke-linejoin="round" stroke-miterlimit="10" stroke-width="2"/><path d="M819.517,135.928l4.424,5.006s12.466-6.455,8.749-14.129" transform="translate(-763.639 -119.876)" fill="none" stroke="#000" stroke-linecap="round" stroke-linejoin="round" stroke-miterlimit="10" stroke-width="2"/><path d="M957.826,128.629h27.966v25.5l-27.966,24.323" transform="translate(-815.559 -120.561)" fill="none" stroke="#000" stroke-linecap="round" stroke-linejoin="round" stroke-miterlimit="10" stroke-width="2"/><circle cx="10.905" cy="10.905" r="10.905" transform="translate(25.955 50.975)" fill="#0abf53" stroke="#000" stroke-linecap="round" stroke-linejoin="round" stroke-miterlimit="10" stroke-width="2"/><circle cx="10.905" cy="10.905" r="10.905" transform="translate(39.295 68.644)" fill="#0abf53" stroke="#000" stroke-linecap="round" stroke-linejoin="round" stroke-miterlimit="10" stroke-width="2"/><circle cx="10.905" cy="10.905" r="10.905" transform="translate(54.621 83.761)" fill="#0abf53" stroke="#000" stroke-linecap="round" stroke-linejoin="round" stroke-miterlimit="10" stroke-width="2"/></g><circle cx="3.855" cy="3.855" r="3.855" transform="translate(882.451 131.536)" stroke="#000" stroke-linecap="round" stroke-linejoin="round" stroke-miterlimit="10" stroke-width="2"/></g></svg>