<svg xmlns="http://www.w3.org/2000/svg" width="200" height="21.986" viewBox="0 0 200 21.986">
  <g id="Grupo_200" data-name="Grupo 200" transform="translate(-275.625 -277.954)">
    <path id="Caminho_191" data-name="Caminho 191" d="M291.494,280.62v2.786a.286.286,0,0,1-.3.3H279.229V289.4H289.1a.286.286,0,0,1,.3.3v2.786a.286.286,0,0,1-.3.3h-9.873v8.419a.286.286,0,0,1-.3.3h-3a.286.286,0,0,1-.3-.3V280.62a.286.286,0,0,1,.3-.3h15.263A.286.286,0,0,1,291.494,280.62Z" transform="translate(0 -1.969)" fill="#677b8c"/>
    <path id="Caminho_192" data-name="Caminho 192" d="M413.638,301.516h-3.3a.33.33,0,0,1-.348-.273c-.439-1.741-.969-3.574-1.575-5.421h-10.13c-.605,1.847-1.135,3.68-1.559,5.421a.33.33,0,0,1-.348.273H393.2c-.212,0-.333-.121-.273-.333a141,141,0,0,1,7.753-20.472.58.58,0,0,1,.591-.394h4.3a.58.58,0,0,1,.591.394,138.6,138.6,0,0,1,7.753,20.472C413.971,301.395,413.85,301.516,413.638,301.516Zm-6.345-8.964c-1.105-3.059-2.332-6.117-3.589-8.9h-.711c-1.257,2.786-2.5,5.845-3.6,8.9Z" transform="translate(-97.736 -1.969)" fill="#677b8c"/>
    <path id="Caminho_193" data-name="Caminho 193" d="M549.809,289.129c0-6.572,4.331-11.175,10.509-11.175h.454a9.43,9.43,0,0,1,8.465,4.815.268.268,0,0,1-.106.424l-2.665,1.317a.369.369,0,0,1-.53-.136,5.633,5.633,0,0,0-5.284-2.968H560.2c-3.891,0-6.572,3.089-6.572,7.571s2.635,7.51,6.572,7.51h.454a6.217,6.217,0,0,0,5.164-2.181.385.385,0,0,1,.5-.106l2.741,1.332a.252.252,0,0,1,.151.212.4.4,0,0,1-.091.227,9.9,9.9,0,0,1-8.4,3.967h-.454C553.973,299.94,549.809,295.625,549.809,289.129Z" transform="translate(-228.487)" fill="#677b8c"/>
    <path id="Caminho_194" data-name="Caminho 194" d="M728.572,298.427v2.786a.286.286,0,0,1-.3.3h-15.9a.286.286,0,0,1-.3-.3V280.62a.286.286,0,0,1,.3-.3H728a.286.286,0,0,1,.3.3v2.786a.286.286,0,0,1-.3.3H715.671v5.512h10.024a.286.286,0,0,1,.3.3v2.756a.286.286,0,0,1-.3.3H715.671v5.542h12.6A.286.286,0,0,1,728.572,298.427Z" transform="translate(-363.702 -1.969)" fill="#677b8c"/>
    <path id="Caminho_195" data-name="Caminho 195" d="M882.38,295.7c0,3.71-2.847,5.815-7.874,5.815H864.089a.286.286,0,0,1-.3-.3V280.62a.286.286,0,0,1,.3-.3h9.494c4.891,0,7.556,1.938,7.556,5.481a4.433,4.433,0,0,1-3.573,4.573C880.927,291.083,882.38,293.1,882.38,295.7Zm-8.873-12.083H867.39v5.693h6.117c2.741,0,4-.893,4-2.847S876.248,283.618,873.507,283.618Zm5.178,11.765c0-1.969-1.3-2.862-4.164-2.862H867.39v5.693h7.132C877.429,298.215,878.686,297.367,878.686,295.383Z" transform="translate(-490.134 -1.969)" fill="#677b8c"/>
    <path id="Caminho_196" data-name="Caminho 196" d="M1013.415,288.947c0-6.39,4.24-10.993,10.9-10.993h.454c6.663,0,10.9,4.6,10.9,10.993s-4.24,10.993-10.9,10.993h-.454C1017.655,299.94,1013.415,295.337,1013.415,288.947Zm11.356,7.541c4.346,0,7.086-2.983,7.086-7.541s-2.741-7.541-7.086-7.541h-.454c-4.346,0-7.086,2.983-7.086,7.541s2.741,7.541,7.086,7.541Z" transform="translate(-614.825)" fill="#677b8c"/>
    <path id="Caminho_197" data-name="Caminho 197" d="M1183.849,288.947c0-6.39,4.24-10.993,10.9-10.993h.454c6.662,0,10.9,4.6,10.9,10.993s-4.24,10.993-10.9,10.993h-.454C1188.089,299.94,1183.849,295.337,1183.849,288.947Zm11.356,7.541c4.346,0,7.086-2.983,7.086-7.541s-2.741-7.541-7.086-7.541h-.454c-4.346,0-7.086,2.983-7.086,7.541s2.74,7.541,7.086,7.541Z" transform="translate(-756.853)" fill="#677b8c"/>
    <path id="Caminho_198" data-name="Caminho 198" d="M1381.447,301.516h-3.907a.575.575,0,0,1-.53-.257,82.808,82.808,0,0,0-8.737-8.8h-1.756v8.752a.286.286,0,0,1-.3.3h-3a.286.286,0,0,1-.3-.3V280.62a.286.286,0,0,1,.3-.3h3a.286.286,0,0,1,.3.3v8.358h1.787a65.061,65.061,0,0,0,7.9-8.434.486.486,0,0,1,.454-.227h3.695c.182,0,.273.091.273.212a.375.375,0,0,1-.106.227,75.435,75.435,0,0,1-9.464,9.842,91.281,91.281,0,0,1,10.554,10.539C1381.78,301.334,1381.689,301.516,1381.447,301.516Z" transform="translate(-906.073 -1.969)" fill="#677b8c"/>
  </g>
</svg>
