<svg xmlns="http://www.w3.org/2000/svg" width="157.233" height="17.285" viewBox="0 0 157.233 17.285"><g transform="translate(-199.83 -383.475)"><path d="M212.306,386.075v2.19a.225.225,0,0,1-.238.238h-9.4v4.476h7.762a.225.225,0,0,1,.238.238v2.19a.225.225,0,0,1-.238.238h-7.762v6.619a.225.225,0,0,1-.238.238h-2.357a.225.225,0,0,1-.238-.238v-16.19a.225.225,0,0,1,.238-.238h12A.225.225,0,0,1,212.306,386.075Z" transform="translate(0 -2.052)" fill="rgba(103,123,140,0.7)"/><path d="M333.41,402.5h-2.6a.259.259,0,0,1-.274-.214c-.345-1.369-.762-2.809-1.238-4.262H321.34c-.476,1.452-.893,2.893-1.226,4.262a.259.259,0,0,1-.274.214h-2.5c-.167,0-.262-.1-.214-.262a110.866,110.866,0,0,1,6.095-16.094.456.456,0,0,1,.464-.31h3.381a.456.456,0,0,1,.464.31,108.989,108.989,0,0,1,6.1,16.094C333.672,402.408,333.577,402.5,333.41,402.5Zm-4.988-7.047c-.869-2.4-1.833-4.809-2.821-7h-.559c-.988,2.19-1.964,4.6-2.833,7Z" transform="translate(-101.916 -2.052)" fill="rgba(103,123,140,0.7)"/><path d="M474.014,392.26c0-5.167,3.4-8.785,8.262-8.785h.357a7.413,7.413,0,0,1,6.654,3.785.211.211,0,0,1-.083.333l-2.1,1.036a.29.29,0,0,1-.417-.107,4.428,4.428,0,0,0-4.154-2.333h-.357c-3.059,0-5.166,2.428-5.166,5.952s2.071,5.9,5.166,5.9h.357a4.888,4.888,0,0,0,4.059-1.714.3.3,0,0,1,.393-.083l2.155,1.048a.2.2,0,0,1,.119.167.314.314,0,0,1-.071.178,7.781,7.781,0,0,1-6.607,3.119h-.357C477.288,400.76,474.014,397.367,474.014,392.26Z" transform="translate(-238.258)" fill="rgba(103,123,140,0.7)"/><path d="M649.247,400.074v2.19a.225.225,0,0,1-.238.238h-12.5a.225.225,0,0,1-.238-.238v-16.19a.225.225,0,0,1,.238-.238h12.285a.225.225,0,0,1,.238.238v2.19a.225.225,0,0,1-.238.238h-9.69v4.333h7.881a.225.225,0,0,1,.238.238v2.167a.225.225,0,0,1-.238.238h-7.881v4.357h9.9A.225.225,0,0,1,649.247,400.074Z" transform="translate(-379.256 -2.052)" fill="rgba(103,123,140,0.7)"/><path d="M802.609,397.932c0,2.916-2.238,4.571-6.19,4.571h-8.19a.225.225,0,0,1-.238-.238v-16.19a.225.225,0,0,1,.238-.238h7.464c3.845,0,5.94,1.524,5.94,4.309a3.485,3.485,0,0,1-2.809,3.6C801.466,394.3,802.609,395.884,802.609,397.932Zm-6.976-9.5h-4.81v4.476h4.81c2.155,0,3.143-.7,3.143-2.238S797.788,388.432,795.634,388.432Zm4.071,9.249c0-1.548-1.024-2.25-3.274-2.25h-5.607v4.476h5.607C798.717,399.908,799.7,399.241,799.7,397.682Z" transform="translate(-511.096 -2.052)" fill="rgba(103,123,140,0.7)"/><path d="M937.62,392.117c0-5.024,3.333-8.642,8.571-8.642h.357c5.238,0,8.571,3.619,8.571,8.642s-3.333,8.642-8.571,8.642h-.357C940.953,400.76,937.62,397.141,937.62,392.117Zm8.928,5.928c3.417,0,5.571-2.345,5.571-5.928s-2.155-5.928-5.571-5.928h-.357c-3.416,0-5.571,2.345-5.571,5.928s2.155,5.928,5.571,5.928Z" transform="translate(-641.119)" fill="rgba(103,123,140,0.7)"/><path d="M1108.054,392.117c0-5.024,3.333-8.642,8.571-8.642h.357c5.238,0,8.571,3.619,8.571,8.642s-3.333,8.642-8.571,8.642h-.357C1111.387,400.76,1108.054,397.141,1108.054,392.117Zm8.928,5.928c3.416,0,5.571-2.345,5.571-5.928s-2.155-5.928-5.571-5.928h-.357c-3.417,0-5.571,2.345-5.571,5.928s2.155,5.928,5.571,5.928Z" transform="translate(-789.221)" fill="rgba(103,123,140,0.7)"/><path d="M1301.689,402.5h-3.071a.452.452,0,0,1-.417-.2,65.078,65.078,0,0,0-6.869-6.916h-1.381v6.881a.225.225,0,0,1-.238.238h-2.357a.225.225,0,0,1-.238-.238v-16.19a.225.225,0,0,1,.238-.238h2.357a.225.225,0,0,1,.238.238v6.571h1.4a51.148,51.148,0,0,0,6.214-6.631.382.382,0,0,1,.357-.178h2.9c.143,0,.214.071.214.167a.3.3,0,0,1-.083.178,59.311,59.311,0,0,1-7.44,7.738,71.746,71.746,0,0,1,8.3,8.285C1301.951,402.36,1301.879,402.5,1301.689,402.5Z" transform="translate(-944.823 -2.052)" fill="rgba(103,123,140,0.7)"/></g></svg>