<svg xmlns="http://www.w3.org/2000/svg" width="147" height="48.199" viewBox="0 0 147 48.199">
  <g id="Grupo_199" data-name="Grupo 199" transform="translate(-273.143 -148.329)">
    <g id="layer1" transform="translate(273.143 148.329)">
      <path id="path2998" d="M309.283,165.35H292.13v5.09h12.165c-.6,7.137-6.539,10.181-12.145,10.181a13.6,13.6,0,0,1,.016-27.188,13.2,13.2,0,0,1,9.171,3.678l3.564-3.691a18.119,18.119,0,0,0-12.917-5.092,18.7,18.7,0,1,0,.272,37.4c10.01,0,17.338-6.858,17.338-17a15.238,15.238,0,0,0-.311-3.376Z" transform="translate(-273.143 -148.329)" fill="#4285f4"/>
      <path id="path3000" d="M347.822,170.233a12.019,12.019,0,1,0,12.06,12.06c0-7.96-6.274-12.06-12.06-12.06Zm.07,4.721c3.461,0,6.741,2.8,6.741,7.307a6.949,6.949,0,0,1-6.757,7.292c-3.836,0-6.862-3.073-6.862-7.326a6.936,6.936,0,0,1,6.878-7.272Z" transform="translate(-297.63 -156.898)" fill="#ea4335"/>
      <path id="path3005" d="M390.984,170.233a12.019,12.019,0,1,0,12.06,12.06c0-7.96-6.274-12.06-12.06-12.06Zm.07,4.721c3.461,0,6.741,2.8,6.741,7.307a6.95,6.95,0,0,1-6.757,7.292c-3.836,0-6.862-3.073-6.862-7.326a6.937,6.937,0,0,1,6.878-7.272Z" transform="translate(-314.514 -156.898)" fill="#fbbc05"/>
      <path id="path3007" d="M433.667,170.254c-6.46,0-11.538,5.658-11.538,12.009a11.856,11.856,0,0,0,11.427,12.031,7.94,7.94,0,0,0,6.592-2.92v2.37c0,4.147-2.517,6.629-6.318,6.629a6.664,6.664,0,0,1-6.153-4.279l-4.619,1.931a11.563,11.563,0,0,0,10.81,7.078c6.423,0,11.318-4.046,11.318-12.531v-21.6h-5.039v2.036A8.5,8.5,0,0,0,433.667,170.254Zm.468,4.712c3.168,0,6.42,2.7,6.42,7.323,0,4.695-3.246,7.282-6.49,7.282-3.444,0-6.648-2.8-6.648-7.237,0-4.615,3.328-7.368,6.718-7.368Z" transform="translate(-331.424 -156.906)" fill="#4285f4"/>
      <path id="path3011" d="M489.6,170.207c-6.094,0-11.211,4.849-11.211,12a11.623,11.623,0,0,0,11.8,12.06A12.2,12.2,0,0,0,500.255,189l-4.155-2.765a6.725,6.725,0,0,1-5.888,3.308,6.181,6.181,0,0,1-5.895-3.643l16.116-6.687-.837-1.96a10.884,10.884,0,0,0-10-7.043Zm.21,4.622a4.791,4.791,0,0,1,4.447,2.567L483.5,181.9C483.032,178.413,486.331,174.829,489.811,174.829Z" transform="translate(-353.433 -156.887)" fill="#ea4335"/>
      <path id="path3015" d="M465.771,185.8h5.294V150.37h-5.294Z" transform="translate(-348.496 -149.127)" fill="#34a853"/>
    </g>
  </g>
</svg>
