<svg xmlns="http://www.w3.org/2000/svg" xmlns:xlink="http://www.w3.org/1999/xlink" width="140" height="39.687" viewBox="0 0 140 39.687">
  <defs>
    <clipPath id="clip-path">
      <rect id="Ret창ngulo_109" data-name="Ret창ngulo 109" width="140" height="39.687" fill="none"/>
    </clipPath>
    <clipPath id="clip-path-3">
      <rect id="Ret창ngulo_108" data-name="Ret창ngulo 108" width="37.406" height="39.063" fill="none"/>
    </clipPath>
  </defs>
  <g id="Grupo_210" data-name="Grupo 210" transform="translate(-794.258 -905.964)">
    <g id="Layer_2" data-name="Layer 2" transform="translate(794.258 905.964)">
      <g id="Outlines_-_Full_Color" data-name="Outlines - Full Color" transform="translate(0)">
        <g id="Grupo_209" data-name="Grupo 209">
          <g id="Grupo_208" data-name="Grupo 208" clip-path="url(#clip-path)">
            <g id="Grupo_207" data-name="Grupo 207">
              <path id="Caminho_200" data-name="Caminho 200" d="M809.42,933.434v11.194h-10.28V933.434h-4.881v26.721h4.881v-10.83h10.28v10.83H814.3V933.434Z" transform="translate(-794.259 -926.865)" fill="#33475b"/>
              <g id="Grupo_203" data-name="Grupo 203">
                <g id="Grupo_202" data-name="Grupo 202" clip-path="url(#clip-path)">
                  <g id="Grupo_201" data-name="Grupo 201" transform="translate(22.957 6.569)">
                    <path id="Caminho_201" data-name="Caminho 201" d="M902.964,972.639a4.038,4.038,0,0,1-8.076,0V961.194h-4.63v11.445a8.659,8.659,0,0,0,17.318,0V961.194h-4.613Z" transform="translate(-890.258 -954.556)" fill="#33475b"/>
                    <path id="Caminho_202" data-name="Caminho 202" d="M1069.184,941.251c0-2.346,1.552-3.09,3.252-3.09a6.939,6.939,0,0,1,4.364,2.308l3.032-3.573a9.553,9.553,0,0,0-7.1-3.463c-5.022,0-8.654,2.941-8.654,7.817,0,9.047,11.057,6.177,11.057,11.239a3.191,3.191,0,0,1-3.252,2.941c-2.738,0-3.625-1.339-4.883-2.755l-3.365,3.5a9.931,9.931,0,0,0,7.987,3.984c4.771,0,8.609-2.977,8.609-7.631,0-10.044-11.058-6.923-11.058-11.278" transform="translate(-1022.177 -933.434)" fill="#33475b"/>
                    <path id="Caminho_203" data-name="Caminho 203" d="M1346.775,962.263c-2.736,0-3.513-1.184-3.513-3v-8.023h4.252v-4.065h-4.252v-5.364l-4.694,2.107v16.343c0,4.18,2.884,6.287,6.839,6.287a9.489,9.489,0,0,0,1.851-.148l1.146-4.216c-.517.036-1.11.072-1.629.072" transform="translate(-1231.361 -939.81)" fill="#33475b"/>
                    <path id="Caminho_204" data-name="Caminho 204" d="M985.015,940.716a7.1,7.1,0,0,0-5.44,2.183v-8.8h-4.637v16.3c0,6.1,4.412,10.283,9.369,10.283a10.158,10.158,0,0,0,10.338-9.984,9.813,9.813,0,0,0-9.63-9.986m-.029,15.3a5.261,5.261,0,1,1,5.261-5.261,5.261,5.261,0,0,1-5.261,5.261" transform="translate(-954.688 -933.944)" fill="#33475b"/>
                    <path id="Caminho_205" data-name="Caminho 205" d="M1164.915,970.738a10.146,10.146,0,0,0-10.338-9.984c-4.957,0-9.369,4.18-9.369,10.283v16.311h4.637v-8.807a7.108,7.108,0,0,0,5.438,2.183,9.811,9.811,0,0,0,9.63-9.986m-4.388-.057a5.261,5.261,0,1,1-5.261-5.261,5.261,5.261,0,0,1,5.261,5.261" transform="translate(-1084.24 -954.221)" fill="#33475b"/>
                  </g>
                </g>
              </g>
              <g id="Grupo_206" data-name="Grupo 206" transform="translate(89.889 0.031)">
                <g id="Grupo_205" data-name="Grupo 205" clip-path="url(#clip-path-3)">
                  <g id="Grupo_204" data-name="Grupo 204" transform="translate(0.27 0.249)">
                    <path id="Caminho_206" data-name="Caminho 206" d="M1199.686,919.882v-4.611a3.548,3.548,0,0,0,2.047-3.2v-.108a3.556,3.556,0,0,0-3.546-3.546h-.108a3.556,3.556,0,0,0-3.546,3.546v.108a3.548,3.548,0,0,0,2.047,3.2v4.611a10.057,10.057,0,0,0-4.783,2.1l-12.66-9.85a4.032,4.032,0,1,0-1.885,2.461l12.447,9.69a10.087,10.087,0,0,0,.155,11.373l-3.788,3.788a3.246,3.246,0,0,0-.94-.153,3.288,3.288,0,1,0,3.288,3.288,3.231,3.231,0,0,0-.153-.94l3.747-3.747a10.1,10.1,0,1,0,7.676-18.014m-1.552,15.166a5.184,5.184,0,1,1,5.184-5.185,5.184,5.184,0,0,1-5.184,5.185" transform="translate(-1171.279 -907.134)" fill="#ff7a59"/>
                  </g>
                </g>
              </g>
            </g>
          </g>
        </g>
      </g>
    </g>
  </g>
</svg>
