<svg xmlns="http://www.w3.org/2000/svg" width="150" height="38.081" viewBox="0 0 150 38.081">
  <path id="Caminho_199" data-name="Caminho 199" d="M200.8,918.174h-32.46a2.811,2.811,0,0,0-2.811,2.811v32.459a2.811,2.811,0,0,0,2.811,2.811H200.8a2.811,2.811,0,0,0,2.811-2.811V920.985A2.811,2.811,0,0,0,200.8,918.174ZM176.88,950.616h-5.725V932.428h5.725Zm-2.863-20.708a3.287,3.287,0,1,1,3.3-3.286A3.241,3.241,0,0,1,174.017,929.908Zm23.969,20.721h-5.725V940.7c0-2.931-1.246-3.835-2.853-3.835-1.7,0-3.364,1.278-3.364,3.908v9.861h-5.725V932.443h5.506v2.52h.073a6.245,6.245,0,0,1,5.442-3.031c3.195,0,6.647,1.895,6.647,7.45Zm-125.3-18.2h5.727v18.187H72.682Zm6.165-5.806a3.3,3.3,0,1,1-3.3-3.288A3.242,3.242,0,0,1,78.847,926.622Zm-19.17,18.566H70.1v5.442H53.612V923.8h6.065Zm69.7-13.33a9.382,9.382,0,0,0-9.729,9.751c0,6.315,4.647,9.6,9.91,9.6a9.84,9.84,0,0,0,8.173-3.871l-3.992-2.564a4.867,4.867,0,0,1-4.031,1.833,4.354,4.354,0,0,1-4.414-2.874,2.343,2.343,0,0,1-.1-.558h13.187c.024-.219.036-.809.036-1.424C138.422,935.33,134.439,931.858,129.38,931.858Zm-4.182,7.6a3.768,3.768,0,0,1,4.033-3.47c2.494,0,3.687,1.538,3.687,3.47Zm28.98-5.076h-.073a7.382,7.382,0,0,0-5.553-2.447c-4.542,0-8.585,3.564-8.585,9.532,0,6.682,4.66,9.678,8.658,9.678a6.73,6.73,0,0,0,5.955-2.885h.073v2.374H159.9V923.8h-5.727Zm-4.129,11.8a4.409,4.409,0,0,1-4.442-4.711,4.365,4.365,0,0,1,4.442-4.638,4.524,4.524,0,0,1,4.517,4.675A4.578,4.578,0,0,1,150.049,946.174Zm-36.472-5.515,7.306,9.97h-7.115l-5.955-8.728H107.7v8.728h-5.727V923.8H107.7v16.015h.109l5.808-7.377h6.969Zm-14.431-1.278V950.63H93.419V940.7c0-2.931-1.246-3.835-2.854-3.835-1.7,0-3.365,1.279-3.365,3.908v9.861H81.473V932.442h5.507v2.52h.073a6.248,6.248,0,0,1,5.443-3.031C95.693,931.931,99.146,933.826,99.146,939.381Z" transform="translate(-53.612 -918.174)" fill="#0082be"/>
</svg>
