<svg xmlns="http://www.w3.org/2000/svg" width="171.033" height="16.935" viewBox="0 0 171.033 16.935"><g transform="translate(72.299 3.056)"><path d="M485.445,279.7h-15.3l-3.939,10.823h2.985l2.989-8.211h3.732a.5.5,0,0,1,.474.746l-2.717,7.464h2.986l2.717-7.464a1.181,1.181,0,0,1,1.018-.746h2.986a.5.5,0,0,1,.475.746l-2.717,7.464h2.986l3.124-8.584C487.693,280.7,486.888,279.7,485.445,279.7Z" transform="translate(-439.334 -279.702)" fill="#919eab"/><path d="M578.676,287.166a1.181,1.181,0,0,1-1.018.746h-3.732a.505.505,0,0,1-.475-.746l2.717-7.464h-2.986l-3.124,8.584c-.45,1.237.355,2.239,1.8,2.239h6.718a2.665,2.665,0,0,0,2.409-1.493l3.4-9.33h-2.986Z" transform="translate(-511.769 -279.702)" fill="#919eab"/><path d="M426.238,287.166l.272-.746h8.957l.951-2.613.679-1.866c.45-1.237-.355-2.239-1.8-2.239h-7.464a2.665,2.665,0,0,0-2.41,1.493h0l-2.581,7.091c-.45,1.237.354,2.239,1.8,2.239h9.33l.951-2.613h-8.211A.505.505,0,0,1,426.238,287.166Zm1.494-4.105a1.181,1.181,0,0,1,1.018-.746h4.478a.505.505,0,0,1,.475.746l-.272.747h-5.971Z" transform="translate(-408.967 -279.702)" fill="#919eab"/><path d="M666.392,279.7l-1.494,4.105h-5.225l1.494-4.105h-2.986l-3.939,10.823h2.986l1.494-4.105h5.225l-1.494,4.105h2.986l3.939-10.823h-2.986Z" transform="translate(-570.643 -279.702)" fill="#919eab"/><path d="M535.166,281.195l-3.4,9.331h2.986l2.717-7.464a1.182,1.182,0,0,1,1.018-.746h5.225l.951-2.613h-7.091A2.665,2.665,0,0,0,535.166,281.195Z" transform="translate(-485.119 -279.702)" fill="#919eab"/><path d="M380.53,281.195h0l-1.087,2.986c-.45,1.237.355,2.239,1.8,2.239h4.852a.505.505,0,0,1,.475.746h0a1.181,1.181,0,0,1-1.018.746h-7.464l-.951,2.613h9.33a2.666,2.666,0,0,0,2.41-1.493l1.087-2.986c.45-1.237-.355-2.24-1.8-2.24h-4.852a.505.505,0,0,1-.475-.746h0a1.181,1.181,0,0,1,1.018-.746h7.464l.951-2.613h-9.33A2.666,2.666,0,0,0,380.53,281.195Z" transform="translate(-377.134 -279.702)" fill="#919eab"/><path d="M614.34,281.195h0l-1.087,2.986c-.45,1.237.355,2.239,1.8,2.239H619.9a.505.505,0,0,1,.475.746h0a1.181,1.181,0,0,1-1.018.746H611.9l-.951,2.613h9.33a2.665,2.665,0,0,0,2.409-1.493l1.087-2.986c.45-1.237-.354-2.24-1.8-2.24h-4.852a.505.505,0,0,1-.475-.746h0a1.181,1.181,0,0,1,1.018-.746h7.464l.951-2.613h-9.33A2.665,2.665,0,0,0,614.34,281.195Z" transform="translate(-540.407 -279.702)" fill="#919eab"/></g><g transform="translate(0 0)"><path d="M200.9,272.1c-2.121-2.219-5.024-2.969-8.71-2.284a45.84,45.84,0,0,1-8.332,1.119,16.9,16.9,0,0,1-4.271-.736,5.481,5.481,0,0,0,2.763,2.169c1.044.389,2.506.985,1.86,1.99-.731,1.137-1.856.182-2.16-.064a25.428,25.428,0,0,0-3.443-2.509c-2.085-1.226-4.984-1.251-7.9-.965a8.469,8.469,0,0,1,3.453,1.578s-4.62-.941-7.617.524a50.753,50.753,0,0,1,10.006,1.222c.821.364.416.657-.375.825a19.305,19.305,0,0,1-7.77-.078c-3.218-.92-5.932-3.6-10.528-2.877,4.06.853,6.219,4.654,10.645,5.557s7.4-.862,8.408-1.1,1.9.094,2.131.78-.653,1.548-1.856,1.766c-.905.163-1.2.187-2.825.354a20.891,20.891,0,0,1-7.978-.656c-4.137-1.1-6.978-3.807-8.339-4.531a12.446,12.446,0,0,0-4.045-1.24,9.033,9.033,0,0,1,3.08,2.6,15.757,15.757,0,0,0-8.792-.429,63.219,63.219,0,0,0-10.828,3.24c2.43.722,5.5.174,6.829.065,7.246-.591,9.671,1,11.951,1.817,7.056,2.514,9.488.252,9.967.993.344.532-1.919,1.466-2.539,1.581-3.179.593-4.724.029-7.681-.681a10.176,10.176,0,0,0,7.411,2.382,28.492,28.492,0,0,0,9.326-1.8,48.715,48.715,0,0,1,5.957-2.192c.625-.17,2.823-.755,3.283-.148.258.341-.166.632-.865.929-.545.231-1.257.466-1.943.73a28.983,28.983,0,0,0-5.419,2.451,62.182,62.182,0,0,1,8.156-.631,25.591,25.591,0,0,1,9.819,1.99,8.121,8.121,0,0,0,8.548-1.24,7.892,7.892,0,0,0,3.164-6.459A8.549,8.549,0,0,0,200.9,272.1Zm-5.709,12.836a6.851,6.851,0,1,1,6.851-6.851A6.851,6.851,0,0,1,195.194,284.939Z" transform="translate(-137.483 -269.574)" fill="#919eab"/><path d="M316.246,279.847a5.415,5.415,0,1,0,5.415,5.414A5.414,5.414,0,0,0,316.246,279.847Zm2.517,9a4.518,4.518,0,0,0-2.695-7.24,6.376,6.376,0,0,1,.655-.764,4.517,4.517,0,0,1,2.04,8Z" transform="translate(-258.536 -276.748)" fill="#919eab"/></g></svg>