<svg xmlns="http://www.w3.org/2000/svg" width="206.34" height="27.497" viewBox="0 0 206.34 27.497">
  <g id="Grupo_212" data-name="Grupo 212" transform="translate(-124.047 -539.513)">
    <g id="Grupo_211" data-name="Grupo 211" transform="translate(178.056 543.932)">
      <path id="Caminho_207" data-name="Caminho 207" d="M856.473,573.712c0-3.38-2.077-5.83-6.055-5.83h-12.86V585.4h4.228v-5.98h5l4.9,5.98h4.765v-.386l-4.765-5.693A5.594,5.594,0,0,0,856.473,573.712Zm-6.53,2.167h-8.157V571.51h8.157c1.508,0,2.477.8,2.477,2.19C852.42,575.109,851.485,575.879,849.943,575.879Z" transform="translate(-768.018 -567.389)"/>
      <path id="Caminho_208" data-name="Caminho 208" d="M1225.489,567.882h-3.953v6.64h-10.659v-6.64H1206.6V585.4h4.279v-6.9h10.659v6.9h3.953Z" transform="translate(-1073.157 -567.388)"/>
      <path id="Caminho_209" data-name="Caminho 209" d="M689.956,567.882l-4.7,14.737h-.257l-4.729-14.737h-7.531V585.4h4.028V571.009h.25l4.7,14.387H688.2l4.729-14.387h.25V585.4h4.153V567.882Z" transform="translate(-631.735 -567.388)"/>
      <path id="Caminho_210" data-name="Caminho 210" d="M448.157,572.693c-1.494-.155-4.28-.411-5.774-.564-1.471-.15-2.32-.587-2.32-1.558,0-.931.9-1.717,4.542-1.717a20.08,20.08,0,0,1,8.764,1.936v-3.92a20.19,20.19,0,0,0-8.982-1.836c-4.982,0-8.432,2.082-8.432,5.605,0,2.981,2.023,4.61,6.085,5.053,1.47.16,3.969.381,5.713.525,1.9.157,2.464.737,2.464,1.6,0,1.188-1.331,1.925-4.7,1.925a18.191,18.191,0,0,1-9.382-2.693v4.033a17.513,17.513,0,0,0,9.255,2.456c5.442,0,8.935-2.1,8.935-5.857C454.319,574.857,452.455,573.14,448.157,572.693Z" transform="translate(-435.954 -565.033)"/>
      <path id="Caminho_211" data-name="Caminho 211" d="M558.006,567.882V585.4h16.338v-3.578h-12.31v-3.553h12.1v-3.553h-12.1V571.46h12.31v-3.578Z" transform="translate(-536.872 -567.388)"/>
      <path id="Caminho_212" data-name="Caminho 212" d="M1097.861,572.693c-1.494-.155-4.28-.411-5.774-.564-1.47-.15-2.32-.587-2.32-1.558,0-.931.9-1.717,4.542-1.717a20.08,20.08,0,0,1,8.763,1.936v-3.92a20.19,20.19,0,0,0-8.981-1.836c-4.982,0-8.432,2.082-8.432,5.605,0,2.981,2.023,4.61,6.085,5.053,1.469.16,3.969.381,5.713.525,1.9.157,2.464.737,2.464,1.6,0,1.188-1.331,1.925-4.7,1.925a18.192,18.192,0,0,1-9.382-2.693v4.033a17.513,17.513,0,0,0,9.255,2.456c5.442,0,8.935-2.1,8.935-5.857C1104.023,574.857,1102.159,573.14,1097.861,572.693Z" transform="translate(-973.158 -565.033)"/>
      <path id="Caminho_213" data-name="Caminho 213" d="M975.2,567.882v8.966c0,3.4-2.064,5.263-5.167,5.263-3.12,0-5.167-1.837-5.167-5.315v-8.914h-4.2V576.4c0,6.36,3.973,9.5,9.433,9.5,5.251,0,9.307-3.017,9.307-9.291v-8.724Z" transform="translate(-869.81 -567.389)"/>
    </g>
    <path id="Caminho_214" data-name="Caminho 214" d="M163.568,553.081c0,.854-.427.985-1.511.985-1.15,0-1.347-.2-1.478-1.051a4.528,4.528,0,0,0-4.205-4.271c-.788-.066-.986-.361-.986-1.347,0-.92.131-1.347.854-1.347A7.21,7.21,0,0,1,163.568,553.081Zm6.308,0c0-6.6-4.468-13.568-14.783-13.568H134.586c-.413,0-.67.216-.67.594a.7.7,0,0,0,.294.5,20.069,20.069,0,0,0,3.315,1.974c1.423.711,2.523,1.173,3.639,1.628.46.188.644.392.644.664,0,.356-.251.584-.77.584H124.761a.64.64,0,0,0-.714.624.973.973,0,0,0,.32.715,34.485,34.485,0,0,0,6.491,4.961,95.384,95.384,0,0,0,8.653,4.763c.443.212.6.459.586.713-.013.295-.244.543-.757.543h-7.46c-.424,0-.659.224-.659.566a.97.97,0,0,0,.356.616,29.3,29.3,0,0,0,8.026,4.762,38.057,38.057,0,0,0,15.244,3.289C165.294,567.01,169.875,559.191,169.875,553.081Zm-13.634,9.363a9.3,9.3,0,1,1,0-18.594,9.3,9.3,0,1,1,0,18.594Z" fill="#ff642d"/>
  </g>
</svg>
